<svg xmlns="http://www.w3.org/2000/svg" xmlns:xlink="http://www.w3.org/1999/xlink" width="1916.356" height="747.301" viewBox="0 0 1916.356 747.301">
  <defs>
    <clipPath id="clip-path">
      <rect id="Rectangle_56" data-name="Rectangle 56" width="1916.356" height="295.495" fill="none"/>
    </clipPath>
  </defs>
  <g id="Group_170" data-name="Group 170" transform="translate(2629.178 -1252.756)">
    <rect id="Rectangle_172" data-name="Rectangle 172" width="1916.356" height="426.336" transform="translate(-2629.178 1573.721)" fill="#fcfcfc"/>
    <path id="Path_1003" data-name="Path 1003" d="M67.948,1503.764c1.645,1.049,6.712,8.14,8.939,10.157a50.577,50.577,0,0,0,12.161,8.731,51.409,51.409,0,0,0,69.422-23.769c2.809-5.838,2.906-10.4,4.761-15.3.767-23.743-5.058-33.36-17.18-45.2-10.337-10.093-28.368-15.9-46.722-11.324-16.5,4.115-26.847,14.513-33.39,27.465-9.739,19.281-4.311,32.446,2.01,49.236m36.584-73.841c28.258-4.772,50.494,15.552,54.527,38.9,4.893,28.326-15.666,51.153-39.372,54.96-28.1,4.511-50.392-15.809-54.393-39.05C60.356,1456.068,80.786,1433.935,104.532,1429.924Z" transform="translate(-2604.15 265.845)" fill="#dbedc7" fill-rule="evenodd"/>
    <path id="Path_1004" data-name="Path 1004" d="M100.778,1435.294c-18.934,3.773-35.062,22.3-30.24,45.626,3.8,18.39,22.279,34.547,45.341,29.976,49.895-9.891,35.116-85.6-15.1-75.6m-27.033,42.029a34.894,34.894,0,1,1,69.314-8.1C147.712,1515.294,79.038,1521.9,73.745,1477.323Z" transform="translate(-2600.35 269.582)" fill="#dbedc7" fill-rule="evenodd"/>
    <path id="Path_1005" data-name="Path 1005" d="M88.78,1469.743l1.894,2.755,9.624,4.885.088,9.359c3.759-1.259,3.288-1.259,1.623-9.635l8.794-6.032,9.054,4.144c-.429-2.964-.579-3.161-3.237-4.381l-4.767-1.3c1.356-4.433.749-5.837-.437-10.154-6.865-10.753-25.116-8.469-22.636,10.364m8.936-12.462c10.8-3.606,15.975,13.025,4.95,16.063C92.178,1476.235,87.795,1460.593,97.716,1457.282Z" transform="translate(-2592.432 277.372)" fill="#dbedc7" fill-rule="evenodd"/>
    <path id="Path_1006" data-name="Path 1006" d="M77.725,1475.452c6.428,1.279,10.152-9.686,1.427-4.287-5.525,3.418-1.441,4.263-1.427,4.287" transform="translate(-2597.588 284.38)" fill="#dbedc7" fill-rule="evenodd"/>
    <path id="Path_1007" data-name="Path 1007" d="M89.186,1486.38c2.958-.446,3.069-.806,4.217-3.955,1.136-3.122,1.208-3.266-1.986-4.254-1.769,2.271-3.965,5.232-2.231,8.209" transform="translate(-2592.43 287.951)" fill="#dbedc7" fill-rule="evenodd"/>
    <path id="Path_1008" data-name="Path 1008" d="M92.49,1447.041c.845-2.562-2.439-9.261-4.981-6.794-1.9,1.844,2.1,6.7,2.714,7,3.21,1.559,2.058-.118,2.267-.2" transform="translate(-2593.081 271.816)" fill="#dbedc7" fill-rule="evenodd"/>
    <path id="Path_1009" data-name="Path 1009" d="M104.658,1459.134l3.2.114c3.726-3.154,4.122-.607,4.453-5.627-3.208-.419-4.6.863-7.567,2.943Z" transform="translate(-2585.674 277.618)" fill="#dbedc7" fill-rule="evenodd"/>
    <path id="Path_1010" data-name="Path 1010" d="M114.252,1466.077c4.841.866,4.655.436,8.838-1.364-1.146-2.193-.167-2.7-5-2.307-4.087.332-3.3.51-3.837,3.671" transform="translate(-2581.649 281.286)" fill="#dbedc7" fill-rule="evenodd"/>
    <path id="Path_1011" data-name="Path 1011" d="M99.332,1478.859c-3.21.62-3.208.579-2.765,5.275.356,3.785.484,3.482,3,3.078,1.181-3.266,1.356-5.368-.237-8.353" transform="translate(-2589.156 288.239)" fill="#dbedc7" fill-rule="evenodd"/>
    <path id="Path_1012" data-name="Path 1012" d="M109.892,1450.857c1.77-.354,1.571-.38,3.16-3.1,2.67-4.565-.253-7.16-3.583-1.677-2.39,3.935-1.976,2.917.423,4.774" transform="translate(-2584.326 273.191)" fill="#dbedc7" fill-rule="evenodd"/>
    <path id="Path_1013" data-name="Path 1013" d="M81.635,1481.234c.034.023.426,4.019,4.274-1.322,1.827-2.537,1.32-2.489.551-5.139-2.98-.731-5.205,4.283-4.825,6.46" transform="translate(-2595.351 286.495)" fill="#dbedc7" fill-rule="evenodd"/>
    <path id="Path_1014" data-name="Path 1014" d="M82.174,1443.512c-1.483,1.83-1.845,1.415-.395,3.918.759,1.31,2.251,4.007,3.965,3.841,4.014-.389-.314-6.506-3.57-7.759" transform="translate(-2595.659 273.41)" fill="#dbedc7" fill-rule="evenodd"/>
    <path id="Path_1015" data-name="Path 1015" d="M101.553,1447.019c3.733-.05,2.378.822,4.125-2.329,1.438-2.592,1.039-2.873.711-5.153-3.393-.832-4.912,3.415-4.836,7.482" transform="translate(-2586.978 271.699)" fill="#dbedc7" fill-rule="evenodd"/>
    <path id="Path_1016" data-name="Path 1016" d="M73.66,1466.719c3.868.989,4.674,1.147,8.195-.585.37-2.535-.646-2.7-3.918-2.716s-4.4.081-4.277,3.3" transform="translate(-2598.682 281.761)" fill="#dbedc7" fill-rule="evenodd"/>
    <path id="Path_1017" data-name="Path 1017" d="M73.554,1460.347c1.678,1.222.406,1.116,3.5,1.286,4.158.233,7.816-3.249,1.851-3.906-3.677-.4-5.389-.437-5.349,2.62" transform="translate(-2598.723 279.293)" fill="#dbedc7" fill-rule="evenodd"/>
    <path id="Path_1018" data-name="Path 1018" d="M112.526,1469.282c.294,3.214-.169,2.293,2.747,3.624,2.027.927,2.444,1.222,4.96.567-.033-3.689-4.717-5.856-7.707-4.191" transform="translate(-2582.373 283.983)" fill="#dbedc7" fill-rule="evenodd"/>
    <path id="Path_1019" data-name="Path 1019" d="M114.294,1459.8c3.926,2.5,4.6,1.358,8.521-.909-1.872-2.775-8.015-3.458-8.521.909" transform="translate(-2581.631 278.93)" fill="#dbedc7" fill-rule="evenodd"/>
    <path id="Path_1020" data-name="Path 1020" d="M97.336,1446.742c.761-1.069.7-.176,1.065-1.987.6-2.957-.24-3.427-1.975-6.526-2.182,1.6-1.984.877-1.817,4.808.183,4.352.389,3.177,2.727,3.7" transform="translate(-2589.929 271.194)" fill="#dbedc7" fill-rule="evenodd"/>
    <path id="Path_1021" data-name="Path 1021" d="M90.779,1468.681l.344-2.642-2.725.08c-3.325,1.148-5.1,1.052-4.318,4.726,3.038.623,3.8-.466,6.7-2.163" transform="translate(-2594.384 282.861)" fill="#dbedc7" fill-rule="evenodd"/>
    <path id="Path_1022" data-name="Path 1022" d="M97.246,1455.273c3.8-3,1.569-5.224-.91-8.629-2.026,2.84-2.557,6.32.91,8.629" transform="translate(-2589.839 274.724)" fill="#dbedc7" fill-rule="evenodd"/>
    <path id="Path_1023" data-name="Path 1023" d="M90.734,1459.3c.193-.8,1.649,1.466.159-2.026-1.058-2.477-3.635-2.112-7.464-2.549.22,3.742,4.87,4.914,7.3,4.575" transform="translate(-2594.58 278.116)" fill="#dbedc7" fill-rule="evenodd"/>
    <path id="Path_1024" data-name="Path 1024" d="M104.19,1483.359c1.516,2.461.731,2.257,4.442,2.16l-4.518-7.6c-.145.145-3.6-.53.077,5.444" transform="translate(-2586.578 287.843)" fill="#dbedc7" fill-rule="evenodd"/>
    <path id="Path_1025" data-name="Path 1025" d="M114.578,1481.347l-4.741-7.467c-1.9,2.471-1.023,4.422,1.647,6.7,1.706,1.458-1.045,1.217,3.095.765" transform="translate(-2583.929 286.15)" fill="#dbedc7" fill-rule="evenodd"/>
    <path id="Path_1026" data-name="Path 1026" d="M112.008,1454.691l7.125-4.4c-1.746-1.187,1.956-.923-1.806-.826a4.593,4.593,0,0,0-2.511.9c-2.67,1.429-2.907,1.381-2.808,4.331" transform="translate(-2582.598 275.867)" fill="#dbedc7" fill-rule="evenodd"/>
    <path id="Path_1027" data-name="Path 1027" d="M83.612,1455.291l-7.522-4.675c.221,5.14,5.214,5.653,7.522,4.675" transform="translate(-2597.659 276.391)" fill="#dbedc7" fill-rule="evenodd"/>
    <path id="Path_1028" data-name="Path 1028" d="M87.067,1466.646l2.725-.08-.345,2.642,1.848-1.67-1.894-2.756Z" transform="translate(-2593.054 282.334)" fill="#dbedc7" fill-rule="evenodd"/>
    <path id="Path_1029" data-name="Path 1029" d="M16.131,1501.212c.843-7.839,6.52-24.024,14.319-29.337,2.846-1.937,5.252,2.229,11.572,9,4.761,5.1,54.241,56.9,55.911,59.884-4.355,8.334-20.089,12.736-25.757,13.788-29.347,5.451-59.7-19.379-56.044-53.337m17,34.869a42.572,42.572,0,0,1-11.383-28.869c-.03-19.1,11.008-26.258,12-30.87l-1.784-1.306c-12.523,8.489-16.218,32.3-9.762,48.979,9.85,25.452,42.248,36.448,66.472,21.151a35.78,35.78,0,0,0,3.88-2.736c1.956-1.885,1.6-.619.941-2.88l-14.011,7.5C65.871,1553.135,45.37,1549.188,33.128,1536.081Zm14.56,6.939c14.862,6.889,36.6,2.778,42.725-6.317L44.45,1487.9c-2.88-3.063-7.149-8.831-9-7.929-5.539,2.693-9.871,18.245-10.4,23.032C23.617,1516.025,29.06,1534.388,47.688,1543.02Z" transform="translate(-2622.939 285.109)" fill="#dbedc7" fill-rule="evenodd"/>
    <path id="Path_1045" data-name="Path 1045" d="M40.622,1497.561c-.917,2.922-8.3,3.829-8.682,1.35-.388-2.5,6.817-3.769,8.682-1.35" transform="translate(-2616.187 295.542)" fill="#dbedc7" fill-rule="evenodd"/>
    <path id="Path_1046" data-name="Path 1046" d="M59.513,1517.094c-2.541-1.207-5.022-5.743-3.35-8.493,2.652.454,2.091,1.122,3.239,3.628,1.173,2.557,2.185,2.511.111,4.865" transform="translate(-2606.247 300.717)" fill="#dbedc7" fill-rule="evenodd"/>
    <path id="Path_1047" data-name="Path 1047" d="M48.791,1507.962c2.975,2.168,1.313,4.222-1,9.322-2.21-2.23-1.843-1.456-1.082-4.858.432-1.929.353-3.342,2.077-4.464" transform="translate(-2610.23 300.449)" fill="#dbedc7" fill-rule="evenodd"/>
    <path id="Path_1030" data-name="Path 1030" d="M40.427,1490.958c-2.626,1.631-3.417.19-8.3-3.72,2.223-2.612,8.11.918,8.3,3.72" transform="translate(-2616.104 291.371)" fill="#dbedc7" fill-rule="evenodd"/>
    <path id="Path_1048" data-name="Path 1048" d="M43.426,1505c-.474,4.5-4.288,4.8-7.159,5.418.694-2.432.934-2.338,2.972-4.226,2.6-2.4,1.826-2.246,4.186-1.192" transform="translate(-2614.366 298.902)" fill="#dbedc7" fill-rule="evenodd"/>
    <path id="Path_1049" data-name="Path 1049" d="M1279.432,1475.527c-49.258-10.037-33.485-82.257,14.261-72.814,17.681,3.5,33.576,21.131,29.14,43.614-3.579,18.135-21.189,33.728-43.4,29.2m-10.479-7.468c6.159,3.658,21.516,8.337,31.941.857l-5.291-10.064c-2.855-5.235-3.214-7.7-6.425-8.243-2.185,4.665-1.341,2.159-1.607,6.565-.29,4.748.464,4.44-3,5.174-.544-4.51-.395-10.039-1.75-11.958C1278.259,1455.032,1270.8,1461.972,1268.953,1468.059Zm36.935-16.024c-3.921.921-16.136-11.368-10.266-.62,1.9,3.481,6.969,12.928,9,15.243,7.952-7.769,14.962-12.351,14.965-25.378l-21.609-.183C1305.162,1450.6,1306.945,1448.2,1305.887,1452.036Zm-52.676-10.835c-.072,10.683,6.907,19.869,12.353,23.695,2.781-3.736,11.846-14.414,11.651-18.677l-12.3,2.717c7.181-6.385,8.738-4.991,9.745-7.985Zm30.4,5.346c10.248,4.084,14.784-11.5,5.611-14.912C1279.7,1428.085,1273.215,1442.4,1283.615,1446.546Zm14.229-10.327a3.963,3.963,0,0,0,.747.328q10.6.241,21.189.479a39.086,39.086,0,0,0-12.436-23.534l-12.248,17.744,12.9-2.214c-6.746,6.173-2.657,2.786-7.76,5.543Zm-29.245-24.681c-8.09,2.8-14.465,13.722-15.608,25.578,4.185.075,18.607,1.62,21.765-1.175-7.266-9.549-7.759-5.215-8.3-10.7l12.091,5.6Zm2.9-2.806c1.035,3.678,3.687,7.1,5.6,10.483,3.62,6.4,1.5,4.24,7.274,8.355l2.084-11.822,3.634,12.177c3.536-.067,1.559,1.189,7.569-7.751,3.246-4.828,3.516-4.349,6.06-9.387C1290.813,1402,1280.417,1406.818,1271.5,1408.732Z" transform="translate(-2105.458 255.938)" fill="#dbedc7" fill-rule="evenodd"/>
    <path id="Path_1050" data-name="Path 1050" d="M1241.183,1435.284c3.434-24.406,27.209-46.166,56.635-41.339,24.216,3.972,45.693,26.779,41.027,56.5-3.845,24.49-26.751,45.544-56.053,41.2a49.5,49.5,0,0,1-41.609-56.359m3.79,0c-4.356,27.323,15.4,49.116,37.967,52.575,27.39,4.2,48.8-15.581,52.213-38.287,4.09-27.238-15.5-48.478-38.249-51.972C1269.793,1393.438,1248.5,1413.189,1244.973,1435.284Z" transform="translate(-2109.096 252.332)" fill="#dbedc7" fill-rule="evenodd"/>
    <path id="Path_1073" data-name="Path 1073" d="M1334.932,1419.7a19.771,19.771,0,0,0,23.655,1.793,18.1,18.1,0,0,1,3.9,3.822c6.3,8.114,5.735-2.138-1.3-5.227,7.336-8.585,5.721-19.689-2.319-28.778-4.141-4.682,1.429-6.533-2.437-18.883-4.277-13.653-19.425-26.328-38.207-21.758-26.944,6.555-32.738,40.98-12.557,56.268,7.9,5.985,12.387,6.929,24.05,7.032Zm-3.735-9.007c-12.1.067-18.319-1.262-25.423-7.576-22.1-19.642-.5-61.455,31.584-47.773,12.218,5.211,19.315,18.178,16.8,32.081-1.153,6.375,1.082,2.611,5.438,9.824,8.7,14.408-3.589,30.562-19.73,21.936C1334.518,1416.323,1334.752,1414.523,1331.2,1410.69Z" transform="translate(-2086.879 234.061)" fill="#dbedc7" fill-rule="evenodd"/>
    <path id="Path_1074" data-name="Path 1074" d="M1310.56,1364.627c3.207.362,6.111-3.861,13.307-2.294,2.126.461,7.491,3.661,10.98,5.3-.608-5.069-10.443-10.9-19.626-7.877-1.316.432-4.129,1.648-4.659,2.774l-.126,1.53a2.347,2.347,0,0,0,.125.565" transform="translate(-2079.822 237.926)" fill="#dbedc7" fill-rule="evenodd"/>
    <path id="Path_1066" data-name="Path 1066" d="M1314.589,1586.409a39.1,39.1,0,0,1,5.394,22.65c-1.093,16.459-12.566,26.64-28.865,28.162q1.033,2.928,2.064,5.86c12.445-6.981,22.636,1.831,22.46,13.119-9.549,5.164-17.5,5.367-23.239-1.25-2.8.39-5.325,3.124-11.468,2.356a5.811,5.811,0,0,1-3.5-1.192c1.331-7.377.791-17.349,12.045-13.781q-.485-2.119-.968-4.236c-23.282,11.833-50.39-5-46.846-36.441,1.655-13.017,9.951-22.965,19.445-26.92,3.513-1.465,5.7-1.394,9.264-2.419,18.786-5.413,33.584-4.038,44.215,14.092m-2.427,67.68c-5.619-16.768-15.422-12.437-17.4-7.223C1291.318,1655.935,1301.65,1661.233,1312.161,1654.09Zm-22.955-8.232c-6-5.582-8.607,4.094-9.146,8.376,2.947.115,7.244.836,9.365-1.175S1290.866,1647.405,1289.206,1645.858Zm27.624-43.971c-2.23-17.087-19-35.034-39.485-29-2.287.676-3.953,1.867-6.161,2.443-7.41,1.932-9.664.589-17.714,8.458-5.829,5.694-10.144,15.666-8.973,26.829,1.841,17.547,18.654,35.078,38.54,26.677,1.98-.837,4.213-2.429,5.713-2.859,2.348-.67,5.383-.38,7.888-.947a28.549,28.549,0,0,0,11.491-5.915C1313.609,1622.925,1318.248,1612.74,1316.83,1601.886Z" transform="translate(-2108.805 326.279)" fill="#dbedc7" fill-rule="evenodd"/>
    <path id="Path_1031" data-name="Path 1031" d="M1149.137,1421.464c-.822,6.6-12.444,3.159-9.921,21.451.288,2.084.505,1.065-.642,3.892-.63-.21-3.157,1.166-3.364-7.421-.231-9.542,7.469-19.124,13.927-17.922" transform="translate(-2153.335 264.118)" fill="#dbedc7" fill-rule="evenodd"/>
    <path id="Path_1051" data-name="Path 1051" d="M1231.575,1441.348c3.147-3.329,7.095-11.948,8.017-15.4l8.475-19.127c-4.352-2.443-8.489-4.145-11.4-8.32a20.263,20.263,0,0,1-3.385-16.32c5.036-24.281,43.547-18.651,39.515,7.609-1.929,12.569-11.29,16.043-21.8,17.118l-15.806,35.443c-3.163,5.2-.7,3.6-2.016,9.071-3.271,13.6-21.527,12.693-26.362,10.439.47-7.606,1.273-14.61,3.746-18.614,2.8-4.336,8.655-6.409,15.6-5.452-3.831-6.23-16.4-27.011-22.269-30.46-3.56-2.09-10.3.319-17.293-9.058a20.238,20.238,0,0,1-2.013-20.108c10.824-23.906,47.636-7.707,36.754,16.812a21.983,21.983,0,0,1-5.553,7.186,15.571,15.571,0,0,1-3.917,2.483c-.747.359-1.425.585-2.209.972l-1.958,1.167c13.479,15.054,14.438,20.881,23.875,34.564m-5.052,15.432c2.844-2.441,5.674-9.993,1.736-13.952s-17.948-4.73-18.462,16.65C1215.616,1459.633,1222.713,1460.049,1226.522,1456.779Zm-27.26-53.949c9.74,2.588,17.923-4.29,19.885-11.616a16.948,16.948,0,0,0-11.822-20.831C1185.859,1364.725,1176.6,1396.81,1199.262,1402.83Zm50.17.122c9.639,2.247,17.9-4.592,19.781-12.053a16.923,16.923,0,0,0-11.627-20.509C1235.687,1364.576,1226.647,1397.641,1249.432,1402.953Z" transform="translate(-2133.368 241.076)" fill="#dbedc7" fill-rule="evenodd"/>
    <path id="Path_1052" data-name="Path 1052" d="M1197.744,1373.249c-2.044,5.088-4.186-1-7.843,6.838l-2.067,3.607c-3.187-2.061-.95-5.918.8-8.039,1.5-1.821,4.06-3.6,6.369-3.475,4.966.261.825-.307,2.735,1.069" transform="translate(-2131.931 243.482)" fill="#dbedc7" fill-rule="evenodd"/>
    <path id="Path_1053" data-name="Path 1053" d="M1221.573,1383.608c-.869-7.047,3.979-12.781,11.1-11.058l-6.262,4.544c-3.37,2.823,1.031,5.687-4.842,6.514" transform="translate(-2117.144 243.511)" fill="#dbedc7" fill-rule="evenodd"/>
    <rect id="Rectangle_169" data-name="Rectangle 169" width="1916.356" height="295.495" transform="translate(-2629.178 1278.226)" fill="#dbedc7"/>
    <g id="Group_169" data-name="Group 169" transform="translate(-2629.178 1278.226)">
      <g id="Group_33" data-name="Group 33" transform="translate(0)" clip-path="url(#clip-path)">
        <path id="Path_428" data-name="Path 428" d="M392.309,1172.708l-.06-6.151-6.472,1.154-.579-5.42-6.811,1.777-1.986-5.891-6.054,3.763-2.48-5.41-4.971,4.919-4.193-4.483-3.594,5.721-5.82-3.626-1.753,4.835-4.716-1.813-.962,5.144-5.593-.866.19,5.258-5.959-.528,1.049,5.5-4.88.442,1.651,6.534-5.907.682,3.248,7.018-5.844,2.185,4.105,5.156-4.77,3.772,5.238,4.06-4.1,5.444,5.956,2.823-2.9,6.026,6.29,1.611-1.817,6.419,6.709.014-.8,6.645,6.829-1.146-.106,6.064,7.171-1.884,1.5,6.015,5.9-3.112,2.95,5.361,5.163-4.264,4.425,4.592,3.532-5.218,2.585,2.288,2.967,1.632,1.809-4.541.908-1.476,6.1,2.654.612-6.481,6.524,2.17-.016-7.335,6.3,1.011-1.016-7.225,6.154-.606-2.087-6.14,5.929-2.329-3.715-6.122,5.35-2.61-4.386-5.161,4.406-4.426-5.433-3.437,3.772-5.322-6.288-2.342,2.522-6.164-5.966-.918.872-6.6Zm-36.354-5.953,2.748-4.7,4.276,3.334,3.836-3.633,3.652,4.138,4.789-3.008.991,4.853,6.331-1.915.5,3.828,6.376.348-.115,5.34,5.884.169-.809,5.806,5.171.886-1.711,5.343,4.931,2.155-2.745,5.394,4.386,2.777-3.4,4.18,2.8,3.259.423.481.416.5-4.555,1.791,3.021,6.043-5.191,1.428,2.04,5.905-5.968.632L395.4,1228l-5.418-.632-.534,6.3-5.966-1.356-.825,5.547-5.43-2.162-2.094,5.041-4.635-3.122-3.847,4.591-2.791-4.031-5.042,3.735-2.214-4.8-5.281,2.7-1.5-4.943-6.264,1.607-.065-5.266-6.35.572.884-5.523-6.315-.678,1.64-5.366-5.482-1.682,2.437-4.886-5.188-2.741,3.465-4.173-4.481-3.564,4.182-3.049-3.4-5.187,4.64-2.545-2.68-5.682,5.4-1.359-1.493-5.174,4.32-.575-.544-4.843,5.075.7-.067-5.563,4.359,1.562,1.268-4.859,3.877,1.574,2.6-4.355Z" transform="translate(133.487 -1125.211)" fill="#f2f7e8" fill-rule="evenodd"/>
        <path id="Path_429" data-name="Path 429" d="M340.371,1168.772c-.582,1.26-2.078,7.268.263,11.69,2.2-.7,1.969,2.464,2.141-7.576l7.57,3.015c-.084-3.678-.975-3.014-4.277-4.826-1.914-1.05-3.435-2.629-5.7-2.3" transform="translate(141.968 -1120.094)" fill="#f2f7e8" fill-rule="evenodd"/>
        <path id="Path_430" data-name="Path 430" d="M350.074,1197.008c2.589-1.441,1.728-4.229,1.722-7.46l5.837,2.754c3.092.48.24.185,1.542-.25-2.892-3.519-4.822-6.679-10.141-7.059-.3,6.528-1.455,10.344,1.04,12.015" transform="translate(145.803 -1113.271)" fill="#f2f7e8" fill-rule="evenodd"/>
        <path id="Path_431" data-name="Path 431" d="M365.583,1200.03c1.194-2.1.757-4.578.93-7.607l7.11,2.713.25-1.446c-.051-1.13-6.682-5.424-10.232-5.616-.458,9.66-1.638,11,1.942,11.957" transform="translate(151.919 -1111.978)" fill="#f2f7e8" fill-rule="evenodd"/>
        <path id="Path_432" data-name="Path 432" d="M346.733,1203.572l5.715,2.706c2.775.4.369.126,1.464-.29-2.659-3.289-4.537-6.388-10.108-6.985-.483,10.828-1.624,11.316,2.4,12.025Z" transform="translate(143.61 -1107.393)" fill="#f2f7e8" fill-rule="evenodd"/>
        <path id="Path_433" data-name="Path 433" d="M367.073,1188.011c1.405-2.3.735-4.33,1.063-7.6l6.973,2.708c.579-2.5.916-1.882-3.285-4.375-2.446-1.449-3.5-2.744-6.392-2.372-.761,8.9-1.894,10.482,1.641,11.639" transform="translate(152.571 -1116.914)" fill="#f2f7e8" fill-rule="evenodd"/>
        <path id="Path_434" data-name="Path 434" d="M335.563,1194.063c2.456-1.719,1.56-4.246,1.635-7.565l3.78,2c4.02,2.237,3.432.535,3.763.387-2.266-2.29-4.284-4.747-7.1-6.061-3.82-1.787-2.314-.45-3-.132-.569,6.023-1.789,9.529.921,11.372" transform="translate(139.664 -1114.563)" fill="#f2f7e8" fill-rule="evenodd"/>
        <path id="Path_435" data-name="Path 435" d="M354.067,1183.036c4.029-.779,2.723-3,2.774-7.457l3.75,1.908c3.708,1.99,3.691.562,3.7.558-2.873-3.28-5.238-6.672-10.127-7Z" transform="translate(148.137 -1119.122)" fill="#f2f7e8" fill-rule="evenodd"/>
        <path id="Path_436" data-name="Path 436" d="M334.012,1206c2.429-1.828,1.5-4.176,1.672-7.545l7.549,2.483c-2.092-2.195-4.268-5-7.079-6.283-3.041-1.392-3.031-.038-3.036-.035-.63,6.084-1.861,9.448.894,11.38" transform="translate(139.002 -1109.48)" fill="#f2f7e8" fill-rule="evenodd"/>
        <path id="Path_437" data-name="Path 437" d="M358.814,1213.316c3.177-.968,1.73-3.343,2.312-7.522l7.213,2.682c-2.163-2.422-6.051-7.643-9.481-6.828-1.417,2.839-2.017,9.311-.044,11.669" transform="translate(149.6 -1106.319)" fill="#f2f7e8" fill-rule="evenodd"/>
        <path id="Path_438" data-name="Path 438" d="M277.849,1177.928c-7.465-6.318-2.319-13.67,4.889-17.544,3.1-1.667,2.92-1.072,4.822,2.037,3.438,5.617,5.146,10.554.2,14.884l4.171,9.752-9.445,1.9c-3.779-.058-3.942-5.408-5.98-6.713.187,5.579-.055,2.057,1.048,6.4,5.743,22.617-14.855,45.6-38.908,40.9-11.68-2.283-14.322-7.576-19.463-10.883l-8.788,5.485a6.779,6.779,0,0,1-1.828.676l-1.51-6.687c-3.542,2.456-3.811,3.888-7.55.346l1.177-4.956,3.8-.687-5.7-4.386,13.065-5.512c-1.919-17.747,5.086-30.75,22.082-38.442,7.972-2.7,17.524-1.928,22.6.244,8.36,3.576,11.159,6.624,17.951,15.314Zm6.545-14.833c-17.359,11.233,2.138,17.889,3.364,8.869C288.146,1169.116,285.851,1165.766,284.394,1163.1Zm4.26,22.139c-1.3-2.96-4.73-9.437-7.592-3.762C278.344,1186.863,285.689,1186.132,288.654,1185.235Zm-62.372-13.282c-12.6,9.8-17.081,28.68-5.469,43.52a30.851,30.851,0,0,0,43.3,4.646c11.707-9.4,16.066-28.425,4.649-42.75C259.311,1165.512,240.416,1160.957,226.282,1171.952Zm-19.419,42.993,3.88,1.407-.312,4.1,6.8-4.124-4.9-10.38-7.455,3,3.54,2.862Z" transform="translate(82.994 -1123.976)" fill="#f2f7e8" fill-rule="evenodd"/>
        <path id="Path_439" data-name="Path 439" d="M234.21,1208.008c1.557-3.354,3.124-1.416,8.078-4.358a18.665,18.665,0,0,0,8.774-12.956c.769-4.034-1.627-4.579,1.955-7.5a23.636,23.636,0,0,1-1.946,16.126c-.882,2.47-11.813,12.475-16.861,8.683" transform="translate(97.854 -1114.023)" fill="#f2f7e8" fill-rule="evenodd"/>
        <path id="Path_440" data-name="Path 440" d="M658.929,1216.133a19.773,19.773,0,0,1,23.655-1.791,18.148,18.148,0,0,0,3.905-3.821c6.294-8.114,5.734,2.138-1.3,5.227,7.338,8.584,5.722,19.69-2.319,28.778-4.141,4.682,1.431,6.532-2.437,18.882-4.276,13.653-19.423,26.328-38.205,21.758-26.945-6.554-32.74-40.98-12.557-56.27,7.9-5.983,12.385-6.927,24.05-7.031Zm-3.735,9.008c-12.1-.067-18.318,1.262-25.424,7.576-22.1,19.642-.5,61.455,31.584,47.773,12.218-5.211,19.317-18.178,16.8-32.081-1.151-6.375,1.082-2.61,5.438-9.824,8.7-14.41-3.589-30.561-19.73-21.936C658.516,1219.508,658.749,1221.308,655.195,1225.141Z" transform="translate(258.699 -1103.844)" fill="#f2f7e8" fill-rule="evenodd"/>
        <path id="Path_441" data-name="Path 441" d="M634.558,1250.532c3.207-.363,6.11,3.861,13.305,2.294,2.127-.463,7.491-3.661,10.98-5.3-.606,5.069-10.442,10.895-19.626,7.877-1.316-.432-4.129-1.648-4.657-2.774l-.128-1.532a2.369,2.369,0,0,1,.126-.564" transform="translate(265.757 -1087.037)" fill="#f2f7e8" fill-rule="evenodd"/>
        <path id="Path_442" data-name="Path 442" d="M325.087,1241.164c1.773-5.469,1.259-15.578-3.9-15.946-3.472-.247-5.418,5.546-10.553,9.724-5.856,4.761-17.351,6.913-24.8,4.118-9.011-3.379-4.449-.444-6.463-.774l-8.642-26.826c-6.023,1.285-6.382.812-7.626,4.71-1.028,3.221-1.753,7.17-2.585,10.781-1.722,7.468-5.159,13.588-2.865,21.88,9.333,33.729,60.5,35.87,81.557,5.117,5.548-8.1,5.027-8.787.64-17.816Zm-43.277-.307c26.458,9.633,35.159-10.346,39.84-12.393l-.829,14.4c-.456,1.052-15.177,7.495-28.292,3.547C286.647,1244.644,285.677,1243.19,281.81,1240.858Zm-12.867-26.05c3.449,4.747.992,16.8,5.609,23.016,9.673,13.02,26.576,15.765,42.363,10.065l21.421-8.441c2.62,9.569,2.365,7.468-3.591,15.195-18.59,24.114-62.36,25.117-73.411-4.358-2.92-7.79-.44-12.277,1.272-19.087C264.867,1222.2,264.431,1216.419,268.944,1214.808Z" transform="translate(107.367 -1102.167)" fill="#f2f7e8" fill-rule="evenodd"/>
        <path id="Path_443" data-name="Path 443" d="M268.892,1245.734c-2.122,5.553,17.568,11.067,28.187,10.314,14.728-1.039,16.425-5.215,24.711-13.961-2.4-.111-2.6,1.469-4.76,3.187-11.642,9.258-29.5,10.192-42.127,3.123-2.683-1.5-3.449-3.151-6.012-2.663" transform="translate(112.337 -1089.32)" fill="#f2f7e8" fill-rule="evenodd"/>
        <path id="Path_444" data-name="Path 444" d="M270.077,1246.635c-.305-3.238-1.415-2.335-3.066-4.811-2.439-3.658-.136-4.312-4.388-4.775-.091,5.028,3.259,11.07,7.454,9.586" transform="translate(109.773 -1091.432)" fill="#f2f7e8" fill-rule="evenodd"/>
        <path id="Path_445" data-name="Path 445" d="M403.6,1303.248c-7.617-2.026-22.751-10.1-26.813-18.619-1.483-3.107,3-4.851,10.658-10.066,5.769-3.928,64.493-44.945,67.7-46.14,7.573,5.573,9.528,21.794,9.705,27.557.918,29.834-28.243,56.05-61.25,47.267m37.052-11.488a42.581,42.581,0,0,1-30.266,6.855c-18.887-2.88-24.277-14.878-28.684-16.557l-1.564,1.564c6.484,13.67,29.452,20.947,46.925,17.107,26.653-5.86,42.454-36.206,31.022-62.478a35.772,35.772,0,0,0-2.111-4.25c-1.567-2.22-.369-1.671-2.706-1.37l5.275,14.99C462.49,1261.995,455.466,1281.654,440.65,1291.759Zm9.072-13.334c9.072-13.642,8.32-35.748.263-43.189l-55.234,37.995c-3.468,2.382-9.817,5.721-9.208,7.691,1.817,5.885,16.529,12.534,21.179,13.783C419.377,1298.1,438.355,1295.521,449.722,1278.426Z" transform="translate(157.549 -1095.051)" fill="#f2f7e8" fill-rule="evenodd"/>
        <path id="Path_446" data-name="Path 446" d="M404.239,1260.108c2.748,1.353,2.52,8.783.013,8.787-2.53,0-2.687-7.311-.013-8.787" transform="translate(168.369 -1081.758)" fill="#f2f7e8" fill-rule="evenodd"/>
        <path id="Path_447" data-name="Path 447" d="M426.588,1243.133c-1.577,2.328-6.439,4.088-8.9,2.019.855-2.552,1.428-1.9,4.081-2.65,2.7-.769,2.814-1.777,4.822.632" transform="translate(174.826 -1089.514)" fill="#f2f7e8" fill-rule="evenodd"/>
        <path id="Path_448" data-name="Path 448" d="M415.837,1252.276c2.593-2.61,4.371-.656,9.061,2.4-2.541,1.845-1.722,1.6-4.966.331-1.841-.72-3.249-.859-4.1-2.733" transform="translate(174.051 -1085.554)" fill="#f2f7e8" fill-rule="evenodd"/>
        <path id="Path_449" data-name="Path 449" d="M397.793,1259.033c1.209,2.845-.334,3.406-4.943,7.64-2.243-2.595,2.142-7.875,4.943-7.64" transform="translate(164.148 -1082.212)" fill="#f2f7e8" fill-rule="evenodd"/>
        <path id="Path_450" data-name="Path 450" d="M411.978,1258.047c4.379,1.156,4.093,4.97,4.266,7.9-2.3-1.055-2.169-1.279-3.723-3.582-1.982-2.936-1.942-2.146-.542-4.32" transform="translate(172.011 -1082.623)" fill="#f2f7e8" fill-rule="evenodd"/>
        <path id="Path_451" data-name="Path 451" d="M525.873,1237.466a43.475,43.475,0,0,0,6-25.18c-1.216-18.3-13.971-29.617-32.09-31.307q1.148-3.258,2.3-6.514c13.835,7.76,25.164-2.037,24.969-14.587-10.618-5.741-19.452-5.965-25.837,1.391-3.114-.433-5.921-3.472-12.749-2.619-2.02.253-2.77.446-3.894,1.326,1.481,8.2.88,19.288,13.39,15.321q-.537,2.355-1.075,4.71c-25.884-13.156-56.021,5.555-52.081,40.509,1.84,14.474,11.064,25.533,21.617,29.928,3.907,1.628,6.34,1.55,10.3,2.69,20.884,6.017,37.335,4.489,49.154-15.667m-2.7-75.24c-6.246,18.641-17.145,13.826-19.345,8.029C500,1160.174,511.489,1154.283,523.175,1162.226Zm-25.522,9.15c-6.666,6.206-9.566-4.549-10.165-9.311,3.276-.128,8.052-.93,10.409,1.306S499.5,1169.657,497.653,1171.376Zm30.713,48.884c-2.48,19-21.127,38.949-43.9,32.237-2.542-.749-4.395-2.075-6.849-2.715-8.239-2.148-10.744-.655-19.694-9.4-6.479-6.331-11.277-17.416-9.974-29.827,2.046-19.506,20.736-39,42.845-29.657,2.2.93,4.682,2.7,6.352,3.177,2.609.747,5.983.423,8.768,1.053a31.739,31.739,0,0,1,12.774,6.575C524.783,1196.872,529.94,1208.2,528.366,1220.26Z" transform="translate(186.055 -1125.58)" fill="#f2f7e8" fill-rule="evenodd"/>
        <path id="Path_452" data-name="Path 452" d="M468.315,1216.732c-.82-6.6-12.442-3.158-9.92-21.449.288-2.085.5-1.067-.643-3.894-.63.21-3.154-1.166-3.363,7.421-.231,9.542,7.47,19.123,13.926,17.922" transform="translate(190.222 -1110.587)" fill="#f2f7e8" fill-rule="evenodd"/>
        <path id="Path_453" data-name="Path 453" d="M182.479,1159.393c-2.128,1.745-4.748,5.849-6.4,8.788a14.016,14.016,0,0,1,6.557,8.963c1.307,6.132-1.208,9.484-.734,14.212-.718.938-.206-.109-1.178,1.955-.04.084-.755,2.057-.761,2.077-4.274,14.075-1.2,23.443-2.578,34.885-4.244,35.238-55.845,46.443-74.779,16.755-13.994-21.94-5.594-49.69,12.289-59.552,10.056-5.546,19.819-6.9,29.266-13.416,18.059-12.455,13.368-12.7,29.611-8.449,3.78-6.809,5.031-11.575,9.279-10.82Zm-14.446,8.344c-7.081-2.433-10.743,1.373-15.417,4.8-24.536,17.994-30.917,12.52-41.948,22.519-6.985,6.33-12.463,18.968-10.885,32.893,5.024,44.323,62.7,39,72.444,8.7,3.823-11.887.088-26.221,3.576-40.013C179.4,1182.408,182.392,1172.672,168.032,1167.737Z" transform="translate(39.7 -1125.974)" fill="#f2f7e8" fill-rule="evenodd"/>
        <path id="Path_454" data-name="Path 454" d="M150.918,1211.883c-2.747,25.842-45.1,22.475-40.742-6.335,3.8-25.094,43.723-21.709,40.742,6.335M134.164,1192.9c-20.389-5.775-29.556,26.67-8.164,32.384C146.571,1230.771,157.706,1199.565,134.164,1192.9Z" transform="translate(45.687 -1111.748)" fill="#f2f7e8" fill-rule="evenodd"/>
        <path id="Path_455" data-name="Path 455" d="M130.681,1213.367c-1.211-7.454,5.261.879-1.262-16.537,9.214-.505,7.387,13.854,4.391,16.207-3.569,2.8-2.643.468-3.129.331" transform="translate(53.892 -1108.31)" fill="#f2f7e8" fill-rule="evenodd"/>
        <path id="Path_456" data-name="Path 456" d="M712.238,1273.969c3.147,3.329,7.095,11.948,8.017,15.4l8.475,19.125c-4.354,2.444-8.49,4.145-11.4,8.321a20.269,20.269,0,0,0-3.384,16.32c5.036,24.28,43.547,18.651,39.514-7.609-1.928-12.57-11.288-16.043-21.8-17.119l-15.808-35.441c-3.163-5.2-.7-3.6-2.014-9.071-3.272-13.6-21.527-12.693-26.363-10.441.471,7.606,1.275,14.611,3.746,18.616,2.8,4.337,8.656,6.409,15.6,5.451-3.831,6.232-16.4,27.011-22.271,30.462-3.559,2.089-10.3-.321-17.291,9.057a20.237,20.237,0,0,0-2.014,20.107c10.824,23.908,47.636,7.708,36.754-16.81a21.914,21.914,0,0,0-5.552-7.186,15.6,15.6,0,0,0-3.918-2.483c-.747-.359-1.424-.585-2.209-.973l-1.956-1.168c13.477-15.054,14.438-20.881,23.875-34.563m-5.054-15.432c2.845,2.442,5.675,9.992,1.736,13.952-3.922,3.946-17.947,4.73-18.461-16.65C696.278,1255.683,703.376,1255.269,707.184,1258.538Zm-27.259,53.948c9.738-2.586,17.921,4.291,19.883,11.617a16.945,16.945,0,0,1-11.822,20.83C666.522,1350.593,657.26,1318.507,679.925,1312.485Zm50.17-.121c9.639-2.247,17.9,4.591,19.78,12.052a16.92,16.92,0,0,1-11.627,20.509C716.349,1350.74,707.309,1317.677,730.1,1312.365Z" transform="translate(277.936 -1085.101)" fill="#f2f7e8" fill-rule="evenodd"/>
        <path id="Path_457" data-name="Path 457" d="M678.407,1294.946c-2.044-5.086-4.188,1.005-7.843-6.836L668.5,1284.5c-3.187,2.06-.951,5.918.8,8.039,1.506,1.821,4.061,3.6,6.371,3.475,4.965-.261.823.307,2.735-1.07" transform="translate(279.373 -1071.524)" fill="#f2f7e8" fill-rule="evenodd"/>
        <path id="Path_458" data-name="Path 458" d="M702.235,1284.543c-.869,7.046,3.979,12.781,11.1,11.058l-6.26-4.545c-3.371-2.822,1.031-5.684-4.843-6.513" transform="translate(294.159 -1071.507)" fill="#f2f7e8" fill-rule="evenodd"/>
        <path id="Path_459" data-name="Path 459" d="M1294.608,1136.695c-49.258,10.037-33.485,82.257,14.26,72.813,17.682-3.5,33.578-21.13,29.14-43.612-3.579-18.136-21.191-33.727-43.4-29.2m-10.479,7.468c6.159-3.658,21.516-8.336,31.941-.857l-5.289,10.064c-2.856,5.235-3.215,7.7-6.426,8.243-2.185-4.665-1.342-2.159-1.608-6.565-.288-4.748.466-4.44-3-5.174-.544,4.508-.395,10.037-1.75,11.958C1293.435,1157.19,1285.973,1150.25,1284.129,1144.163Zm36.935,16.024c-3.921-.923-16.137,11.367-10.266.62,1.9-3.481,6.967-12.928,9-15.243,7.952,7.769,14.96,12.351,14.963,25.378l-21.611.183C1320.338,1161.62,1322.121,1164.025,1321.063,1160.186Zm-52.676,10.835c-.072-10.683,6.906-19.868,12.351-23.695,2.781,3.736,11.847,14.414,11.651,18.675l-12.3-2.716c7.183,6.385,8.74,4.991,9.746,7.985Zm30.4-5.344c10.248-4.085,14.784,11.494,5.611,14.911C1294.879,1184.135,1288.391,1169.821,1298.791,1165.677ZM1313.02,1176a4.081,4.081,0,0,1,.747-.329l21.189-.477a39.088,39.088,0,0,1-12.436,23.534l-12.248-17.743,12.9,2.215c-6.746-6.175-2.657-2.788-7.762-5.545Zm-29.245,24.681c-8.09-2.8-14.465-13.723-15.606-25.578,4.183-.075,18.6-1.621,21.764,1.175-7.267,9.549-7.759,5.215-8.3,10.7l12.093-5.6Zm2.9,2.807c1.035-3.678,3.687-7.1,5.6-10.483,3.618-6.4,1.5-4.24,7.274-8.354l2.084,11.82,3.634-12.177c3.536.067,1.558-1.19,7.569,7.751,3.247,4.828,3.515,4.349,6.059,9.387C1305.989,1210.22,1295.591,1205.4,1286.672,1203.49Z" transform="translate(530.087 -1133.865)" fill="#f2f7e8" fill-rule="evenodd"/>
        <path id="Path_460" data-name="Path 460" d="M1256.359,1184.176c3.434,24.406,27.209,46.166,56.635,41.341,24.216-3.972,45.693-26.782,41.027-56.5-3.845-24.488-26.75-45.543-56.053-41.2a49.5,49.5,0,0,0-41.609,56.358m3.79,0c-4.357-27.323,15.4-49.115,37.967-52.573,27.389-4.2,48.8,15.579,52.211,38.286,4.091,27.238-15.5,48.478-38.248,51.972C1284.968,1226.022,1263.671,1206.271,1260.149,1184.176Z" transform="translate(526.448 -1137.497)" fill="#f2f7e8" fill-rule="evenodd"/>
        <path id="Path_461" data-name="Path 461" d="M1018.809,1222.849l-.06-6.149-6.472,1.153-.578-5.418-6.812,1.777-1.986-5.892-6.053,3.763-2.48-5.41-4.971,4.919-4.195-4.483-3.593,5.722-5.82-3.627-1.755,4.837-4.716-1.813-.962,5.144-5.593-.867.19,5.258-5.958-.527,1.048,5.5-4.88.44,1.651,6.535-5.907.68,3.248,7.019-5.844,2.183,4.105,5.157-4.77,3.77,5.24,4.061-4.1,5.444,5.956,2.823-2.9,6.026,6.29,1.61-1.816,6.419,6.707.016-.8,6.645,6.831-1.146-.108,6.064,7.171-1.885,1.5,6.015,5.9-3.112,2.948,5.363,5.164-4.266,4.425,4.594,3.53-5.218,2.585,2.287,2.967,1.634,1.808-4.542.908-1.476,6.1,2.656.613-6.483,6.524,2.172-.016-7.335,6.3,1.011-1.015-7.225,6.152-.607-2.085-6.138,5.929-2.331-3.716-6.121,5.35-2.611-4.386-5.163,4.408-4.425-5.432-3.438,3.77-5.32-6.287-2.342,2.523-6.165-5.968-.918.873-6.594Zm-36.354-5.953,2.748-4.7,4.276,3.334,3.837-3.634,3.652,4.138,4.789-3.007.99,4.852,6.331-1.915.5,3.828,6.378.349-.116,5.339,5.884.17-.808,5.806,5.17.884-1.71,5.344,4.931,2.153-2.745,5.4,4.386,2.776-3.4,4.179,2.8,3.261.422.48.416.5-4.554,1.791,3.019,6.043-5.19,1.429,2.038,5.9-5.968.633,1.371,5.907-5.418-.63-.534,6.3-5.966-1.356-.823,5.549-5.431-2.162-2.092,5.039L997,1287.751l-3.848,4.592-2.789-4.033-5.042,3.736-2.216-4.8-5.281,2.7L976.332,1285l-6.264,1.607-.067-5.268-6.35.572.886-5.522-6.316-.678,1.638-5.366-5.481-1.684,2.437-4.885-5.19-2.743,3.465-4.172-4.481-3.566,4.183-3.049-3.4-5.185,4.64-2.545-2.68-5.682,5.4-1.36-1.493-5.173,4.32-.576-.545-4.842,5.075.7-.065-5.562,4.359,1.56,1.266-4.859,3.878,1.576,2.6-4.355Z" transform="translate(396.319 -1104.176)" fill="#f2f7e8" fill-rule="evenodd"/>
        <path id="Path_462" data-name="Path 462" d="M966.871,1218.913c-.582,1.262-2.078,7.269.264,11.691,2.2-.7,1.968,2.463,2.141-7.577l7.57,3.016c-.085-3.679-.977-3.015-4.278-4.826-1.914-1.05-3.434-2.63-5.7-2.3" transform="translate(404.8 -1099.059)" fill="#f2f7e8" fill-rule="evenodd"/>
        <path id="Path_463" data-name="Path 463" d="M976.574,1247.149c2.589-1.441,1.728-4.228,1.722-7.46l5.837,2.754c3.092.481.24.185,1.542-.248-2.892-3.521-4.821-6.679-10.141-7.061-.3,6.528-1.455,10.344,1.041,12.015" transform="translate(408.635 -1092.235)" fill="#f2f7e8" fill-rule="evenodd"/>
        <path id="Path_464" data-name="Path 464" d="M992.082,1250.17c1.194-2.1.757-4.578.931-7.606l7.11,2.713.25-1.448c-.052-1.129-6.683-5.424-10.232-5.614-.46,9.66-1.638,11,1.941,11.955" transform="translate(414.751 -1090.943)" fill="#f2f7e8" fill-rule="evenodd"/>
        <path id="Path_465" data-name="Path 465" d="M973.235,1253.713l5.714,2.706c2.775.4.369.128,1.464-.288-2.659-3.289-4.537-6.388-10.107-6.986-.484,10.828-1.625,11.316,2.395,12.023Z" transform="translate(406.442 -1086.357)" fill="#f2f7e8" fill-rule="evenodd"/>
        <path id="Path_466" data-name="Path 466" d="M993.573,1238.152c1.405-2.3.735-4.328,1.063-7.6l6.973,2.708c.579-2.5.916-1.882-3.285-4.373-2.446-1.451-3.5-2.745-6.392-2.373-.76,8.9-1.894,10.483,1.641,11.639" transform="translate(415.403 -1095.879)" fill="#f2f7e8" fill-rule="evenodd"/>
        <path id="Path_467" data-name="Path 467" d="M962.065,1244.205c2.454-1.72,1.559-4.247,1.635-7.566l3.78,2c4.02,2.236,3.432.535,3.762.386-2.264-2.288-4.283-4.745-7.1-6.061-3.818-1.786-2.312-.45-3-.132-.569,6.023-1.789,9.529.923,11.373" transform="translate(402.496 -1093.528)" fill="#f2f7e8" fill-rule="evenodd"/>
        <path id="Path_468" data-name="Path 468" d="M980.567,1233.177c4.029-.778,2.723-3,2.774-7.457l3.75,1.909c3.708,1.99,3.692.562,3.7.556-2.872-3.28-5.237-6.67-10.127-7Z" transform="translate(410.968 -1098.087)" fill="#f2f7e8" fill-rule="evenodd"/>
        <path id="Path_469" data-name="Path 469" d="M960.513,1256.144c2.429-1.828,1.495-4.178,1.671-7.545l7.549,2.483c-2.092-2.195-4.269-5-7.079-6.284-3.039-1.393-3.029-.038-3.035-.035-.63,6.085-1.861,9.45.894,11.382" transform="translate(401.834 -1088.445)" fill="#f2f7e8" fill-rule="evenodd"/>
        <path id="Path_470" data-name="Path 470" d="M985.316,1263.458c3.177-.969,1.729-3.344,2.311-7.524l7.213,2.683c-2.162-2.422-6.05-7.643-9.479-6.829-1.417,2.839-2.019,9.311-.044,11.67" transform="translate(412.432 -1085.284)" fill="#f2f7e8" fill-rule="evenodd"/>
        <path id="Path_471" data-name="Path 471" d="M904.861,1193.885c-9.193-3.339-6.916-12.018-1.5-18.151,2.328-2.637,2.366-2.019,5.229.239,5.173,4.077,8.487,8.114,5.352,13.89l7.292,7.7-8.2,5.054c-3.566,1.256-5.574-3.7-7.938-4.222,2.111,5.167.663,1.949,3.2,5.637,13.23,19.222,1.881,47.92-22.309,51.854-11.745,1.911-16.059-2.139-22.03-3.458l-6.341,8.193a6.779,6.779,0,0,1-1.479,1.268l-3.736-5.749c-2.47,3.532-2.226,4.968-6.961,2.943l-.615-5.055,3.329-1.964-6.862-2.138,10.341-9.7c-7.955-15.98-5.892-30.606,7.38-43.714,6.541-5.3,15.768-7.885,21.281-7.609,9.081.454,12.763,2.342,22.147,8.138Zm1-16.183c-12.385,16.554,8.21,16.038,6.232,7.15C911.463,1182.047,908.148,1179.7,905.856,1177.7Zm11.673,19.287c-2.248-2.324-7.709-7.211-8.425-.894C908.425,1202.091,915.06,1198.859,917.528,1196.989Zm-63.106,9.173c-8.418,13.562-6.075,32.822,9.962,42.716a30.851,30.851,0,0,0,42.222-10.659c7.718-12.881,5.213-32.232-10.465-41.71C883.167,1188.667,863.865,1190.946,854.422,1206.162Zm-3.3,47.059,4.126-.025,1.129,3.95,4.946-6.226-8.2-8.033-5.952,5.4,4.312,1.456Z" transform="translate(352.54 -1117.881)" fill="#f2f7e8" fill-rule="evenodd"/>
        <path id="Path_472" data-name="Path 472" d="M876.838,1230.294c.3-3.685,2.44-2.41,6.066-6.889a18.673,18.673,0,0,0,3.736-15.2c-.676-4.05-3.113-3.731-.765-7.707a23.629,23.629,0,0,1,3.766,15.8c.031,2.623-6.753,15.8-12.8,13.992" transform="translate(367.452 -1106.764)" fill="#f2f7e8" fill-rule="evenodd"/>
        <path id="Path_473" data-name="Path 473" d="M1270.123,1235.958a19.777,19.777,0,0,1,23.656-1.791,18.145,18.145,0,0,0,3.9-3.821c6.3-8.114,5.733,2.138-1.3,5.227,7.338,8.584,5.722,19.69-2.318,28.778-4.142,4.682,1.43,6.533-2.439,18.882-4.274,13.653-19.423,26.328-38.2,21.759-26.947-6.555-32.74-40.98-12.557-56.27,7.9-5.985,12.385-6.927,24.048-7.031Zm-3.735,9.008c-12.1-.067-18.316,1.261-25.422,7.576-22.1,19.642-.5,61.455,31.583,47.773,12.219-5.211,19.317-18.178,16.8-32.081-1.153-6.375,1.082-2.611,5.438-9.824,8.7-14.41-3.589-30.562-19.73-21.936C1269.71,1239.333,1269.944,1241.133,1266.388,1244.966Z" transform="translate(515.11 -1095.527)" fill="#f2f7e8" fill-rule="evenodd"/>
        <path id="Path_474" data-name="Path 474" d="M1245.753,1270.357c3.207-.363,6.11,3.861,13.305,2.3,2.125-.464,7.489-3.662,10.98-5.3-.606,5.069-10.442,10.895-19.628,7.877-1.316-.432-4.126-1.648-4.656-2.774l-.128-1.532a2.3,2.3,0,0,1,.126-.563" transform="translate(522.167 -1078.72)" fill="#f2f7e8" fill-rule="evenodd"/>
        <path id="Path_475" data-name="Path 475" d="M976.411,1175.152c1.773-5.469,1.259-15.578-3.9-15.944-3.474-.248-5.418,5.545-10.553,9.722-5.855,4.762-17.351,6.913-24.8,4.118-9.011-3.379-4.449-.443-6.463-.774l-8.642-26.826c-6.023,1.285-6.382.812-7.627,4.711-1.028,3.219-1.752,7.169-2.584,10.78-1.72,7.468-5.158,13.588-2.865,21.88,9.333,33.729,60.5,35.87,81.557,5.117,5.546-8.1,5.026-8.787.639-17.815Zm-43.276-.305c26.457,9.631,35.157-10.347,39.839-12.394l-.829,14.4c-.456,1.055-15.178,7.5-28.294,3.549C937.97,1178.633,937,1177.178,933.135,1174.847ZM920.268,1148.8c3.449,4.747.991,16.8,5.607,23.016,9.674,13.02,26.578,15.767,42.364,10.064l21.421-8.44c2.62,9.569,2.365,7.468-3.591,15.2-18.59,24.112-62.36,25.117-73.411-4.359-2.92-7.79-.44-12.277,1.27-19.087C916.191,1156.185,915.755,1150.407,920.268,1148.8Z" transform="translate(380.613 -1129.86)" fill="#f2f7e8" fill-rule="evenodd"/>
        <path id="Path_476" data-name="Path 476" d="M920.216,1179.722c-2.122,5.553,17.568,11.067,28.187,10.316,14.726-1.041,16.425-5.217,24.711-13.963-2.4-.111-2.6,1.469-4.761,3.187-11.64,9.258-29.5,10.194-42.127,3.123-2.68-1.5-3.447-3.152-6.01-2.663" transform="translate(385.583 -1117.014)" fill="#f2f7e8" fill-rule="evenodd"/>
        <path id="Path_477" data-name="Path 477" d="M921.4,1180.624c-.305-3.239-1.415-2.337-3.066-4.812-2.44-3.658-.138-4.314-4.389-4.774-.089,5.028,3.261,11.068,7.455,9.586" transform="translate(383.019 -1119.125)" fill="#f2f7e8" fill-rule="evenodd"/>
        <path id="Path_478" data-name="Path 478" d="M1031.348,1226.748c-7.617-2.026-22.749-10.1-26.813-18.62-1.483-3.107,3-4.85,10.658-10.066,5.768-3.928,64.493-44.945,67.7-46.14,7.573,5.574,9.529,21.794,9.707,27.559.918,29.834-28.243,56.048-61.25,47.267m37.051-11.488a42.586,42.586,0,0,1-30.264,6.855c-18.887-2.88-24.277-14.88-28.684-16.559l-1.563,1.564c6.483,13.671,29.451,20.948,46.922,17.107,26.656-5.86,42.455-36.2,31.024-62.478a35.65,35.65,0,0,0-2.112-4.25c-1.566-2.219-.368-1.671-2.7-1.368l5.275,14.989C1090.238,1185.5,1083.216,1205.154,1068.4,1215.26Zm9.075-13.335c9.071-13.642,8.317-35.746.261-43.187l-55.235,37.994c-3.467,2.382-9.816,5.722-9.207,7.692,1.817,5.885,16.529,12.535,21.179,13.784C1047.127,1221.6,1066.1,1219.021,1077.474,1201.925Z" transform="translate(420.905 -1127.145)" fill="#f2f7e8" fill-rule="evenodd"/>
        <path id="Path_479" data-name="Path 479" d="M1031.989,1183.608c2.748,1.353,2.521,8.783.013,8.785-2.53,0-2.688-7.309-.013-8.785" transform="translate(431.725 -1113.851)" fill="#f2f7e8" fill-rule="evenodd"/>
        <path id="Path_480" data-name="Path 480" d="M1054.338,1166.632c-1.577,2.328-6.439,4.09-8.9,2.019.853-2.551,1.428-1.9,4.081-2.65,2.7-.769,2.813-1.776,4.822.632" transform="translate(438.182 -1121.608)" fill="#f2f7e8" fill-rule="evenodd"/>
        <path id="Path_481" data-name="Path 481" d="M1043.587,1175.776c2.593-2.61,4.371-.656,9.061,2.4-2.541,1.844-1.72,1.6-4.965.329-1.841-.72-3.249-.859-4.1-2.731" transform="translate(437.407 -1117.648)" fill="#f2f7e8" fill-rule="evenodd"/>
        <path id="Path_482" data-name="Path 482" d="M1025.542,1182.532c1.211,2.845-.332,3.407-4.941,7.64-2.243-2.594,2.142-7.874,4.941-7.64" transform="translate(427.504 -1114.306)" fill="#f2f7e8" fill-rule="evenodd"/>
        <path id="Path_483" data-name="Path 483" d="M1039.728,1181.546c4.379,1.157,4.094,4.97,4.264,7.9-2.3-1.055-2.168-1.279-3.721-3.58-1.983-2.936-1.945-2.146-.544-4.321" transform="translate(435.366 -1114.717)" fill="#f2f7e8" fill-rule="evenodd"/>
        <path id="Path_484" data-name="Path 484" d="M1165.22,1237.152a43.478,43.478,0,0,0,6-25.18c-1.216-18.3-13.971-29.617-32.091-31.307q1.15-3.258,2.3-6.516c13.835,7.761,25.164-2.036,24.968-14.586-10.615-5.74-19.452-5.966-25.837,1.391-3.113-.433-5.919-3.472-12.747-2.619-2.02.253-2.77.446-3.892,1.325,1.481,8.2.88,19.288,13.389,15.322q-.536,2.355-1.076,4.71c-25.882-13.156-56.019,5.555-52.079,40.509,1.841,14.474,11.064,25.533,21.616,29.928,3.907,1.628,6.34,1.55,10.3,2.69,20.885,6.017,37.336,4.489,49.155-15.667m-2.7-75.24c-6.247,18.641-17.145,13.825-19.345,8.029C1139.351,1159.861,1150.836,1153.969,1162.521,1161.912Zm-25.522,9.15c-6.666,6.206-9.566-4.55-10.167-9.311,3.278-.128,8.053-.93,10.411,1.306S1138.847,1169.343,1137,1171.062Zm30.713,48.884c-2.48,19-21.127,38.949-43.9,32.237-2.544-.749-4.395-2.075-6.849-2.715-8.24-2.149-10.744-.656-19.694-9.4-6.477-6.33-11.275-17.416-9.974-29.827,2.045-19.507,20.736-39,42.844-29.657,2.2.93,4.683,2.7,6.354,3.177,2.609.745,5.983.423,8.77,1.053a31.743,31.743,0,0,1,12.773,6.575C1164.131,1196.558,1169.287,1207.882,1167.713,1219.946Z" transform="translate(454.277 -1125.711)" fill="#f2f7e8" fill-rule="evenodd"/>
        <path id="Path_485" data-name="Path 485" d="M1107.662,1216.418c-.82-6.6-12.442-3.158-9.918-21.449.287-2.085.5-1.067-.644-3.894-.63.21-3.154-1.167-3.364,7.421-.231,9.542,7.471,19.123,13.927,17.922" transform="translate(458.443 -1110.719)" fill="#f2f7e8" fill-rule="evenodd"/>
        <path id="Path_486" data-name="Path 486" d="M1226.521,1177.161c3.147,3.329,7.095,11.95,8.018,15.4l8.476,19.125c-4.355,2.444-8.49,4.146-11.4,8.323a20.265,20.265,0,0,0-3.383,16.319c5.035,24.28,43.545,18.651,39.515-7.609-1.931-12.57-11.291-16.043-21.8-17.119l-15.808-35.441c-3.161-5.2-.7-3.6-2.014-9.071-3.271-13.6-21.527-12.693-26.363-10.441.471,7.606,1.276,14.611,3.746,18.617,2.8,4.335,8.656,6.408,15.6,5.45-3.831,6.232-16.4,27.011-22.27,30.462-3.559,2.091-10.3-.319-17.293,9.058a20.237,20.237,0,0,0-2.014,20.107c10.824,23.906,47.638,7.707,36.756-16.812a21.938,21.938,0,0,0-5.553-7.186,15.565,15.565,0,0,0-3.916-2.483c-.748-.359-1.425-.585-2.21-.972l-1.956-1.167c13.477-15.054,14.438-20.881,23.875-34.564m-5.052-15.432c2.843,2.442,5.672,9.992,1.736,13.954-3.924,3.946-17.948,4.729-18.461-16.651C1210.561,1158.876,1217.659,1158.461,1221.469,1161.73Zm-27.259,53.949c9.736-2.588,17.922,4.29,19.883,11.616a16.948,16.948,0,0,1-11.823,20.832C1180.805,1253.786,1171.543,1221.7,1194.21,1215.679Zm50.169-.122c9.64-2.247,17.9,4.592,19.78,12.053a16.921,16.921,0,0,1-11.626,20.509C1230.632,1253.933,1221.593,1220.869,1244.379,1215.557Z" transform="translate(493.689 -1125.714)" fill="#f2f7e8" fill-rule="evenodd"/>
        <path id="Path_487" data-name="Path 487" d="M1216.518,1209.67c-.869,7.047,3.979,12.781,11.1,11.058l-6.26-4.545c-3.37-2.821,1.031-5.685-4.843-6.513" transform="translate(509.913 -1102.918)" fill="#f2f7e8" fill-rule="evenodd"/>
        <path id="Path_488" data-name="Path 488" d="M866.2,1323.1c-9.193-3.337-6.916-12.019-1.5-18.151,2.329-2.637,2.368-2.019,5.231.239,5.173,4.077,8.487,8.114,5.352,13.89l7.291,7.7-8.2,5.053c-3.566,1.256-5.574-3.7-7.939-4.222,2.112,5.167.663,1.949,3.2,5.637,13.23,19.222,1.879,47.92-22.309,51.855-11.747,1.909-16.061-2.141-22.03-3.459l-6.341,8.192a6.749,6.749,0,0,1-1.479,1.269l-3.736-5.749c-2.471,3.532-2.227,4.968-6.961,2.943l-.615-5.056,3.327-1.963-6.862-2.138,10.341-9.7c-7.954-15.979-5.892-30.606,7.38-43.714,6.542-5.3,15.769-7.885,21.281-7.609,9.081.454,12.764,2.342,22.147,8.138Zm.994-16.183c-12.385,16.555,8.212,16.038,6.233,7.15C872.8,1311.258,869.484,1308.913,867.19,1306.913Zm11.674,19.287c-2.25-2.324-7.709-7.211-8.425-.894C869.759,1331.3,876.394,1328.07,878.864,1326.2Zm-63.106,9.173c-8.419,13.562-6.076,32.822,9.961,42.716a30.852,30.852,0,0,0,42.224-10.658c7.717-12.882,5.211-32.233-10.465-41.711C844.5,1317.877,825.2,1320.157,815.758,1335.373Zm-3.3,47.059,4.126-.026,1.127,3.951,4.946-6.226-8.2-8.033-5.951,5.4,4.313,1.456Z" transform="translate(336.318 -1063.674)" fill="#f2f7e8" fill-rule="evenodd"/>
        <path id="Path_489" data-name="Path 489" d="M838.173,1359.506c.3-3.685,2.44-2.41,6.066-6.889a18.67,18.67,0,0,0,3.736-15.195c-.677-4.051-3.113-3.731-.765-7.708a23.629,23.629,0,0,1,3.766,15.8c.031,2.623-6.753,15.8-12.8,13.992" transform="translate(351.231 -1052.557)" fill="#f2f7e8" fill-rule="evenodd"/>
        <path id="Path_490" data-name="Path 490" d="M1362.849,1344.453a43.479,43.479,0,0,0,6-25.18c-1.218-18.3-13.972-29.618-32.091-31.308q1.146-3.258,2.3-6.516c13.835,7.761,25.165-2.036,24.97-14.586-10.617-5.742-19.452-5.966-25.837,1.391-3.115-.433-5.921-3.474-12.749-2.619-2.019.253-2.77.446-3.892,1.324,1.479,8.2.88,19.289,13.39,15.323q-.539,2.355-1.076,4.708c-25.884-13.156-56.022,5.556-52.079,40.51,1.84,14.472,11.064,25.531,21.615,29.928,3.907,1.628,6.34,1.549,10.3,2.69,20.885,6.016,37.338,4.489,49.155-15.667m-2.7-75.242c-6.247,18.642-17.146,13.826-19.345,8.03C1336.978,1267.162,1348.465,1261.271,1360.152,1269.212Zm-25.523,9.15c-6.666,6.208-9.566-4.55-10.167-9.309,3.278-.129,8.054-.93,10.411,1.306S1336.477,1276.643,1334.629,1278.362Zm30.713,48.885c-2.48,19-21.127,38.948-43.9,32.236-2.544-.748-4.395-2.075-6.849-2.714-8.239-2.149-10.743-.656-19.695-9.4-6.479-6.331-11.275-17.416-9.974-29.827,2.047-19.507,20.736-39,42.846-29.657,2.2.93,4.683,2.7,6.352,3.177,2.609.745,5.983.423,8.77,1.053a31.746,31.746,0,0,1,12.774,6.575C1361.76,1303.859,1366.916,1315.181,1365.341,1327.247Z" transform="translate(537.187 -1080.696)" fill="#f2f7e8" fill-rule="evenodd"/>
        <path id="Path_491" data-name="Path 491" d="M1305.292,1323.719c-.822-6.6-12.444-3.158-9.921-21.449.288-2.085.5-1.068-.643-3.894-.63.21-3.154-1.167-3.363,7.42-.231,9.543,7.469,19.124,13.927,17.923" transform="translate(541.354 -1065.704)" fill="#f2f7e8" fill-rule="evenodd"/>
        <path id="Path_492" data-name="Path 492" d="M167.154,1260.9l-.06-6.151-6.472,1.154-.579-5.42-6.811,1.777-1.985-5.892-6.056,3.765-2.48-5.41-4.971,4.919-4.193-4.483-3.593,5.722-5.821-3.627-1.753,4.836-4.716-1.814-.962,5.144-5.593-.866.19,5.258-5.959-.528,1.049,5.5-4.88.442,1.651,6.535-5.907.68,3.248,7.019-5.844,2.183,4.1,5.156-4.768,3.772,5.238,4.06-4.1,5.444,5.956,2.825-2.9,6.026,6.29,1.61-1.817,6.419,6.709.016-.8,6.645,6.829-1.145-.105,6.063,7.17-1.884,1.5,6.015,5.9-3.112,2.95,5.362,5.163-4.264,4.425,4.592,3.532-5.217,2.584,2.287,2.97,1.632,1.807-4.541.908-1.476,6.1,2.656.612-6.483,6.524,2.172-.016-7.335,6.3,1.01-1.016-7.227,6.154-.606-2.087-6.138,5.929-2.331-3.715-6.121,5.35-2.61-4.386-5.163,4.406-4.425-5.431-3.438,3.769-5.32-6.287-2.342,2.524-6.165-5.968-.918.872-6.594Zm-36.354-5.953,2.748-4.7,4.276,3.336,3.837-3.634,3.651,4.138,4.789-3.008.991,4.853,6.331-1.915.5,3.828,6.376.349-.116,5.339,5.884.169-.808,5.807,5.171.884-1.711,5.343,4.931,2.155-2.745,5.4,4.386,2.775-3.4,4.181,2.8,3.261.42.48.417.5-4.555,1.792,3.019,6.043-5.19,1.428,2.04,5.905-5.968.633,1.371,5.907-5.418-.63-.534,6.3-5.968-1.356-.823,5.548-5.43-2.161-2.094,5.039-4.635-3.123-3.848,4.592-2.788-4.031-5.044,3.736-2.214-4.8-5.279,2.7-1.5-4.942-6.264,1.605-.065-5.266-6.351.572.886-5.523-6.315-.678,1.64-5.364-5.482-1.684,2.437-4.886-5.188-2.741,3.465-4.172-4.483-3.566,4.183-3.049-3.4-5.186,4.639-2.545-2.679-5.684,5.4-1.358-1.493-5.174,4.321-.575-.545-4.843,5.075.7-.065-5.562,4.358,1.56,1.268-4.859,3.877,1.576,2.6-4.356Z" transform="translate(39.03 -1088.214)" fill="#f2f7e8" fill-rule="evenodd"/>
        <path id="Path_493" data-name="Path 493" d="M115.215,1256.961c-.581,1.261-2.077,7.268.264,11.69,2.2-.694,1.969,2.464,2.141-7.576l7.57,3.015c-.085-3.679-.975-3.014-4.277-4.825-1.914-1.05-3.434-2.63-5.7-2.3" transform="translate(47.51 -1083.097)" fill="#f2f7e8" fill-rule="evenodd"/>
        <path id="Path_494" data-name="Path 494" d="M124.92,1285.2c2.586-1.441,1.725-4.227,1.719-7.459l5.839,2.754c3.09.481.241.185,1.542-.249-2.892-3.521-4.821-6.679-10.141-7.061-.3,6.529-1.455,10.344,1.042,12.015" transform="translate(51.345 -1076.273)" fill="#f2f7e8" fill-rule="evenodd"/>
        <path id="Path_495" data-name="Path 495" d="M140.426,1288.219c1.194-2.1.758-4.578.931-7.606l7.11,2.711.25-1.447c-.051-1.13-6.683-5.424-10.232-5.616-.459,9.661-1.638,11,1.94,11.957" transform="translate(57.461 -1074.981)" fill="#f2f7e8" fill-rule="evenodd"/>
        <path id="Path_496" data-name="Path 496" d="M121.578,1291.761l5.715,2.706c2.775.4.368.128,1.462-.288-2.657-3.29-4.535-6.389-10.106-6.987-.484,10.828-1.625,11.318,2.395,12.025Z" transform="translate(49.153 -1070.396)" fill="#f2f7e8" fill-rule="evenodd"/>
        <path id="Path_497" data-name="Path 497" d="M141.92,1276.2c1.4-2.3.734-4.329,1.062-7.6l6.973,2.709c.579-2.5.916-1.882-3.285-4.375-2.447-1.449-3.5-2.744-6.394-2.372-.759,8.9-1.894,10.483,1.644,11.639" transform="translate(58.113 -1079.917)" fill="#f2f7e8" fill-rule="evenodd"/>
        <path id="Path_498" data-name="Path 498" d="M110.41,1282.253c2.454-1.72,1.559-4.247,1.634-7.566l3.78,2c4.022,2.236,3.432.535,3.763.386-2.266-2.288-4.284-4.745-7.1-6.061-3.82-1.787-2.312-.45-3-.132-.571,6.023-1.79,9.529.923,11.373" transform="translate(45.206 -1077.566)" fill="#f2f7e8" fill-rule="evenodd"/>
        <path id="Path_499" data-name="Path 499" d="M128.912,1271.225c4.027-.779,2.723-3,2.774-7.457l3.75,1.908c3.708,1.99,3.691.564,3.7.558-2.872-3.281-5.238-6.672-10.128-7Z" transform="translate(53.679 -1082.125)" fill="#f2f7e8" fill-rule="evenodd"/>
        <path id="Path_500" data-name="Path 500" d="M108.858,1294.192c2.427-1.828,1.495-4.177,1.671-7.546l7.549,2.483c-2.092-2.193-4.269-5-7.081-6.283-3.039-1.393-3.029-.038-3.035-.036-.63,6.084-1.86,9.448.9,11.382" transform="translate(44.544 -1072.483)" fill="#f2f7e8" fill-rule="evenodd"/>
        <path id="Path_501" data-name="Path 501" d="M133.661,1301.506c3.175-.969,1.728-3.344,2.311-7.523l7.213,2.683c-2.162-2.422-6.051-7.643-9.481-6.829-1.417,2.839-2.019,9.311-.043,11.67" transform="translate(55.142 -1069.322)" fill="#f2f7e8" fill-rule="evenodd"/>
        <path id="Path_502" data-name="Path 502" d="M43,1255.341c4.558.467,13.175,4.418,16.129,6.433l18.908,8.952c-1.7,4.694-3.723,8.683-3.2,13.747a20.272,20.272,0,0,0,8.094,14.571c19.666,15.1,45.159-14.306,24.961-31.563-9.668-8.26-19.026-4.781-27.691,1.268l-35.113-16.523c-5.793-1.877-2.883-2.271-7.448-5.555-11.36-8.168-24.592,4.442-26.785,9.305,5.323,5.454,10.5,10.235,14.993,11.654,4.953,1.455,10.74-.8,15.373-6.056,1.167,7.22,5.218,31.163,3.022,37.61-1.332,3.908-8.012,6.484-7.184,18.153a20.235,20.235,0,0,0,11.6,16.544c23.807,11.038,41.114-25.266,16.864-36.732a21.987,21.987,0,0,0-8.9-1.818,15.542,15.542,0,0,0-4.586.679c-.8.214-1.461.487-2.31.705l-2.244.393c.379-20.2-2.7-25.242-4.483-41.768m-13.9-8.388c3.748-.009,10.822,3.862,10.425,9.434-.395,5.55-10.506,15.3-24.853-.558C18.971,1251.912,24.074,1246.963,29.095,1246.953Zm14.577,58.659c5.687-8.317,16.376-8.452,22.646-4.183a16.947,16.947,0,0,1,4.646,23.5C58.4,1343.227,30.435,1324.973,43.672,1305.612Zm37.921-32.849c5.833-7.995,16.559-8.212,22.85-3.786a16.921,16.921,0,0,1,4.586,23.125C96.237,1310.806,67.8,1291.664,81.593,1272.763Z" transform="translate(4.148 -1088.522)" fill="#f2f7e8" fill-rule="evenodd"/>
        <path id="Path_503" data-name="Path 503" d="M50.711,1302.363c-4.869-2.52-2.515,3.5-10.4-.058l-3.922-1.384c-1.067,3.643,3.144,5.1,5.858,5.564,2.331.4,5.424.073,7.093-1.527,3.591-3.439.825-.305,1.374-2.595" transform="translate(14.791 -1064.636)" fill="#f2f7e8" fill-rule="evenodd"/>
        <path id="Path_504" data-name="Path 504" d="M62.253,1278.947c3.942,5.907,11.359,7.085,15.63,1.127l-7.709.646c-4.395.063-2.931-4.978-7.921-1.773" transform="translate(25.714 -1074.302)" fill="#f2f7e8" fill-rule="evenodd"/>
        <path id="Path_505" data-name="Path 505" d="M22.368,1179.589c.843-7.837,6.52-24.022,14.319-29.337,2.846-1.938,5.252,2.229,11.572,9,4.76,5.1,54.241,56.9,55.911,59.884-4.357,8.334-20.091,12.736-25.759,13.789-29.347,5.449-59.7-19.379-56.043-53.339m17,34.871a42.592,42.592,0,0,1-11.383-28.87c-.03-19.1,11.008-26.258,12-30.87l-1.784-1.307c-12.524,8.49-16.219,32.3-9.763,48.982,9.85,25.452,42.248,36.448,66.472,21.149a36.148,36.148,0,0,0,3.881-2.734c1.955-1.887,1.594-.62.94-2.882l-14.011,7.5C72.106,1231.512,51.607,1227.565,39.364,1214.46Zm14.56,6.937c14.864,6.889,36.6,2.778,42.725-6.317l-45.961-48.8c-2.882-3.065-7.15-8.832-9-7.929-5.54,2.691-9.871,18.244-10.4,23.03C29.853,1194.4,35.3,1212.765,53.924,1221.4Z" transform="translate(8.855 -1128.045)" fill="#f2f7e8" fill-rule="evenodd"/>
        <path id="Path_506" data-name="Path 506" d="M46.859,1175.938c-.918,2.921-8.3,3.829-8.682,1.352-.389-2.5,6.817-3.77,8.682-1.352" transform="translate(15.607 -1117.612)" fill="#f2f7e8" fill-rule="evenodd"/>
        <path id="Path_507" data-name="Path 507" d="M65.749,1195.471c-2.54-1.207-5.022-5.743-3.35-8.493,2.652.454,2.091,1.123,3.241,3.628,1.173,2.556,2.185,2.511.109,4.865" transform="translate(25.547 -1112.438)" fill="#f2f7e8" fill-rule="evenodd"/>
        <path id="Path_508" data-name="Path 508" d="M55.027,1186.339c2.975,2.168,1.314,4.222-.994,9.322-2.21-2.23-1.843-1.458-1.083-4.858.432-1.929.355-3.343,2.077-4.464" transform="translate(21.564 -1112.706)" fill="#f2f7e8" fill-rule="evenodd"/>
        <path id="Path_509" data-name="Path 509" d="M46.662,1169.335c-2.626,1.631-3.417.19-8.3-3.721,2.222-2.613,8.108.918,8.3,3.721" transform="translate(15.691 -1121.784)" fill="#f2f7e8" fill-rule="evenodd"/>
        <path id="Path_510" data-name="Path 510" d="M49.663,1183.382c-.476,4.5-4.29,4.8-7.16,5.418.694-2.43.935-2.338,2.972-4.225,2.6-2.406,1.827-2.247,4.188-1.194" transform="translate(17.428 -1114.253)" fill="#f2f7e8" fill-rule="evenodd"/>
      </g>
    </g>
    <text id="_" data-name=" " transform="translate(-1887.097 1295.756)" font-size="44" font-family="Lato-Bold, Lato" font-weight="700"><tspan x="0" y="0"> </tspan></text>
    <path id="Path_1032" data-name="Path 1032" d="M82.777,1368.891l-.06-6.151-6.472,1.153-.579-5.418-6.811,1.777-1.986-5.892-6.054,3.765-2.48-5.41-4.971,4.917-4.195-4.481-3.591,5.721-5.821-3.626L38,1360.08l-4.716-1.813-.962,5.144-5.593-.867.19,5.258-5.959-.527,1.049,5.5-4.88.44,1.651,6.536-5.908.681,3.248,7.018-5.844,2.183,4.105,5.157-4.768,3.77,5.238,4.061-4.1,5.444,5.956,2.823-2.9,6.026,6.291,1.611-1.817,6.419,6.709.014-.8,6.645,6.829-1.146-.105,6.064,7.17-1.885,1.5,6.016,5.9-3.113,2.95,5.363,5.163-4.266,4.425,4.594,3.532-5.218,2.584,2.287,2.968,1.634,1.808-4.542.908-1.475,6.1,2.655.612-6.483,6.524,2.172-.016-7.335,6.3,1.011-1.018-7.225,6.155-.608-2.087-6.138,5.929-2.331-3.715-6.121,5.35-2.61-4.386-5.161,4.406-4.426-5.433-3.437,3.77-5.322-6.287-2.342,2.524-6.164-5.969-.92.873-6.594Zm-36.354-5.953,2.747-4.7,4.277,3.334,3.836-3.634,3.652,4.138,4.789-3.007.991,4.852L73.046,1362l.5,3.83,6.377.348-.116,5.339,5.884.17-.808,5.806,5.171.886-1.711,5.343,4.931,2.155-2.745,5.394,4.386,2.776-3.405,4.179,2.8,3.261.422.48.416.5-4.554,1.791,3.019,6.043-5.19,1.429,2.04,5.9-5.968.635,1.371,5.907-5.418-.632-.534,6.3-5.966-1.356-.825,5.549-5.43-2.162-2.094,5.041-4.635-3.123-3.847,4.592-2.791-4.033-5.042,3.736-2.216-4.8-5.279,2.7-1.5-4.941-6.263,1.607-.067-5.266-6.35.571.886-5.522-6.315-.679,1.64-5.366-5.482-1.684,2.437-4.885-5.188-2.741,3.465-4.173-4.483-3.564,4.183-3.051-3.4-5.186L20,1388.554l-2.679-5.682,5.4-1.359-1.493-5.174,4.32-.575-.545-4.843,5.076.7-.067-5.563,4.359,1.56,1.268-4.858,3.877,1.574,2.6-4.355Z" transform="translate(-2625.546 235.318)" fill="#dbedc7" fill-rule="evenodd"/>
    <path id="Path_1033" data-name="Path 1033" d="M30.839,1364.954c-.583,1.262-2.078,7.269.263,11.691,2.2-.7,1.969,2.463,2.139-7.576l7.572,3.015c-.085-3.679-.975-3.014-4.277-4.826-1.914-1.05-3.435-2.63-5.7-2.3" transform="translate(-2617.066 240.435)" fill="#dbedc7" fill-rule="evenodd"/>
    <path id="Path_1034" data-name="Path 1034" d="M40.542,1393.191c2.588-1.441,1.726-4.229,1.722-7.461l5.837,2.754c3.092.481.24.185,1.542-.248-2.892-3.519-4.822-6.679-10.141-7.061-.3,6.53-1.455,10.344,1.041,12.016" transform="translate(-2613.231 247.258)" fill="#dbedc7" fill-rule="evenodd"/>
    <path id="Path_1035" data-name="Path 1035" d="M56.049,1396.213c1.194-2.1.758-4.579.931-7.607l7.11,2.713.25-1.448c-.051-1.129-6.683-5.424-10.233-5.614-.457,9.661-1.637,11,1.942,11.957" transform="translate(-2607.115 248.551)" fill="#dbedc7" fill-rule="evenodd"/>
    <path id="Path_1036" data-name="Path 1036" d="M37.2,1399.755l5.715,2.7c2.775.4.368.128,1.462-.288-2.657-3.289-4.535-6.388-10.107-6.985-.484,10.828-1.624,11.316,2.4,12.025Z" transform="translate(-2615.424 253.136)" fill="#dbedc7" fill-rule="evenodd"/>
    <path id="Path_1037" data-name="Path 1037" d="M57.541,1384.193c1.4-2.3.735-4.328,1.063-7.6l6.971,2.71c.579-2.5.917-1.884-3.285-4.375-2.446-1.451-3.5-2.744-6.391-2.374-.761,8.9-1.894,10.483,1.641,11.639" transform="translate(-2606.463 243.615)" fill="#dbedc7" fill-rule="evenodd"/>
    <path id="Path_1038" data-name="Path 1038" d="M26.031,1390.246c2.456-1.72,1.559-4.246,1.635-7.566l3.78,2c4.02,2.236,3.432.535,3.763.387-2.266-2.29-4.284-4.747-7.1-6.063-3.82-1.786-2.314-.448-3-.13-.571,6.023-1.789,9.529.921,11.372" transform="translate(-2619.37 245.966)" fill="#dbedc7" fill-rule="evenodd"/>
    <path id="Path_1039" data-name="Path 1039" d="M44.535,1379.217c4.027-.778,2.723-3,2.774-7.455l3.749,1.908c3.709,1.99,3.691.562,3.7.556-2.873-3.28-5.238-6.67-10.128-7Z" transform="translate(-2610.897 241.407)" fill="#dbedc7" fill-rule="evenodd"/>
    <path id="Path_1040" data-name="Path 1040" d="M24.48,1402.185c2.429-1.828,1.495-4.178,1.671-7.545l7.55,2.483c-2.092-2.194-4.269-5-7.081-6.284-3.039-1.391-3.029-.037-3.035-.035-.63,6.086-1.861,9.45.894,11.382" transform="translate(-2620.032 251.049)" fill="#dbedc7" fill-rule="evenodd"/>
    <path id="Path_1041" data-name="Path 1041" d="M49.283,1409.5c3.177-.97,1.729-3.343,2.312-7.522l7.213,2.682c-2.163-2.422-6.051-7.641-9.481-6.828-1.418,2.837-2.017,9.309-.044,11.668" transform="translate(-2609.434 254.21)" fill="#dbedc7" fill-rule="evenodd"/>
    <path id="Path_1042" data-name="Path 1042" d="M165.111,1394.449c1.773-5.471,1.258-15.578-3.9-15.946-3.472-.247-5.417,5.546-10.553,9.722-5.856,4.762-17.351,6.914-24.8,4.119-9.01-3.379-4.449-.443-6.463-.774l-8.642-26.826c-6.023,1.285-6.382.811-7.626,4.71-1.028,3.221-1.753,7.17-2.585,10.781-1.72,7.468-5.159,13.588-2.863,21.88,9.332,33.729,60.5,35.869,81.557,5.117,5.546-8.1,5.027-8.788.639-17.815Zm-43.277-.305c26.458,9.63,35.159-10.347,39.839-12.4l-.828,14.4c-.457,1.053-15.179,7.5-28.294,3.549C126.669,1397.93,125.7,1396.475,121.834,1394.144Zm-12.868-26.051c3.449,4.747.992,16.8,5.609,23.015,9.673,13.021,26.576,15.767,42.363,10.066l21.421-8.442c2.62,9.57,2.366,7.469-3.591,15.2-18.589,24.112-62.358,25.116-73.411-4.359-2.92-7.79-.439-12.279,1.272-19.087C104.89,1375.482,104.455,1369.7,108.966,1368.093Z" transform="translate(-2588.925 240.366)" fill="#dbedc7" fill-rule="evenodd"/>
    <path id="Path_1043" data-name="Path 1043" d="M108.915,1399.019c-2.122,5.553,17.568,11.065,28.189,10.316,14.726-1.041,16.424-5.217,24.71-13.962-2.4-.111-2.6,1.469-4.76,3.186-11.642,9.258-29.5,10.194-42.127,3.124-2.681-1.5-3.448-3.151-6.012-2.663" transform="translate(-2583.955 253.212)" fill="#dbedc7" fill-rule="evenodd"/>
    <path id="Path_1044" data-name="Path 1044" d="M110.1,1399.92c-.305-3.239-1.417-2.336-3.066-4.811-2.44-3.658-.138-4.314-4.389-4.775-.091,5.029,3.261,11.068,7.455,9.586" transform="translate(-2586.519 251.101)" fill="#dbedc7" fill-rule="evenodd"/>
    <path id="Path_1071" data-name="Path 1071" d="M1371.194,1568.048c-2.128-1.743-4.748-5.847-6.4-8.787a14.017,14.017,0,0,0,6.557-8.963c1.309-6.133-1.208-9.484-.735-14.212-.717-.938-.2.109-1.178-1.955-.038-.084-.754-2.058-.76-2.077-4.276-14.074-1.2-23.443-2.578-34.886-4.244-35.239-55.845-46.441-74.78-16.753-13.992,21.941-5.593,49.69,12.289,59.552,10.056,5.546,19.821,6.9,29.266,13.416,18.061,12.455,13.369,12.7,29.613,8.448,3.779,6.81,5.031,11.576,9.279,10.82Zm-14.447-8.344c-7.081,2.433-10.743-1.373-15.417-4.8-24.536-17.994-30.917-12.522-41.948-22.519-6.986-6.331-12.464-18.968-10.885-32.895,5.024-44.322,62.7-39,72.444-8.7,3.821,11.887.088,26.222,3.574,40.015C1368.115,1545.034,1371.107,1554.771,1356.748,1559.7Z" transform="translate(-2090.784 281.727)" fill="#dbedc7" fill-rule="evenodd"/>
    <path id="Path_1075" data-name="Path 1075" d="M1339.633,1495.271c-2.747-25.841-45.1-22.474-40.742,6.335,3.8,25.1,43.721,21.71,40.742-6.335m-16.754,18.988c-20.389,5.775-29.555-26.67-8.162-32.382C1335.285,1476.383,1346.421,1507.591,1322.878,1514.259Z" transform="translate(-2084.797 287.788)" fill="#dbedc7" fill-rule="evenodd"/>
    <path id="Path_1076" data-name="Path 1076" d="M1319.394,1486.943c-1.211,7.455,5.262-.879-1.26,16.539,9.213.5,7.386-13.854,4.391-16.207-3.569-2.8-2.645-.468-3.13-.332" transform="translate(-2076.592 291.195)" fill="#dbedc7" fill-rule="evenodd"/>
    <path id="Path_1054" data-name="Path 1054" d="M1250.617,1289.465l-.06-6.151-6.47,1.154-.581-5.42-6.811,1.777-1.986-5.892-6.054,3.765-2.48-5.41-4.971,4.919-4.195-4.483-3.591,5.721-5.82-3.625-1.754,4.835-4.716-1.813-.962,5.144-5.593-.867.189,5.259-5.958-.528,1.049,5.5-4.88.442,1.651,6.534-5.906.681,3.248,7.018-5.844,2.185,4.1,5.156-4.768,3.772,5.239,4.06-4.1,5.444,5.955,2.823-2.9,6.026,6.291,1.611-1.817,6.419,6.707.014-.8,6.645,6.828-1.146-.1,6.064,7.171-1.884,1.5,6.014,5.9-3.112,2.95,5.362,5.164-4.266,4.425,4.594,3.53-5.218,2.584,2.287,2.969,1.634,1.807-4.541.909-1.476,6.1,2.655.613-6.482,6.523,2.17-.014-7.335,6.3,1.011-1.016-7.225,6.154-.608-2.087-6.138,5.929-2.33-3.715-6.122,5.35-2.61-4.386-5.163,4.406-4.425-5.431-3.438,3.769-5.32-6.286-2.342,2.522-6.164-5.968-.92.872-6.594Zm-36.354-5.953,2.747-4.7,4.277,3.334,3.836-3.634,3.652,4.138,4.79-3.007.991,4.853,6.333-1.915.5,3.827,6.377.349-.116,5.34,5.885.169-.809,5.806,5.171.886-1.709,5.343,4.93,2.155-2.745,5.394,4.386,2.776-3.405,4.181,2.8,3.259.422.48.416.5-4.554,1.791,3.019,6.043-5.19,1.429,2.038,5.9-5.968.633,1.373,5.908-5.421-.632-.534,6.3-5.966-1.356-.823,5.548-5.43-2.162-2.094,5.041-4.633-3.123-3.848,4.592-2.789-4.033-5.044,3.736-2.214-4.8-5.281,2.7-1.5-4.941-6.264,1.607-.067-5.268-6.348.573.886-5.523-6.315-.678,1.638-5.366-5.482-1.682,2.437-4.886-5.188-2.741,3.465-4.173-4.483-3.566,4.183-3.049-3.4-5.186,4.639-2.545-2.679-5.682,5.4-1.358-1.492-5.174,4.32-.576-.545-4.842,5.075.7-.065-5.563,4.358,1.562,1.268-4.86,3.877,1.576,2.6-4.355Z" transform="translate(-2135.61 201.997)" fill="#f2f7e8" fill-rule="evenodd"/>
    <path id="Path_1055" data-name="Path 1055" d="M1198.679,1285.529c-.582,1.261-2.078,7.268.263,11.69,2.2-.7,1.969,2.463,2.141-7.576l7.57,3.015c-.084-3.679-.974-3.014-4.276-4.826-1.915-1.051-3.435-2.629-5.7-2.3" transform="translate(-2127.129 207.114)" fill="#f2f7e8" fill-rule="evenodd"/>
    <path id="Path_1056" data-name="Path 1056" d="M1208.382,1313.763c2.588-1.439,1.728-4.228,1.722-7.458l5.837,2.752c3.092.481.24.185,1.542-.248-2.892-3.519-4.821-6.679-10.141-7.059-.3,6.528-1.455,10.344,1.04,12.013" transform="translate(-2123.294 213.938)" fill="#f2f7e8" fill-rule="evenodd"/>
    <path id="Path_1057" data-name="Path 1057" d="M1223.889,1316.787c1.194-2.1.758-4.579.933-7.607l7.109,2.713.25-1.447c-.051-1.13-6.683-5.426-10.232-5.616-.458,9.66-1.637,11,1.94,11.957" transform="translate(-2117.178 215.23)" fill="#f2f7e8" fill-rule="evenodd"/>
    <path id="Path_1058" data-name="Path 1058" d="M1205.042,1320.329l5.714,2.7c2.775.4.369.128,1.462-.288-2.657-3.289-4.536-6.388-10.106-6.985-.486,10.828-1.624,11.316,2.4,12.025Z" transform="translate(-2125.487 219.815)" fill="#f2f7e8" fill-rule="evenodd"/>
    <path id="Path_1059" data-name="Path 1059" d="M1225.382,1304.768c1.4-2.3.735-4.329,1.062-7.6l6.973,2.709c.578-2.5.916-1.881-3.285-4.374-2.447-1.451-3.5-2.744-6.392-2.373-.759,8.9-1.894,10.483,1.642,11.64" transform="translate(-2116.526 210.294)" fill="#f2f7e8" fill-rule="evenodd"/>
    <path id="Path_1060" data-name="Path 1060" d="M1193.873,1310.82c2.456-1.719,1.559-4.247,1.634-7.566l3.78,2c4.021,2.236,3.432.535,3.763.388-2.266-2.29-4.286-4.747-7.1-6.062-3.82-1.787-2.312-.45-3-.133-.571,6.024-1.789,9.529.923,11.373" transform="translate(-2129.434 212.645)" fill="#f2f7e8" fill-rule="evenodd"/>
    <path id="Path_1061" data-name="Path 1061" d="M1212.375,1299.793c4.029-.779,2.723-3,2.774-7.457l3.75,1.908c3.708,1.99,3.691.562,3.7.556-2.872-3.281-5.237-6.67-10.128-7Z" transform="translate(-2120.96 208.086)" fill="#f2f7e8" fill-rule="evenodd"/>
    <path id="Path_1062" data-name="Path 1062" d="M1192.321,1322.759c2.427-1.828,1.493-4.178,1.671-7.545l7.55,2.483c-2.094-2.195-4.27-5-7.082-6.283-3.038-1.393-3.029-.038-3.033-.036-.632,6.084-1.861,9.448.894,11.38" transform="translate(-2130.095 217.728)" fill="#f2f7e8" fill-rule="evenodd"/>
    <path id="Path_1063" data-name="Path 1063" d="M1217.124,1330.073c3.176-.968,1.729-3.343,2.311-7.522l7.212,2.681c-2.163-2.422-6.051-7.643-9.481-6.828-1.417,2.838-2.019,9.311-.043,11.668" transform="translate(-2119.498 220.889)" fill="#f2f7e8" fill-rule="evenodd"/>
    <path id="Path_1064" data-name="Path 1064" d="M43.624,1561.075c4.24,2.019,11.2,8.8,13.363,11.758l15.179,15.145c-3.258,3.949-6.582,7.106-7.82,12.174A20.78,20.78,0,0,0,67.15,1617c13.8,21.345,48.529,1.716,34.957-21.895-6.494-11.3-16.728-11.159-27.174-8.3l-28.224-28.03c-4.95-3.8-2-3.186-5.283-7.925-8.161-11.795-25.275-4.169-29.063-.226,3.265,7.1,6.625,13.5,10.469,16.41,4.283,3.109,10.646,2.923,16.929-.562-1.357,7.375-5.678,31.885-10.016,37.358-2.629,3.316-9.965,3.508-13.179,15.058a20.745,20.745,0,0,0,5.516,19.966C41.275,1657.709,70.47,1628.6,51,1609.191a22.5,22.5,0,0,0-7.966-4.813,15.974,15.974,0,0,0-4.663-.924c-.849-.067-1.58-.031-2.473-.112l-2.3-.392c7.313-19.376,6.076-25.3,10.033-41.875M33.083,1548.2c3.623,1.279,9.122,7.451,6.824,12.693-2.29,5.225-15.408,11.162-23.808-9.085C21.6,1549.5,28.232,1546.478,33.083,1548.2Zm-6.094,61.656c8.351-6.077,18.721-2.531,23.306,3.746a17.372,17.372,0,0,1-3.591,24.287C28.278,1651.239,7.551,1623.994,26.989,1609.852ZM74.9,1591.169c8.382-5.714,18.813-2.234,23.368,4.2a17.347,17.347,0,0,1-3.525,23.909C75.962,1632.941,55.085,1604.68,74.9,1591.169Z" transform="translate(-2624.394 315.798)" fill="#dbedc7" fill-rule="evenodd"/>
    <path id="Path_1077" data-name="Path 1077" d="M33.853,1610.74c-3.836-4.107-3.63,2.508-10.026-3.634l-3.31-2.684c-2.285,3.15,1.28,6.01,3.743,7.388,2.114,1.184,5.211,1.935,7.374.963,4.65-2.085.9-.011,2.219-2.033" transform="translate(-2621.281 340.916)" fill="#dbedc7" fill-rule="evenodd"/>
    <path id="Path_1078" data-name="Path 1078" d="M52.991,1591.89c1.776,7.059,8.533,10.746,14.706,6.463l-7.667-2.027c-4.266-1.451-1.119-5.817-7.039-4.436" transform="translate(-2607.35 335.547)" fill="#dbedc7" fill-rule="evenodd"/>
    <path id="Path_1065" data-name="Path 1065" d="M1297.681,1542.055c-7.49,2.463-22.13,11.4-25.7,20.135-1.3,3.188,3.276,4.67,11.22,9.434,5.986,3.59,66.979,41.154,70.248,42.163,7.238-6,8.256-22.308,8.1-28.073-.8-29.837-31.428-54.326-63.873-43.659m37.653,9.333a42.592,42.592,0,0,0-30.612-5.1c-18.689,3.965-23.378,16.254-27.682,18.184l-1.651-1.472c5.685-14.022,28.2-22.61,45.861-19.782,26.947,4.314,44.471,33.7,34.573,60.584a35.7,35.7,0,0,1-1.863,4.365c-1.437,2.307-.272,1.689-2.622,1.523l4.4-15.269C1358.851,1579.845,1350.707,1560.622,1335.334,1551.388Zm9.826,12.79c9.842,13.1,10.367,35.209,2.751,43.1l-57.332-34.747c-3.6-2.177-10.131-5.146-9.637-7.149,1.476-5.98,15.778-13.466,20.349-14.982C1313.73,1546.28,1332.824,1547.765,1345.16,1564.178Z" transform="translate(-2096.045 313.684)" fill="#dbedc7" fill-rule="evenodd"/>
    <path id="Path_1079" data-name="Path 1079" d="M1299.955,1564.423c2.666-1.51,2.01-8.915-.494-8.772-2.525.143-2.26,7.452.494,8.772" transform="translate(-2085.157 320.454)" fill="#dbedc7" fill-rule="evenodd"/>
    <path id="Path_1080" data-name="Path 1080" d="M1323.22,1578.819c-1.71-2.233-6.667-3.711-9.005-1.5,1,2.5,1.535,1.81,4.225,2.41,2.745.613,2.913,1.613,4.781-.908" transform="translate(-2078.236 329.088)" fill="#dbedc7" fill-rule="evenodd"/>
    <path id="Path_1081" data-name="Path 1081" d="M1311.919,1570.525c2.741,2.457,4.4.4,8.907-2.92-2.643-1.7-1.81-1.5-4.975-.044-1.8.825-3.2,1.046-3.932,2.964" transform="translate(-2079.199 324.965)" fill="#dbedc7" fill-rule="evenodd"/>
    <path id="Path_1072" data-name="Path 1072" d="M1293.6,1565.507c1.046-2.909-.528-3.381-5.375-7.341-2.09,2.719,2.594,7.738,5.375,7.341" transform="translate(-2089.359 321.511)" fill="#dbedc7" fill-rule="evenodd"/>
    <path id="Path_1082" data-name="Path 1082" d="M1307.742,1565.829c4.307-1.407,3.8-5.2,3.8-8.134-2.233,1.187-2.093,1.4-3.51,3.79-1.81,3.045-1.816,2.256-.294,4.344" transform="translate(-2081.415 321.313)" fill="#dbedc7" fill-rule="evenodd"/>
  </g>
</svg>
