<svg xmlns="http://www.w3.org/2000/svg" width="38.222" height="38.22" viewBox="0 0 38.222 38.22">
  <path id="Path_1001" data-name="Path 1001" d="M1098.071,2636.255a8.08,8.08,0,1,1-8.082,8.081,8.081,8.081,0,0,1,8.082-8.081m10.219-3.641a1.73,1.73,0,1,1-1.73,1.73A1.731,1.731,0,0,1,1108.29,2632.613Zm-16.342-7.388h12.243a13.027,13.027,0,0,1,12.99,12.99v12.242a13.027,13.027,0,0,1-12.99,12.989h-12.243a13.027,13.027,0,0,1-12.989-12.989v-12.242A13.027,13.027,0,0,1,1091.948,2625.225Z" transform="translate(-1078.96 -2625.225)" fill-rule="evenodd"/>
</svg>
