<svg xmlns="http://www.w3.org/2000/svg" width="25.001" height="25" viewBox="0 0 25.001 25">
  <path id="Path_787" data-name="Path 787" d="M1327.917,136.148l4.216,4.216a1.963,1.963,0,0,0,2.771,0h0a1.968,1.968,0,0,0,0-2.771l-4.221-4.218a1.965,1.965,0,0,0-2.768,0v0a1.963,1.963,0,0,0,0,2.771m-8.418-20.212a9.023,9.023,0,0,1,7.168,14.507l1.666,1.666a2.723,2.723,0,0,0-1.029.655,2.773,2.773,0,0,0-.655,1.029l-1.666-1.666a9.024,9.024,0,1,1-5.484-16.191Zm0,2.474a6.551,6.551,0,1,1-6.55,6.552A6.553,6.553,0,0,1,1319.5,118.41Z" transform="translate(-1310.476 -115.936)" fill="#737370" fill-rule="evenodd"/>
</svg>
