<svg xmlns="http://www.w3.org/2000/svg" width="176.556" height="121.482" viewBox="0 0 176.556 121.482">
  <g id="Group_166" data-name="Group 166" transform="translate(-2362.162 -2626.589)">
    <path id="Path_895" data-name="Path 895" d="M415.818,1851.331a60.357,60.357,0,1,1-60.358,60.357,60.356,60.356,0,0,1,60.358-60.357" transform="translate(2062.543 775.258)" fill="#f2e6f5" fill-rule="evenodd"/>
    <text id="Stone_" data-name="Stone " transform="translate(2446.224 2680.217)" font-size="25" font-family="Lato-Regular, Lato"><tspan x="0" y="0">Stone </tspan></text>
    <text id="Fruits" transform="translate(2446.677 2710.878)" font-size="25" font-family="Lato-Regular, Lato"><tspan x="0" y="0">Fruits</tspan></text>
    <path id="Path_959" data-name="Path 959" d="M321.984,1942.432c-.654-.752-2.087-3.121-2.49-3.417-.856-3.41-4.3-12.214-1.885-15.622-.071-2.328,1.5-4.5,2.276-6.475l2.1-4.254c.907-1.187.233-.4.735-.685,1.141-2.832,4.207-6.645,8.215-7.244,2.992-1.678,11.237.906,11.816,3.794,3.572-1.258,5.658.03,8.036,1.713,3.444,2.438,5.528,6.3,5.944,6.781,2.236,6.284.011,13.438-2.551,18.476-2.514,4.937-6.413,9.427-11.224,11.714-6.086,2.894-16.5.346-20.972-4.782m13.194-28.819c-.741.781-4.158,2.3-5.777,3.915-2.575,2.582-3.589,4.975-4.376,5.567-.771,2.961-2.156,6.114-1.282,9.893,1.766,7.64,14.711,12.164,20.839,6.085C351.832,1931.88,351.04,1910.485,335.178,1913.613Z" transform="translate(2046.311 797.439)" fill="#fcc403" fill-rule="evenodd"/>
    <path id="Path_960" data-name="Path 960" d="M344.048,1906.028c3.943-.055,4.757.52,8.219,2.518a8.757,8.757,0,0,1,2.786,2.546c1.4.882,2.5,3.139,3.221,5.071a22.771,22.771,0,0,1,1.126,7.1c.092,7.147-2.08,9.2-3.227,13.324-.94,2.037-3.208,5.755-4.723,6.629.578-.487-4.724,4.9-8.306,6.455-4.565,1.983-7.878,1.659-12.29-.132-5.242-2.128-12.123-2.564-14.3-15-2.013-11.473,3.136-26.325,13.49-30.3,5.826-2.237,8.981-.281,14.006,1.781m-1.026,2.9c-2.774-1.2-6.429-3.506-8.916-3.607-6.567-.267-11.423,7.163-13.951,12-2.99,8.191-3.65,18.337,2.1,25.513,4.47,5.129,14.887,7.677,20.972,4.782,4.811-2.287,8.71-6.777,11.224-11.714,2.562-5.038,4.308-11.45,2.073-17.732C355.819,1917.353,353.583,1908.491,343.022,1908.928Z" transform="translate(2046.04 797.04)" fill="#9c2b5c" fill-rule="evenodd"/>
    <path id="Path_919" data-name="Path 919" d="M356.925,1893.754l-7.826,2.557c-3.635.789-12.083,3.745-15.146,3.716,1.248-3.915,5.14-8.443,8.912-9.76,4.538-1.583,11.856.714,14.06,3.488" transform="translate(2053.521 791.375)" fill="#96b512" fill-rule="evenodd"/>
    <path id="Path_961" data-name="Path 961" d="M345.414,1912.665a8.757,8.757,0,0,0-2.787-2.546c-.979-.565-2.707-1-3.526-1.8.524-2.417,4.342-5.669,6.628-6.922,3.408-1.865,7.244-2.179,11.609-1.682-.644.737.1.176-1.065.862a11.449,11.449,0,0,1-1.13.474c-6.019,2.736-8.142,10.323-9.729,11.612" transform="translate(2055.68 795.469)" fill="#6e0d54" fill-rule="evenodd"/>
    <path id="Path_962" data-name="Path 962" d="M356.667,1899.872l.088-.349c1.083.647.261.305,1.689.275,4.075-.143,7.11-.876,11.007.744,3.18,1.321,6.023,3.32,7.343,5.657a21.476,21.476,0,0,1,3.285,5.863c5.193,14.3-.768,35.7-14.61,39.883-3.784,1.143-5.8.14-9.252.525l.554-.694c-7.4-1.963-11.024-12.256-12.1-13.613,1.147-4.125,3.319-6.177,3.227-13.324a22.771,22.771,0,0,0-1.126-7.1c-.721-1.932-1.823-4.189-3.221-5.071.724-1.449,3.711-8.876,9.729-11.612a11.449,11.449,0,0,0,1.13-.474c1.164-.686.42-.125,1.065-.862Zm16.326,10.636a7.413,7.413,0,0,0-3.139-6.927,4.582,4.582,0,0,0-3.659-1.064c-4.084.984-.446,6.581,1.316,8.063C369.833,1912.536,371.855,1912.035,372.993,1910.509Z" transform="translate(2057.546 795.47)" fill="#82246b" fill-rule="evenodd"/>
    <path id="Path_920" data-name="Path 920" d="M358.083,1905.22c-1.428.03-.606.372-1.689-.275l-.246-9.387-3.134.738-8.605,1.444.3-.1,7.826-2.557,3.594-1.023,1.13-7.471,2.24.135c.359,1.725-.88,6.3-1.123,8.652-.338,3.278-.224,6.494-.3,9.847" transform="translate(2057.907 790.048)" fill="#7a780a" fill-rule="evenodd"/>
    <path id="Path_921" data-name="Path 921" d="M356.424,1895.77l-.257.478-1.6,1.654c-1.7,2.027-2.958,3.408-5.934,4.191-2.4,1.116-6.338-.056-9.191-.616-1.411-1.046-5.2-1.3-5.492-2.992,3.063.029,11.511-2.927,15.146-3.716l-.3.1,8.605-1.444a18.128,18.128,0,0,0-.977,2.344" transform="translate(2053.521 792.917)" fill="#829e0d" fill-rule="evenodd"/>
    <path id="Path_963" data-name="Path 963" d="M323.046,1920.406c.788-.592,1.8-2.985,4.376-5.567,1.62-1.62,5.036-3.135,5.777-3.915,15.862-3.127,16.654,18.268,9.4,25.46-6.128,6.079-19.073,1.554-20.839-6.085-.874-3.779.511-6.931,1.282-9.893m15.595-5.011c-1.388-1.792-5.356,1.429-6.073,2.044a18.446,18.446,0,0,0-3.982,4.948c-2.762,4.587-2.352,10.4,2.988,11.965C341.946,1938.11,343.938,1919.121,338.64,1915.4Z" transform="translate(2048.29 800.128)" fill="#fa9e00" fill-rule="evenodd"/>
    <path id="Path_964" data-name="Path 964" d="M334.649,1919.53c-.776.21-.275-.265-.642.561-.436.977-.067.4-.217,1.357-.318,2.027.088.8-1.3,2.41-.153,2.392.385.663-.768,3.248a3.54,3.54,0,0,0-.424,1.276c-1.12,4.443-1.64,1.2-1.322,4.716-5.34-1.562-5.751-7.379-2.988-11.965a18.446,18.446,0,0,1,3.982-4.948c.717-.615,4.684-3.836,6.073-2.044-1.06.1-.079-.241-.825.485a9.194,9.194,0,0,0-.846,1.236c-.388.931-.365,2.367-.718,3.668m-2.219-3.052c1.429-.5,1.377-.172,1.556-1.575C332.227,1915.052,332.663,1914.941,332.43,1916.478Zm-4.327,5.156c-.927.581-.809.292-1.043,1.861C328.129,1922.9,328.085,1922.815,328.1,1921.634Zm2.676.792c-1.252.842-.971.21-1.244,1.956C331.17,1923.664,330.2,1923.918,330.779,1922.426Zm-4.284,3.648c-.512,1.161-.558.625,0,1.759.315-.507.464.86.348-.855C326.793,1926.242,326.66,1926.324,326.5,1926.074Zm2.109,5.312c-.556-2.236.253-.975-1.526-1.661C328.017,1931.786,327.539,1930.691,328.6,1931.386Z" transform="translate(2049.892 801.383)" fill="#d47d0a" fill-rule="evenodd"/>
    <path id="Path_965" data-name="Path 965" d="M328.619,1932.94c-.318-3.52.2-.272,1.322-4.716a3.541,3.541,0,0,1,.424-1.276c1.153-2.585.615-.856.768-3.248,1.393-1.607.987-.383,1.3-2.41.15-.952-.219-.38.217-1.357.366-.826-.135-.35.642-.561.353-1.3.331-2.737.718-3.668a9.191,9.191,0,0,1,.846-1.236c.745-.727-.236-.385.825-.485,5.3,3.726,3.306,22.715-7.066,18.958" transform="translate(2051.244 801.541)" fill="#ad5c00" fill-rule="evenodd"/>
    <path id="Path_966" data-name="Path 966" d="M330.324,1916.094c.233-1.537-.2-1.427,1.556-1.575-.179,1.4-.126,1.074-1.556,1.575" transform="translate(2051.998 801.766)" fill="#a34d00" fill-rule="evenodd"/>
    <path id="Path_996" data-name="Path 996" d="M328.08,1926.622c-1.066-.7-.588.4-1.526-1.661,1.779.686.97-.575,1.526,1.661" transform="translate(2050.417 806.147)" fill="#994500" fill-rule="evenodd"/>
    <path id="Path_984" data-name="Path 984" d="M329.529,1919.819c-.575,1.492.39,1.238-1.244,1.956.273-1.746-.009-1.115,1.244-1.956" transform="translate(2051.143 803.99)" fill="#a34d00" fill-rule="evenodd"/>
    <path id="Path_985" data-name="Path 985" d="M326.541,1921.122c.234-1.569.116-1.281,1.043-1.861-.018,1.181.026,1.266-1.043,1.861" transform="translate(2050.411 803.756)" fill="#a85403" fill-rule="evenodd"/>
    <path id="Path_993" data-name="Path 993" d="M326.262,1924.148c-.558-1.134-.512-.6,0-1.759.165.25.3.167.348.9.116,1.715-.033.348-.348.855" transform="translate(2050.125 805.068)" fill="#a34d00" fill-rule="evenodd"/>
    <path id="Path_986" data-name="Path 986" d="M329.81,1917.1c-.573,1.493.392,1.239-1.243,1.958.273-1.745-.007-1.115,1.243-1.958" transform="translate(2051.261 802.851)" fill="#a34d00" fill-rule="evenodd"/>
    <path id="Path_987" data-name="Path 987" d="M331.812,1916.261c-.573,1.493.392,1.239-1.242,1.958.273-1.746-.009-1.114,1.242-1.958" transform="translate(2052.102 802.497)" fill="#a34d00" fill-rule="evenodd"/>
    <path id="Path_994" data-name="Path 994" d="M329.38,1922.586c-.575,1.493.39,1.24-1.243,1.958.273-1.745-.007-1.114,1.243-1.958" transform="translate(2051.081 805.151)" fill="#a34d00" fill-rule="evenodd"/>
    <path id="Path_967" data-name="Path 967" d="M334.309,1917.276c.725-1.375,1.011-1.029-.318-2.192-.689,1.238-.534.941.318,2.192" transform="translate(2053.355 802.004)" fill="#a34d00" fill-rule="evenodd"/>
    <path id="Path_997" data-name="Path 997" d="M330.034,1926.967c1.272.071.238.67,2.214-.434-1.838-.5-.44-1.038-2.214.434" transform="translate(2051.876 806.587)" fill="#994500" fill-rule="evenodd"/>
    <path id="Path_988" data-name="Path 988" d="M332.724,1920.692c-.423,1.542-1.05.765-.159,2.313.815-1.569.666-.893.159-2.312" transform="translate(2052.748 804.356)" fill="#a34d00" fill-rule="evenodd"/>
    <path id="Path_989" data-name="Path 989" d="M334.3,1923.477c.74-1.4.666-1.1.263-2.118-.686.962-.772,1-.263,2.118" transform="translate(2053.53 804.636)" fill="#a85403" fill-rule="evenodd"/>
    <path id="Path_998" data-name="Path 998" d="M332.811,1925.965c1.12-.582.767-.177,1.042-1.415-.281.105-.341-.041-.816.522-1.11,1.312-.18.3-.226.893" transform="translate(2052.907 805.975)" fill="#a34d00" fill-rule="evenodd"/>
    <path id="Path_990" data-name="Path 990" d="M334.1,1918.337c-.423,1.542-1.049.768-.159,2.314.815-1.569.667-.894.159-2.314" transform="translate(2053.328 803.368)" fill="#a34d00" fill-rule="evenodd"/>
    <path id="Path_991" data-name="Path 991" d="M332.991,1916.472c-.422,1.543-1.049.766-.159,2.314.815-1.569.667-.894.159-2.314" transform="translate(2052.861 802.586)" fill="#a34d00" fill-rule="evenodd"/>
    <path id="Path_995" data-name="Path 995" d="M331.2,1923.008c-.422,1.543-1.049.766-.159,2.314.815-1.567.667-.894.159-2.314" transform="translate(2052.11 805.328)" fill="#a34d00" fill-rule="evenodd"/>
  </g>
</svg>
