<svg xmlns="http://www.w3.org/2000/svg" width="157.05" height="120.715" viewBox="0 0 157.05 120.715">
  <g id="Group_158" data-name="Group 158" transform="translate(-2381.668 -2445.516)">
    <path id="Path_793" data-name="Path 793" d="M415.817,1844.487a60.357,60.357,0,1,0-60.357-60.357,60.356,60.356,0,0,0,60.357,60.357" transform="translate(2062.543 721.744)" fill="#ffed59" fill-rule="evenodd"/>
    <text id="Kiwi" transform="translate(2454.451 2514.641)" font-size="25" font-family="Lato-Regular, Lato"><tspan x="0" y="0">Kiwi</tspan></text>
    <path id="Path_794" data-name="Path 794" d="M366.3,1778.706l-.229.385.744.2c.193.569.027.488-.505.97,1.075,0,.47-.039.788.29a1.62,1.62,0,0,1,.477,1.419c-.018.627.1.331-.451.947l.446.312a2.169,2.169,0,0,1-.175.62c-.034.3.118-.075.055.65a6.13,6.13,0,0,1-.16.708c-.961,3.542-1.559,3.215-1.949,4.167a14.087,14.087,0,0,1-3.831,4.067l-.339-.21.169.267a11.751,11.751,0,0,1-3.537,1.985,7.9,7.9,0,0,1-2.663.552,7.069,7.069,0,0,1-4.5-.662c-1.826-.924-2.17-1.685-3.2-3.269a2.771,2.771,0,0,1,.328-1.045l-.454-.051-.244-.132a12.676,12.676,0,0,1,1.83-8.108c.223-.247-.006-.449,1.178.045l-.109-.25c-.021-.035-.043-.084-.067-.124l-.436-.585a7.268,7.268,0,0,1,1.543-1.821c1.3-1.3,1.207-1.25,1.942-1.072.694-1.265.372-.974,1.622-1.64.772-.414,1.468-.648,2.126-1.082.214.131.5-.058.987-.193,2.217-.61,5.577-.612,7.321,1.09.044.323-.009-.044.507.351a6.451,6.451,0,0,1,.87.857Z" transform="translate(2058.976 743.518)" fill="#f7ffd6" fill-rule="evenodd"/>
    <path id="Path_795" data-name="Path 795" d="M355.826,1774.1a7.892,7.892,0,0,1,.64,1.015,7.227,7.227,0,0,0,1.036,1.11l.386-.871.554.552c-.105.3-.163.348-.109.488a4.671,4.671,0,0,1,.483,2.043,1.329,1.329,0,0,0,.369.987c-.659.433-1.354.667-2.126,1.082-1.251.666-.928.375-1.622,1.64-.735-.179-.64-.231-1.942,1.072a7.268,7.268,0,0,0-1.543,1.821l.436.585c.024.04.045.088.067.124l.109.25c-1.184-.494-.955-.292-1.178-.045l-.916-.454c-.009-.044.021-.139-.013-.135l-.1-.9a1.647,1.647,0,0,1-.231,1.153l-.583-.314c-.576-.183-1.155-.079-1.779-.752l1.109-.186c-.014-.027-.02-.091-.048-.08l-.721-1.092c-.358-.443-.957-.806-1.212-1.156-1.346-.738-4.242-2.893-5.308-3l-.558-.028a21.224,21.224,0,0,0,2.545-3.279c1.072,1.861,3.522,3.051,5.218,4.384a3.4,3.4,0,0,0,1.445,1.005c.033.013.078.026.112.037s.08.024.114.037l1.069.285-.2-.831c-.652-1.614-1.1-1.368-1.77-2.062-.968-.427-3.177-3.594-4.684-4.45,2-.894.456-2,2.134-2.4.759-.18.466.253,1.418-.389a4.513,4.513,0,0,0,1.289-1.2c.006.048,0,.112,0,.147a2.878,2.878,0,0,0,.2,1.127c.324.738.353.165.669.558l2.545,4.213a3.266,3.266,0,0,0,2.119,2.3,4.252,4.252,0,0,0,.007-1.777,1.637,1.637,0,0,0-1.009-1.459,5.416,5.416,0,0,0-.627-1.521c-.207-.481-.422-1.015-.646-1.515a5.6,5.6,0,0,0-1.668-2.76,9.12,9.12,0,0,0,2.224-1.378,60.123,60.123,0,0,0,2.3,6.02m1.354,4.141c0-.409.247-2.618-1.063-2.379C354.549,1776.148,356.556,1777.874,357.18,1778.243Zm-3.109,1.313c-.511-.917-.116-1.4-1.356-1.8-.372-.416-1.7-2.085-2-2.294-.325-.227-3.258-1.137-3.99-1.388.937,1.3,1.61,2.527,2.928,3.285.175.1.551.251.591.273s.068.034.092.05c.135.091,2.99,3.058,4.926,3.723Zm-3.819,3.417-2.172-1.083a1.592,1.592,0,0,0,1.459,1.009Z" transform="translate(2056.486 740.333)" fill="#78a608" fill-rule="evenodd"/>
    <path id="Path_796" data-name="Path 796" d="M365.049,1792.658c.361.528.19.856.941,1.86.329,1.058,2.67,4.171,2.7,5.014-.647-.245-.132-.258-.83.088-1.341.67-1.918,1.5-2.594,1.557,1.627-1.035.6-2.18-.129-3.508a25.972,25.972,0,0,1-1.8-3.559c-.322-1.361-.785-1.543-2.044-2.642a3.8,3.8,0,0,0,.233,2.8c-.021.62.175.334.308.815-.52,0-.248-.067-.688-.192l-.558-.457c-.336,1.035-.24,3.16,1.529,2.138.329.1.189.189.444,1,.544,1.711.7,2.742,2.216,3.657a3.346,3.346,0,0,1-1.06.383,8.6,8.6,0,0,0-.948.43l-.089.832a45.479,45.479,0,0,0-1.375-4.721c-.379-1.14-.6-.931-1.124-2.119-.422-.957.237-1.512-.422-1.994.043-.906-.447-1.418-1.246-2.242a4.8,4.8,0,0,0-.315,1.5,1.61,1.61,0,0,0,.854,1.245c-.048,1.1.324-.615-.133.237-.081.153.169,3.383.221,3.715l.271,2.2a4.918,4.918,0,0,0,.085,1.135,3.3,3.3,0,0,1,.26,1.208c-.5-.294-.944-.061-1.462-.006-.538.057-.021.1-.537-.013,1.148-.748.619-2.261.476-3.259a12.383,12.383,0,0,0-.644-3.36c.366-.693.264-.982-.106-1.716a5.581,5.581,0,0,0-.918-1.582c-.336.747-.928,2.164-.548,3.123l-.1.782c-.481.551.66-.038-.15.071a9.909,9.909,0,0,0-.706-1.693l-.572.778c-.3-.138-.05-.19-.214-.844.693-.873.149-2.234-.336-3.181l-.654.656c-.463.047-.152-.122-.114-.754,0-.042.007-.089.008-.13l-.024-.435a10.489,10.489,0,0,1-1.547,2.8,9.64,9.64,0,0,0-.352-2.417,3.587,3.587,0,0,0-1.53,3.1c-.456.014-.15-.244-.409.038.115.252.126-.085-.136.456-.17.352-.273.538-.483.992l-.24-.175a3.3,3.3,0,0,0,.7-2.261,2.189,2.189,0,0,0-1.835,1.805c.424.574.19.491.856.547l-.187.369c-.649.439-1.6-.879-.865-1.759l.88-.877c-.72-.09-.392-.27-1.415.441.66-1.167.3-1,.6-1.482l-.1-.227c-.615.618-.964,1.2-1.728,1.278a3.621,3.621,0,0,0,1.188-1.509l.062-.214c-1.053-.04-1.615-.2-2.4,1.031-.3-.748-.511,0,.105-.8.744-.346,1.293-.8,1.975-1.059.319-.17.7.189,2.046-1.608a1.63,1.63,0,0,0,.372-.809,7.39,7.39,0,0,0-2.562.44l-.466.2c-.044.023-.085.051-.132.078l-1.126.565c-.385.173-.132.145-.613.284-.494-.493-.873-.75-1.038-1.268.5-.494.091-.4.559-.248-.062.492-.084.427.344.917,1.1-.067,1.259-.186,2.243-1.178-.27-.122-.443-.182-.669-.284-.105-1.18-.406.321.075-.193.39-.416-.308.035.476-.282.041-.017.087-.03.129-.047a2.09,2.09,0,0,0,1.171-.768c.016.05.045.1.009.156l.01.413c.072.186-.382-.067.223.1l.247.058c-.014.052-.129.291-.146.326l-.236.611c.176-.738.043.079,1.253-.647a1.718,1.718,0,0,0,.491-.454l.041-.182c.007-.021.013-.072.02-.1l.071-.2a.644.644,0,0,1,.123-.189c1.033,1.584,1.378,2.345,3.2,3.269a7.069,7.069,0,0,0,4.5.662,7.9,7.9,0,0,0,2.663-.552,11.751,11.751,0,0,0,3.537-1.985,15.245,15.245,0,0,0,1.953,4.016m-1.676-.024c1.911-.691-.258-2.116-1.136-2.427A2.418,2.418,0,0,0,363.372,1792.633Zm-16.194.42c1.516,1.638,1.745-.556,2.073-1.739C347,1792.306,347.766,1792.2,347.179,1793.054Z" transform="translate(2057.216 748.373)" fill="#7dab0a" fill-rule="evenodd"/>
    <path id="Path_797" data-name="Path 797" d="M364.75,1776.031l-.151.453c-.379.649-.206.165-.156.5-.074-.009-.92-.1-.9-.185.009-.045-.085-.054-.132-.064-1.31.288-1.016,1.692-.636,2.66l.691-.552c.568-.177.138.169-.109.914-.075.229-.135.463-.193.691l-.159.589c.026-.011-.024.087-.04.129-1.743-1.7-5.1-1.7-7.321-1.09-.491.135-.772.324-.987.193a1.329,1.329,0,0,1-.369-.987,4.671,4.671,0,0,0-.483-2.043c-.054-.141,0-.192.109-.488l-.554-.552c-.3-.778.443-1.468-.432-2.456l.011-.434c-.031-.857-1.208-5.056-1.1-5.274.028-.057-.021-.092-.024-.139.906.023,1.742-.625,2.768-.642-1.344,1.188-.855,2.508-.537,3.834.268,1.122.538,2.305.918,3.709.008,1.478.011,1.111,1.155,2.985a4.509,4.509,0,0,0,.556-3.1c.011-.607-.132-.422-.21-1.059-.332-2.733.433-5.49-1.252-6.491a17.119,17.119,0,0,1,2.175-.283,5.2,5.2,0,0,0,1.959-.466c-.852,1.209-.764.772-.809,2.166-.033.977-.5,6.537-.414,6.885-.378.853-.021,1.566.6,2.541.674-1.06.96-1.713.173-2.83l.477.6.159-.271a23.781,23.781,0,0,0,1.363-4.832,13.741,13.741,0,0,0,.517-2.549,1.761,1.761,0,0,0-.943-1.73l-.592-.2c.681-.2.514-.07,1.2.386.913.6,1.824.308,3.462.789a48.131,48.131,0,0,1,4.683,1.83c-2.02.6-2.762,2.791-3.716,4.934a7.474,7.474,0,0,0-.764,1.935m-3.982-.344a6.013,6.013,0,0,0,.473,2.87,4.232,4.232,0,0,0,1.424-2.714,28.108,28.108,0,0,0,1.438-4.186c1.018-3.945-1.155-3.292-1.212-3.251l-1.046,1.648-.612,4.587-.105.207C360.743,1775.626,360.864,1774.989,360.768,1775.687Z" transform="translate(2061.015 739.488)" fill="#7dab03" fill-rule="evenodd"/>
    <path id="Path_798" data-name="Path 798" d="M352.58,1782.234a12.676,12.676,0,0,0-1.83,8.108,5.136,5.136,0,0,1-1.178-.017c-.388-.018-.681,0-1.138-.011a6.682,6.682,0,0,0-2.287-.006l.317-.322c-.571-.23-.365-.057-.788-.446l.047-.427a1.357,1.357,0,0,0,1.665.106,11.174,11.174,0,0,0,1.688-1.067,9.481,9.481,0,0,0-2.168-.715c-.382-.946-.8-.973-1.4-1.584-.666-.677-.363-.22-.407-.7a1.731,1.731,0,0,0,1.3-.382c-2.592-2.195-3.686.283-1.712.522-.122.371.247-.069-.226.243l-.2.116c-.03.01-.079.027-.109.034-.2.048-.626-.224-.823-.318l.941.111c-.06-.033-.094-.115-.177-.091-.317.094-.725-.732-1.131-.873l-3.2-.406c-.633-.01-1.234.38-1.58.358.984-.511.742-1.53,1-2.446,1.248.952,3.713.947,5.783,1.309.133.023.21.051.345.07.04,0,.088.013.128.014l.426.011c.828.865,1.735.355,3.337-.065a4.841,4.841,0,0,0-2.735-1.472c-1.029-.254-2.2-.754-3.231-1.09-1.745-.573-2.383.07-3.218-.388-.3-.658-.275-.22.146-.938a10.482,10.482,0,0,0,1.093-2.528c.843,1.471,1.537,1.569,3,2.188a8.367,8.367,0,0,0,3.171.95c.369.261.28.311.667.453.45.165.375-.026.867.292.623.673,1.2.569,1.779.752l.583.314a1.647,1.647,0,0,0,.231-1.153l.1.9c.034,0,0,.091.013.135Zm-3.5,3.787c-.612-.5-2.718-1.4-2.747-.083-.014.649.7.89,1.171.8A8.83,8.83,0,0,0,349.078,1786.021Z" transform="translate(2055.291 744.052)" fill="#7dab0a" fill-rule="evenodd"/>
    <path id="Path_799" data-name="Path 799" d="M351.356,1789.452a.645.645,0,0,0-.124.189l-.071.2c-.007.024-.013.075-.02.1l-.041.182a1.719,1.719,0,0,1-.491.454c-1.211.727-1.077-.091-1.253.647l.236-.611c.017-.035.132-.274.146-.326l-.247-.058c-.6-.169-.151.084-.223-.1l-.01-.413c.037-.06.007-.106-.009-.156a2.089,2.089,0,0,1-1.171.768c-.043.017-.088.03-.129.047-.784.318-.085-.134-.476.282-.481.514-.18-.987-.075.193-.86.043-1.119-.274-1.918.545-.468-.153-.058-.246-.559.248.165.518.544.775,1.038,1.268a13.246,13.246,0,0,0-2.6,1.134c-.867.419-1.972,1.107-1.684,2.141.666,2.4,4.791-1.364,4.792-1.367-.616.8-.406.055-.105.8.585.906.24.518,1.153.693.764-.08,1.113-.66,1.728-1.278l.1.227c-.3.481.061.315-.6,1.482,1.023-.711.7-.531,1.415-.441l-.88.877c-.735.88.216,2.2.865,1.759l.187-.369.278-.091.24.175c-.031.2-.423,1.014-.545,1.347-.19.518-.331.88-.518,1.408a2.106,2.106,0,0,0,.6,2.74c-.331.126-.3.155-.9-.131-4.393-2.074-8.029-5.015-9.673-9.8-.467-1.36-.833-1.258-.914-1.763-.666-.74.158-.479-.17-2.511a17.952,17.952,0,0,1-.211-2.432c-.18-1.384.275-1.889-.1-2.517-.693-1.146-1.394-1.241-.01-2.637.346.023.947-.367,1.58-.358l3.2.406c.406.141.815.967,1.131.873.084-.024.118.058.177.091l-.941-.111c.2.094.62.366.823.318.03-.007.079-.024.109-.034l.2-.116c.473-.312.1.128.226-.243.258.07-.041.054.412-.14.044.477-.258.02.407.7.6.612,1.019.639,1.4,1.584a2.668,2.668,0,0,0-.968.406c-.816-.148-5.76-.229-6.675.534-.867.722-.66,2.21,1.177,1.963l3.472-.594c-.392.045-.163.116-.18.419l-.094.045c-1.127.828-2.839-.537-3.522,2.067,1.18,1.339,1.985.676,3.239.379,1.043-.245,2.275-.424,3.251-.707.8.3,1.1-.075,2-.437l.287-.064a9.639,9.639,0,0,0,1.99-.761l.108-.213.454.051a2.77,2.77,0,0,0-.328,1.045" transform="translate(2055.056 746.169)" fill="#75a303" fill-rule="evenodd"/>
    <path id="Path_800" data-name="Path 800" d="M370.077,1770.876c-.212,1.709-.811,1.32-.64,2.385a2.442,2.442,0,0,1-1.011,2.427,44.793,44.793,0,0,1-4.768,3.939c-.062-.531.148-.464-.166-.941-.6-.494-1.519-.663-1.935.71a9.035,9.035,0,0,1-.511,1.451,6.453,6.453,0,0,0-.87-.857c-.515-.395-.463-.027-.507-.351.016-.042.065-.141.04-.129l.159-.589c.058-.229.118-.463.193-.691.247-.745.677-1.092.109-.914.168-1.048,1.043-1-.055-2.108.047.01.141.019.132.064-.017.088.829.176.9.185-.05-.336-.223.148.156-.5l-.067,1.875a7.059,7.059,0,0,0,2.2-1.729,2.786,2.786,0,0,0,.626-.379c-.165-.125-.014-.163-.207-.139l3.012-3.672c.647-.774,1.6-1.793,2.7-.762.413.387.141.322.51.728m-7.353,7.037c.491-.126,2.86-.917,1.75-1.952-.881-.821-1.55.762-1.7,1.458Z" transform="translate(2064.309 741.017)" fill="#5c8700" fill-rule="evenodd"/>
    <path id="Path_801" data-name="Path 801" d="M363.419,1791.578c.156.25.072.177.033.006m-.087-.072.075.011a.425.425,0,0,0,.011.061.52.52,0,0,1,.085.021c.026.007.087.021.119.034s.084.03.119.045c.548.226.759.642,1.635-.273-.4-.623-.331-.9-1.275-.94a2.808,2.808,0,0,0-1.449.217Zm.368,4.07c.683-.1.866-.139,1.153-.857a3.462,3.462,0,0,0-2.248-1.272l.265,1.069A7.812,7.812,0,0,0,363.733,1795.581Zm3.063-11.568.85-.307c.525-.01.815-.751.994-1.083.8.255.324.2,2.415-.544a6.277,6.277,0,0,0,2.7-1.508,1.216,1.216,0,0,0-.953-1.512,2.579,2.579,0,0,0-1.857.467,20.554,20.554,0,0,0-3.641,2.282,3.985,3.985,0,0,0-1.993,1.4c-.86,1.073-.275.214-.24.847A4.684,4.684,0,0,1,366.8,1784.013Zm-1.74,2.128c.856.22,1.678.466,1.862-.88l-.809-.568c-.652.345-1.326.395-1.909,1.038Zm10.94-1.4c-.471.126-.023.041-.422.042l-2.075.111a5.754,5.754,0,0,0-.811.085c-1.845.344-2,.195-3.371.433-.669.376-1.289.17-2.446,1.073a11.7,11.7,0,0,0,1.659.867c.728-.209.839.6,1.79-.406l.145.5c.617.017,4.533.067,5.171.2a20.792,20.792,0,0,0-.873,2.724c-1.148-2.148-2.019-1.268-5.543-1.4-1.221-.047-.317.194-1.945-.094a3.738,3.738,0,0,0-3.148.669c2.639,1.49,1.889.793,2.664,1.138.8.314-.16.048.466.025.917-.034.73.1,1.5.237,2.852.518,4.51,1.131,5.909-.578.108.591.068-.071.016.444,0,.054-.045.256-.047.263l-1.141,3.026a1.527,1.527,0,0,1-.28.354,22.665,22.665,0,0,0-3.079-.889c-.683-.16-.96-.246-1.63-.451-.63-.193-.968-.521-1.523-.542l-1.424-.24c-.713.345-.71.047-1.3.437.779.8,1.394,1.192,2.03,1.75l5.3,2.525a2.334,2.334,0,0,1-.564.927l.646,2.936a2.121,2.121,0,0,1-2.593-.271l-.568.647c-1.134-1.764-3.4-2.857-4.8-4.473a3.027,3.027,0,0,0-1.316-1.2c-.246-.112-.52-.212-.8-.321l-.8.044a5.191,5.191,0,0,0,1.449,2.481c1.729,1.564,2.358,3.652,4.738,4.944-.392.385-.781.715-1.175,1.086-.068.064-.4.4-.439.466-.251.368-.177.182-.233.558a24.649,24.649,0,0,0-2.477-3.39c-.5-.6-.931-1.121-1.405-1.733-.292-.378-1.462-1.3-1.364-1.651l.6-.681c-.294-1.146-.92-1.123-1.925-1.757-.165.578,0,.363.009.9-.573.125-.822-.386-1.357-.945a14.087,14.087,0,0,0,3.831-4.067c.39-.952.988-.626,1.949-4.167a6.13,6.13,0,0,0,.16-.708c.062-.725-.089-.353-.055-.65a2.169,2.169,0,0,0,.175-.62l-.446-.312c.552-.616.433-.319.451-.947a1.62,1.62,0,0,0-.477-1.419c-.318-.328.287-.292-.788-.29.532-.481.7-.4.505-.97l-.744-.2.229-.385a5.96,5.96,0,0,0,2.694-1.58,44.793,44.793,0,0,0,4.768-3.939,2.442,2.442,0,0,0,1.011-2.427c-.17-1.065.429-.676.64-2.385.711,1.1,1.41,1.759,2.04,2.857a18.322,18.322,0,0,1,2.664,7.978C376.653,1782.188,375.247,1783.214,376,1784.741Zm-10.506-5.015a3.434,3.434,0,0,0-.927,1.015,1.344,1.344,0,0,0-.319,1.055l2.118-.9.275-.043a10.061,10.061,0,0,0,1.649-.666c2.331-1.039,4.027-1.445,4.571-3.452l-.96-1.042A39.084,39.084,0,0,0,365.49,1779.726Z" transform="translate(2063.276 741.361)" fill="#709e03" fill-rule="evenodd"/>
    <path id="Path_802" data-name="Path 802" d="M394.565,1801.922l.1.182-.24.369c-.968,1.547-1.684,2.984-2.721,4.638-6.31,10.066-18.2,17.69-29.381,19.014-1.093.129-3.359.316-4.395.3-8.513-.18-16.069-2.9-21.824-9.809-3.154-3.784-3.272-5.413-4.879-8.907a33.9,33.9,0,0,1-1.255-11.8A38.894,38.894,0,0,1,332.99,1784c3.479-8.369,11.387-16.838,19.728-21.071,5.5-2.79,12-4.744,17.92-4.48,9.792.436,17.047,3.5,23.052,12.041.943,1.342,2.76,4.653,2.792,5.8,1.322,2.2,2.075,9.684,1.73,12.225-.312,2.292-.247,2.237-.728,4.844-.109.587-.458,2.023-.484,2.344-.312.681-.816,2.284-1.086,3.085a16.6,16.6,0,0,1-1.35,3.133m1.549-23.192c-.4-.412-.456-1.156-.673-1.776-.207-.6-.413-1.1-.688-1.73a23.467,23.467,0,0,0-1.894-3.589,26.485,26.485,0,0,0-6.269-6.775c-12.453-9.607-31.3-4.994-42.39,5.413a40.953,40.953,0,0,0-11.443,17.792,35.655,35.655,0,0,0-1.441,12.347c.072.607.053,1.069.131,1.735a25.793,25.793,0,0,0,9.708,17.352,25.061,25.061,0,0,0,6.954,3.81c.765.617.335.186,1.614.546A28.07,28.07,0,0,0,357,1825a9.256,9.256,0,0,1,1.509.195,5.478,5.478,0,0,0,.67-.018l.818-.144c1.154-.194,3.06-.29,4.743-.619a38.929,38.929,0,0,0,14.559-6.263,40.837,40.837,0,0,0,9.2-8.635,43.748,43.748,0,0,0,3.325-4.826c1.127-1.826,1.661-3.5,2.369-4.737a6.221,6.221,0,0,1,.576-1.488c.263-.651.273-.921.485-1.527a8.3,8.3,0,0,0,.738-2.964c.407-.534.2-.278.414-.884a1.014,1.014,0,0,1,.209-1.153,13.465,13.465,0,0,0,.216-2.818c.044-.507.219-.725-.018-1.207.332-.595.24-.687.25-1.363a3.98,3.98,0,0,0-.1-1.34,2.711,2.711,0,0,0-.264-1.069c.407-.534.284-.247.2-.947-.031-.267-.081-.551-.119-.81a2.745,2.745,0,0,0-.471-1.6C396.483,1780.019,395.984,1779.622,396.113,1778.73Z" transform="translate(2051.805 736.281)" fill="#695905" fill-rule="evenodd"/>
    <path id="Path_803" data-name="Path 803" d="M351.656,1791.543c-.061,1.083-.759,1.012-.22,2.244a17.617,17.617,0,0,0-.522,3.342l-.87,5.469c-.769.64-1.428,1.5-2.338.417-.958-1.138.219-1.35-1.1-2.323.346-.135-.026-.093.744-.06a7.668,7.668,0,0,0,.426-2.811c.476-.365.352.281.751-.826l.085-.234a8.2,8.2,0,0,0,.674-2.667l.69-1.066a10.489,10.489,0,0,0,1.547-2.8l.024.435c0,.041-.006.088-.008.13-.038.632-.349.8.114.754" transform="translate(2058.831 749.622)" fill="#709e03" fill-rule="evenodd"/>
    <path id="Path_804" data-name="Path 804" d="M357.9,1800.864c1.147,1.221-1.417,4.3-2.924.166a3.3,3.3,0,0,0-.26-1.208,4.916,4.916,0,0,1-.085-1.135l-.271-2.2c-.053-.332-.3-3.562-.221-3.715.457-.852.085.859.133-.237l.707-.5c.659.482,0,1.038.422,1.994.524,1.188.745.979,1.124,2.119a45.487,45.487,0,0,1,1.375,4.721" transform="translate(2061.984 750.379)" fill="#73a100" fill-rule="evenodd"/>
    <path id="Path_805" data-name="Path 805" d="M359.982,1790.738c-.1.353,1.072,1.273,1.364,1.651.474.612.906,1.134,1.405,1.733a24.649,24.649,0,0,1,2.477,3.39,1.855,1.855,0,0,1-.282,2.148c-.779.656-1.461.109-2.22-.461-.026-.843-2.366-3.956-2.7-5.014l.263-.027c.62-.094.67-.105.917-.483a1.089,1.089,0,0,0-.051-1.171,3.878,3.878,0,0,0-1.1-1.039,2.8,2.8,0,0,0-.549-.341c-.156-.067.173-.065-.46-.116l.067,1.052c0,.028-.043.14-.013.131s-.008.089-.014.135a15.245,15.245,0,0,1-1.953-4.016l-.169-.267.339.21c.535.559.784,1.07,1.357.945.41.857.361,1.025,1.319,1.54" transform="translate(2063.176 748.707)" fill="#618c03" fill-rule="evenodd"/>
    <path id="Path_806" data-name="Path 806" d="M351.847,1793.86c.016.284.014.125-.082.481a1.662,1.662,0,0,0-.131.466,1.642,1.642,0,0,0,.278.85,28.229,28.229,0,0,0,.048,3.65c.038,1.181.457,2.742-1.08,3.658-1.171.091-1.313-.51-1.851-1.42l.87-5.469a17.617,17.617,0,0,1,.522-3.342.84.84,0,0,0,1.211.281c.165.654-.089.707.214.844" transform="translate(2059.845 750.675)" fill="#527305" fill-rule="evenodd"/>
    <path id="Path_807" data-name="Path 807" d="M357.039,1775.168a1.232,1.232,0,0,0-.774.29c-.084-.348.382-5.908.414-6.885.045-1.394-.043-.957.809-2.166.288-.268.129-.138.332-.236.69-.338-.325-.06.2.01l.592.2a1.761,1.761,0,0,1,.943,1.73,13.741,13.741,0,0,1-.517,2.549,23.781,23.781,0,0,1-1.363,4.832l-.159.271Z" transform="translate(2062.877 739.463)" fill="#73a100" fill-rule="evenodd"/>
    <path id="Path_808" data-name="Path 808" d="M363.537,1775.336a2.786,2.786,0,0,1-.626.379c.1-.76.243-.875-.684-1.464a2.319,2.319,0,0,0-1.3.865,7.474,7.474,0,0,1,.764-1.935c.954-2.144,1.7-4.338,3.716-4.934.91.2,1.368.576,1.319,1.466-.043.779-.349,1.109-.935,1.872l-2,2.768a1.82,1.82,0,0,0-.28.476c-.122.409-.129.1.024.507" transform="translate(2064.837 740.402)" fill="#618c03" fill-rule="evenodd"/>
    <path id="Path_809" data-name="Path 809" d="M368.906,1790.526l-5.3-2.525c.876-.256,1-.1,1.567-1.072l-.874-.876c.555.021.893.349,1.523.542.67.206.947.291,1.63.451a22.665,22.665,0,0,1,3.079.889c2.466,1.513-.067,3.266-1.627,2.591" transform="translate(2065.962 747.872)" fill="#618c03" fill-rule="evenodd"/>
    <path id="Path_810" data-name="Path 810" d="M353.762,1773.495c-1.228-.6-1.319.361-1.631,1.2a60.115,60.115,0,0,1-2.3-6.02,1.832,1.832,0,0,1,.883-1.865c.813-.46,1.3.239,1.935.836,0,.047.053.083.024.139-.109.217,1.067,4.416,1.1,5.274Z" transform="translate(2060.181 739.738)" fill="#618c03" fill-rule="evenodd"/>
    <path id="Path_811" data-name="Path 811" d="M372.058,1783.44c-.639-.129-4.554-.179-5.171-.2l-.145-.5c.233-1.041-.133-1.045-1-1.534,1.374-.239,1.526-.089,3.371-.433a5.754,5.754,0,0,1,.811-.085l2.075-.111c.4,0-.05.084.422-.042,2.193,1.062,1.6,2.488-.359,2.9" transform="translate(2066.855 745.56)" fill="#618c03" fill-rule="evenodd"/>
    <path id="Path_812" data-name="Path 812" d="M346.513,1780.574a8.368,8.368,0,0,1-3.171-.95c-1.466-.619-2.161-.717-3-2.187.105-.427-.146-.383.149-.948.261-.5.383-.508.822-.714l.558.028c1.066.111,3.962,2.265,5.308,3-.485.118-1.08.179-1.229.792a.861.861,0,0,0,.568.975" transform="translate(2056.199 743.56)" fill="#618c03" fill-rule="evenodd"/>
    <path id="Path_813" data-name="Path 813" d="M363.914,1779.37c.274-.918-.132-.974-.872-1.168a39.084,39.084,0,0,1,6.408-4.034l.96,1.042c-.544,2.007-2.24,2.413-4.571,3.452a10.061,10.061,0,0,1-1.649.666Z" transform="translate(2065.724 742.885)" fill="#527305" fill-rule="evenodd"/>
    <path id="Path_814" data-name="Path 814" d="M359.83,1799.148l-.491.048c-1.512-.914-1.672-1.946-2.216-3.657-.255-.806-.115-.894-.444-1-.129-.951-.041-.8-.971-1.681.44.125.169.189.688.192-.133-.481-.329-.195-.308-.815.669.826,1.17.721,1.811-.159a25.972,25.972,0,0,0,1.8,3.559c.73,1.327,1.756,2.473.129,3.508" transform="translate(2062.647 750.401)" fill="#618c03" fill-rule="evenodd"/>
    <path id="Path_815" data-name="Path 815" d="M356.124,1774.366c-.752-.826-.968-.663-1.712.119-.38-1.4-.65-2.588-.918-3.709-.318-1.326-.808-2.646.537-3.834l.632-.126c1.685,1,.92,3.759,1.252,6.491.078.637.221.451.21,1.059" transform="translate(2061.57 739.802)" fill="#618c03" fill-rule="evenodd"/>
    <path id="Path_816" data-name="Path 816" d="M347.254,1790.862c-.681.261-1.231.713-1.975,1.059,0,0-4.127,3.767-4.792,1.367-.288-1.033.816-1.722,1.684-2.141a13.245,13.245,0,0,1,2.6-1.134c.481-.139.229-.111.613-.284l1.126-.565c.047-.027.088-.055.132-.078l.466-.2c-.879.9-.789,1.289.145,1.977" transform="translate(2056.242 749.06)" fill="#618c03" fill-rule="evenodd"/>
    <path id="Path_817" data-name="Path 817" d="M371.931,1784.945l-.094,0c-1.4,1.709-3.058,1.1-5.909.578-.774-.142-.586-.271-1.5-.237-.626.023.338.288-.466-.025.979-.562,1.307-.862.484-1.807,1.628.288.724.047,1.945.094,3.525.135,4.395-.745,5.543,1.4" transform="translate(2066.109 746.779)" fill="#618c03" fill-rule="evenodd"/>
    <path id="Path_818" data-name="Path 818" d="M360.02,1775.171c-.338-.816-.542-.73-1.225-.889l-.671.733c.1-.7-.026-.061.359-.839l.105-.207.612-4.587,1.046-1.648c.057-.041,2.23-.694,1.212,3.251a28.108,28.108,0,0,1-1.438,4.186" transform="translate(2063.661 740.16)" fill="#618c03" fill-rule="evenodd"/>
    <path id="Path_819" data-name="Path 819" d="M365.488,1794.984c-2.381-1.292-3.009-3.38-4.738-4.944,1.033-.134.972-.112,1.472-1,1.4,1.615,3.669,2.708,4.8,4.473-.336,1.143.183,1.2-1.537,1.472" transform="translate(2064.763 749.125)" fill="#618c03" fill-rule="evenodd"/>
    <path id="Path_820" data-name="Path 820" d="M353.91,1800.365c-2.253.783-1.95-2.825-1.958-4.067l.033-1.341-.071-.532c.81-.109-.331.48.15-.071l.1-.782c.645.6.877.745,1.573.175a12.383,12.383,0,0,1,.644,3.36c.143,1,.673,2.511-.476,3.259" transform="translate(2061.056 751.026)" fill="#618c03" fill-rule="evenodd"/>
    <path id="Path_821" data-name="Path 821" d="M348.035,1787.6c.246-.413.221.015.124-.407-.9-.318-.8-.5-1.861-.575-.774.591-.979.725-.264,1.419-.975.282-2.207.461-3.251.707-1.255.3-2.06.96-3.239-.379.683-2.6,2.395-1.239,3.522-2.067.152.447.175.477.657.877,1.1-.2.877-.392,1.85-.779a6.683,6.683,0,0,1,2.287.006c.457.013.751-.007,1.138.011a5.136,5.136,0,0,0,1.178.017l.244.132-.108.213a9.639,9.639,0,0,1-1.99.761Z" transform="translate(2055.866 747.968)" fill="#527305" fill-rule="evenodd"/>
    <path id="Path_822" data-name="Path 822" d="M348.821,1776.793a1.3,1.3,0,0,0-.769,1.529c-1.7-1.333-4.146-2.522-5.218-4.384a1.163,1.163,0,0,1,1.3-1.6c1.508.856,3.716,4.023,4.684,4.45" transform="translate(2057.22 742.118)" fill="#618c03" fill-rule="evenodd"/>
    <path id="Path_823" data-name="Path 823" d="M345.617,1782.4l-.426-.011c-.04,0-.088-.01-.128-.014-.135-.019-.211-.047-.345-.07-2.07-.362-4.535-.356-5.783-1.309a1.063,1.063,0,0,1-.1-1.055c.3-.71.321-.3.934-.557.835.457,1.473-.186,3.218.388,1.032.336,2.2.836,3.231,1.09l-.938.894Z" transform="translate(2055.528 745.076)" fill="#618c03" fill-rule="evenodd"/>
    <path id="Path_824" data-name="Path 824" d="M345.545,1785.921l-.047.427c-1,.224-.967-.559-1.942.625.017-.3-.211-.374.18-.419l-3.472.594c-1.837.247-2.044-1.241-1.177-1.963.914-.762,5.858-.682,6.675-.534a.818.818,0,0,0-.217,1.271" transform="translate(2055.468 747.243)" fill="#618c03" fill-rule="evenodd"/>
    <path id="Path_825" data-name="Path 825" d="M370.769,1778.066a6.277,6.277,0,0,1-2.7,1.508c-2.091.745-1.61.8-2.415.544-.179.332-.468,1.073-.994,1.083l.573-.586c0-.043.026-.141,0-.128s0-.1,0-.125c.064-.555-.158-.7-.913-1.058a20.554,20.554,0,0,1,3.641-2.282,2.579,2.579,0,0,1,1.857-.467,1.216,1.216,0,0,1,.953,1.512" transform="translate(2066.26 743.867)" fill="#618c03" fill-rule="evenodd"/>
    <path id="Path_826" data-name="Path 826" d="M351.677,1774.907a1.655,1.655,0,0,0-1.117.937l-2.545-4.213c-.315-.393-.345.18-.669-.558a2.878,2.878,0,0,1-.2-1.127c0-.035,0-.1,0-.147.453-.44.92-1.271,1.593-.686a5.6,5.6,0,0,1,1.668,2.76c.224.5.439,1.033.646,1.515a5.415,5.415,0,0,1,.627,1.521" transform="translate(2059.054 740.681)" fill="#618c03" fill-rule="evenodd"/>
    <path id="Path_827" data-name="Path 827" d="M346.863,1799.689a2.106,2.106,0,0,1-.6-2.74c.187-.528.328-.89.518-1.408.122-.333.514-1.143.545-1.347.21-.454.312-.64.483-.992.263-.541.251-.2.136-.456.258-.282-.047-.024.409-.038.723.555.738.487,1.192.383a8.2,8.2,0,0,1-.674,2.667l-.085.234c-.4,1.107-.275.461-.751.826a7.667,7.667,0,0,1-.426,2.811c-.769-.033-.4-.075-.744.06" transform="translate(2058.578 750.624)" fill="#618c03" fill-rule="evenodd"/>
    <path id="Path_828" data-name="Path 828" d="M351.031,1775.982c-.581.251-.514.263-.679.9a4.805,4.805,0,0,0,1.818,1.475,4.119,4.119,0,0,0,.216-.571l1.19,1.844c-1.936-.666-4.791-3.633-4.926-3.723-.024-.016-.067-.035-.092-.05s-.416-.172-.591-.273c-1.319-.758-1.992-1.989-2.928-3.285.732.251,3.665,1.161,3.99,1.388.3.209,1.63,1.878,2,2.294" transform="translate(2058.172 742.102)" fill="#527305" fill-rule="evenodd"/>
    <path id="Path_829" data-name="Path 829" d="M353.514,1773.987l-.386.871a7.23,7.23,0,0,1-1.036-1.11,7.891,7.891,0,0,0-.64-1.015c.312-.842.4-1.8,1.631-1.2.874.988.131,1.678.432,2.456" transform="translate(2060.862 741.702)" fill="#030300" fill-rule="evenodd"/>
    <path id="Path_830" data-name="Path 830" d="M365.389,1780.373l-.85.307a4.684,4.684,0,0,0-1.726.045c-.035-.633-.62.226.24-.847a3.985,3.985,0,0,1,1.993-1.4c.755.359.977.5.913,1.058,0,.024-.028.136,0,.125s0,.085,0,.128Z" transform="translate(2065.533 744.694)" fill="#0a0a08" fill-rule="evenodd"/>
    <path id="Path_831" data-name="Path 831" d="M359.415,1793.308c-.751-1-.581-1.332-.941-1.86.006-.045.044-.143.014-.135s.011-.1.013-.131l-.067-1.052c.633.051.3.05.46.116a2.8,2.8,0,0,1,.549.341,3.878,3.878,0,0,1,1.1,1.039,1.089,1.089,0,0,1,.051,1.171c-.247.377-.3.389-.917.483Z" transform="translate(2063.791 749.583)" fill="#030a00" fill-rule="evenodd"/>
    <path id="Path_832" data-name="Path 832" d="M353.7,1794.668c-.7.571-.928.429-1.573-.175-.38-.959.212-2.376.548-3.123a5.581,5.581,0,0,1,.918,1.582c.37.734.473,1.023.106,1.716" transform="translate(2061.094 750.103)" fill="#030a00" fill-rule="evenodd"/>
    <path id="Path_833" data-name="Path 833" d="M346.4,1780.424c-.493-.318-.417-.128-.867-.292-.388-.142-.3-.192-.667-.453a.861.861,0,0,1-.568-.975c.149-.613.744-.674,1.229-.792.256.349.855.713,1.212,1.156l.721,1.092c.028-.011.034.052.048.08Z" transform="translate(2057.85 744.456)" fill="#0a0a08" fill-rule="evenodd"/>
    <path id="Path_834" data-name="Path 834" d="M345.463,1790.992c-.934-.688-1.023-1.076-.145-1.977a7.39,7.39,0,0,1,2.562-.44,1.631,1.631,0,0,1-.372.809c-1.349,1.8-1.726,1.438-2.046,1.608" transform="translate(2058.033 748.93)" fill="#030300" fill-rule="evenodd"/>
    <path id="Path_835" data-name="Path 835" d="M367.464,1782.549c-.951,1.008-1.062.2-1.79.406a11.7,11.7,0,0,1-1.659-.867c1.157-.9,1.777-.7,2.446-1.073.87.49,1.236.494,1,1.534" transform="translate(2066.132 745.759)" fill="#030300" fill-rule="evenodd"/>
    <path id="Path_836" data-name="Path 836" d="M364.208,1788.071c-.636-.558-1.251-.952-2.03-1.75.589-.39.586-.092,1.3-.437l1.424.24.874.876c-.569.972-.691.816-1.567,1.072" transform="translate(2065.362 747.801)" fill="#030300" fill-rule="evenodd"/>
    <path id="Path_837" data-name="Path 837" d="M360.02,1773.217a4.232,4.232,0,0,1-1.424,2.714,6.013,6.013,0,0,1-.473-2.87l.671-.733c.683.159.887.073,1.225.889" transform="translate(2063.661 742.114)" fill="#030300" fill-rule="evenodd"/>
    <path id="Path_838" data-name="Path 838" d="M343.555,1786.012a.818.818,0,0,1,.217-1.271,2.668,2.668,0,0,1,.968-.406,9.481,9.481,0,0,1,2.168.715,11.171,11.171,0,0,1-1.688,1.067,1.357,1.357,0,0,1-1.665-.106" transform="translate(2057.458 747.152)" fill="#030300" fill-rule="evenodd"/>
    <path id="Path_839" data-name="Path 839" d="M349.55,1774.072a1.655,1.655,0,0,1,1.117-.937,1.637,1.637,0,0,1,1.009,1.459,4.252,4.252,0,0,1-.007,1.777,3.266,3.266,0,0,1-2.119-2.3" transform="translate(2060.064 742.453)" fill="#030300" fill-rule="evenodd"/>
    <path id="Path_840" data-name="Path 840" d="M364.746,1785.3c-.775-.345-.026.352-2.664-1.138a3.738,3.738,0,0,1,3.148-.669c.823.945.5,1.245-.484,1.807" transform="translate(2065.322 746.737)" fill="#030300" fill-rule="evenodd"/>
    <path id="Path_841" data-name="Path 841" d="M343.683,1781.966l-.336-.643.938-.894a4.841,4.841,0,0,1,2.735,1.472c-1.6.42-2.51.93-3.337.065" transform="translate(2057.462 745.513)" fill="#030300" fill-rule="evenodd"/>
    <path id="Path_842" data-name="Path 842" d="M362.975,1773.941a7.059,7.059,0,0,1-2.2,1.729l.067-1.875.151-.453a2.319,2.319,0,0,1,1.3-.865c.927.589.785.7.684,1.464" transform="translate(2064.773 742.177)" fill="#030300" fill-rule="evenodd"/>
    <path id="Path_843" data-name="Path 843" d="M354.036,1772.416c.744-.782.96-.946,1.712-.119a4.508,4.508,0,0,1-.556,3.1c-1.144-1.874-1.147-1.508-1.155-2.985" transform="translate(2061.946 741.871)" fill="#030300" fill-rule="evenodd"/>
    <path id="Path_844" data-name="Path 844" d="M357.9,1792.863c-.642.88-1.143.985-1.811.159a3.8,3.8,0,0,1-.233-2.8c1.259,1.1,1.722,1.281,2.044,2.642" transform="translate(2062.645 749.62)" fill="#030300" fill-rule="evenodd"/>
    <path id="Path_845" data-name="Path 845" d="M349.54,1792.913l-.69,1.066c-.454.1-.47.172-1.192-.383a3.587,3.587,0,0,1,1.53-3.1,9.646,9.646,0,0,1,.352,2.417" transform="translate(2059.27 749.736)" fill="#030a00" fill-rule="evenodd"/>
    <path id="Path_846" data-name="Path 846" d="M346.495,1777a1.3,1.3,0,0,1,.769-1.529c.671.694,1.119.448,1.77,2.063l.2.831-1.069-.285c-.034-.013-.079-.025-.114-.037s-.079-.024-.112-.037a3.4,3.4,0,0,1-1.445-1.005" transform="translate(2058.777 743.435)" fill="#0a0a08" fill-rule="evenodd"/>
    <path id="Path_847" data-name="Path 847" d="M362.65,1789.49c-.5.889-.439.867-1.472,1a5.191,5.191,0,0,1-1.449-2.481l.8-.044c.281.109.555.209.8.321a3.027,3.027,0,0,1,1.316,1.2" transform="translate(2064.334 748.674)" fill="#030300" fill-rule="evenodd"/>
    <path id="Path_848" data-name="Path 848" d="M363.275,1777.082a5.959,5.959,0,0,1-2.694,1.58l.082-.361a9.035,9.035,0,0,0,.511-1.451c.416-1.373,1.337-1.2,1.935-.71.314.477.1.41.166.941" transform="translate(2064.692 743.562)" fill="#030300" fill-rule="evenodd"/>
    <path id="Path_849" data-name="Path 849" d="M351.281,1793.872a.841.841,0,0,1-1.211-.281c-.539-1.232.159-1.161.22-2.244l.654-.656c.485.947,1.029,2.308.336,3.181" transform="translate(2060.197 749.818)" fill="#030a00" fill-rule="evenodd"/>
    <path id="Path_850" data-name="Path 850" d="M352.355,1794.672l.071.532-.687.6-.6-.249a1.642,1.642,0,0,1-.278-.85,1.664,1.664,0,0,1,.131-.466c.1-.356.1-.2.082-.481l.572-.778a9.909,9.909,0,0,1,.706,1.693" transform="translate(2060.615 750.778)" fill="#030a00" fill-rule="evenodd"/>
    <path id="Path_851" data-name="Path 851" d="M346.667,1783.565a8.83,8.83,0,0,1-1.576.714c-.474.092-1.185-.149-1.171-.8.028-1.312,2.135-.412,2.747.083" transform="translate(2057.702 746.508)" fill="#030a00" fill-rule="evenodd"/>
    <path id="Path_852" data-name="Path 852" d="M344.531,1786.6c-.972.387-.754.579-1.85.779-.483-.4-.505-.43-.657-.877l.094-.045c.975-1.184.943-.4,1.942-.625.423.389.217.216.788.446Z" transform="translate(2056.907 747.759)" fill="#030a00" fill-rule="evenodd"/>
    <path id="Path_853" data-name="Path 853" d="M347.1,1794.272l-.278.091c-.666-.055-.432.027-.856-.547a2.189,2.189,0,0,1,1.835-1.805,3.3,3.3,0,0,1-.7,2.261" transform="translate(2058.561 750.371)" fill="#030a00" fill-rule="evenodd"/>
    <path id="Path_854" data-name="Path 854" d="M362.989,1781.956l-.856-.41c.583-.643,1.258-.693,1.909-1.038l.809.568c-.185,1.346-1.006,1.1-1.862.88" transform="translate(2065.343 745.546)" fill="#030a00" fill-rule="evenodd"/>
    <path id="Path_855" data-name="Path 855" d="M350.816,1776.7a4.119,4.119,0,0,1-.216.571,4.805,4.805,0,0,1-1.818-1.475c.165-.637.1-.649.679-.9,1.239.4.845.887,1.356,1.8" transform="translate(2059.742 743.191)" fill="#030a00" fill-rule="evenodd"/>
    <path id="Path_856" data-name="Path 856" d="M357.619,1791.759a2.418,2.418,0,0,1-1.136-2.427c.877.311,3.046,1.736,1.136,2.427" transform="translate(2062.969 749.248)" fill="#030300" fill-rule="evenodd"/>
    <path id="Path_857" data-name="Path 857" d="M346.247,1787.5c-.9.362-1.2.735-2,.437-.715-.694-.51-.829.264-1.419,1.058.073.96.257,1.861.575.1.423.122-.006-.124.407" transform="translate(2057.654 748.066)" fill="#030a00" fill-rule="evenodd"/>
    <path id="Path_858" data-name="Path 858" d="M356.308,1772.75a1.232,1.232,0,0,1,.774-.29c.786,1.117.5,1.77-.173,2.83-.622-.975-.978-1.688-.6-2.541" transform="translate(2062.834 742.17)" fill="#030a00" fill-rule="evenodd"/>
    <path id="Path_859" data-name="Path 859" d="M363.791,1785.521c-.876.914-1.087.5-1.635.273-.036-.016-.087-.034-.119-.045s-.094-.027-.119-.034a.805.805,0,0,0-.118-.027l-.733-.889a2.808,2.808,0,0,1,1.449-.217c.944.04.874.317,1.275.94" transform="translate(2064.896 747.251)" fill="#030a00" fill-rule="evenodd"/>
    <path id="Path_860" data-name="Path 860" d="M362.128,1788.807a7.812,7.812,0,0,1-.83-1.06l-.265-1.069a3.462,3.462,0,0,1,2.248,1.272c-.287.718-.47.752-1.153.857" transform="translate(2064.881 748.134)" fill="#030a00" fill-rule="evenodd"/>
    <path id="Path_861" data-name="Path 861" d="M355.192,1792.692l-.707.5a1.61,1.61,0,0,1-.855-1.245,4.8,4.8,0,0,1,.315-1.5c.8.823,1.289,1.336,1.246,2.242" transform="translate(2061.775 749.717)" fill="#030a00" fill-rule="evenodd"/>
    <path id="Path_862" data-name="Path 862" d="M361.869,1775.64c.152-.7.82-2.278,1.7-1.458,1.11,1.035-1.259,1.825-1.75,1.952Z" transform="translate(2065.212 742.795)" fill="#030a00" fill-rule="evenodd"/>
    <path id="Path_863" data-name="Path 863" d="M344.928,1792.6c-.913-.175-.568.213-1.153-.693.788-1.231,1.35-1.07,2.4-1.031l-.062.214a3.621,3.621,0,0,1-1.188,1.509" transform="translate(2057.641 749.882)" fill="#030a00" fill-rule="evenodd"/>
    <path id="Path_864" data-name="Path 864" d="M343.165,1788.781c.8-.819,1.058-.5,1.918-.545.226.1.4.162.669.284-.984.992-1.14,1.112-2.243,1.178-.427-.49-.406-.425-.344-.917" transform="translate(2057.371 748.777)" fill="#030a00" fill-rule="evenodd"/>
    <path id="Path_865" data-name="Path 865" d="M343.473,1783.108c-.453.194-.153.21-.412.14-1.975-.24-.88-2.717,1.712-.522a1.731,1.731,0,0,1-1.3.382" transform="translate(2056.917 746.099)" fill="#030a00" fill-rule="evenodd"/>
    <path id="Path_866" data-name="Path 866" d="M356.889,1794.449c-1.769,1.022-1.865-1.1-1.529-2.138l.558.457c.93.879.842.73.971,1.681" transform="translate(2062.437 750.497)" fill="#030a00" fill-rule="evenodd"/>
    <path id="Path_867" data-name="Path 867" d="M359.5,1790.662c-.958-.515-.909-.683-1.319-1.54-.01-.535-.173-.321-.008-.9,1.005.635,1.631.612,1.925,1.757Z" transform="translate(2063.653 748.782)" fill="#030a00" fill-rule="evenodd"/>
    <path id="Path_868" data-name="Path 868" d="M360.322,1775.691l-.691.552c-.38-.968-.674-2.372.636-2.66,1.1,1.113.223,1.06.055,2.108" transform="translate(2064.157 742.641)" fill="#030a00" fill-rule="evenodd"/>
    <path id="Path_869" data-name="Path 869" d="M345.873,1791.852c.588-.849-.18-.748,2.073-1.739-.328,1.183-.556,3.377-2.073,1.739" transform="translate(2058.521 749.575)" fill="#030a00" fill-rule="evenodd"/>
    <path id="Path_870" data-name="Path 870" d="M364.285,1778.177l-2.118.9a1.344,1.344,0,0,1,.319-1.055,3.434,3.434,0,0,1,.927-1.015c.74.194,1.146.25.872,1.168" transform="translate(2065.353 744.078)" fill="#030a00" fill-rule="evenodd"/>
    <path id="Path_871" data-name="Path 871" d="M352.892,1775.948c-.625-.369-2.632-2.1-1.063-2.379,1.31-.239,1.059,1.97,1.063,2.379" transform="translate(2060.774 742.627)" fill="#030a00" fill-rule="evenodd"/>
    <path id="Path_872" data-name="Path 872" d="M396.008,1792.738c-.217.606-.007.35-.414.884a8.3,8.3,0,0,1-.738,2.964c-.213.606-.223.876-.485,1.527a6.221,6.221,0,0,0-.576,1.488c-.708,1.239-1.242,2.911-2.369,4.737a43.748,43.748,0,0,1-3.325,4.826,40.837,40.837,0,0,1-9.2,8.635,38.929,38.929,0,0,1-14.559,6.263c-1.682.329-3.589.425-4.743.619l-.818.144a5.478,5.478,0,0,1-.67.018,9.256,9.256,0,0,0-1.509-.195,28.07,28.07,0,0,1-7.278-1.143c-1.279-.361-.849.071-1.614-.546a25.061,25.061,0,0,1-6.954-3.81,25.793,25.793,0,0,1-9.708-17.352c-.078-.666-.058-1.127-.131-1.735a35.655,35.655,0,0,1,1.441-12.347,40.953,40.953,0,0,1,11.443-17.792c11.092-10.407,29.936-15.02,42.39-5.413a26.485,26.485,0,0,1,6.269,6.775,23.467,23.467,0,0,1,1.894,3.589c.275.629.481,1.133.688,1.73.217.62.268,1.364.673,1.776-.129.892.369,1.289.2,2.05a2.745,2.745,0,0,1,.471,1.6c.038.26.088.543.119.81.081.7.2.413-.2.947a2.711,2.711,0,0,1,.264,1.069,3.98,3.98,0,0,1,.1,1.34c-.01.676.082.768-.25,1.363.237.481.062.7.018,1.207a13.465,13.465,0,0,1-.216,2.818,1.014,1.014,0,0,0-.209,1.153m-19.839-13.63c-.153-.407-.146-.1-.024-.507a1.82,1.82,0,0,1,.28-.476l2-2.768c.586-.764.893-1.093.935-1.872.05-.89-.409-1.262-1.319-1.466a48.131,48.131,0,0,0-4.683-1.83c-1.638-.481-2.549-.186-3.462-.789-.69-.456-.522-.582-1.2-.386-.524-.07.491-.348-.2-.01-.2.1-.044-.033-.332.236a5.2,5.2,0,0,1-1.959.466,17.119,17.119,0,0,0-2.175.283l-.632.126c-1.026.017-1.862.664-2.768.642-.632-.6-1.121-1.3-1.935-.836a1.832,1.832,0,0,0-.883,1.865,9.119,9.119,0,0,1-2.224,1.378c-.673-.585-1.14.246-1.593.686a4.513,4.513,0,0,1-1.289,1.2c-.952.641-.659.208-1.418.389-1.678.4-.136,1.5-2.134,2.4a1.163,1.163,0,0,0-1.3,1.6,21.223,21.223,0,0,1-2.545,3.279c-.439.206-.561.211-.822.714-.3.565-.044.521-.149.948a10.482,10.482,0,0,1-1.093,2.528c-.422.718-.447.28-.146.938-.613.26-.639-.153-.934.557a1.063,1.063,0,0,0,.1,1.055c-.257.916-.016,1.935-1,2.446-1.384,1.4-.683,1.492.01,2.637.378.627-.078,1.133.1,2.517a17.952,17.952,0,0,0,.211,2.432c.328,2.033-.5,1.772.17,2.511.081.505.447.4.914,1.763,1.644,4.787,5.279,7.728,9.673,9.8.6.285.565.257.9.131,1.315.974.138,1.185,1.1,2.323.91,1.082,1.569.223,2.338-.417.538.91.68,1.51,1.851,1.42,1.537-.916,1.119-2.477,1.08-3.658a28.224,28.224,0,0,1-.048-3.65l.6.249.687-.6-.033,1.341c.007,1.242-.3,4.851,1.958,4.067.515.114,0,.07.537.013.518-.055.96-.288,1.462.006,1.508,4.131,4.071,1.055,2.924-.166l.089-.832a8.6,8.6,0,0,1,.948-.43,3.347,3.347,0,0,0,1.06-.383l.491-.048c.676-.06,1.252-.887,2.593-1.557.7-.346.183-.333.83-.088.759.571,1.441,1.117,2.22.461a1.855,1.855,0,0,0,.282-2.148c.055-.376-.018-.19.233-.558.041-.062.371-.4.439-.466.395-.371.784-.7,1.175-1.086,1.72-.27,1.2-.329,1.537-1.472l.568-.647a2.121,2.121,0,0,0,2.593.271l-.646-2.936a2.334,2.334,0,0,0,.564-.927c1.56.676,4.092-1.078,1.627-2.591a1.527,1.527,0,0,0,.28-.354l1.141-3.026c0-.007.043-.209.047-.263.053-.515.092.146-.016-.444l.094,0a20.792,20.792,0,0,1,.873-2.724c1.959-.41,2.552-1.837.359-2.9-.75-1.528.657-2.554-.182-3.374a18.322,18.322,0,0,0-2.664-7.978c-.63-1.1-1.329-1.759-2.04-2.857-.369-.406-.1-.341-.51-.728-1.093-1.031-2.05-.011-2.7.762l-3.012,3.672C376.155,1778.944,376,1778.983,376.169,1779.108Z" transform="translate(2052.206 736.63)" fill="#8cbf00" fill-rule="evenodd"/>
    <path id="Path_873" data-name="Path 873" d="M347.454,1778.818a1.592,1.592,0,0,1-1.459-1.009l2.172,1.083Z" transform="translate(2058.573 744.413)" fill="#03000a" fill-rule="evenodd"/>
  </g>
</svg>
