<svg xmlns="http://www.w3.org/2000/svg" width="173.221" height="121.481" viewBox="0 0 173.221 121.481">
  <g id="Group_164" data-name="Group 164" transform="translate(-2914.205 -2626.589)">
    <path id="Path_922" data-name="Path 922" d="M802.36,1851.331A60.357,60.357,0,1,1,742,1911.688a60.356,60.356,0,0,1,60.357-60.357" transform="translate(2224.708 775.258)" fill="#ffccd1" fill-rule="evenodd"/>
    <text id="Tropical_" data-name="Tropical " transform="translate(2982.877 2680.369)" font-size="25" font-family="Lato-Regular, Lato"><tspan x="0" y="0">Tropical </tspan></text>
    <text id="Fruits" transform="translate(2995.831 2711.032)" font-size="25" font-family="Lato-Regular, Lato"><tspan x="0" y="0">Fruits</tspan></text>
    <path id="Path_968" data-name="Path 968" d="M769.114,1913.375c-.359,1.137,2.655,16.262-13.062,26.287-8.665,5.526-22.312,6.026-31.025.152l3.016-3.417c.537-.654.889-1.2,1.449-1.862,5.525-6.516,6.639-14.295,3.662-22.519-1.567-4.33-2.606-5.147-4.679-8.337l4.232,0c1.6-.31,2.28-.967,3.353-1.282,2.721,1.79,4.016,3.022,6.948,3.691a3.075,3.075,0,0,0,2.638-.647,15.181,15.181,0,0,0,3.757-3.333,12.824,12.824,0,0,0,.811-1.074c.4-.561.341-.517,1.032-.713.894-.251,1.774-.647,2.555-.865l3.547,3.979c3.459,4.406,5.132,11.681,4.388,17.619a25.1,25.1,0,0,1-5.712,13.05l-1.781,1.851a24.034,24.034,0,0,1-4.061,3.316c3.851-2.4,6.026-3.349,8.824-7.071a24.682,24.682,0,0,0,3.5-24.63c-2.322-5.944-5.925-8.409-6.423-9.261,1.712-1.446,2.27-1.554,2.128-3.114,4.4,3.935,7.119,6.2,9.348,12.373a48.8,48.8,0,0,1,1.442,5.54Z" transform="translate(2217.585 793.661)" fill="#613652" fill-rule="evenodd"/>
    <path id="Path_969" data-name="Path 969" d="M751.664,1912.747c4.379,5.8,6.984,14.031,4.332,21.673a18.634,18.634,0,0,1-8.492,10.112c-9.254,5.488-21.851,2.66-30.131-3.8-.422-.331-.865-.72-1.307-1.06-.847-.646-1.55-1.594-2.311-2.26a18.592,18.592,0,0,1-2.161-2.571c-3.684-5.017-6.019-11.444-5.065-17.861.559-3.779,1.258-4.261,2.4-7.069a10.092,10.092,0,0,0,1.138-1.549c6.269-8.32,18.6-9.775,28.055-6.158a30.6,30.6,0,0,1,13.537,10.544m-17.775,6.152c.5-.769,1.07-2.186,1.559-3.133a18.2,18.2,0,0,1,1.807-2.768,20.289,20.289,0,0,1,2.186-2.379,17.51,17.51,0,0,1,2.684-1.891c1.28-1.157-.7-3.591-1.745-4.4-7.719-5.995-18.481.466-17.386,2.56.532,1.016,4.584,1.1,7.871,5.853,1.448,2.09,1.418,2.946,1.847,5.083C732.882,1918.675,732.98,1918.882,733.889,1918.9Zm-12.713-11.231c-6.523-.813-10.04,5.346-8,10.78,1.1,2.94,1.977.024,8.856-.811a21.792,21.792,0,0,1,7.637.241c1.373.379,2.347,1.53,2.173-.561C731.49,1913.086,726.7,1908.358,721.175,1907.668Zm24.38,1.53c-4.649-.838-8.462,4.887-9.995,8.094-.507,1.058-1.357,2.757.336,3.031a19.709,19.709,0,0,1,9.524,4.177c3.332,2.8,3.236,4.47,5.055,2.665C754.588,1923.078,753.005,1910.539,745.556,1909.2Zm-17.707,9.16c-3.692-.407-9.377.119-12.648,2.22-4.457,2.869-3.378,9.265,1.106,12.387,1.251.87,1.99.735,2.532-.707,1.6-4.271,4.267-6.427,7.952-9.078,3.123-2.249,5.352-2.452,4.3-3.725C730.51,1918.76,728.906,1918.475,727.849,1918.358Zm8.773,2.87c-2.493-.413-2.037.013-1.5,1.746a31.1,31.1,0,0,1,.294,12.478c-.522,2.155-.723,1.821-1.368,3.189-.711,1.5.869,1.865,2.051,2.129,8.023,1.79,16.621-4.96,11.751-12.552C746.068,1925.442,741.388,1922.021,736.621,1921.229Zm-1.475,9.171c.016-2.074-.278-6.139-1.005-7.858-1.141-2.7-4.073-.566-5.667.44-2.845,1.793-7.352,5.424-8.612,8.722-1.774,4.646,2.454,8.646,7.837,8.821C733.734,1940.72,735.1,1936.037,735.146,1930.4Z" transform="translate(2209.736 795.82)" fill="#a11c2b" fill-rule="evenodd"/>
    <path id="Path_970" data-name="Path 970" d="M731.264,1924.228c-.043,5.637-1.412,10.32-7.447,10.124-5.383-.175-9.612-4.175-7.837-8.821,1.26-3.3,5.768-6.929,8.612-8.722,1.594-1.006,4.525-3.143,5.667-.44.727,1.719,1.021,5.785,1.005,7.858" transform="translate(2213.618 801.991)" fill="#fff" fill-rule="evenodd"/>
    <path id="Path_971" data-name="Path 971" d="M728.478,1915.1c4.767.792,9.447,4.213,11.229,6.991,4.87,7.592-3.728,14.342-11.751,12.552-1.182-.264-2.762-.626-2.051-2.129.646-1.368.846-1.035,1.368-3.189a31.1,31.1,0,0,0-.294-12.478c-.538-1.733-.994-2.159,1.5-1.746" transform="translate(2217.879 801.949)" fill="#fff" fill-rule="evenodd"/>
    <path id="Path_972" data-name="Path 972" d="M737.11,1906.605c7.45,1.341,9.032,13.88,4.92,17.967-1.818,1.806-1.723.134-5.055-2.665a19.709,19.709,0,0,0-9.524-4.177c-1.694-.274-.843-1.973-.336-3.031,1.533-3.207,5.346-8.932,9.995-8.094" transform="translate(2218.182 798.412)" fill="#fff" fill-rule="evenodd"/>
    <path id="Path_973" data-name="Path 973" d="M706.064,1911.967c-1.968,18.614,18.062,35.12,36.473,31,2.786-.623,4.182-1.581,6.369-2.47-9.284,6.042-16.59,9.1-27.871,5.017-13.745-4.98-18.319-18.917-14.972-33.543" transform="translate(2209.19 800.696)" fill="#613652" fill-rule="evenodd"/>
    <path id="Path_974" data-name="Path 974" d="M728.983,1918.457c-.909-.017-1.006-.224-1.177-1.079-.429-2.138-.4-2.994-1.847-5.083-3.288-4.75-7.339-4.836-7.871-5.853-1.094-2.094,9.667-8.554,17.386-2.56,1.046.812,3.025,3.247,1.745,4.4a17.51,17.51,0,0,0-2.684,1.891,20.289,20.289,0,0,0-2.186,2.379,18.2,18.2,0,0,0-1.807,2.768c-.488.947-1.063,2.364-1.559,3.133" transform="translate(2214.642 796.261)" fill="#fff" fill-rule="evenodd"/>
    <path id="Path_975" data-name="Path 975" d="M719.32,1905.524c5.529.69,10.314,5.418,10.663,9.65.173,2.091-.8.94-2.173.561a21.792,21.792,0,0,0-7.637-.241c-6.879.835-7.754,3.75-8.856.811-2.037-5.434,1.481-11.593,8-10.78" transform="translate(2211.592 797.963)" fill="#fff" fill-rule="evenodd"/>
    <path id="Path_923" data-name="Path 923" d="M748.169,1898.046c-.447,2.664-2.637,5.3-4.54,6.726a8.791,8.791,0,0,1-2.345,1.454c-1.864.312-7.5-2.562-9.163-5.922-2.484-5.008,2.953-5.145,4.673-5.536a25.147,25.147,0,0,0,2.87-.9c4.378-1.522,9.586-2.25,8.5,4.181" transform="translate(2220.293 792.665)" fill="#247d26" fill-rule="evenodd"/>
    <path id="Path_976" data-name="Path 976" d="M726.065,1913.072c1.058.116,2.662.4,3.241,1.1,1.053,1.273-1.175,1.477-4.3,3.725-3.685,2.651-6.348,4.806-7.952,9.078-.542,1.442-1.282,1.577-2.532.707-4.484-3.122-5.563-9.518-1.106-12.387,3.271-2.1,8.956-2.628,12.648-2.22" transform="translate(2211.52 801.106)" fill="#fff" fill-rule="evenodd"/>
    <path id="Path_924" data-name="Path 924" d="M731.61,1891.078l1.512.93a9.632,9.632,0,0,1,3.394,3.533l-2.525,3.777c-.307,1.113,1.786,4.084,1.882,4.378l-3.608,1.12a12.561,12.561,0,0,1-4.067-.457c-.572-.246-.792-.748-1.211-1.171l-2.5-2.233c-1.458-1.068-1.148-.771-1.019-3.211.412-2.172.684-4.476,2.014-5.84a3.734,3.734,0,0,1,2.727-1.343c1.549-.129,2.373.492,3.4.517" transform="translate(2216.884 791.708)" fill="#247d26" fill-rule="evenodd"/>
    <path id="Path_925" data-name="Path 925" d="M738.788,1888.677c.37,1.5.911,2.76,1.234,4.433.2,1.05.383,1.41-.087,2.223-.419.725-.483,1.246-.8,1.885l-4.456,1.063c-1.6-2.41-1-1.253-1.242-3.772-.122-1.256-.336-3.268-1.168-3.931-.291-1.905-5.583-2.244,1.043-6.6,1.98-1.3,2.315-.865,3.455.894.416.645,1.835,3.6,2.023,3.806m-3.7-4.96c-1.234.706-4.561,2.22-4.348,4.014,1.241.987,2.114-.427,2.693-1.109C733.922,1886.045,735.313,1884.533,735.086,1883.717Z" transform="translate(2219.668 788.637)" fill="#247d26" fill-rule="evenodd"/>
    <path id="Path_926" data-name="Path 926" d="M748.889,1892.269c.058.25-.087.152.254.219.336.7,2.66,2.822,3.041,5.6l-6.111,3.371.717-4.48a4.41,4.41,0,0,0-1.664-3.248c-2.4-1.651-5.356-.484-7.833.237l1.813-2.6c1.341-1.34,4.728-1.654,6.944-.768a21.056,21.056,0,0,1,2.839,1.669" transform="translate(2222.731 791.522)" fill="#247d26" fill-rule="evenodd"/>
    <path id="Path_927" data-name="Path 927" d="M730.52,1887.585c-.213-1.794,3.114-3.309,4.348-4.014.227.816-1.164,2.328-1.655,2.906-.579.681-1.452,2.1-2.693,1.109" transform="translate(2219.886 788.783)" fill="#fcfcfa" fill-rule="evenodd"/>
    <path id="Path_928" data-name="Path 928" d="M732.311,1892.655a12.74,12.74,0,0,1-1.719-1.266,3.271,3.271,0,0,1,1.38-1.478Z" transform="translate(2219.92 791.443)" fill="#247d26" fill-rule="evenodd"/>
  </g>
</svg>
