<svg xmlns="http://www.w3.org/2000/svg" width="165.515" height="120.715" viewBox="0 0 165.515 120.715">
  <g id="Group_157" data-name="Group 157" transform="translate(-2087.143 -2445.516)">
    <path id="Path_792" data-name="Path 792" d="M214.3,1844.487a60.357,60.357,0,1,0-60.358-60.357,60.357,60.357,0,0,0,60.358,60.357" transform="translate(1978.001 721.744)" fill="#ffccd1" fill-rule="evenodd"/>
    <path id="Path_874" data-name="Path 874" d="M127.161,1806.434a59.256,59.256,0,0,1-3.794-12.358c-.891-4.733-1.225-10.094.121-14.77q.328-1.139.758-2.246c1.64-4.215,4.489-8.216,8.52-10.422a12.658,12.658,0,0,1,8.422-1.627c10.98,2.045,8.744,6.9,19.9,1.692a15.277,15.277,0,0,1,7.217-1.888c7.7.369,14.19,7.337,15.828,14.561a36.229,36.229,0,0,1,.534,10.659,56.426,56.426,0,0,1-1.2,7.885,39.615,39.615,0,0,1-1.946,6.4,52.7,52.7,0,0,1-4.574,8.315c-1.8,2.747-5.217,7.622-7.993,9.363a9.544,9.544,0,0,1-4.76,1.671c-3.427.091-6.868-2.46-10.641-2.714-3.569-.239-5,2.734-9.342,2.794-4.527.064-8.538-4.229-11.106-7.5a49.4,49.4,0,0,1-3.654-5.394A40.026,40.026,0,0,1,127.161,1806.434Z" transform="translate(1964.847 738.958)" fill="#e30a14" fill-rule="evenodd"/>
    <path id="Path_875" data-name="Path 875" d="M127.161,1806.434a59.256,59.256,0,0,1-3.794-12.358c-.891-4.733-1.225-10.094.121-14.77q.328-1.139.758-2.246c1.64-4.215,4.489-8.216,8.52-10.422a12.658,12.658,0,0,1,8.422-1.627c10.98,2.045,8.744,6.9,19.9,1.692a15.277,15.277,0,0,1,7.217-1.888c7.7.369,14.19,7.337,15.828,14.561a36.229,36.229,0,0,1,.534,10.659,56.426,56.426,0,0,1-1.2,7.885,39.615,39.615,0,0,1-1.946,6.4,52.7,52.7,0,0,1-4.574,8.315c-1.8,2.747-5.217,7.622-7.993,9.363a9.544,9.544,0,0,1-4.76,1.671c-3.427.091-6.868-2.46-10.641-2.714-3.569-.239-5,2.734-9.342,2.794-4.527.064-8.538-4.229-11.106-7.5a49.4,49.4,0,0,1-3.654-5.394A40.026,40.026,0,0,1,127.161,1806.434Z" transform="translate(1964.847 738.958)" fill="none" stroke="#fff" stroke-miterlimit="22.926" stroke-width="0.567"/>
    <path id="Path_876" data-name="Path 876" d="M128.33,1805.113c2.2,5.113,11.443,20.478,18.726,14.814,7.443-5.789,6.67-4.56,11.883-.241a6.7,6.7,0,0,0,4.49,1.393,7.754,7.754,0,0,0,3.952-1.3c3.315-2.081,9.57-11.338,11.806-16.735s4.192-16.205,2.5-23.683c-2.108-9.3-12.32-16.634-20.508-11.566-2.382,1.477-5.574,5.252-7.981,5.211-2.677-.047-6.442-5.97-12.553-6.667-8.131-.927-13.764,5.716-15.867,13.033-2.243,7.8.449,18.529,3.556,25.74" transform="translate(1965.418 739.518)" fill="#fff" fill-rule="evenodd"/>
    <path id="Path_877" data-name="Path 877" d="M144.632,1781.292s-3.016.92-3.973,2.27c-2.683,3.79,4.392,7.4,3.973-2.27" transform="translate(1972.174 745.875)" fill="#4a3b36" fill-rule="evenodd"/>
    <path id="Path_878" data-name="Path 878" d="M146.2,1781.292s3.015.92,3.973,2.27c2.683,3.79-4.392,7.4-3.973-2.27" transform="translate(1974.748 745.875)" fill="#4a3b36" fill-rule="evenodd"/>
    <path id="Path_879" data-name="Path 879" d="M143.537,1771.228c.537-12.228,7-17.583,18.768-17.822.795,8.53-7.357,20.068-18.768,17.822" transform="translate(1973.637 734.176)" fill="#69ad1a" fill-rule="evenodd"/>
    <path id="Path_880" data-name="Path 880" d="M143.537,1771.228a41.99,41.99,0,0,1,18.768-17.822c.795,8.53-7.357,20.068-18.768,17.822" transform="translate(1973.637 734.176)" fill="#549e0d" fill-rule="evenodd"/>
    <path id="Path_881" data-name="Path 881" d="M144.865,1768.319c-3.043-8.964-7.115-9.465-8.4-7.888-1.777,2.186,2.44,4.5,3.925,5.379,1.6.945,4.474,2.51,4.474,2.51" transform="translate(1970.49 736.831)" fill="#453630" fill-rule="evenodd"/>
    <text id="Apples" transform="translate(2158.731 2510.578)" font-size="21" font-family="Lato-Regular, Lato"><tspan x="0" y="0">Apples</tspan></text>
  </g>
</svg>
