<svg xmlns="http://www.w3.org/2000/svg" width="40.239" height="40.238" viewBox="0 0 40.239 40.238">
  <g id="Group_115" data-name="Group 115" transform="translate(-1203.199 232.487)">
    <path id="Path_775" data-name="Path 775" d="M1047.738,64.763a20.119,20.119,0,1,1-20.119,20.119,20.12,20.12,0,0,1,20.119-20.119" transform="translate(175.58 -297.25)" fill="#fcd936" fill-rule="evenodd"/>
    <path id="Path_777" data-name="Path 777" d="M1045.549,81.677c.247-.105.139.285.68-.913a1.855,1.855,0,0,0-.68.913" transform="translate(183.102 -290.537)" fill="#ded9d4" fill-rule="evenodd"/>
    <path id="Path_776" data-name="Path 776" d="M1036.052,71.439l-.018,21.984h12.979c.47,2.481,3.314,1.772,3.31.112l-.007-2.416.017-18.251c-.007-1.75.1-2.324,1.182-2.775-3.066.074-6.234,0-9.316,0q-2.334,0-4.666,0c-1.486,0-3.062-.209-3.481,1.341" transform="translate(179.11 -295.016)" fill="#fff" fill-rule="evenodd"/>
    <path id="Path_778" data-name="Path 778" d="M1051.162,88.268a2.386,2.386,0,0,1-1.326-1.631c-5.4.014-10.794.031-16.151-.007.118,1.728,1.374,1.634,3.031,1.631Z" transform="translate(178.124 -288.076)" fill="#fff" fill-rule="evenodd"/>
    <path id="Path_779" data-name="Path 779" d="M1050.853,71.824a1.772,1.772,0,0,0-2.2-1.6c-.61.163-1,.671-1.031,1.6h3.227" transform="translate(183.973 -294.98)" fill="#fff" fill-rule="evenodd"/>
  </g>
</svg>
