<svg xmlns="http://www.w3.org/2000/svg" width="19.324" height="25" viewBox="0 0 19.324 25">
  <g id="Group_109" data-name="Group 109" transform="translate(-2882.901 -158.14)">
    <path id="Path_752" data-name="Path 752" d="M529.092,112.268a3.924,3.924,0,0,1-2.021-2.333l-.246-1.049,4.752,1.224c1.2.5,2.766,3.064,2.086,3.484-.4.247-2.153-.239-2.507-.349-.572-.179-1.829-.566-2.065-.977m11.684,13.953c-.271,1.139-1.268,3.1-2.009,3.519-.075.183.014.078-.172.267-.161.165-.105.1-.256.172a1.961,1.961,0,0,1-1.037.865c-.29.63-2.954,1.521-3.97,1.648-1.387.173-4.064-.244-4.645-.924a7.289,7.289,0,0,1-2.924-2.214,5.888,5.888,0,0,1-1.376-2.045,7.4,7.4,0,0,1,.186-5.77,8.933,8.933,0,0,1,1.038-1.971c.127-.155.03-.09.147-.125a7.938,7.938,0,0,1,5.3-3.2,2.109,2.109,0,0,0,.979-.387c.224-.233.277-.589.805-.486.465.091.352.377.745.633.329.217,5.26.932,7.035,5.475C541.127,122.955,541.33,125.385,540.776,126.221Zm-14.213-16.835c.292.368.172,1.028.963,1.957a19.8,19.8,0,0,0,1.51,1.353c.032.006,2.317.916,2.347.94l2.122.337c-1.07,1.141-.618.515-1.221.868-.572.336-.188.642-1.419.79-7.581,1.247-10.691,10.571-4.573,15.7a9.622,9.622,0,0,0,6.913,2.22,8.721,8.721,0,0,0,3.288-.989c4.03-1.872,7.63-5.535,4.961-11.049A8.8,8.8,0,0,0,541,120.5a9.633,9.633,0,0,0-5.694-4.6c-.737-.271-1.3-.176-1.787-.709,1.3-1.552,1.4-2.051,3.184-2.241l.018-.683a2.369,2.369,0,0,0-1.717.521.941.941,0,0,1-.717.319,3.227,3.227,0,0,1-.4-.9.652.652,0,0,1-.236-.553c-.31-.207-.572-.854-1.449-1.484l-.578-.45a4.617,4.617,0,0,1-1-.4,8.037,8.037,0,0,0-1.03-.331c-.565-.143-2.064-.285-2.382-.4h-.6Z" transform="translate(2359.851 49.565)" fill="#fff" fill-rule="evenodd"/>
  </g>
</svg>
