<svg xmlns="http://www.w3.org/2000/svg" width="21.077" height="25" viewBox="0 0 21.077 25">
  <g id="Group_106" data-name="Group 106" transform="translate(-2281.148 -159.034)">
    <path id="Path_750" data-name="Path 750" d="M109.36,113.722l-.22.054c-3.406-3.035-6.58-.867-10,.641.157-.337.474-.658.706-1.137,1.781-3.69,4.1-5.937,7.845-2.017a8.315,8.315,0,0,0-1.55-1.111c-2.445-1.131-3.963.4-4.974,2.266a6.063,6.063,0,0,1,8.2,1.3m1.071,2.249c2.838-.011,5.109-1.841,8.168.721,2.574,2.156,1.479,7.136.741,9.148-.028-3.716,3.017-10.939-8.822-9.444-.258.438.159.478-.405.484-.42-.678-.107-.444-1.617-.876l1.372-.051c-.006-.905.027-1.8.078-2.7.04-.717.054-1.881,1.079-1.449.662.28-.044,1.377-.2,1.881A8.262,8.262,0,0,0,110.431,115.971Zm1.2,1.422-.546.237a4.856,4.856,0,0,1-2.242.036c-1.48-.4-4.4-2.909-6.986,0-2.662,2.983-.628,10.783,3.151,13.7,1.946,1.5,2.984.607,5.26,1.159,4.754,1.154,5.637-.528,7.985-3.943a12.115,12.115,0,0,1-2.931,4.45c-1.566,1.308-3.493,1.275-5.819.981-1.758-.22-5.581,2.176-8.7-5.333-3.35-8.072.15-15.4,5.479-13.32C108.745,116.318,108.131,117.378,111.629,117.393Z" transform="translate(2182.01 49.829)" fill="#fff" fill-rule="evenodd"/>
  </g>
</svg>
