<svg xmlns="http://www.w3.org/2000/svg" width="40.24" height="40.238" viewBox="0 0 40.24 40.238">
  <g id="Group_117" data-name="Group 117" transform="translate(-1322.317 228.487)">
    <path id="Path_785" data-name="Path 785" d="M1277.284,64.763A20.119,20.119,0,1,0,1297.4,84.882a20.12,20.12,0,0,0-20.119-20.119" transform="translate(65.153 -293.25)" fill="#fcd936" fill-rule="evenodd"/>
    <path id="Path_786" data-name="Path 786" d="M1262.338,91.828c.373-.277.612-.464,1.023-.728a43.057,43.057,0,0,1,5.855-2.6c1.119-.407,1.327-.521,1.807-1.542.152-.321.483-.864.767-.951.51-.153,1.106.108.947-.671a3.15,3.15,0,0,0-.657-1.065,2.4,2.4,0,0,1-.434-1.229c-.1-1.038-.135-.535-.677-1.052-.7-.67-1.53-2.93-.707-3.529l.077-.057c.149-.547-.894-5.41.544-7.15a8.051,8.051,0,0,1,11.758.016c1.346,1.86.88,4.9.493,7.115l.355.4c.275.49-.16,2.178-.714,2.91a2.917,2.917,0,0,1-.826.679,4.155,4.155,0,0,1-.635,2.021c-.212.282-1.161,1.469-.112,1.557.816.067.869.209,1.39,1.245a2.009,2.009,0,0,0,1.422,1.2,55.845,55.845,0,0,1,5.548,2.371,8.856,8.856,0,0,1,1.212.775c.277.207.194.212.36.271l1.882,1.177a19.674,19.674,0,0,1-17.292,9.637c-9.69-.314-13.515-5.593-15.788-8.4Z" transform="translate(66.315 -291.595)" fill="#fff" fill-rule="evenodd"/>
  </g>
</svg>
