<svg xmlns="http://www.w3.org/2000/svg" width="40.239" height="40.238" viewBox="0 0 40.239 40.238">
  <g id="Group_116" data-name="Group 116" transform="translate(-1263.49 232.487)">
    <path id="Path_780" data-name="Path 780" d="M1167.063,64.763a20.119,20.119,0,1,1-20.12,20.119,20.12,20.12,0,0,1,20.12-20.119" transform="translate(116.547 -297.25)" fill="#fcd936" fill-rule="evenodd"/>
    <path id="Path_781" data-name="Path 781" d="M1161.326,80.28c-.4-.07-.724-.172-1.16-.21a6.69,6.69,0,0,0-1.306.016,8.171,8.171,0,0,0-1.12.207c-.251.065-.8.271-.985.288l-.01-4.26c-.056-1.459-.471-2.3-2-2.276a1.587,1.587,0,0,0-1.6,1.547c-.179,1.11-.09,8.053-.079,9.4.021,2.406.024,3.411,1.181,5.153a6.427,6.427,0,1,0,9.132-8.818,6.762,6.762,0,0,0-.964-.609c-.139-.071-1.079-.433-1.092-.443m-4.542,6.432a2.738,2.738,0,0,1,5.454-.491,2.725,2.725,0,0,1-2.483,2.948A2.769,2.769,0,0,1,1156.784,86.712Z" transform="translate(119.104 -293.356)" fill="#fff" fill-rule="evenodd"/>
    <path id="Path_782" data-name="Path 782" d="M1167.449,75.771a11,11,0,0,1,2.169,1.841,12.976,12.976,0,0,1,2.62,3.985,14.587,14.587,0,0,1,.8,2.531,13.711,13.711,0,0,1,.229,1.445c.113,1.107-.094,2.887,2.077,2.9a1.835,1.835,0,0,0,2.04-1.283c.393-1.37-.281-4.483-.7-5.756a15.975,15.975,0,0,0-1.576-3.391l-.579-.89c-.065-.114-.03-.021-.044-.115a.64.64,0,0,1-.173-.193,18.432,18.432,0,0,0-1.407-1.706c-.115-.135-.214-.237-.336-.365l-.89-.825c-.075-.061-.106-.1-.182-.168-.376-.318-.755-.608-1.157-.907a17.693,17.693,0,0,0-9.092-3.357,7.088,7.088,0,0,1-1.3-.082c-.419.114-1.222-.109-1.891.46a2.092,2.092,0,0,0-.552,1.787c.124,1.576,1.441,1.659,2.944,1.73a13.572,13.572,0,0,1,3.928.768,12.993,12.993,0,0,1,1.635.71,8.846,8.846,0,0,1,1.438.884" transform="translate(120.973 -295.292)" fill="#fff" fill-rule="evenodd"/>
    <path id="Path_783" data-name="Path 783" d="M1158.913,74.026c-.119.087-.073.043-.1.055a1.628,1.628,0,0,0-1.015.734,2.511,2.511,0,0,0-.3,1.506c.1,1.12.955,1.544,2.092,1.645a7.535,7.535,0,0,1,4.193,1.41,4.475,4.475,0,0,1,.967.921c.087.014,0-.028.082.055a7.5,7.5,0,0,1,.937,1.444,7.894,7.894,0,0,1,.616,1.909c.194,1.039-.04,2.911,2.215,2.856,2-.05,2.163-1.428,2.016-2.958a9.743,9.743,0,0,0-.773-3.008c-.07-.156-.382-.768-.39-.855-.1-.078-.06-.054-.128-.17-.034-.06-.057-.092-.091-.152-.065-.111-.116-.19-.189-.3a13.4,13.4,0,0,0-1.089-1.4,11.624,11.624,0,0,0-1.309-1.174,12.62,12.62,0,0,0-1.171-.789,13.013,13.013,0,0,0-6.218-1.76Z" transform="translate(120.968 -293.379)" fill="#fff" fill-rule="evenodd"/>
  </g>
</svg>
