<svg xmlns="http://www.w3.org/2000/svg" width="40.238" height="40.238" viewBox="0 0 40.238 40.238">
  <g id="Group_114" data-name="Group 114" transform="translate(-1139.116 232.57)">
    <path id="Path_773" data-name="Path 773" d="M62.535,64.763A20.119,20.119,0,1,1,42.416,84.882,20.119,20.119,0,0,1,62.535,64.763" transform="translate(1096.7 -297.333)" fill="#fcd936" fill-rule="evenodd"/>
    <path id="Path_774" data-name="Path 774" d="M59.123,75.74A3.552,3.552,0,1,1,56.116,79.8a3.57,3.57,0,0,1,3.007-4.064m10.869,3.836a9.856,9.856,0,0,0-.866-5.112c-3.471-7.663-14.681-8.215-18.7-.48-1.783,3.439-1.36,6.367.23,9.62a34.975,34.975,0,0,0,2.261,3.83c.4.612.815,1.174,1.256,1.786s.84,1.148,1.3,1.742c.971,1.245,2.469,3.058,3.339,4.276.122.168.214.253.336.42a3.778,3.778,0,0,0,.329.44c.326.274.6-.311.772-.555C62.611,92.231,69.334,85.06,69.992,79.576ZM56.422,92.87a8.917,8.917,0,0,0-2.52.691,3.938,3.938,0,0,0-1.8,1.367c-1.884,3.373,8.318,5.241,13.532,2.815,1.716-.8,2.618-2.234.856-3.577a9.465,9.465,0,0,0-3.437-1.3,21.662,21.662,0,0,0-2.129,2.574c-.315.395-1.029,1.789-1.769.979-.236-.258-.467-.6-.688-.893l-1.39-1.783A5.515,5.515,0,0,1,56.422,92.87Z" transform="translate(1099.575 -295.789)" fill="#fff" fill-rule="evenodd"/>
  </g>
</svg>
