<svg xmlns="http://www.w3.org/2000/svg" width="40.239" height="40.238" viewBox="0 0 40.239 40.238">
  <g id="Group_118" data-name="Group 118" transform="translate(-1375.965 228.487)">
    <circle id="Ellipse_1" data-name="Ellipse 1" cx="16.5" cy="16.5" r="16.5" transform="translate(1379 -225)" fill="#fff"/>
    <path id="Path_784" data-name="Path 784" d="M1323.015,93.356a2.4,2.4,0,1,1-2.4,2.406,2.406,2.406,0,0,1,2.4-2.406m-7.561,0a2.4,2.4,0,1,1-2.4,2.406A2.407,2.407,0,0,1,1315.455,93.356Zm-12.676-17.392h4.331l4.781,15.63a.96.96,0,0,0,.83.683c.146.013.931,0,1.066,0h12.037a.942.942,0,1,0,0-1.884h-12.333l-.7-2.281h12.052c.517,0,.761-.457.941-.943l2.451-6.592a1.29,1.29,0,0,0-1.205-1.7h-17.068l-.975-3.187c-.194-.636-.321-1.605-1.146-1.605h-5.068a.941.941,0,1,0,0,1.882Zm12.3-11.2a20.119,20.119,0,1,1-20.12,20.119A20.12,20.12,0,0,1,1315.077,64.763Z" transform="translate(81.008 -293.25)" fill="#fcd936" fill-rule="evenodd"/>
  </g>
</svg>
