<svg xmlns="http://www.w3.org/2000/svg" width="24.854" height="25" viewBox="0 0 24.854 25">
  <g id="Group_110" data-name="Group 110" transform="translate(-3050.038 -161.351)">
    <path id="Path_757" data-name="Path 757" d="M654.217,116.4l.357-.257a2.525,2.525,0,0,0-.739-.679c-.121-.081-.829-.434-.837-.443-.087.023-.148-.115-.15.413a5.834,5.834,0,0,0,.213,1.5Zm-2.085-5.305c-.186.185-.116,0-.245.314-.068.165-.1.267-.155.437-.076.232-.16.716-.235.889l.042,4.477,1.192-.154a5.372,5.372,0,0,1,.365-3.848,4.728,4.728,0,0,1,.556-.915l.033-.029c.008-.008.023-.019.034-.029.061-.237.3-.406.415-.637C653.869,110.965,652.883,110.9,652.132,111.1Zm-4.4,23.583-.172-.118a2.056,2.056,0,0,1-.651-.394.854.854,0,0,1-.4-.187,10.559,10.559,0,0,1-3.89-4.327c-2.178-4.343-1.352-9.692,2.785-12.568a9.256,9.256,0,0,1,3-1.375c2.555-.516,2.257,1.592,1.32,1.555-.058.059.008.078-.116.089l1.584-.075-.143-1.246c-.021-.349.023-1.07-.035-1.336a10.5,10.5,0,0,0-6.966,2.279,8.97,8.97,0,0,0-3.177,6.115c-.422,4.171.766,7.585,3.82,9.946A11.561,11.561,0,0,0,647.728,134.682Zm6.553-21.376c-.215.373-1.282.794-1.325,1.235-.038.38-.052.2.095.249.051-.124.223-.2.358-.291a7.29,7.29,0,0,1,2.068-1.228c3.377-.506,6.633.184,8.541,3.039,1.011,1.515.951,2.471,1.409,3.831a10.035,10.035,0,0,0,.209-2.7,6.863,6.863,0,0,0-3.014-5.731,5.688,5.688,0,0,0-4.72-.608,6.943,6.943,0,0,0-2.736,1.646l-.67.466C654.335,113.314,654.436,113.276,654.281,113.307Zm2-.9a6.953,6.953,0,0,1,2.793-1.048,5.6,5.6,0,0,1,5.085,2.436c.322.444,1.168,1.937.968,2.7l-.556-1.17a6.442,6.442,0,0,0-2.682-2.453,7.845,7.845,0,0,0-2.591-.815A8.191,8.191,0,0,0,656.28,112.406Zm-1.754,4.155a.5.5,0,0,1-.105.082l-.037.023-1.087.48a4.926,4.926,0,0,1-1.349.376c-1.014.133-2.26.132-3.309.2-.918.314-1.9.208-3.043,1.286a4.867,4.867,0,0,0-1.281,3.063c2.426-4.964,4.359-2.906,8.489-3.851a12.948,12.948,0,0,0,2.963-1.149c2.581-1.272,4.416.575,5.3,2.136,3.47,6.123-.26,14.435-7.037,15.007a9.112,9.112,0,0,1-6.512-1.622,9.682,9.682,0,0,1-2.734-3.427c-.177-.346-.485-1.17-.652-1.4l1.027,3.3a9.527,9.527,0,0,0,1.565,2.218.959.959,0,0,1,.242.272,2.6,2.6,0,0,1,.546.4c.186.139.348.254.538.381a12.423,12.423,0,0,1,1.214.692,8,8,0,0,1,1.139.361,10.92,10.92,0,0,0,1.241.271,10.292,10.292,0,0,0,7.537-1.389,9.751,9.751,0,0,0,3.649-5.591c.111-.408.2-.813.28-1.239.047-.26.142-1.184.182-1.3.161-3.08-.108-6.284-1.667-8.411a4.619,4.619,0,0,0-3.032-2.042C656.575,115.353,654.991,116.554,654.526,116.56Z" transform="translate(2409.247 50.514)" fill="#fff" fill-rule="evenodd"/>
  </g>
</svg>
