<svg xmlns="http://www.w3.org/2000/svg" width="54.781" height="38.498" viewBox="0 0 54.781 38.498">
  <path id="Path_999" data-name="Path 999" d="M1180.075,2663.175c.079.016.169.022.248.042.021.005.087.022.108.031.176.066.1.049.155.085.711.038,1.712.257,2.508.339,8.49.866,22.555.775,31,.418,2.838-.121,8.068-.257,10.275-1.367,3.061-1.539,3.7-4.208,4.111-7.445a94.748,94.748,0,0,0,.258-11.382c0-3.844.167-7.376-.583-11.048-.656-3.2-2.494-5.324-5.665-5.973a70.3,70.3,0,0,0-10.722-.859c-8.076-.25-14.72-.21-22.785.081-2.843.1-8.073.25-10.276,1.367-3.051,1.547-3.732,4.277-4.137,7.51a87.027,87.027,0,0,0,.238,21.858,7.9,7.9,0,0,0,1.7,4.125,6.841,6.841,0,0,0,3.574,2.219m15.96-9.89V2636.9c.478.1,13.535,7.788,14.289,8.228-.567.278-1.235.7-1.786,1.018-.6.348-1.148.67-1.779,1.028l-7.123,4.1C1199.047,2651.6,1196.445,2653.2,1196.035,2653.285Z" transform="translate(-1173.995 -2625.85)" fill-rule="evenodd"/>
</svg>
