<svg xmlns="http://www.w3.org/2000/svg" width="25.841" height="25.841" viewBox="0 0 25.841 25.841">
  <g id="Group_152" data-name="Group 152" transform="translate(-2098.807 -934.872)">
    <path id="Rectangle_166" data-name="Rectangle 166" d="M1.559,0H24.065a1.56,1.56,0,0,1,1.56,1.56V24.065a1.559,1.559,0,0,1-1.559,1.559H1.56A1.56,1.56,0,0,1,0,24.065V1.559A1.559,1.559,0,0,1,1.559,0Z" transform="translate(2098.915 934.98)" fill="#fff"/>
    <path id="Rectangle_165" data-name="Rectangle 165" d="M1.559,0H24.065a1.56,1.56,0,0,1,1.56,1.56V24.065a1.559,1.559,0,0,1-1.559,1.559H1.56A1.56,1.56,0,0,1,0,24.065V1.559A1.559,1.559,0,0,1,1.559,0Z" transform="translate(2098.915 934.98)" fill="none" stroke="#8a8a8a" stroke-miterlimit="22.926" stroke-width="0.216"/>
    <path id="Path_791" data-name="Path 791" d="M1321.55,679.984c1.3-1.306,2.417-2.456,3.745-3.732.456-.439.138-.622,0-.784l-.8-.8-5.372-5.364a.639.639,0,0,1-.169-.447.69.69,0,0,1,1.1-.487l5.373,5.363,1.076,1.075a1.82,1.82,0,0,1,.329.4h0a1.236,1.236,0,0,1,.163.659,1.253,1.253,0,0,1-.163.639,1.832,1.832,0,0,1-.325.4c-1.35,1.329-2.686,2.669-4.023,4.009q-1.211,1.216-2.43,2.432a.529.529,0,0,1-.454.17.786.786,0,0,1-.629-.63.566.566,0,0,1,.152-.477q1.218-1.209,2.426-2.426" transform="translate(788.752 271.922)" fill="#5c5c5c"/>
  </g>
</svg>
