<svg xmlns="http://www.w3.org/2000/svg" width="110.016" height="27.503" viewBox="0 0 110.016 27.503">
  <g id="Group_149" data-name="Group 149" transform="translate(-2108.512 -831.974)">
    <path id="Path_789" data-name="Path 789" d="M1206.744,690.792h101.689a4.176,4.176,0,0,1,4.163,4.162v19.178a4.178,4.178,0,0,1-4.163,4.163H1206.744a4.177,4.177,0,0,1-4.163-4.163V694.954a4.174,4.174,0,0,1,4.163-4.162" transform="translate(905.931 141.182)" fill="#fcd936" fill-rule="evenodd"/>
    <path id="Path_790" data-name="Path 790" d="M1235.111,695.582h3.214l3.546,11.595a.709.709,0,0,0,.618.505c.108.011.69,0,.789,0h8.929a.7.7,0,1,0,0-1.4h-9.147l-.515-1.692h8.939c.383,0,.563-.339.7-.7l1.817-4.889a.958.958,0,0,0-.894-1.266h-12.659l-.724-2.363c-.142-.47-.237-1.19-.847-1.19h-3.762a.7.7,0,0,0,0,1.4m9.4,12.9a1.784,1.784,0,1,1-1.785,1.784A1.784,1.784,0,0,1,1244.515,708.483Zm5.607,0a1.784,1.784,0,1,1-1.784,1.784A1.784,1.784,0,0,1,1250.122,708.483Z" transform="translate(919.285 142.606)" fill-rule="evenodd"/>
  </g>
</svg>
