<svg xmlns="http://www.w3.org/2000/svg" xmlns:xlink="http://www.w3.org/1999/xlink" width="1916.356" height="700.866" viewBox="0 0 1916.356 700.866">
  <defs>
    <clipPath id="clip-path">
      <rect id="Rectangle_7" data-name="Rectangle 7" width="1916.356" height="321.666" fill="none"/>
    </clipPath>
  </defs>
  <g id="Group_172" data-name="Group 172" transform="translate(2351.178 -2628.841)">
    <rect id="Rectangle_174" data-name="Rectangle 174" width="1916.356" height="321.666" transform="translate(-2351.178 3008.041)" fill="#fff59e"/>
    <g id="Group_171" data-name="Group 171" transform="translate(-2351.178 3008.041)">
      <g id="Group_9" data-name="Group 9" transform="translate(0)" clip-path="url(#clip-path)">
        <path id="Path_5" data-name="Path 5" d="M392.309,2505.756l-.06,6.149-6.472-1.154-.579,5.421-6.811-1.779-1.986,5.892-6.054-3.763-2.48,5.408-4.971-4.918L358.7,2521.5l-3.594-5.722-5.82,3.625-1.753-4.835-4.716,1.813-.962-5.145-5.593.866.19-5.258-5.959.528,1.049-5.5-4.88-.44,1.651-6.536-5.907-.681,3.248-7.018-5.844-2.185,4.105-5.154-4.77-3.773,5.238-4.06-4.1-5.444,5.956-2.823-2.9-6.026,6.29-1.61-1.817-6.42,6.709-.014-.8-6.645,6.829,1.146-.106-6.064,7.171,1.884,1.5-6.015,5.9,3.112,2.95-5.362,5.163,4.266,4.425-4.594,3.532,5.218,2.585-2.287,2.967-1.632,1.809,4.541.908,1.475,6.1-2.655.612,6.482,6.524-2.17-.016,7.335,6.3-1.011-1.016,7.226,6.154.607-2.087,6.138,5.929,2.33-3.715,6.123,5.35,2.61-4.386,5.161,4.406,4.427-5.433,3.438,3.772,5.321-6.288,2.342,2.522,6.165-5.966.919.872,6.593Zm-36.354,5.952,2.748,4.7,4.276-3.334,3.836,3.634,3.652-4.139,4.789,3.01.991-4.853,6.331,1.913.5-3.827,6.376-.349-.115-5.341,5.884-.169-.809-5.806,5.171-.885-1.711-5.342,4.931-2.156-2.745-5.394,4.386-2.777-3.4-4.179,2.8-3.26.423-.48.416-.5-4.555-1.79,3.021-6.043-5.191-1.43,2.04-5.9-5.968-.633,1.371-5.908-5.418.632-.534-6.3-5.966,1.356-.825-5.547-5.43,2.162-2.094-5.039-4.635,3.121-3.847-4.591-2.791,4.03-5.042-3.735-2.214,4.8-5.281-2.695-1.5,4.941L343.567,2442l-.065,5.266-6.35-.574.884,5.524-6.315.678,1.64,5.366-5.482,1.682,2.437,4.887-5.188,2.74,3.465,4.173-4.481,3.564,4.182,3.051-3.4,5.185,4.64,2.546-2.68,5.682,5.4,1.36-1.493,5.173,4.32.576-.544,4.842,5.075-.7-.067,5.562,4.359-1.562,1.268,4.861,3.877-1.575,2.6,4.355Z" transform="translate(133.487 -2165.055)" fill="#ffed59" fill-rule="evenodd"/>
        <path id="Path_6" data-name="Path 6" d="M350.074,2458.255c2.589,1.441,1.728,4.229,1.722,7.459l5.837-2.752c3.092-.481.24-.185,1.542.248-2.892,3.519-4.822,6.679-10.141,7.06-.3-6.528-1.455-10.344,1.04-12.015" transform="translate(145.803 -2153.795)" fill="#ffed59" fill-rule="evenodd"/>
        <path id="Path_7" data-name="Path 7" d="M365.583,2455.216c1.194,2.1.757,4.579.93,7.607l7.11-2.711.25,1.445c-.051,1.13-6.682,5.424-10.232,5.615-.458-9.66-1.638-11,1.942-11.957" transform="translate(151.919 -2155.07)" fill="#ffed59" fill-rule="evenodd"/>
        <path id="Path_8" data-name="Path 8" d="M346.733,2451.694l5.715-2.706c2.775-.4.369-.127,1.464.288-2.659,3.289-4.537,6.389-10.108,6.987-.483-10.829-1.624-11.318,2.4-12.025Z" transform="translate(143.61 -2159.676)" fill="#ffed59" fill-rule="evenodd"/>
        <path id="Path_9" data-name="Path 9" d="M367.073,2467.161c1.405,2.3.735,4.33,1.063,7.6l6.973-2.708c.579,2.5.916,1.88-3.285,4.374-2.446,1.451-3.5,2.745-6.392,2.374-.761-8.9-1.894-10.483,1.641-11.639" transform="translate(152.571 -2150.059)" fill="#ffed59" fill-rule="evenodd"/>
        <path id="Path_10" data-name="Path 10" d="M335.563,2461.24c2.456,1.72,1.56,4.247,1.635,7.566l3.78-2c4.02-2.236,3.432-.535,3.763-.387-2.266,2.29-4.284,4.747-7.1,6.063-3.82,1.787-2.314.449-3,.132-.569-6.024-1.789-9.529.921-11.373" transform="translate(139.664 -2152.543)" fill="#ffed59" fill-rule="evenodd"/>
        <path id="Path_11" data-name="Path 11" d="M334.012,2449.249c2.429,1.828,1.5,4.177,1.672,7.544l7.549-2.483c-2.092,2.195-4.268,5-7.079,6.285-3.041,1.391-3.031.038-3.036.034-.63-6.084-1.861-9.448.894-11.38" transform="translate(139.002 -2157.574)" fill="#ffed59" fill-rule="evenodd"/>
        <path id="Path_12" data-name="Path 12" d="M358.814,2441.87c3.177.968,1.73,3.343,2.312,7.523l7.213-2.683c-2.163,2.422-6.051,7.643-9.481,6.828-1.417-2.838-2.017-9.31-.044-11.668" transform="translate(149.6 -2160.669)" fill="#ffed59" fill-rule="evenodd"/>
        <path id="Path_13" data-name="Path 13" d="M277.849,2494.672c-7.465,6.318-2.319,13.671,4.889,17.544,3.1,1.667,2.92,1.072,4.822-2.035,3.438-5.619,5.146-10.556.2-14.885l4.171-9.752-9.445-1.9c-3.779.058-3.942,5.408-5.98,6.713.187-5.579-.055-2.057,1.048-6.4,5.743-22.619-14.855-45.6-38.908-40.9-11.68,2.283-14.322,7.576-19.463,10.884l-8.788-5.485a6.782,6.782,0,0,0-1.828-.676l-1.51,6.689c-3.542-2.457-3.811-3.889-7.55-.347l1.177,4.957,3.8.686-5.7,4.386,13.065,5.512c-1.919,17.748,5.086,30.75,22.082,38.442,7.972,2.7,17.524,1.928,22.6-.243,8.36-3.577,11.159-6.624,17.951-15.315Zm6.545,14.833c-17.359-11.231,2.138-17.889,3.364-8.868C288.146,2503.484,285.851,2506.834,284.394,2509.5Zm4.26-22.139c-1.3,2.96-4.73,9.438-7.592,3.761C278.344,2485.739,285.689,2486.469,288.654,2487.365Zm-62.372,13.282c-12.6-9.8-17.081-28.679-5.469-43.52a30.851,30.851,0,0,1,43.3-4.646c11.707,9.4,16.066,28.424,4.649,42.75C259.311,2507.09,240.416,2511.645,226.282,2500.648Zm-19.419-42.993,3.88-1.405-.312-4.1,6.8,4.125-4.9,10.378-7.455-3,3.54-2.862Z" transform="translate(82.994 -2160.427)" fill="#ffed59" fill-rule="evenodd"/>
        <path id="Path_14" data-name="Path 14" d="M234.21,2451.286c1.557,3.354,3.124,1.417,8.078,4.359a18.667,18.667,0,0,1,8.774,12.956c.769,4.035-1.627,4.58,1.955,7.494a23.633,23.633,0,0,0-1.946-16.124c-.882-2.471-11.813-12.475-16.861-8.685" transform="translate(97.854 -2157.074)" fill="#ffed59" fill-rule="evenodd"/>
        <path id="Path_15" data-name="Path 15" d="M616.46,2498.9a21.768,21.768,0,0,0,26.043,1.973,20.037,20.037,0,0,1,4.3,4.207c6.93,8.933,6.311-2.354-1.432-5.753,8.077-9.451,6.3-21.676-2.552-31.682-4.56-5.155,1.574-7.192-2.684-20.788-4.707-15.03-21.384-28.984-42.06-23.954-29.664,7.217-36.042,45.116-13.823,61.946,8.7,6.59,13.636,7.627,26.476,7.742Zm-4.11-9.915c-13.325.073-20.167-1.388-27.989-8.341-24.329-21.623-.548-67.656,34.77-52.594,13.451,5.738,21.266,20.014,18.5,35.319-1.269,7.018,1.191,2.875,5.986,10.815,9.58,15.863-3.951,33.647-21.72,24.149C616.006,2495.182,616.264,2493.2,612.351,2488.982Z" transform="translate(239.134 -2169.067)" fill="#ffed59" fill-rule="evenodd"/>
        <path id="Path_16" data-name="Path 16" d="M589.632,2438.271c3.529.4,6.726-4.253,14.647-2.527,2.341.51,8.246,4.03,12.089,5.837-.669-5.58-11.5-11.994-21.608-8.672-1.448.476-4.545,1.816-5.127,3.055l-.139,1.685a2.522,2.522,0,0,0,.139.622" transform="translate(246.904 -2164.811)" fill="#ffed59" fill-rule="evenodd"/>
        <path id="Path_17" data-name="Path 17" d="M325.087,2429.518c1.773,5.469,1.259,15.576-3.9,15.944-3.472.247-5.418-5.546-10.553-9.723-5.856-4.762-17.351-6.914-24.8-4.119-9.011,3.378-4.449.444-6.463.773l-8.642,26.827c-6.023-1.286-6.382-.813-7.626-4.711-1.028-3.219-1.753-7.17-2.585-10.781-1.722-7.467-5.159-13.587-2.865-21.88,9.333-33.728,60.5-35.868,81.557-5.117,5.548,8.1,5.027,8.788.64,17.816Zm-43.277.305c26.458-9.633,35.159,10.347,39.84,12.394l-.829-14.4c-.456-1.054-15.177-7.5-28.292-3.549C286.647,2426.038,285.677,2427.492,281.81,2429.823Zm-12.867,26.05c3.449-4.747.992-16.8,5.609-23.016,9.673-13.02,26.576-15.765,42.363-10.064l21.421,8.442c2.62-9.569,2.365-7.469-3.591-15.2-18.59-24.114-62.36-25.117-73.411,4.358-2.92,7.791-.44,12.278,1.272,19.087C264.867,2448.485,264.431,2454.262,268.944,2455.873Z" transform="translate(107.367 -2180.318)" fill="#ffed59" fill-rule="evenodd"/>
        <path id="Path_18" data-name="Path 18" d="M268.892,2410.125c-2.122-5.553,17.568-11.065,28.187-10.314,14.728,1.04,16.425,5.215,24.711,13.962-2.4.111-2.6-1.47-4.76-3.188-11.642-9.257-29.5-10.192-42.127-3.122-2.683,1.5-3.449,3.15-6.012,2.662" transform="translate(112.337 -2178.343)" fill="#ffed59" fill-rule="evenodd"/>
        <path id="Path_19" data-name="Path 19" d="M270.077,2407.977c-.305,3.239-1.415,2.335-3.066,4.811-2.439,3.659-.136,4.314-4.388,4.775-.091-5.028,3.259-11.068,7.454-9.586" transform="translate(109.773 -2174.984)" fill="#ffed59" fill-rule="evenodd"/>
        <path id="Path_20" data-name="Path 20" d="M403.481,2393.344c-7.617,2.026-22.751,10.1-26.815,18.618-1.482,3.108,3,4.852,10.659,10.066,5.768,3.928,64.493,44.947,67.7,46.141,7.573-5.573,9.528-21.794,9.705-27.557.918-29.834-28.243-56.05-61.25-47.268m37.052,11.487a42.592,42.592,0,0,0-30.267-6.854c-18.885,2.88-24.275,14.881-28.684,16.558l-1.563-1.564c6.484-13.67,29.452-20.947,46.924-17.107,26.654,5.86,42.455,36.206,31.024,62.477a36,36,0,0,1-2.111,4.25c-1.567,2.22-.37,1.671-2.706,1.37l5.275-14.99C462.371,2434.6,455.349,2414.937,440.533,2404.831Zm9.072,13.335c9.071,13.641,8.318,35.746.263,43.189l-55.234-38c-3.468-2.382-9.817-5.721-9.208-7.691,1.817-5.885,16.528-12.534,21.179-13.783C419.26,2398.487,438.238,2401.07,449.606,2418.166Z" transform="translate(157.5 -2181.749)" fill="#ffed59" fill-rule="evenodd"/>
        <path id="Path_21" data-name="Path 21" d="M404.122,2416.459c2.747-1.353,2.52-8.784.013-8.787-2.531,0-2.687,7.311-.013,8.787" transform="translate(168.32 -2175.016)" fill="#ffed59" fill-rule="evenodd"/>
        <path id="Path_22" data-name="Path 22" d="M426.471,2432.151c-1.578-2.328-6.44-4.088-8.9-2.018.853,2.552,1.428,1.9,4.08,2.65,2.706.77,2.815,1.777,4.824-.632" transform="translate(174.777 -2165.978)" fill="#ffed59" fill-rule="evenodd"/>
        <path id="Path_23" data-name="Path 23" d="M415.72,2423.158c2.594,2.611,4.371.654,9.061-2.4-2.542-1.845-1.722-1.6-4.967-.331-1.84.72-3.249.858-4.094,2.732" transform="translate(174.002 -2170.086)" fill="#ffed59" fill-rule="evenodd"/>
        <path id="Path_24" data-name="Path 24" d="M397.675,2417.2c1.211-2.845-.332-3.405-4.941-7.64-2.243,2.6,2.142,7.876,4.941,7.64" transform="translate(164.099 -2174.225)" fill="#ffed59" fill-rule="evenodd"/>
        <path id="Path_25" data-name="Path 25" d="M411.859,2418.258c4.381-1.157,4.094-4.972,4.266-7.9-2.3,1.055-2.169,1.279-3.722,3.58-1.982,2.937-1.943,2.148-.544,4.322" transform="translate(171.961 -2173.89)" fill="#ffed59" fill-rule="evenodd"/>
        <path id="Path_26" data-name="Path 26" d="M553.124,2444.769a43.473,43.473,0,0,1,6,25.178c-1.215,18.3-13.971,29.618-32.09,31.309q1.148,3.255,2.3,6.514c13.835-7.761,25.165,2.037,24.969,14.586-10.617,5.742-19.452,5.968-25.837-1.391-3.114.435-5.921,3.474-12.749,2.621-2.019-.254-2.769-.446-3.894-1.326,1.482-8.2.882-19.288,13.392-15.321q-.536-2.355-1.076-4.71c-25.884,13.156-56.02-5.554-52.079-40.509,1.84-14.473,11.064-25.533,21.617-29.928,3.905-1.63,6.34-1.55,10.3-2.69,20.884-6.017,37.336-4.49,49.154,15.667m-2.7,75.24c-6.247-18.643-17.146-13.825-19.345-8.029C527.254,2522.06,538.741,2527.952,550.427,2520.01Zm-25.522-9.15c-6.668-6.206-9.568,4.55-10.168,9.309,3.278.129,8.054.931,10.412-1.306S526.752,2512.58,524.905,2510.859Zm30.711-48.885c-2.48-19-21.125-38.948-43.9-32.236-2.544.75-4.4,2.075-6.851,2.714-8.239,2.149-10.744.656-19.694,9.4-6.477,6.331-11.275,17.417-9.974,29.829,2.047,19.506,20.736,39,42.846,29.656,2.2-.931,4.683-2.7,6.352-3.178,2.609-.745,5.983-.421,8.77-1.052a31.734,31.734,0,0,0,12.774-6.577C552.035,2485.363,557.192,2474.04,555.616,2461.974Z" transform="translate(197.488 -2167.324)" fill="#ffed59" fill-rule="evenodd"/>
        <path id="Path_27" data-name="Path 27" d="M495.567,2443.3c-.822,6.6-12.442,3.158-9.92,21.447.287,2.085.5,1.067-.643,3.9-.632-.212-3.156,1.166-3.364-7.421-.231-9.544,7.47-19.124,13.927-17.921" transform="translate(201.655 -2160.113)" fill="#ffed59" fill-rule="evenodd"/>
        <path id="Path_28" data-name="Path 28" d="M182.479,2524.648c-2.128-1.745-4.748-5.847-6.4-8.788a14.013,14.013,0,0,0,6.557-8.961c1.307-6.133-1.208-9.485-.734-14.214-.718-.937-.206.109-1.178-1.955-.04-.083-.755-2.057-.761-2.077-4.274-14.075-1.2-23.442-2.578-34.885-4.244-35.238-55.845-46.443-74.779-16.755-13.994,21.942-5.594,49.69,12.289,59.553,10.056,5.546,19.819,6.9,29.266,13.416,18.059,12.453,13.368,12.7,29.611,8.448,3.78,6.809,5.031,11.575,9.279,10.82Zm-14.446-8.344c-7.081,2.433-10.743-1.373-15.417-4.8-24.536-18-30.917-12.521-41.948-22.519-6.985-6.331-12.463-18.969-10.885-32.895,5.024-44.323,62.7-39,72.444-8.7,3.823,11.887.088,26.222,3.576,40.014C179.4,2501.635,182.392,2511.37,168.032,2516.3Z" transform="translate(39.7 -2169.871)" fill="#ffed59" fill-rule="evenodd"/>
        <path id="Path_29" data-name="Path 29" d="M150.918,2451.871c-2.747-25.841-45.1-22.474-40.742,6.335,3.8,25.094,43.723,21.71,40.742-6.335m-16.753,18.989c-20.389,5.773-29.556-26.671-8.164-32.385C146.571,2432.984,157.706,2464.191,134.164,2470.86Z" transform="translate(45.687 -2163.81)" fill="#ffed59" fill-rule="evenodd"/>
        <path id="Path_30" data-name="Path 30" d="M130.681,2443.543c-1.211,7.455,5.261-.879-1.262,16.537,9.214.505,7.387-13.853,4.391-16.207-3.569-2.8-2.643-.469-3.129-.331" transform="translate(53.892 -2160.404)" fill="#ffed59" fill-rule="evenodd"/>
        <path id="Path_31" data-name="Path 31" d="M1301.524,2519.112c-49.259-10.037-33.485-82.257,14.259-72.813,17.682,3.5,33.578,21.13,29.142,43.612-3.579,18.136-21.192,33.728-43.4,29.2m-10.48-7.466c6.161,3.656,21.516,8.335,31.941.857l-5.289-10.066c-2.855-5.233-3.215-7.7-6.427-8.241-2.184,4.664-1.34,2.158-1.608,6.564-.288,4.748.464,4.441-3,5.174-.544-4.51-.4-10.038-1.752-11.958C1300.35,2498.617,1292.889,2505.557,1291.043,2511.646Zm36.936-16.025c-3.922.923-16.136-11.366-10.266-.62,1.9,3.481,6.967,12.927,9,15.243,7.952-7.768,14.96-12.351,14.965-25.378l-21.611-.184C1327.254,2494.188,1329.037,2491.78,1327.979,2495.62Zm-52.677-10.835c-.072,10.684,6.907,19.87,12.351,23.7,2.781-3.736,11.847-14.413,11.653-18.675l-12.3,2.715c7.181-6.383,8.739-4.991,9.745-7.985Zm30.4,5.346c10.249,4.084,14.784-11.494,5.611-14.912C1301.793,2471.67,1295.308,2485.986,1305.706,2490.131Zm14.231-10.327a3.878,3.878,0,0,0,.745.328q10.6.243,21.189.48a39.079,39.079,0,0,0-12.437-23.536l-12.248,17.744,12.9-2.214c-6.746,6.173-2.657,2.788-7.762,5.543Zm-29.245-24.681c-8.09,2.807-14.465,13.723-15.608,25.58,4.183.074,18.6,1.619,21.765-1.176-7.268-9.549-7.76-5.215-8.3-10.7l12.093,5.6Zm2.9-2.8c1.033,3.676,3.685,7.1,5.6,10.482,3.618,6.4,1.5,4.24,7.274,8.355l2.085-11.822,3.634,12.177c3.535-.067,1.556,1.191,7.569-7.751,3.246-4.828,3.515-4.348,6.057-9.386C1312.9,2445.586,1302.507,2450.4,1293.589,2452.318Z" transform="translate(532.988 -2159.167)" fill="#ffed59" fill-rule="evenodd"/>
        <path id="Path_32" data-name="Path 32" d="M1263.274,2478.869c3.434-24.4,27.211-46.166,56.636-41.339,24.214,3.971,45.693,26.781,41.027,56.5-3.845,24.49-26.751,45.544-56.054,41.2a49.5,49.5,0,0,1-41.609-56.359m3.79,0c-4.355,27.324,15.4,49.115,37.967,52.575,27.391,4.2,48.8-15.581,52.211-38.287,4.091-27.236-15.5-48.478-38.248-51.97C1291.883,2437.024,1270.587,2456.774,1267.064,2478.869Z" transform="translate(529.349 -2162.773)" fill="#ffed59" fill-rule="evenodd"/>
        <path id="Path_33" data-name="Path 33" d="M1018.809,2455.614l-.06,6.151-6.472-1.154-.578,5.42-6.812-1.779-1.986,5.892-6.053-3.763-2.48,5.41-4.971-4.919-4.195,4.483-3.593-5.721-5.82,3.626-1.755-4.836-4.716,1.814-.962-5.146-5.593.869.19-5.259-5.958.528,1.048-5.5-4.88-.441,1.651-6.534-5.907-.681,3.248-7.018-5.844-2.185,4.105-5.156-4.77-3.772,5.24-4.061-4.1-5.444,5.956-2.823-2.9-6.026,6.29-1.61-1.816-6.419,6.707-.016-.8-6.645,6.831,1.145-.108-6.063,7.171,1.884,1.5-6.014,5.9,3.111,2.948-5.363,5.164,4.266,4.425-4.592,3.53,5.218,2.585-2.288,2.967-1.633,1.808,4.541.908,1.476,6.1-2.656.613,6.484,6.524-2.173-.016,7.335,6.3-1.01-1.015,7.227,6.152.606-2.085,6.138,5.929,2.331-3.716,6.121,5.35,2.611-4.386,5.163,4.408,4.425-5.432,3.438,3.77,5.322-6.287,2.341,2.523,6.165-5.968.92.873,6.592Zm-36.354,5.953,2.748,4.7,4.276-3.336,3.837,3.634,3.652-4.138,4.789,3.008.99-4.853,6.331,1.915.5-3.829,6.378-.349-.116-5.339,5.884-.17-.808-5.8,5.17-.886-1.71-5.343,4.931-2.155-2.745-5.394,4.386-2.777-3.4-4.18,2.8-3.261.422-.479.416-.5-4.554-1.793,3.019-6.043-5.19-1.429,2.038-5.9-5.968-.633,1.371-5.906-5.418.63-.534-6.3-5.966,1.357-.823-5.549-5.431,2.16-2.092-5.039L997,2390.712l-3.848-4.591-2.789,4.031-5.042-3.736-2.216,4.8-5.281-2.7-1.495,4.943-6.264-1.607-.067,5.266-6.35-.572.886,5.523-6.316.678,1.638,5.365-5.481,1.685,2.437,4.885-5.19,2.741,3.465,4.172-4.481,3.566,4.183,3.049-3.4,5.187,4.64,2.545-2.68,5.682,5.4,1.36-1.493,5.173,4.32.575-.545,4.842,5.075-.7-.065,5.562,4.359-1.56,1.266,4.859,3.878-1.576,2.6,4.355Z" transform="translate(396.319 -2186.09)" fill="#ffed59" fill-rule="evenodd"/>
        <path id="Path_34" data-name="Path 34" d="M966.871,2436.267c-.582-1.262-2.078-7.268.264-11.69,2.2.694,1.968-2.464,2.141,7.576l7.57-3.015c-.085,3.678-.977,3.014-4.278,4.825-1.914,1.05-3.434,2.63-5.7,2.3" transform="translate(404.8 -2167.924)" fill="#ffed59" fill-rule="evenodd"/>
        <path id="Path_35" data-name="Path 35" d="M976.574,2408.114c2.589,1.439,1.728,4.227,1.722,7.459l5.837-2.754c3.092-.481.24-.184,1.542.249-2.892,3.52-4.821,6.679-10.141,7.061-.3-6.528-1.455-10.343,1.041-12.015" transform="translate(408.635 -2174.831)" fill="#ffed59" fill-rule="evenodd"/>
        <path id="Path_36" data-name="Path 36" d="M992.082,2405.075c1.194,2.1.757,4.578.931,7.606l7.11-2.712.25,1.447c-.052,1.128-6.683,5.426-10.232,5.616-.46-9.661-1.638-11,1.941-11.957" transform="translate(414.751 -2176.105)" fill="#ffed59" fill-rule="evenodd"/>
        <path id="Path_37" data-name="Path 37" d="M973.235,2401.552l5.714-2.706c2.775-.4.369-.128,1.464.288-2.659,3.289-4.537,6.389-10.107,6.987-.484-10.829-1.625-11.318,2.395-12.025Z" transform="translate(406.442 -2180.711)" fill="#ffed59" fill-rule="evenodd"/>
        <path id="Path_38" data-name="Path 38" d="M993.573,2417.019c1.405,2.3.735,4.33,1.063,7.6l6.973-2.71c.579,2.5.916,1.882-3.285,4.373-2.446,1.451-3.5,2.746-6.392,2.374-.76-8.9-1.894-10.482,1.641-11.639" transform="translate(415.403 -2171.095)" fill="#ffed59" fill-rule="evenodd"/>
        <path id="Path_39" data-name="Path 39" d="M962.065,2411.1c2.454,1.721,1.559,4.248,1.635,7.566l3.78-2c4.02-2.234,3.432-.535,3.762-.386-2.264,2.288-4.283,4.746-7.1,6.062-3.818,1.787-2.312.45-3,.132-.569-6.023-1.789-9.529.923-11.374" transform="translate(402.496 -2173.579)" fill="#ffed59" fill-rule="evenodd"/>
        <path id="Path_40" data-name="Path 40" d="M980.567,2422.079c4.029.779,2.723,3,2.774,7.457l3.75-1.908c3.708-1.99,3.692-.563,3.7-.558-2.872,3.281-5.237,6.672-10.127,7Z" transform="translate(410.968 -2168.972)" fill="#ffed59" fill-rule="evenodd"/>
        <path id="Path_41" data-name="Path 41" d="M960.513,2399.107c2.429,1.829,1.495,4.178,1.671,7.546l7.549-2.483c-2.092,2.193-4.269,5-7.079,6.283-3.039,1.393-3.029.04-3.035.035-.63-6.086-1.861-9.448.894-11.382" transform="translate(401.834 -2178.609)" fill="#ffed59" fill-rule="evenodd"/>
        <path id="Path_42" data-name="Path 42" d="M985.316,2391.728c3.177.969,1.729,3.344,2.311,7.524l7.213-2.683c-2.162,2.422-6.05,7.643-9.479,6.829-1.417-2.838-2.019-9.311-.044-11.67" transform="translate(412.432 -2181.705)" fill="#ffed59" fill-rule="evenodd"/>
        <path id="Path_43" data-name="Path 43" d="M900.289,2492.9c-9.194,3.339-6.916,12.019-1.5,18.152,2.329,2.639,2.368,2.018,5.231-.239,5.171-4.077,8.486-8.113,5.35-13.89l7.294-7.7-8.2-5.052c-3.566-1.258-5.574,3.7-7.939,4.221,2.111-5.167.663-1.95,3.2-5.638,13.23-19.222,1.88-47.919-22.309-51.854-11.747-1.911-16.06,2.139-22.031,3.458l-6.34-8.192a6.8,6.8,0,0,0-1.479-1.269l-3.736,5.749c-2.471-3.531-2.227-4.967-6.961-2.941l-.615,5.055,3.327,1.963-6.862,2.139,10.341,9.7c-7.955,15.981-5.894,30.6,7.382,43.716,6.54,5.3,15.767,7.884,21.28,7.607,9.082-.453,12.763-2.341,22.147-8.137Zm1,16.184c-12.387-16.556,8.209-16.039,6.232-7.152C906.89,2504.739,903.575,2507.084,901.284,2509.086Zm11.673-19.289c-2.25,2.324-7.709,7.211-8.425.9C903.852,2484.7,910.485,2487.928,912.957,2489.8Zm-63.106-9.172c-8.418-13.565-6.077-32.823,9.961-42.718a30.852,30.852,0,0,1,42.222,10.659c7.719,12.881,5.211,32.232-10.465,41.71C878.6,2498.121,859.292,2495.84,849.851,2480.625Zm-3.3-47.062,4.126.027,1.129-3.949,4.946,6.226-8.2,8.033-5.953-5.4,4.312-1.456Z" transform="translate(350.621 -2167.79)" fill="#ffed59" fill-rule="evenodd"/>
        <path id="Path_44" data-name="Path 44" d="M872.266,2439.373c.3,3.687,2.439,2.412,6.066,6.889a18.671,18.671,0,0,1,3.736,15.195c-.679,4.051-3.115,3.731-.765,7.708a23.631,23.631,0,0,0,3.766-15.8c.031-2.623-6.754-15.8-12.8-13.992" transform="translate(365.534 -2161.788)" fill="#ffed59" fill-rule="evenodd"/>
        <path id="Path_45" data-name="Path 45" d="M1272.742,2431.7a23.342,23.342,0,0,0,27.921,2.114,21.387,21.387,0,0,1,4.608,4.511c7.431,9.577,6.768-2.524-1.533-6.169,8.659-10.133,6.753-23.24-2.737-33.968-4.889-5.525,1.688-7.711-2.877-22.286-5.048-16.115-22.925-31.075-45.1-25.682-31.8,7.736-38.641,48.369-14.82,66.415,9.322,7.063,14.62,8.177,28.385,8.3Zm-4.408-10.634c-14.285.079-21.621-1.488-30.007-8.942-26.084-23.182-.588-72.536,37.278-56.386,14.422,6.151,22.8,21.456,19.834,37.866-1.36,7.525,1.278,3.082,6.419,11.6,10.27,17.006-4.237,36.073-23.287,25.89C1272.254,2427.715,1272.531,2425.59,1268.334,2421.066Z" transform="translate(513.083 -2199.589)" fill="#ffed59" fill-rule="evenodd"/>
        <path id="Path_46" data-name="Path 46" d="M1243.978,2366.7c3.785.429,7.211-4.556,15.7-2.708,2.51.548,8.842,4.321,12.962,6.259-.718-5.982-12.327-12.858-23.167-9.3-1.553.509-4.873,1.945-5.5,3.273l-.15,1.808a2.808,2.808,0,0,0,.15.664" transform="translate(521.413 -2195.027)" fill="#ffed59" fill-rule="evenodd"/>
        <path id="Path_47" data-name="Path 47" d="M976.411,2495.529c1.773,5.471,1.259,15.578-3.9,15.946-3.474.247-5.418-5.546-10.553-9.724-5.855-4.761-17.351-6.913-24.8-4.118-9.011,3.38-4.449.443-6.463.773l-8.642,26.826c-6.023-1.285-6.382-.812-7.627-4.71-1.028-3.221-1.752-7.17-2.584-10.781-1.72-7.468-5.158-13.588-2.865-21.881,9.333-33.729,60.5-35.869,81.557-5.117,5.546,8.1,5.026,8.788.639,17.815Zm-43.276.305c26.457-9.631,35.157,10.347,39.839,12.4l-.829-14.4c-.456-1.053-15.178-7.5-28.294-3.549C937.97,2492.048,937,2493.505,933.135,2495.834Zm-12.868,26.051c3.449-4.747.991-16.8,5.607-23.016,9.674-13.02,26.578-15.765,42.364-10.064l21.421,8.441c2.62-9.569,2.365-7.469-3.591-15.2-18.59-24.112-62.36-25.116-73.411,4.36-2.92,7.79-.44,12.277,1.27,19.086C916.191,2514.5,915.755,2520.274,920.268,2521.885Z" transform="translate(380.613 -2152.625)" fill="#ffed59" fill-rule="evenodd"/>
        <path id="Path_48" data-name="Path 48" d="M920.216,2476.138c-2.122-5.553,17.568-11.065,28.187-10.315,14.726,1.042,16.425,5.217,24.711,13.962-2.4.111-2.6-1.469-4.761-3.187-11.64-9.256-29.5-10.194-42.127-3.122-2.68,1.5-3.447,3.15-6.01,2.662" transform="translate(385.583 -2150.649)" fill="#ffed59" fill-rule="evenodd"/>
        <path id="Path_49" data-name="Path 49" d="M1034.15,2437.4c-7.617,2.027-22.751,10.1-26.813,18.618-1.483,3.109,3,4.851,10.659,10.066,5.766,3.929,64.492,44.945,67.7,46.142,7.573-5.574,9.528-21.794,9.705-27.557.92-29.835-28.243-56.05-61.25-47.269m37.052,11.488a42.582,42.582,0,0,0-30.266-6.855c-18.887,2.88-24.277,14.878-28.684,16.559l-1.564-1.566c6.484-13.67,29.452-20.947,46.925-17.105,26.653,5.86,42.454,36.205,31.022,62.476a35.666,35.666,0,0,1-2.111,4.25c-1.566,2.22-.37,1.671-2.706,1.37l5.276-14.989C1093.042,2478.653,1086.019,2458.993,1071.2,2448.887Zm9.074,13.335c9.069,13.642,8.318,35.747.261,43.188l-55.234-37.993c-3.468-2.382-9.817-5.722-9.208-7.693,1.817-5.885,16.528-12.533,21.179-13.782C1049.931,2442.542,1068.907,2445.126,1080.276,2462.222Z" transform="translate(422.08 -2163.266)" fill="#ffed59" fill-rule="evenodd"/>
        <path id="Path_50" data-name="Path 50" d="M1034.791,2460.514c2.747-1.353,2.52-8.783.014-8.787-2.531,0-2.688,7.312-.014,8.787" transform="translate(432.9 -2156.534)" fill="#ffed59" fill-rule="evenodd"/>
        <path id="Path_51" data-name="Path 51" d="M1046.389,2467.212c2.595,2.61,4.372.656,9.061-2.4-2.542-1.844-1.72-1.6-4.967-.331-1.839.721-3.249.86-4.094,2.732" transform="translate(438.582 -2151.604)" fill="#ffed59" fill-rule="evenodd"/>
        <path id="Path_52" data-name="Path 52" d="M1028.344,2461.253c1.212-2.845-.332-3.407-4.941-7.64-2.243,2.593,2.141,7.875,4.941,7.64" transform="translate(428.68 -2155.743)" fill="#ffed59" fill-rule="evenodd"/>
        <path id="Path_53" data-name="Path 53" d="M1042.528,2462.313c4.381-1.156,4.094-4.97,4.267-7.9-2.3,1.054-2.169,1.277-3.723,3.58-1.982,2.936-1.942,2.146-.544,4.32" transform="translate(436.542 -2155.407)" fill="#ffed59" fill-rule="evenodd"/>
        <path id="Path_54" data-name="Path 54" d="M1165.22,2444.285a43.471,43.471,0,0,1,6,25.178c-1.216,18.3-13.971,29.617-32.091,31.309q1.15,3.256,2.3,6.514c13.835-7.76,25.164,2.035,24.968,14.585-10.615,5.742-19.452,5.967-25.837-1.391-3.113.433-5.919,3.474-12.747,2.619-2.02-.253-2.77-.444-3.892-1.324,1.481-8.2.88-19.289,13.389-15.321q-.536-2.357-1.076-4.711c-25.882,13.157-56.019-5.555-52.079-40.509,1.841-14.472,11.064-25.531,21.616-29.928,3.907-1.628,6.34-1.55,10.3-2.69,20.885-6.017,37.336-4.488,49.155,15.669m-2.7,75.24c-6.247-18.642-17.145-13.826-19.345-8.03C1139.351,2521.576,1150.836,2527.467,1162.521,2519.526ZM1137,2510.375c-6.666-6.206-9.566,4.551-10.167,9.31,3.278.129,8.053.93,10.411-1.306S1138.847,2512.093,1137,2510.375Zm30.713-48.884c-2.48-19-21.127-38.949-43.9-32.236-2.544.748-4.395,2.076-6.849,2.714-8.24,2.149-10.744.656-19.694,9.4-6.477,6.331-11.275,17.417-9.974,29.828,2.045,19.506,20.736,38.994,42.844,29.655,2.2-.93,4.683-2.7,6.354-3.177,2.609-.745,5.983-.423,8.77-1.053a31.723,31.723,0,0,0,12.773-6.575C1164.131,2484.878,1169.287,2473.556,1167.713,2461.49Z" transform="translate(454.277 -2167.528)" fill="#ffed59" fill-rule="evenodd"/>
        <path id="Path_55" data-name="Path 55" d="M1107.662,2442.814c-.82,6.605-12.442,3.159-9.918,21.449.287,2.085.5,1.067-.644,3.894-.63-.21-3.154,1.167-3.364-7.42-.231-9.543,7.471-19.124,13.927-17.923" transform="translate(458.443 -2160.316)" fill="#ffed59" fill-rule="evenodd"/>
        <path id="Path_56" data-name="Path 56" d="M1226.521,2503.142c3.147-3.33,7.095-11.95,8.018-15.4l8.476-19.125c-4.355-2.444-8.49-4.146-11.4-8.321a20.269,20.269,0,0,1-3.383-16.32c5.035-24.28,43.545-18.651,39.515,7.609-1.931,12.57-11.291,16.043-21.8,17.119l-15.808,35.441c-3.161,5.2-.7,3.6-2.014,9.071-3.271,13.6-21.527,12.694-26.363,10.441.471-7.606,1.276-14.611,3.746-18.617,2.8-4.335,8.656-6.406,15.6-5.449-3.831-6.232-16.4-27.011-22.27-30.46-3.559-2.091-10.3.318-17.293-9.058a20.237,20.237,0,0,1-2.014-20.108c10.824-23.908,47.638-7.708,36.756,16.812a21.958,21.958,0,0,1-5.553,7.186,15.587,15.587,0,0,1-3.916,2.481c-.748.359-1.425.585-2.21.974l-1.956,1.167c13.477,15.053,14.438,20.881,23.875,34.564m-5.052,15.43c2.843-2.442,5.672-9.992,1.736-13.953s-17.948-4.73-18.461,16.649C1210.561,2521.426,1217.659,2521.842,1221.469,2518.573Zm-27.259-53.948c9.736,2.586,17.922-4.291,19.883-11.617a16.948,16.948,0,0,0-11.823-20.832C1180.805,2426.518,1171.543,2458.6,1194.21,2464.625Zm50.169.122c9.64,2.247,17.9-4.594,19.78-12.055a16.921,16.921,0,0,0-11.626-20.509C1230.632,2426.37,1221.593,2459.433,1244.379,2464.747Z" transform="translate(493.689 -2166.391)" fill="#ffed59" fill-rule="evenodd"/>
        <path id="Path_57" data-name="Path 57" d="M1216.518,2445.4c-.869-7.048,3.979-12.781,11.1-11.058l-6.26,4.544c-3.37,2.822,1.031,5.685-4.843,6.514" transform="translate(509.913 -2163.956)" fill="#ffed59" fill-rule="evenodd"/>
        <path id="Path_58" data-name="Path 58" d="M709.744,2512.6c-9.193,3.339-6.916,12.018-1.5,18.153,2.329,2.636,2.368,2.015,5.23-.239,5.173-4.077,8.486-8.115,5.352-13.893l7.292-7.7-8.2-5.055c-3.566-1.258-5.574,3.7-7.939,4.222,2.111-5.167.663-1.948,3.2-5.637,13.231-19.222,1.881-47.92-22.309-51.854-11.745-1.911-16.059,2.139-22.03,3.457l-6.341-8.191a6.764,6.764,0,0,0-1.479-1.269l-3.736,5.749c-2.47-3.53-2.226-4.968-6.961-2.943l-.615,5.055,3.329,1.965-6.862,2.138q5.17,4.851,10.341,9.7c-7.955,15.981-5.892,30.606,7.38,43.715,6.543,5.3,15.768,7.887,21.281,7.608,9.081-.454,12.764-2.342,22.147-8.138Zm1,16.183c-12.385-16.555,8.209-16.038,6.232-7.15C716.344,2524.437,713.03,2526.785,710.739,2528.783Zm11.673-19.287c-2.248,2.324-7.709,7.211-8.425.895C713.308,2504.393,719.943,2507.627,722.411,2509.5Zm-63.106-9.173c-8.418-13.563-6.076-32.822,9.962-42.716a30.852,30.852,0,0,1,42.222,10.659c7.718,12.881,5.211,32.232-10.465,41.71C688.05,2517.819,668.748,2515.539,659.305,2500.323Zm-3.3-47.059,4.127.026,1.128-3.95,4.946,6.226L658,2463.6l-5.952-5.4,4.313-1.456Z" transform="translate(270.683 -2159.525)" fill="#ffed59" fill-rule="evenodd"/>
        <path id="Path_59" data-name="Path 59" d="M681.722,2459.072c.3,3.687,2.437,2.41,6.064,6.89a18.664,18.664,0,0,1,3.738,15.195c-.679,4.05-3.113,3.73-.765,7.705a23.626,23.626,0,0,0,3.765-15.8c.031-2.622-6.753-15.8-12.8-13.991" transform="translate(285.596 -2153.523)" fill="#ffed59" fill-rule="evenodd"/>
        <path id="Path_60" data-name="Path 60" d="M1261.049,2343.109l-.061,6.149-6.472-1.153-.579,5.418-6.811-1.777-1.985,5.894-6.056-3.764-2.48,5.409-4.971-4.918-4.193,4.483-3.593-5.721-5.821,3.625-1.753-4.836-4.716,1.814-.961-5.145-5.594.866.19-5.258-5.959.528,1.048-5.5-4.878-.442,1.65-6.534-5.907-.683,3.248-7.017-5.846-2.184,4.105-5.157-4.768-3.77,5.238-4.062-4.1-5.442,5.956-2.825-2.9-6.026,6.291-1.611-1.818-6.418,6.709-.016-.8-6.645,6.831,1.146-.1-6.063,7.17,1.884,1.5-6.016,5.9,3.113,2.95-5.362,5.163,4.264,4.425-4.594,3.532,5.218,2.585-2.286,2.968-1.635,1.807,4.542.908,1.475,6.1-2.655.612,6.483,6.524-2.172-.016,7.335,6.3-1.011-1.016,7.225,6.154.608-2.087,6.138,5.929,2.331-3.713,6.121,5.349,2.61-4.386,5.163,4.406,4.425-5.431,3.438,3.77,5.32-6.288,2.342,2.524,6.164-5.968.921.872,6.592Zm-36.355,5.954,2.748,4.7,4.276-3.335,3.837,3.634,3.651-4.138,4.79,3.008.991-4.853,6.331,1.915.5-3.827,6.376-.35-.116-5.339,5.884-.169-.808-5.806,5.171-.886-1.709-5.344,4.93-2.155-2.744-5.394,4.385-2.775-3.4-4.181,2.8-3.26.422-.479.416-.5-4.555-1.792,3.021-6.043-5.191-1.428,2.041-5.905-5.968-.633,1.37-5.907-5.418.63-.534-6.3-5.968,1.356-.823-5.548-5.428,2.161-2.1-5.041-4.633,3.124-3.848-4.594-2.789,4.033-5.044-3.736-2.216,4.8-5.278-2.694-1.5,4.941-6.264-1.607-.065,5.266-6.351-.572.886,5.522-6.315.68,1.64,5.364-5.482,1.684,2.437,4.886-5.187,2.741,3.464,4.172-4.481,3.566,4.182,3.05-3.4,5.185,4.64,2.545-2.68,5.684,5.4,1.359-1.493,5.173,4.32.576-.545,4.843,5.076-.7-.065,5.562,4.358-1.56,1.268,4.86,3.877-1.577,2.6,4.356Z" transform="translate(497.944 -2233.289)" fill="#ffed59" fill-rule="evenodd"/>
        <path id="Path_61" data-name="Path 61" d="M1209.109,2323.762c-.581-1.261-2.077-7.27.264-11.69,2.2.694,1.97-2.464,2.141,7.576l7.57-3.015c-.085,3.679-.975,3.014-4.277,4.825-1.913,1.05-3.435,2.63-5.7,2.3" transform="translate(506.424 -2215.122)" fill="#ffed59" fill-rule="evenodd"/>
        <path id="Path_62" data-name="Path 62" d="M1218.814,2295.609c2.586,1.441,1.725,4.228,1.719,7.46l5.838-2.754c3.092-.48.241-.183,1.542.249-2.891,3.52-4.822,6.678-10.141,7.061-.3-6.53-1.455-10.344,1.042-12.015" transform="translate(510.26 -2222.029)" fill="#ffed59" fill-rule="evenodd"/>
        <path id="Path_63" data-name="Path 63" d="M1234.32,2292.57c1.2,2.1.758,4.578.931,7.605l7.11-2.711.251,1.447c-.051,1.13-6.683,5.424-10.233,5.615-.458-9.661-1.638-11,1.941-11.956" transform="translate(516.376 -2223.304)" fill="#ffed59" fill-rule="evenodd"/>
        <path id="Path_64" data-name="Path 64" d="M1215.472,2289.048l5.716-2.706c2.774-.4.366-.128,1.462.288-2.659,3.29-4.538,6.389-10.107,6.987-.484-10.829-1.625-11.318,2.395-12.026Z" transform="translate(508.067 -2227.91)" fill="#ffed59" fill-rule="evenodd"/>
        <path id="Path_65" data-name="Path 65" d="M1235.814,2304.514c1.4,2.3.734,4.33,1.063,7.6l6.971-2.708c.578,2.5.916,1.882-3.285,4.375-2.446,1.449-3.5,2.744-6.393,2.372-.76-8.9-1.892-10.481,1.644-11.639" transform="translate(517.027 -2218.293)" fill="#ffed59" fill-rule="evenodd"/>
        <path id="Path_66" data-name="Path 66" d="M1204.3,2298.593c2.454,1.72,1.557,4.247,1.634,7.566l3.78-2c4.02-2.236,3.433-.535,3.763-.386-2.266,2.288-4.284,4.747-7.1,6.062-3.82,1.786-2.312.45-3,.132-.569-6.023-1.789-9.529.923-11.373" transform="translate(504.121 -2220.777)" fill="#ffed59" fill-rule="evenodd"/>
        <path id="Path_67" data-name="Path 67" d="M1222.806,2309.574c4.029.779,2.724,3,2.774,7.457l3.749-1.908c3.709-1.99,3.692-.564,3.705-.558-2.873,3.28-5.238,6.672-10.127,7Z" transform="translate(512.593 -2216.171)" fill="#ffed59" fill-rule="evenodd"/>
        <path id="Path_68" data-name="Path 68" d="M1202.751,2286.6c2.429,1.828,1.5,4.177,1.672,7.546l7.549-2.483c-2.092,2.193-4.268,5-7.079,6.283-3.041,1.393-3.031.039-3.036.036-.63-6.084-1.86-9.45.895-11.382" transform="translate(503.459 -2225.808)" fill="#ffed59" fill-rule="evenodd"/>
        <path id="Path_69" data-name="Path 69" d="M1227.555,2279.223c3.175.97,1.728,3.345,2.311,7.524l7.213-2.683c-2.163,2.422-6.051,7.643-9.481,6.829-1.417-2.839-2.017-9.311-.043-11.67" transform="translate(514.056 -2228.903)" fill="#ffed59" fill-rule="evenodd"/>
        <path id="Path_70" data-name="Path 70" d="M1321.543,2360.813c-7.616,2.027-22.749,10.1-26.813,18.618-1.482,3.109,3,4.852,10.658,10.066,5.769,3.929,64.495,44.947,67.7,46.142,7.573-5.574,9.528-21.794,9.705-27.557.918-29.836-28.244-56.05-61.251-47.269m37.054,11.49a42.579,42.579,0,0,0-30.267-6.854c-18.885,2.878-24.275,14.878-28.684,16.557l-1.563-1.565c6.483-13.669,29.452-20.945,46.924-17.105,26.655,5.861,42.455,36.2,31.024,62.477a36.338,36.338,0,0,1-2.111,4.25c-1.567,2.22-.371,1.671-2.707,1.369l5.276-14.989C1380.435,2402.067,1373.413,2382.407,1358.6,2372.3Zm9.072,13.334c9.071,13.642,8.32,35.747.262,43.188l-55.234-37.994c-3.469-2.382-9.817-5.722-9.21-7.691,1.819-5.887,16.529-12.535,21.179-13.784C1337.324,2365.956,1356.3,2368.541,1367.67,2385.636Z" transform="translate(542.649 -2195.396)" fill="#ffed59" fill-rule="evenodd"/>
        <path id="Path_71" data-name="Path 71" d="M1322.185,2383.929c2.748-1.354,2.521-8.784.014-8.787-2.53,0-2.687,7.31-.014,8.787" transform="translate(553.469 -2188.663)" fill="#ffed59" fill-rule="evenodd"/>
        <path id="Path_72" data-name="Path 72" d="M1344.535,2399.62c-1.579-2.325-6.441-4.087-8.9-2.017.853,2.551,1.428,1.9,4.08,2.65,2.706.77,2.815,1.777,4.824-.633" transform="translate(559.927 -2179.625)" fill="#ffed59" fill-rule="evenodd"/>
        <path id="Path_73" data-name="Path 73" d="M1333.783,2390.627c2.595,2.611,4.372.656,9.062-2.4-2.542-1.845-1.722-1.6-4.967-.331-1.841.719-3.249.859-4.1,2.732" transform="translate(559.151 -2183.733)" fill="#ffed59" fill-rule="evenodd"/>
        <path id="Path_74" data-name="Path 74" d="M1315.739,2384.667c1.211-2.845-.333-3.407-4.943-7.64-2.243,2.595,2.142,7.875,4.943,7.64" transform="translate(549.248 -2187.873)" fill="#ffed59" fill-rule="evenodd"/>
        <path id="Path_75" data-name="Path 75" d="M1329.923,2385.728c4.381-1.156,4.094-4.971,4.267-7.9-2.3,1.055-2.171,1.279-3.724,3.58-1.983,2.937-1.942,2.148-.544,4.321" transform="translate(557.111 -2187.537)" fill="#ffed59" fill-rule="evenodd"/>
        <path id="Path_76" data-name="Path 76" d="M1363.859,2276.095a43.479,43.479,0,0,1,6,25.18c-1.217,18.3-13.971,29.618-32.091,31.307q1.148,3.26,2.3,6.516c13.835-7.76,25.167,2.037,24.969,14.587-10.615,5.74-19.45,5.965-25.835-1.392-3.114.434-5.921,3.472-12.749,2.619-2.019-.253-2.769-.446-3.894-1.324,1.481-8.2.88-19.289,13.392-15.322q-.539-2.353-1.076-4.708c-25.884,13.155-56.022-5.555-52.079-40.51,1.838-14.474,11.064-25.533,21.615-29.928,3.906-1.628,6.34-1.549,10.3-2.69,20.885-6.016,37.338-4.488,49.155,15.667m-2.7,75.242c-6.247-18.642-17.148-13.826-19.345-8.03C1337.988,2353.388,1349.475,2359.278,1361.162,2351.337Zm-25.523-9.152c-6.666-6.206-9.566,4.55-10.167,9.312,3.278.126,8.054.928,10.411-1.306S1337.485,2343.906,1335.639,2342.185Zm30.713-48.884c-2.48-19-21.127-38.948-43.9-32.237-2.544.751-4.4,2.076-6.849,2.717-8.239,2.148-10.744.654-19.695,9.4-6.479,6.331-11.277,17.416-9.975,29.827,2.048,19.509,20.738,39,42.847,29.657,2.2-.93,4.683-2.7,6.351-3.177,2.609-.746,5.983-.423,8.77-1.053a31.752,31.752,0,0,0,12.774-6.575C1362.768,2316.689,1367.926,2305.365,1366.351,2293.3Z" transform="translate(537.611 -2238.087)" fill="#ffed59" fill-rule="evenodd"/>
        <path id="Path_77" data-name="Path 77" d="M1306.3,2274.625c-.823,6.6-12.444,3.158-9.921,21.45.287,2.084.5,1.066-.643,3.894-.63-.211-3.154,1.166-3.363-7.421-.231-9.542,7.469-19.122,13.927-17.923" transform="translate(541.777 -2230.875)" fill="#ffed59" fill-rule="evenodd"/>
        <path id="Path_78" data-name="Path 78" d="M765.843,2517.783c-49.259-10.037-33.487-82.257,14.259-72.813,17.682,3.5,33.577,21.13,29.14,43.612-3.577,18.135-21.189,33.728-43.4,29.2m-10.48-7.467c6.161,3.657,21.517,8.335,31.941.857l-5.289-10.066c-2.855-5.234-3.215-7.7-6.426-8.242-2.185,4.665-1.341,2.158-1.607,6.564-.288,4.748.464,4.44-3,5.174-.541-4.51-.395-10.037-1.75-11.958C764.669,2497.288,757.208,2504.226,755.362,2510.316ZM792.3,2494.29c-3.922.924-16.136-11.366-10.265-.619,1.9,3.481,6.966,12.928,9,15.243,7.952-7.768,14.96-12.351,14.963-25.378l-21.609-.183C791.573,2492.859,793.355,2490.451,792.3,2494.29Zm-52.676-10.833c-.072,10.683,6.906,19.869,12.351,23.695,2.781-3.736,11.846-14.414,11.651-18.675l-12.3,2.716c7.18-6.384,8.737-4.991,9.744-7.985Zm30.4,5.346c10.248,4.084,14.784-11.494,5.611-14.912C766.114,2470.341,759.627,2484.657,770.026,2488.8Zm14.229-10.327a4.152,4.152,0,0,0,.745.328q10.6.243,21.189.478a39.08,39.08,0,0,0-12.437-23.534l-12.248,17.744,12.9-2.215c-6.745,6.174-2.659,2.785-7.76,5.543Zm-29.245-24.681c-8.091,2.806-14.465,13.722-15.608,25.578,4.185.075,18.606,1.62,21.764-1.176-7.266-9.549-7.759-5.215-8.3-10.7l12.093,5.6Zm2.9-2.805c1.035,3.677,3.687,7.1,5.6,10.482,3.618,6.4,1.5,4.24,7.274,8.355L772.865,2458l3.631,12.177c3.536-.067,1.559,1.191,7.569-7.75,3.246-4.828,3.516-4.348,6.06-9.387C777.223,2444.257,766.827,2449.075,757.906,2450.989Z" transform="translate(308.257 -2159.725)" fill="#ffed59" fill-rule="evenodd"/>
        <path id="Path_79" data-name="Path 79" d="M727.593,2477.54c3.434-24.406,27.211-46.166,56.635-41.339,24.217,3.97,45.693,26.781,41.027,56.5-3.844,24.49-26.748,45.544-56.053,41.2a49.5,49.5,0,0,1-41.609-56.359m3.79,0c-4.356,27.324,15.4,49.115,37.967,52.575,27.39,4.2,48.8-15.58,52.213-38.287,4.091-27.236-15.5-48.478-38.249-51.97C756.2,2435.694,734.906,2455.445,731.383,2477.54Z" transform="translate(304.618 -2163.331)" fill="#ffed59" fill-rule="evenodd"/>
        <path id="Path_80" data-name="Path 80" d="M99.354,2421.3l-.06,6.149-6.472-1.154-.579,5.42-6.811-1.777-1.986,5.892-6.054-3.764-2.48,5.41-4.971-4.919-4.193,4.484-3.594-5.724-5.82,3.627-1.753-4.835-4.716,1.813-.962-5.144-5.593.866.189-5.258-5.958.528,1.048-5.5-4.879-.44,1.649-6.535-5.907-.681,3.248-7.018-5.843-2.185,4.1-5.156-4.768-3.772,5.238-4.06-4.1-5.444,5.956-2.823-2.9-6.026,6.29-1.611-1.817-6.419,6.709-.014-.8-6.645,6.829,1.146-.106-6.064,7.171,1.884,1.5-6.015,5.9,3.112,2.95-5.362,5.163,4.266,4.425-4.594,3.53,5.218,2.586-2.287,2.967-1.634,1.808,4.542.909,1.475,6.1-2.655.612,6.482,6.524-2.17-.016,7.334,6.3-1.01-1.016,7.225,6.154.608-2.087,6.138,5.929,2.33-3.715,6.122,5.35,2.611-4.388,5.161,4.408,4.426-5.433,3.437,3.772,5.322-6.288,2.343,2.522,6.165-5.966.918.872,6.594ZM63,2427.251l2.748,4.7,4.276-3.334,3.837,3.632,3.651-4.138,4.789,3.01.991-4.853,6.331,1.913.5-3.827,6.376-.349-.116-5.34,5.884-.169-.808-5.806,5.171-.886-1.711-5.343,4.931-2.155-2.745-5.4,4.386-2.775-3.4-4.179,2.8-3.26.422-.48.417-.5-4.555-1.79,3.019-6.043-5.19-1.429,2.04-5.9-5.968-.633,1.371-5.908-5.418.632-.535-6.3-5.966,1.356-.823-5.547-5.43,2.162-2.094-5.04-4.635,3.122L73.7,2351.8l-2.789,4.031-5.042-3.735-2.214,4.8-5.281-2.695-1.5,4.94-6.264-1.605-.065,5.268-6.351-.573.886,5.523-6.315.679,1.64,5.366-5.482,1.682,2.437,4.888-5.188,2.74,3.465,4.174-4.483,3.564,4.183,3.051-3.4,5.184,4.639,2.546-2.679,5.684,5.4,1.358-1.493,5.174,4.32.575-.544,4.843,5.075-.7-.067,5.562,4.359-1.561,1.268,4.859,3.877-1.574,2.6,4.355Z" transform="translate(10.586 -2200.486)" fill="#ffed59" fill-rule="evenodd"/>
        <path id="Path_81" data-name="Path 81" d="M47.416,2401.952c-.582-1.262-2.078-7.27.263-11.691,2.2.7,1.969-2.463,2.139,7.576l7.572-3.015c-.085,3.679-.975,3.013-4.277,4.826-1.914,1.051-3.435,2.629-5.7,2.3" transform="translate(19.066 -2182.321)" fill="#ffed59" fill-rule="evenodd"/>
        <path id="Path_82" data-name="Path 82" d="M57.119,2373.8c2.588,1.441,1.726,4.229,1.72,7.459l5.839-2.752c3.09-.481.24-.185,1.542.249-2.893,3.519-4.822,6.679-10.143,7.059-.3-6.528-1.455-10.344,1.042-12.015" transform="translate(22.901 -2189.227)" fill="#ffed59" fill-rule="evenodd"/>
        <path id="Path_83" data-name="Path 83" d="M72.626,2370.759c1.2,2.1.758,4.58.931,7.607l7.11-2.711.25,1.445c-.051,1.13-6.683,5.424-10.233,5.615-.457-9.66-1.637-11,1.942-11.957" transform="translate(29.018 -2190.502)" fill="#ffed59" fill-rule="evenodd"/>
        <path id="Path_84" data-name="Path 84" d="M53.778,2367.238l5.715-2.706c2.775-.4.368-.127,1.462.288-2.657,3.289-4.535,6.389-10.107,6.985-.484-10.828-1.624-11.316,2.4-12.025Z" transform="translate(20.709 -2195.108)" fill="#ffed59" fill-rule="evenodd"/>
        <path id="Path_85" data-name="Path 85" d="M74.118,2382.7c1.4,2.3.735,4.328,1.063,7.6l6.973-2.708c.578,2.5.916,1.882-3.285,4.375-2.447,1.451-3.5,2.745-6.392,2.374-.761-8.9-1.894-10.483,1.641-11.639" transform="translate(29.669 -2185.491)" fill="#ffed59" fill-rule="evenodd"/>
        <path id="Path_86" data-name="Path 86" d="M42.609,2376.783c2.456,1.721,1.56,4.247,1.635,7.566l3.78-2c4.02-2.237,3.432-.535,3.763-.388-2.267,2.29-4.284,4.747-7.1,6.063-3.82,1.787-2.314.449-3.005.132-.569-6.024-1.789-9.529.923-11.373" transform="translate(16.762 -2187.975)" fill="#ffed59" fill-rule="evenodd"/>
        <path id="Path_87" data-name="Path 87" d="M61.112,2387.763c4.027.779,2.723,3,2.774,7.457l3.75-1.908c3.706-1.99,3.691-.562,3.7-.557-2.873,3.279-5.238,6.67-10.127,7Z" transform="translate(25.235 -2183.368)" fill="#ffed59" fill-rule="evenodd"/>
        <path id="Path_88" data-name="Path 88" d="M41.057,2364.792c2.429,1.829,1.495,4.178,1.672,7.545l7.549-2.483c-2.092,2.195-4.269,5-7.079,6.284-3.041,1.391-3.031.037-3.036.034-.63-6.084-1.861-9.448.894-11.381" transform="translate(16.1 -2193.005)" fill="#ffed59" fill-rule="evenodd"/>
        <path id="Path_89" data-name="Path 89" d="M65.86,2357.413c3.177.968,1.73,3.343,2.312,7.522l7.213-2.681c-2.163,2.422-6.051,7.643-9.481,6.828-1.417-2.839-2.019-9.31-.044-11.668" transform="translate(26.698 -2196.101)" fill="#ffed59" fill-rule="evenodd"/>
        <path id="Path_90" data-name="Path 90" d="M34.38,2337.22c4.557-.465,13.175-4.417,16.129-6.432l18.907-8.953c-1.7-4.695-3.722-8.682-3.2-13.747a20.266,20.266,0,0,1,8.091-14.571c19.667-15.1,45.162,14.306,24.962,31.563-9.668,8.262-19.026,4.781-27.691-1.267l-35.112,16.523c-5.794,1.877-2.884,2.273-7.45,5.555-11.36,8.168-24.593-4.442-26.785-9.305,5.322-5.452,10.506-10.233,14.992-11.654,4.954-1.455,10.742.8,15.375,6.056,1.167-7.221,5.218-31.163,3.022-37.61-1.332-3.908-8.012-6.484-7.184-18.153a20.235,20.235,0,0,1,11.6-16.543c23.807-11.04,41.114,25.266,16.864,36.732a21.962,21.962,0,0,1-8.9,1.817,15.6,15.6,0,0,1-4.588-.677c-.8-.216-1.462-.488-2.31-.706l-2.244-.395c.38,20.2-2.7,25.243-4.483,41.768m-13.9,8.388c3.748.008,10.821-3.864,10.425-9.433-.395-5.552-10.507-15.3-24.854.556C10.354,2340.65,15.457,2345.6,20.478,2345.608Zm14.577-58.659c5.687,8.317,16.376,8.452,22.646,4.185a16.951,16.951,0,0,0,4.648-23.5C49.784,2249.335,21.819,2267.588,35.055,2286.949Zm37.92,32.85c5.834,7.994,16.559,8.21,22.853,3.786a16.921,16.921,0,0,0,4.584-23.125C87.62,2281.756,59.184,2300.9,72.974,2319.8Z" transform="translate(0.533 -2238.387)" fill="#ffed59" fill-rule="evenodd"/>
        <path id="Path_91" data-name="Path 91" d="M42.094,2264.712c-4.869,2.518-2.515-3.495-10.405.058l-3.919,1.381c-1.069-3.641,3.143-5.1,5.858-5.563,2.328-.4,5.423-.071,7.092,1.529,3.591,3.439.825.3,1.374,2.595" transform="translate(11.176 -2236.786)" fill="#ffed59" fill-rule="evenodd"/>
        <path id="Path_92" data-name="Path 92" d="M53.636,2288.246c3.943-5.907,11.359-7.085,15.63-1.126l-7.709-.647c-4.395-.061-2.931,4.979-7.921,1.773" transform="translate(22.099 -2227.238)" fill="#ffed59" fill-rule="evenodd"/>
        <path id="Path_93" data-name="Path 93" d="M22.368,2496.919c.843,7.838,6.52,24.024,14.319,29.337,2.846,1.938,5.252-2.229,11.572-9,4.76-5.1,54.241-56.9,55.911-59.884-4.357-8.333-20.091-12.736-25.759-13.788-29.347-5.451-59.7,19.379-56.043,53.337m17-34.869a42.585,42.585,0,0,0-11.383,28.869c-.03,19.1,11.008,26.258,12,30.871l-1.784,1.307c-12.524-8.49-16.219-32.3-9.763-48.982,9.85-25.45,42.248-36.446,66.472-21.149a35.9,35.9,0,0,1,3.881,2.735c1.955,1.885,1.594.62.94,2.881l-14.011-7.5C72.106,2445,51.607,2448.943,39.364,2462.05Zm14.56-6.939c14.864-6.889,36.6-2.778,42.725,6.317l-45.961,48.806c-2.882,3.063-7.15,8.831-9,7.929-5.54-2.693-9.871-18.245-10.4-23.031C29.853,2482.108,35.3,2463.744,53.924,2455.111Z" transform="translate(8.855 -2160.266)" fill="#ffed59" fill-rule="evenodd"/>
        <path id="Path_94" data-name="Path 94" d="M65.749,2458.753c-2.54,1.2-5.022,5.741-3.35,8.49,2.652-.454,2.091-1.121,3.241-3.628,1.173-2.555,2.185-2.511.109-4.862" transform="translate(25.547 -2153.586)" fill="#ffed59" fill-rule="evenodd"/>
        <path id="Path_95" data-name="Path 95" d="M55.027,2468.128c2.975-2.167,1.314-4.222-.994-9.322-2.21,2.231-1.843,1.459-1.083,4.858.432,1.929.355,3.343,2.077,4.464" transform="translate(21.564 -2153.564)" fill="#ffed59" fill-rule="evenodd"/>
        <path id="Path_96" data-name="Path 96" d="M49.663,2470.147c-.476-4.5-4.29-4.8-7.16-5.418.694,2.431.935,2.339,2.972,4.226,2.6,2.4,1.827,2.246,4.188,1.192" transform="translate(17.428 -2151.079)" fill="#ffed59" fill-rule="evenodd"/>
        <path id="Path_97" data-name="Path 97" d="M121.41,2220.573a23.341,23.341,0,0,1,27.921-2.115,21.4,21.4,0,0,0,4.609-4.512c7.43-9.577,6.767,2.524-1.535,6.17,8.659,10.134,6.753,23.24-2.737,33.968-4.889,5.525,1.688,7.711-2.877,22.288-5.046,16.115-22.925,31.075-45.094,25.682-31.8-7.738-38.642-48.37-14.821-66.415,9.323-7.065,14.62-8.178,28.385-8.3ZM117,2231.206c-14.285-.078-21.621,1.487-30.007,8.941-26.084,23.184-.588,72.537,37.278,56.387,14.422-6.149,22.8-21.455,19.834-37.866-1.36-7.523,1.278-3.082,6.419-11.6,10.272-17.006-4.236-36.072-23.287-25.891C120.922,2224.556,121.2,2226.681,117,2231.206Z" transform="translate(30.072 -2257.803)" fill="#ffed59" fill-rule="evenodd"/>
        <path id="Path_98" data-name="Path 98" d="M92.646,2261.175c3.784-.429,7.21,4.557,15.7,2.707,2.508-.547,8.841-4.321,12.96-6.257-.717,5.98-12.326,12.856-23.167,9.295-1.553-.508-4.873-1.945-5.5-3.273l-.149-1.809a2.7,2.7,0,0,1,.149-.663" transform="translate(38.402 -2237.964)" fill="#ffed59" fill-rule="evenodd"/>
      </g>
    </g>
    <rect id="Rectangle_173" data-name="Rectangle 173" width="1916.356" height="379.2" transform="translate(-2351.178 2628.841)" fill="#fffac4"/>
  </g>
</svg>
