<svg xmlns="http://www.w3.org/2000/svg" width="38.62" height="38.618" viewBox="0 0 38.62 38.618">
  <path id="Path_1002" data-name="Path 1002" d="M1036.875,2625.807h33.569a2.532,2.532,0,0,1,2.525,2.525V2661.9a2.532,2.532,0,0,1-2.525,2.524h-9.408V2649.3h6.017v-5.631h-6.017v-2.593c0-2.923,3.329-4.41,6.222-3.705l-.045-5.7c-5.628-.754-12.682.737-12.682,9.949v2.044h-3.976v5.631h3.976v15.125h-17.655a2.532,2.532,0,0,1-2.525-2.524v-33.569a2.532,2.532,0,0,1,2.525-2.525" transform="translate(-1034.35 -2625.807)" fill-rule="evenodd"/>
</svg>
