<svg xmlns="http://www.w3.org/2000/svg" width="1916.356" height="416.669" viewBox="0 0 1916.356 416.669">
  <g id="Group_174" data-name="Group 174" transform="translate(2238.178 -3687.694)">
    <rect id="Rectangle_175" data-name="Rectangle 175" width="1916.356" height="416.669" transform="translate(-2238.178 3687.694)" fill="#dbedc7"/>
    <g id="Group_173" data-name="Group 173" transform="translate(-2240)">
      <path id="Path_621" data-name="Path 621" d="M613.06,2783.9c-49.259,10.038-33.487,82.257,14.259,72.814,17.682-3.5,33.577-21.129,29.14-43.613-3.579-18.134-21.191-33.728-43.4-29.2m-10.48,7.468c9.532-3.037,21.516-8.337,31.941-.857l-5.291,10.064c-2.855,5.235-3.214,7.7-6.425,8.243-2.185-4.666-1.341-2.159-1.608-6.565-.288-4.747.466-4.442-3-5.174-.544,4.51-.4,10.039-1.753,11.958C611.886,2804.392,604.423,2797.452,602.58,2791.365Zm36.935,16.023c-3.921-.921-16.136,11.368-10.265.62,1.9-3.48,6.966-12.927,9-15.243,7.951,7.769,14.96,12.353,14.963,25.38l-21.609.183C638.789,2808.822,640.572,2811.228,639.514,2807.388Zm-52.676,10.835c-.072-10.683,6.907-19.869,12.351-23.695,2.781,3.736,11.847,14.414,11.651,18.677l-12.3-2.717c7.181,6.385,8.739,4.993,9.745,7.985Zm30.4-5.345c10.249-4.085,14.784,11.493,5.611,14.912C613.33,2831.338,606.844,2817.024,617.242,2812.879Zm14.229,10.326a4.039,4.039,0,0,1,.747-.328l21.189-.479a45.007,45.007,0,0,1-12.436,23.535l-12.248-17.743,12.9,2.213c-6.745-6.174-2.657-2.787-7.76-5.543Zm-29.244,24.681c-8.091-2.805-14.466-13.721-15.608-25.579,4.183-.074,18.606-1.619,21.764,1.176-7.267,9.551-7.759,5.215-8.3,10.7l12.093-5.6Zm2.9,2.807c1.033-3.677,3.685-7.1,5.6-10.483,3.618-6.4,1.5-4.24,7.274-8.354l2.085,11.82,3.633-12.176c3.536.066,1.559-1.19,7.569,7.75,3.246,4.828,3.516,4.349,6.059,9.387C624.439,2857.424,614.042,2852.605,605.123,2850.692Z" transform="translate(245.983 1166.16)" fill="#fcfcfc" fill-rule="evenodd"/>
      <path id="Path_622" data-name="Path 622" d="M574.81,2831.378c3.434,24.406,27.211,46.166,56.635,41.339,24.216-3.971,45.693-26.779,41.027-56.5-3.845-24.49-26.75-45.544-56.054-41.2a49.5,49.5,0,0,0-41.608,56.359m3.79,0c-4.357-27.323,15.4-49.116,37.967-52.575,27.39-4.2,48.8,15.58,52.213,38.287,4.09,27.238-15.5,48.478-38.249,51.97C603.421,2873.224,582.123,2853.475,578.6,2831.378Z" transform="translate(242.344 1162.527)" fill="#fcfcfc" fill-rule="evenodd"/>
      <path id="Path_623" data-name="Path 623" d="M408.162,2788.324l-.061-6.151-6.472,1.154-.579-5.419-6.811,1.777-1.986-5.893-6.054,3.765-2.48-5.41-4.971,4.917-4.193-4.481-3.593,5.72-5.821-3.627-1.753,4.836-4.716-1.812-.962,5.144-5.593-.867.19,5.258-5.959-.526,1.049,5.5-4.88.44,1.651,6.535-5.907.68,3.248,7.02-5.844,2.183,4.105,5.157-4.77,3.77,5.238,4.06-4.1,5.444,5.956,2.826-2.9,6.026,6.29,1.608-1.817,6.42,6.709.016-.8,6.642,6.829-1.143-.106,6.061,7.171-1.884,1.5,6.015,5.9-3.111,2.95,5.361,5.163-4.264,4.426,4.593,3.53-5.218,2.585,2.287,2.967,1.634,1.808-4.542.909-1.476,6.1,2.656.613-6.483,6.523,2.172-.016-7.336,6.3,1.012-1.016-7.227,6.154-.6-2.087-6.138,5.929-2.331L420,2824.942l5.35-2.609-4.386-5.161,4.406-4.425-5.431-3.438,3.77-5.322-6.288-2.342,2.524-6.164-5.968-.92.872-6.594Zm-36.355-5.955,2.748-4.7,4.276,3.335,3.837-3.634,3.651,4.138,4.789-3.007.991,4.853,6.331-1.917.505,3.829,6.377.349-.116,5.34,5.884.169-.809,5.806,5.171.886-1.709,5.343,4.93,2.154-2.745,5.4,4.388,2.775-3.405,4.18,2.8,3.261.423.48.416.5-4.554,1.793,3.019,6.042-5.191,1.428,2.04,5.906-5.968.635,1.373,5.906-5.42-.633-.534,6.3-5.966-1.357-.825,5.549-5.43-2.162-2.094,5.039-4.633-3.121-3.848,4.592-2.789-4.033-5.044,3.738-2.214-4.8-5.281,2.694-1.5-4.941-6.263,1.607-.067-5.267-6.349.572.886-5.525-6.317-.677,1.64-5.366-5.482-1.684,2.437-4.885-5.188-2.741,3.465-4.173-4.481-3.564,4.183-3.051-3.4-5.186,4.64-2.545-2.68-5.684,5.4-1.359-1.492-5.173,4.32-.576-.545-4.844,5.075.7-.065-5.563,4.358,1.562,1.268-4.859,3.877,1.576,2.6-4.356Z" transform="translate(141.96 1161.562)" fill="#fcfcfc" fill-rule="evenodd"/>
      <path id="Path_624" data-name="Path 624" d="M356.223,2784.388c-.582,1.259-2.078,7.268.263,11.69,2.2-.694,1.97,2.463,2.141-7.576l7.57,3.015c-.084-3.68-.975-3.014-4.277-4.825-1.914-1.052-3.434-2.63-5.7-2.3" transform="translate(150.44 1166.679)" fill="#fcfcfc" fill-rule="evenodd"/>
      <path id="Path_625" data-name="Path 625" d="M365.926,2812.624c2.589-1.442,1.728-4.229,1.722-7.461l5.839,2.754c3.09.481.24.184,1.54-.249-2.892-3.52-4.821-6.677-10.141-7.059-.3,6.529-1.455,10.343,1.04,12.015" transform="translate(154.276 1173.502)" fill="#fcfcfc" fill-rule="evenodd"/>
      <path id="Path_626" data-name="Path 626" d="M381.435,2815.646c1.194-2.1.757-4.579.931-7.607l7.109,2.713.251-1.448c-.052-1.128-6.683-5.424-10.233-5.615-.458,9.662-1.637,11,1.942,11.957" transform="translate(160.392 1174.795)" fill="#fcfcfc" fill-rule="evenodd"/>
      <path id="Path_627" data-name="Path 627" d="M362.585,2819.187l5.715,2.707c2.775.4.369.127,1.464-.29-2.659-3.289-4.537-6.388-10.107-6.986-.484,10.829-1.625,11.317,2.395,12.024Z" transform="translate(152.083 1179.38)" fill="#fcfcfc" fill-rule="evenodd"/>
      <path id="Path_628" data-name="Path 628" d="M382.926,2803.627c1.4-2.3.735-4.33,1.063-7.6l6.971,2.708c.579-2.5.916-1.882-3.285-4.374-2.446-1.449-3.5-2.744-6.392-2.373-.759,8.9-1.894,10.483,1.642,11.64" transform="translate(161.044 1169.858)" fill="#fcfcfc" fill-rule="evenodd"/>
      <path id="Path_629" data-name="Path 629" d="M351.417,2809.678c2.454-1.718,1.559-4.246,1.634-7.564l3.78,2c4.021,2.235,3.432.536,3.763.387-2.266-2.29-4.284-4.747-7.1-6.062-3.82-1.787-2.312-.45-3-.132-.569,6.023-1.789,9.529.923,11.371" transform="translate(148.136 1172.21)" fill="#fcfcfc" fill-rule="evenodd"/>
      <path id="Path_630" data-name="Path 630" d="M369.919,2798.65c4.029-.777,2.723-3,2.774-7.455l3.75,1.908c3.708,1.99,3.691.561,3.7.557-2.872-3.281-5.237-6.67-10.127-7Z" transform="translate(156.609 1167.651)" fill="#fcfcfc" fill-rule="evenodd"/>
      <path id="Path_631" data-name="Path 631" d="M349.865,2821.618c2.427-1.829,1.495-4.178,1.671-7.546l7.549,2.482c-2.092-2.194-4.268-5-7.079-6.283-3.039-1.391-3.031-.038-3.035-.035-.632,6.084-1.861,9.448.894,11.382" transform="translate(147.475 1177.292)" fill="#fcfcfc" fill-rule="evenodd"/>
      <path id="Path_632" data-name="Path 632" d="M374.668,2828.933c3.175-.97,1.729-3.344,2.311-7.523l7.213,2.682c-2.162-2.422-6.051-7.641-9.481-6.828-1.417,2.838-2.017,9.309-.043,11.67" transform="translate(158.072 1180.453)" fill="#fcfcfc" fill-rule="evenodd"/>
      <path id="Path_633" data-name="Path 633" d="M293.7,2793.545c-7.465-6.318-2.319-13.67,4.889-17.545,3.1-1.667,2.92-1.072,4.822,2.039,3.438,5.617,5.146,10.554.2,14.884l4.169,9.75-9.445,1.9c-3.779-.057-3.942-5.408-5.98-6.713.187,5.579-.054,2.058,1.048,6.4,5.743,22.619-14.854,45.6-38.908,40.9-11.68-2.282-14.322-7.577-19.463-10.883l-8.788,5.485a6.818,6.818,0,0,1-1.828.677l-1.51-6.689c-3.542,2.455-3.811,3.888-7.549.345l1.177-4.954,3.8-.688-5.7-4.385,13.064-5.512c-1.919-17.747,5.086-30.75,22.082-38.442,7.973-2.7,17.524-1.927,22.6.243,8.361,3.576,11.159,6.624,17.951,15.315Zm6.545-14.833c-17.359,11.231,2.139,17.89,3.364,8.867C304,2784.732,301.7,2781.382,300.246,2778.712Zm4.26,22.137c-1.3-2.958-4.73-9.437-7.592-3.76C294.2,2802.478,301.541,2801.749,304.506,2800.85Zm-62.371-13.283c-12.6,9.805-17.081,28.682-5.471,43.523a30.853,30.853,0,0,0,43.3,4.645c11.707-9.406,16.066-28.424,4.65-42.75C275.163,2781.127,256.268,2776.572,242.135,2787.567Zm-19.419,42.995,3.878,1.407-.311,4.1,6.8-4.125-4.9-10.376-7.455,3,3.54,2.863Z" transform="translate(91.467 1162.797)" fill="#fcfcfc" fill-rule="evenodd"/>
      <path id="Path_634" data-name="Path 634" d="M250.062,2823.624c1.557-3.354,3.124-1.416,8.079-4.359a18.666,18.666,0,0,0,8.774-12.956c.769-4.033-1.627-4.578,1.955-7.494a23.617,23.617,0,0,1-1.946,16.125c-.882,2.473-11.813,12.475-16.861,8.685" transform="translate(106.326 1172.75)" fill="#fcfcfc" fill-rule="evenodd"/>
      <path id="Path_635" data-name="Path 635" d="M58.429,2839.352c1.645,1.05,6.713,8.139,8.939,10.157a50.546,50.546,0,0,0,12.161,8.732,51.412,51.412,0,0,0,69.423-23.768c2.808-5.84,2.9-10.4,4.761-15.3.765-23.742-5.059-33.36-17.18-45.2-10.337-10.094-28.369-15.9-46.724-11.325-16.5,4.116-26.847,14.514-33.39,27.465-9.739,19.283-4.311,32.446,2.01,49.236m36.585-73.841c28.258-4.771,50.492,15.552,54.525,38.895,4.895,28.328-15.666,51.153-39.37,54.96-28.1,4.511-50.393-15.81-54.395-39.05C50.839,2791.655,71.267,2769.522,95.014,2765.511Z" transform="translate(22.856 1156.913)" fill="#fcfcfc" fill-rule="evenodd"/>
      <path id="Path_636" data-name="Path 636" d="M91.259,2770.882c-18.934,3.771-35.062,22.3-30.24,45.625,3.8,18.39,22.279,34.547,45.341,29.977,49.895-9.891,35.116-85.6-15.1-75.6m-27.033,42.029a34.894,34.894,0,1,1,69.314-8.1C138.193,2850.881,69.519,2857.489,64.226,2812.912Z" transform="translate(26.657 1160.65)" fill="#fcfcfc" fill-rule="evenodd"/>
      <path id="Path_637" data-name="Path 637" d="M79.262,2805.332l1.892,2.754,9.624,4.885.088,9.359c3.759-1.259,3.288-1.259,1.623-9.636l8.794-6.031,9.054,4.145c-.427-2.965-.579-3.163-3.237-4.382l-4.765-1.3c1.356-4.433.749-5.839-.437-10.155-6.866-10.752-25.117-8.469-22.636,10.365m8.934-12.463c10.8-3.605,15.977,13.026,4.95,16.064C82.659,2811.821,78.275,2796.18,88.2,2792.868Z" transform="translate(34.575 1168.44)" fill="#fcfcfc" fill-rule="evenodd"/>
      <path id="Path_638" data-name="Path 638" d="M68.206,2811.04c6.429,1.279,10.154-9.688,1.427-4.288-5.525,3.418-1.441,4.264-1.427,4.288" transform="translate(29.419 1175.448)" fill="#fcfcfc" fill-rule="evenodd"/>
      <path id="Path_639" data-name="Path 639" d="M79.667,2821.967c2.958-.446,3.069-.806,4.217-3.955,1.137-3.12,1.209-3.266-1.986-4.254-1.769,2.272-3.965,5.232-2.231,8.209" transform="translate(34.577 1179.019)" fill="#fcfcfc" fill-rule="evenodd"/>
      <path id="Path_640" data-name="Path 640" d="M82.971,2782.628c.846-2.561-2.439-9.261-4.98-6.794-1.9,1.844,2.1,6.7,2.714,7,3.208,1.56,2.058-.118,2.266-.2" transform="translate(33.925 1162.884)" fill="#fcfcfc" fill-rule="evenodd"/>
      <path id="Path_641" data-name="Path 641" d="M95.14,2794.721l3.2.115c3.726-3.154,4.122-.609,4.453-5.627-3.208-.42-4.6.863-7.567,2.94Z" transform="translate(41.333 1168.686)" fill="#fcfcfc" fill-rule="evenodd"/>
      <path id="Path_642" data-name="Path 642" d="M104.733,2801.664c4.841.867,4.656.436,8.839-1.364-1.146-2.193-.169-2.7-5-2.307-4.087.332-3.3.509-3.837,3.671" transform="translate(45.357 1172.354)" fill="#fcfcfc" fill-rule="evenodd"/>
      <path id="Path_643" data-name="Path 643" d="M89.814,2814.447c-3.211.619-3.208.579-2.767,5.273.356,3.784.485,3.482,3,3.078,1.18-3.266,1.356-5.367-.237-8.351" transform="translate(37.851 1179.308)" fill="#fcfcfc" fill-rule="evenodd"/>
      <path id="Path_644" data-name="Path 644" d="M100.373,2786.444c1.77-.353,1.571-.38,3.16-3.1,2.67-4.567-.251-7.161-3.584-1.678-2.389,3.935-1.975,2.917.424,4.774" transform="translate(42.681 1164.259)" fill="#fcfcfc" fill-rule="evenodd"/>
      <path id="Path_645" data-name="Path 645" d="M72.116,2816.82c.035.023.427,4.019,4.274-1.32,1.827-2.538,1.319-2.49.552-5.14-2.981-.73-5.207,4.282-4.826,6.46" transform="translate(31.656 1177.563)" fill="#fcfcfc" fill-rule="evenodd"/>
      <path id="Path_646" data-name="Path 646" d="M72.655,2779.1c-1.483,1.829-1.845,1.415-.395,3.917.759,1.31,2.253,4.007,3.965,3.841,4.014-.389-.314-6.506-3.57-7.759" transform="translate(31.348 1164.478)" fill="#fcfcfc" fill-rule="evenodd"/>
      <path id="Path_647" data-name="Path 647" d="M92.035,2782.606c3.733-.048,2.376.822,4.125-2.33,1.438-2.592,1.039-2.872.71-5.151-3.393-.833-4.91,3.414-4.835,7.481" transform="translate(40.029 1162.767)" fill="#fcfcfc" fill-rule="evenodd"/>
      <path id="Path_648" data-name="Path 648" d="M64.141,2802.307c3.868.989,4.674,1.147,8.2-.585.369-2.538-.647-2.7-3.919-2.717s-4.4.081-4.277,3.3" transform="translate(28.324 1172.829)" fill="#fcfcfc" fill-rule="evenodd"/>
      <path id="Path_649" data-name="Path 649" d="M64.035,2795.934c1.678,1.221.406,1.116,3.5,1.288,4.158.231,7.816-3.25,1.851-3.908-3.677-.4-5.387-.436-5.349,2.62" transform="translate(28.284 1170.361)" fill="#fcfcfc" fill-rule="evenodd"/>
      <path id="Path_650" data-name="Path 650" d="M103.007,2804.869c.294,3.214-.169,2.294,2.748,3.624,2.027.927,2.443,1.224,4.958.567-.033-3.689-4.717-5.854-7.707-4.191" transform="translate(44.633 1175.051)" fill="#fcfcfc" fill-rule="evenodd"/>
      <path id="Path_651" data-name="Path 651" d="M104.775,2795.389c3.926,2.5,4.6,1.358,8.521-.908-1.871-2.775-8.015-3.458-8.521.908" transform="translate(45.375 1169.998)" fill="#fcfcfc" fill-rule="evenodd"/>
      <path id="Path_652" data-name="Path 652" d="M87.817,2782.329c.761-1.069.7-.176,1.066-1.987.6-2.957-.241-3.427-1.975-6.526-2.183,1.6-1.984.878-1.818,4.81.183,4.351.39,3.175,2.727,3.7" transform="translate(37.077 1162.262)" fill="#fcfcfc" fill-rule="evenodd"/>
      <path id="Path_653" data-name="Path 653" d="M81.26,2804.269l.345-2.643-2.725.081c-3.326,1.148-5.1,1.051-4.32,4.724,3.038.623,3.8-.465,6.7-2.162" transform="translate(32.623 1173.929)" fill="#fcfcfc" fill-rule="evenodd"/>
      <path id="Path_654" data-name="Path 654" d="M87.727,2790.86c3.8-3,1.57-5.222-.909-8.63-2.026,2.841-2.558,6.322.909,8.63" transform="translate(37.167 1165.792)" fill="#fcfcfc" fill-rule="evenodd"/>
      <path id="Path_655" data-name="Path 655" d="M81.216,2794.891c.192-.8,1.648,1.466.158-2.025-1.056-2.476-3.635-2.111-7.464-2.548.22,3.74,4.87,4.913,7.306,4.574" transform="translate(32.427 1169.184)" fill="#fcfcfc" fill-rule="evenodd"/>
      <path id="Path_656" data-name="Path 656" d="M94.671,2818.944c1.516,2.464.731,2.259,4.442,2.164l-4.518-7.606c-.145.145-3.6-.531.077,5.442" transform="translate(40.428 1178.911)" fill="#fcfcfc" fill-rule="evenodd"/>
      <path id="Path_657" data-name="Path 657" d="M105.058,2816.934l-4.741-7.467c-1.9,2.472-1.022,4.423,1.647,6.7,1.706,1.458-1.045,1.216,3.095.765" transform="translate(43.078 1177.219)" fill="#fcfcfc" fill-rule="evenodd"/>
      <path id="Path_658" data-name="Path 658" d="M102.489,2790.278l7.125-4.4c-1.745-1.188,1.958-.924-1.806-.828a4.578,4.578,0,0,0-2.511.9c-2.67,1.428-2.907,1.379-2.808,4.33" transform="translate(44.409 1166.935)" fill="#fcfcfc" fill-rule="evenodd"/>
      <path id="Path_659" data-name="Path 659" d="M74.093,2790.877l-7.522-4.675c.221,5.14,5.214,5.653,7.522,4.675" transform="translate(29.348 1167.459)" fill="#fcfcfc" fill-rule="evenodd"/>
      <path id="Path_660" data-name="Path 660" d="M77.549,2802.234l2.725-.082-.345,2.644,1.848-1.672-1.893-2.755Z" transform="translate(33.953 1173.402)" fill="#fcfcfc" fill-rule="evenodd"/>
      <path id="Path_661" data-name="Path 661" d="M683.671,2817.272a19.773,19.773,0,0,1,23.656-1.792,18.153,18.153,0,0,0,3.9-3.823c6.3-8.114,5.733,2.138-1.3,5.227,7.338,8.585,5.722,19.69-2.318,28.778-4.142,4.682,1.429,6.533-2.439,18.882-4.274,13.653-19.423,26.328-38.2,21.759-26.945-6.556-32.739-40.98-12.557-56.269,7.9-5.984,12.387-6.928,24.05-7.032Zm-3.733,9.007c-12.1-.066-18.319,1.262-25.424,7.576-22.1,19.642-.5,61.456,31.583,47.772,12.218-5.209,19.317-18.177,16.8-32.081-1.153-6.374,1.082-2.611,5.438-9.825,8.7-14.408-3.589-30.561-19.73-21.934C683.258,2820.646,683.492,2822.446,679.938,2826.279Z" transform="translate(270.902 1176.854)" fill="#fcfcfc" fill-rule="evenodd"/>
      <path id="Path_662" data-name="Path 662" d="M659.3,2851.671c3.205-.364,6.108,3.861,13.305,2.294,2.125-.463,7.489-3.661,10.98-5.3-.608,5.068-10.442,10.892-19.628,7.875-1.314-.432-4.128-1.648-4.657-2.774l-.126-1.532a2.291,2.291,0,0,1,.126-.562" transform="translate(277.959 1193.662)" fill="#fcfcfc" fill-rule="evenodd"/>
      <path id="Path_663" data-name="Path 663" d="M340.941,2856.78c1.772-5.471,1.258-15.578-3.9-15.945-3.472-.249-5.417,5.546-10.551,9.722-5.856,4.762-17.352,6.915-24.8,4.12-9.011-3.38-4.447-.444-6.463-.775l-8.642-26.825c-6.023,1.285-6.382.811-7.626,4.71-1.028,3.221-1.753,7.17-2.585,10.781-1.72,7.468-5.159,13.586-2.865,21.881,9.333,33.729,60.5,35.869,81.557,5.116,5.547-8.1,5.026-8.787.64-17.814Zm-43.278-.3c26.459,9.63,35.159-10.347,39.84-12.4l-.829,14.4c-.456,1.053-15.178,7.5-28.293,3.549C302.5,2860.261,301.529,2858.8,297.662,2856.475ZM284.8,2830.424c3.449,4.747.992,16.8,5.609,23.014,9.674,13.021,26.576,15.765,42.363,10.066l21.421-8.44c2.62,9.569,2.366,7.467-3.591,15.195-18.589,24.113-62.36,25.117-73.411-4.359-2.92-7.789-.44-12.277,1.272-19.085C280.719,2837.811,280.283,2832.034,284.8,2830.424Z" transform="translate(115.839 1184.606)" fill="#fcfcfc" fill-rule="evenodd"/>
      <path id="Path_664" data-name="Path 664" d="M284.744,2861.35c-2.122,5.552,17.568,11.065,28.189,10.316,14.726-1.042,16.424-5.217,24.71-13.963-2.4-.11-2.6,1.468-4.76,3.186-11.642,9.258-29.5,10.195-42.127,3.123-2.683-1.5-3.448-3.151-6.012-2.662" transform="translate(120.81 1197.453)" fill="#fcfcfc" fill-rule="evenodd"/>
      <path id="Path_665" data-name="Path 665" d="M285.931,2862.251c-.307-3.239-1.417-2.336-3.068-4.811-2.439-3.658-.136-4.314-4.388-4.775-.091,5.029,3.259,11.068,7.455,9.586" transform="translate(118.246 1195.341)" fill="#fcfcfc" fill-rule="evenodd"/>
      <path id="Path_666" data-name="Path 666" d="M409.406,2885.814c-7.617-2.027-22.749-10.1-26.813-18.619-1.483-3.108,3-4.852,10.659-10.066,5.768-3.929,64.492-44.945,67.7-46.14,7.573,5.573,9.528,21.793,9.705,27.558.918,29.834-28.243,56.048-61.25,47.267m37.052-11.488a42.591,42.591,0,0,1-30.266,6.855c-18.887-2.88-24.277-14.878-28.684-16.559l-1.564,1.566c6.484,13.668,29.454,20.945,46.925,17.105,26.654-5.86,42.454-36.205,31.022-62.476a35.713,35.713,0,0,0-2.111-4.25c-1.567-2.221-.369-1.67-2.706-1.369l5.275,14.988C468.3,2844.56,461.274,2864.221,446.458,2874.326Zm9.074-13.335c9.071-13.642,8.318-35.747.261-43.187L400.559,2855.8c-3.466,2.382-9.817,5.722-9.208,7.693,1.817,5.885,16.529,12.533,21.179,13.782C425.187,2880.671,444.163,2878.088,455.532,2860.991Z" transform="translate(161.808 1177.858)" fill="#fcfcfc" fill-rule="evenodd"/>
      <path id="Path_667" data-name="Path 667" d="M410.047,2842.675c2.748,1.353,2.521,8.783.013,8.787-2.53,0-2.687-7.312-.013-8.787" transform="translate(172.628 1191.15)" fill="#fcfcfc" fill-rule="evenodd"/>
      <path id="Path_668" data-name="Path 668" d="M432.4,2825.7c-1.579,2.327-6.44,4.088-8.9,2.017.853-2.551,1.427-1.9,4.08-2.65,2.7-.77,2.815-1.777,4.824.633" transform="translate(179.085 1183.394)" fill="#fcfcfc" fill-rule="evenodd"/>
      <path id="Path_669" data-name="Path 669" d="M421.645,2834.843c2.595-2.61,4.372-.656,9.061,2.4-2.541,1.846-1.72,1.6-4.966.332-1.841-.721-3.249-.86-4.1-2.732" transform="translate(178.31 1187.353)" fill="#fcfcfc" fill-rule="evenodd"/>
      <path id="Path_670" data-name="Path 670" d="M403.6,2841.6c1.209,2.845-.332,3.407-4.943,7.64-2.243-2.593,2.142-7.874,4.943-7.64" transform="translate(168.407 1190.695)" fill="#fcfcfc" fill-rule="evenodd"/>
      <path id="Path_671" data-name="Path 671" d="M417.786,2840.613c4.379,1.157,4.092,4.971,4.266,7.9-2.3-1.055-2.169-1.279-3.722-3.58-1.983-2.937-1.943-2.146-.544-4.321" transform="translate(176.269 1190.285)" fill="#fcfcfc" fill-rule="evenodd"/>
      <path id="Path_672" data-name="Path 672" d="M541.725,2853.082a43.479,43.479,0,0,0,6-25.179c-1.216-18.3-13.971-29.618-32.09-31.308q1.148-3.258,2.3-6.516c13.835,7.76,25.164-2.036,24.969-14.585-10.617-5.741-19.452-5.965-25.837,1.391-3.114-.433-5.921-3.474-12.749-2.619-2.02.253-2.769.446-3.894,1.324,1.482,8.2.882,19.288,13.392,15.321q-.539,2.355-1.076,4.71c-25.884-13.156-56.022,5.554-52.08,40.51,1.84,14.474,11.062,25.533,21.617,29.928,3.905,1.628,6.34,1.549,10.3,2.69,20.884,6.016,37.335,4.489,49.154-15.667m-2.7-75.242c-6.247,18.643-17.146,13.826-19.347,8.03C515.855,2775.791,527.341,2769.9,539.028,2777.84Zm-25.522,9.15c-6.667,6.208-9.568-4.55-10.167-9.31,3.276-.127,8.053-.929,10.411,1.306S515.351,2785.271,513.506,2786.99Zm30.711,48.885c-2.48,19-21.125,38.948-43.9,32.237-2.542-.751-4.395-2.075-6.849-2.715-8.239-2.149-10.744-.656-19.694-9.4-6.479-6.331-11.275-17.417-9.974-29.828,2.045-19.507,20.736-39,42.845-29.657,2.2.93,4.682,2.7,6.352,3.178,2.609.744,5.983.421,8.768,1.052a31.707,31.707,0,0,1,12.774,6.577C540.635,2812.488,545.793,2823.811,544.218,2835.876Z" transform="translate(194.528 1161.193)" fill="#fcfcfc" fill-rule="evenodd"/>
      <path id="Path_673" data-name="Path 673" d="M484.168,2832.348c-.822-6.6-12.444-3.158-9.921-21.449.288-2.085.5-1.066-.642-3.9-.632.212-3.156-1.165-3.364,7.421-.231,9.544,7.47,19.124,13.927,17.923" transform="translate(198.695 1176.185)" fill="#fcfcfc" fill-rule="evenodd"/>
      <path id="Path_674" data-name="Path 674" d="M151.177,2786.331c2.129,1.744,4.748,5.847,6.4,8.786a14.021,14.021,0,0,0-6.558,8.964c-1.307,6.132,1.209,9.484.735,14.212.718.938.206-.111,1.178,1.955.04.083.754,2.058.759,2.077,4.276,14.075,1.2,23.443,2.578,34.885,4.246,35.24,55.845,46.442,74.781,16.753,13.994-21.94,5.593-49.688-12.289-59.552-10.056-5.544-19.819-6.9-29.266-13.414-18.061-12.455-13.368-12.7-29.611-8.448-3.78-6.81-5.031-11.576-9.279-10.82Zm14.448,8.343c7.081-2.433,10.742,1.374,15.417,4.8C205.578,2817.47,211.959,2812,222.99,2822c6.986,6.33,12.465,18.966,10.886,32.895-5.024,44.322-62.7,39-72.445,8.7-3.821-11.887-.087-26.223-3.574-40.015C154.256,2809.344,151.265,2799.608,165.625,2794.674Z" transform="translate(64.601 1165.549)" fill="#fcfcfc" fill-rule="evenodd"/>
      <path id="Path_675" data-name="Path 675" d="M169.072,2838.822c2.745,25.841,45.1,22.474,40.74-6.337-3.8-25.094-43.721-21.709-40.74,6.337m16.753-18.989c20.389-5.773,29.554,26.671,8.162,32.382C173.419,2857.708,162.282,2826.5,185.825,2819.833Z" transform="translate(72.283 1179.774)" fill="#fcfcfc" fill-rule="evenodd"/>
      <path id="Path_676" data-name="Path 676" d="M179.145,2840.3c1.211-7.454-5.261.88,1.262-16.538-9.214-.5-7.387,13.854-4.391,16.205,3.567,2.8,2.643.47,3.129.332" transform="translate(74.241 1183.212)" fill="#fcfcfc" fill-rule="evenodd"/>
      <path id="Path_677" data-name="Path 677" d="M565.2,2824.662c3.146,3.329,7.093,11.948,8.016,15.4l8.476,19.127c-4.355,2.443-8.49,4.145-11.4,8.321a20.259,20.259,0,0,0-3.383,16.319c5.037,24.281,43.545,18.652,39.514-7.607-1.929-12.571-11.289-16.045-21.8-17.121l-15.806-35.441c-3.164-5.2-.7-3.6-2.016-9.07-3.271-13.6-21.527-12.695-26.363-10.442.471,7.607,1.275,14.611,3.746,18.617,2.8,4.335,8.658,6.408,15.6,5.45-3.833,6.232-16.4,27.012-22.269,30.462-3.559,2.091-10.3-.32-17.293,9.058a20.234,20.234,0,0,0-2.013,20.108c10.823,23.906,47.636,7.708,36.754-16.812a21.971,21.971,0,0,0-5.552-7.186,15.565,15.565,0,0,0-3.918-2.481c-.748-.361-1.425-.585-2.21-.974l-1.956-1.167c13.478-15.054,14.438-20.881,23.876-34.564m-5.055-15.431c2.843,2.442,5.675,9.992,1.737,13.954-3.925,3.947-17.948,4.729-18.461-16.651C549.242,2806.377,556.34,2805.962,560.148,2809.231Zm-27.259,53.949c9.738-2.588,17.923,4.29,19.885,11.616a16.948,16.948,0,0,1-11.822,20.831C519.486,2901.287,510.224,2869.2,532.889,2863.18Zm50.172-.122c9.637-2.247,17.9,4.592,19.78,12.053a16.922,16.922,0,0,1-11.627,20.509C569.313,2901.434,560.273,2868.371,583.061,2863.058Z" transform="translate(218.073 1174.435)" fill="#fcfcfc" fill-rule="evenodd"/>
      <path id="Path_678" data-name="Path 678" d="M531.371,2867.576c-2.044-5.086-4.186,1-7.843-6.838l-2.067-3.607c-3.187,2.061-.951,5.918.8,8.04,1.506,1.82,4.061,3.6,6.369,3.474,4.967-.261.825.307,2.735-1.069" transform="translate(219.51 1197.215)" fill="#fcfcfc" fill-rule="evenodd"/>
      <path id="Path_679" data-name="Path 679" d="M555.2,2857.17c-.869,7.048,3.98,12.783,11.1,11.06l-6.261-4.544c-3.37-2.822,1.031-5.687-4.843-6.516" transform="translate(234.296 1197.231)" fill="#fcfcfc" fill-rule="evenodd"/>
      <path id="Path_680" data-name="Path 680" d="M6.612,2836.8c.843-7.837,6.521-24.023,14.32-29.336,2.846-1.939,5.251,2.227,11.571,9,4.761,5.1,54.243,56.9,55.911,59.883-4.355,8.334-20.089,12.736-25.757,13.789-29.347,5.451-59.7-19.379-56.044-53.338m17,34.871a42.587,42.587,0,0,1-11.385-28.87c-.028-19.1,11.01-26.259,12-30.871l-1.786-1.307c-12.523,8.491-16.218,32.3-9.762,48.981,9.85,25.452,42.248,36.448,66.473,21.149a35.85,35.85,0,0,0,3.878-2.734c1.956-1.886,1.6-.62.941-2.881l-14.011,7.495C56.352,2888.722,35.852,2884.774,23.609,2871.669Zm14.56,6.937c14.864,6.889,36.6,2.778,42.725-6.317l-45.961-48.8c-2.882-3.065-7.149-8.832-9.005-7.93-5.539,2.693-9.87,18.244-10.4,23.031C14.1,2851.611,19.541,2869.974,38.169,2878.606Z" transform="translate(4.067 1176.177)" fill="#fcfcfc" fill-rule="evenodd"/>
      <path id="Path_681" data-name="Path 681" d="M31.1,2833.148c-.918,2.923-8.3,3.829-8.682,1.352-.388-2.5,6.815-3.771,8.682-1.352" transform="translate(10.82 1186.61)" fill="#fcfcfc" fill-rule="evenodd"/>
      <path id="Path_682" data-name="Path 682" d="M49.994,2852.679c-2.541-1.2-5.022-5.742-3.35-8.492,2.652.454,2.091,1.123,3.241,3.63,1.171,2.555,2.185,2.509.109,4.862" transform="translate(20.759 1191.785)" fill="#fcfcfc" fill-rule="evenodd"/>
      <path id="Path_683" data-name="Path 683" d="M39.272,2843.549c2.975,2.167,1.313,4.221-.994,9.323-2.21-2.232-1.843-1.459-1.083-4.859.432-1.928.353-3.343,2.077-4.464" transform="translate(16.777 1191.517)" fill="#fcfcfc" fill-rule="evenodd"/>
      <path id="Path_684" data-name="Path 684" d="M30.909,2826.545c-2.628,1.631-3.418.19-8.3-3.721,2.223-2.613,8.11.918,8.3,3.721" transform="translate(10.903 1182.438)" fill="#fcfcfc" fill-rule="evenodd"/>
      <path id="Path_685" data-name="Path 685" d="M33.908,2840.592c-.476,4.5-4.29,4.8-7.16,5.418.694-2.431.935-2.34,2.972-4.225,2.6-2.406,1.826-2.247,4.188-1.194" transform="translate(12.641 1189.97)" fill="#fcfcfc" fill-rule="evenodd"/>
      <path id="Path_686" data-name="Path 686" d="M734.036,2845.4c-7.616-2.027-22.749-10.1-26.813-18.621-1.482-3.108,3-4.85,10.658-10.064,5.769-3.928,64.495-44.947,67.7-46.14,7.573,5.572,9.528,21.792,9.705,27.557.918,29.834-28.244,56.05-61.251,47.269m37.052-11.49a42.58,42.58,0,0,1-30.266,6.855c-18.887-2.878-24.277-14.878-28.684-16.558l-1.563,1.564c6.483,13.672,29.452,20.948,46.924,17.107,26.654-5.86,42.455-36.2,31.024-62.476a36.332,36.332,0,0,0-2.111-4.251c-1.567-2.219-.372-1.669-2.707-1.367l5.275,14.989C792.93,2804.151,785.9,2823.811,771.089,2833.915Zm9.074-13.335c9.071-13.64,8.318-35.746.263-43.188l-55.235,38c-3.468,2.381-9.816,5.721-9.208,7.691,1.818,5.885,16.529,12.535,21.179,13.784C749.816,2840.26,768.8,2837.677,780.163,2820.58Z" transform="translate(297.998 1160.904)" fill="#fcfcfc" fill-rule="evenodd"/>
      <path id="Path_687" data-name="Path 687" d="M734.678,2802.264c2.748,1.353,2.521,8.784.014,8.787-2.531,0-2.687-7.312-.014-8.787" transform="translate(308.818 1174.197)" fill="#fcfcfc" fill-rule="evenodd"/>
      <path id="Path_688" data-name="Path 688" d="M757.027,2785.288c-1.577,2.328-6.439,4.089-8.9,2.018.853-2.551,1.428-1.9,4.08-2.649,2.7-.769,2.813-1.777,4.822.631" transform="translate(315.276 1166.441)" fill="#fcfcfc" fill-rule="evenodd"/>
      <path id="Path_689" data-name="Path 689" d="M746.276,2794.432c2.594-2.61,4.371-.656,9.062,2.4-2.542,1.845-1.722,1.6-4.967.331-1.841-.72-3.249-.86-4.1-2.733" transform="translate(314.5 1170.4)" fill="#fcfcfc" fill-rule="evenodd"/>
      <path id="Path_690" data-name="Path 690" d="M728.232,2801.189c1.211,2.845-.333,3.405-4.943,7.64-2.243-2.6,2.142-7.875,4.943-7.64" transform="translate(304.598 1173.743)" fill="#fcfcfc" fill-rule="evenodd"/>
      <path id="Path_691" data-name="Path 691" d="M742.417,2800.2c4.381,1.156,4.094,4.97,4.266,7.9-2.3-1.056-2.168-1.279-3.722-3.58-1.983-2.937-1.943-2.148-.544-4.321" transform="translate(312.46 1173.332)" fill="#fcfcfc" fill-rule="evenodd"/>
      <path id="Path_692" data-name="Path 692" d="M802.569,2841.418c-7.465-6.32-2.319-13.67,4.889-17.545,3.1-1.666,2.92-1.072,4.824,2.038,3.437,5.617,5.144,10.553.2,14.884l4.171,9.751-9.444,1.9c-3.78-.057-3.943-5.408-5.982-6.711.189,5.577-.054,2.057,1.046,6.4,5.745,22.617-14.854,45.6-38.906,40.9-11.68-2.281-14.322-7.576-19.463-10.882l-8.79,5.485a6.728,6.728,0,0,1-1.827.675l-1.51-6.687c-3.542,2.454-3.811,3.887-7.549.345l1.177-4.954,3.8-.688-5.694-4.386,13.064-5.51c-1.921-17.748,5.086-30.75,22.082-38.442,7.974-2.7,17.524-1.928,22.6.244,8.36,3.574,11.16,6.624,17.951,15.314Zm6.545-14.833c-17.359,11.231,2.138,17.89,3.364,8.868C812.867,2832.6,810.571,2829.255,809.115,2826.585Zm4.259,22.139c-1.3-2.961-4.73-9.439-7.59-3.762C803.066,2850.351,810.41,2849.621,813.373,2848.724ZM751,2835.44c-12.6,9.8-17.081,28.682-5.471,43.521a30.85,30.85,0,0,0,43.3,4.646c11.705-9.406,16.066-28.425,4.65-42.75C784.032,2829,765.137,2824.444,751,2835.44Zm-19.421,42.995,3.88,1.407-.312,4.1,6.8-4.125-4.9-10.377-7.454,3,3.539,2.863Z" transform="translate(304.95 1182.881)" fill="#fcfcfc" fill-rule="evenodd"/>
      <path id="Path_693" data-name="Path 693" d="M758.932,2871.5c1.556-3.354,3.123-1.415,8.077-4.359a18.664,18.664,0,0,0,8.776-12.956c.768-4.033-1.628-4.578,1.953-7.494a23.626,23.626,0,0,1-1.946,16.125c-.883,2.471-11.813,12.476-16.86,8.684" transform="translate(319.809 1192.834)" fill="#fcfcfc" fill-rule="evenodd"/>
      <path id="Path_694" data-name="Path 694" d="M1270.952,2775.31c-49.259,10.038-33.485,82.257,14.26,72.815,17.682-3.5,33.578-21.13,29.14-43.614-3.58-18.134-21.191-33.727-43.4-29.2m-10.479,7.468c6.159-3.658,21.516-8.336,31.941-.857l-5.292,10.064c-2.853,5.235-3.213,7.7-6.423,8.243-2.185-4.665-1.342-2.159-1.608-6.565-.288-4.747.464-4.44-3-5.174-.544,4.51-.4,10.039-1.752,11.958C1269.779,2795.805,1262.317,2788.867,1260.473,2782.778Zm36.933,16.025c-3.919-.923-16.136,11.366-10.265.619,1.9-3.481,6.967-12.926,9-15.243,7.949,7.769,14.96,12.353,14.963,25.38l-21.611.183C1296.682,2800.236,1298.464,2802.642,1297.406,2798.8Zm-52.676,10.834c-.071-10.684,6.907-19.869,12.353-23.695,2.781,3.736,11.847,14.414,11.651,18.677l-12.3-2.717c7.183,6.385,8.739,4.992,9.745,7.986Zm30.4-5.345c10.249-4.085,14.784,11.494,5.611,14.912C1271.223,2822.752,1264.736,2808.438,1275.135,2804.293Zm14.228,10.326a4.133,4.133,0,0,1,.748-.328l21.189-.479a39.091,39.091,0,0,1-12.436,23.534l-12.248-17.743,12.9,2.213c-6.746-6.174-2.657-2.785-7.762-5.543Zm-29.244,24.681c-8.09-2.805-14.466-13.721-15.606-25.578,4.183-.074,18.6-1.62,21.764,1.176-7.267,9.55-7.759,5.215-8.3,10.7l12.093-5.6Zm2.9,2.806c1.033-3.677,3.685-7.1,5.6-10.482,3.618-6.4,1.5-4.242,7.273-8.355l2.084,11.82,3.633-12.177c3.537.067,1.559-1.19,7.57,7.75,3.247,4.828,3.515,4.349,6.059,9.387C1282.332,2848.838,1271.935,2844.02,1263.016,2842.106Z" transform="translate(521.985 1162.557)" fill="#fcfcfc" fill-rule="evenodd"/>
      <path id="Path_695" data-name="Path 695" d="M1232.7,2822.792c3.434,24.406,27.209,46.166,56.633,41.339,24.217-3.97,45.695-26.779,41.028-56.5-3.845-24.49-26.751-45.544-56.054-41.2a49.5,49.5,0,0,0-41.608,56.36m3.79,0c-4.358-27.323,15.4-49.116,37.967-52.575,27.39-4.2,48.8,15.582,52.212,38.288,4.091,27.238-15.5,48.478-38.248,51.97C1261.312,2864.639,1240.015,2844.889,1236.493,2822.792Z" transform="translate(518.346 1158.925)" fill="#fcfcfc" fill-rule="evenodd"/>
      <path id="Path_696" data-name="Path 696" d="M1059.083,2787.874l-.061-6.149-6.472,1.154-.579-5.421-6.811,1.778-1.984-5.892-6.056,3.764-2.48-5.409-4.971,4.919-4.193-4.484-3.593,5.722-5.822-3.626-1.753,4.836-4.716-1.813-.962,5.144-5.594-.867.192,5.259-5.959-.528,1.048,5.5-4.878.44,1.65,6.535-5.907.68,3.248,7.02-5.844,2.185,4.1,5.154-4.768,3.773,5.238,4.059-4.1,5.444,5.955,2.825-2.9,6.026,6.291,1.609-1.818,6.421,6.709.014-.8,6.645,6.831-1.146-.105,6.064,7.17-1.884,1.5,6.013,5.9-3.11,2.95,5.361,5.161-4.265,4.426,4.592,3.53-5.217,2.585,2.287,2.968,1.632,1.807-4.542.908-1.476,6.1,2.656.613-6.483,6.523,2.172-.016-7.335,6.3,1.011-1.016-7.227,6.154-.6-2.087-6.14,5.929-2.329-3.714-6.123,5.349-2.61-4.386-5.162,4.406-4.426-5.431-3.437,3.769-5.322-6.287-2.342,2.524-6.165-5.968-.918.871-6.594Zm-36.355-5.954,2.748-4.7,4.276,3.336,3.837-3.632,3.651,4.138,4.79-3.009.992,4.854,6.33-1.914.5,3.827,6.377.35-.116,5.34,5.885.168-.809,5.806,5.171.886-1.709,5.343,4.93,2.154-2.745,5.4,4.388,2.777-3.406,4.179,2.8,3.261.422.48.416.5-4.554,1.792,3.019,6.043-5.191,1.429,2.04,5.9-5.968.633,1.373,5.908-5.42-.631-.535,6.3-5.966-1.356-.823,5.548-5.43-2.162-2.094,5.04-4.633-3.122-3.848,4.591-2.789-4.03-5.043,3.735-2.214-4.8-5.279,2.694-1.5-4.941-6.264,1.605-.065-5.267-6.351.574.886-5.523-6.315-.678,1.641-5.366-5.484-1.682,2.437-4.887-5.188-2.74,3.465-4.173-4.483-3.564,4.183-3.05-3.4-5.186,4.639-2.545-2.679-5.682,5.4-1.36-1.493-5.174,4.32-.575-.544-4.842,5.075.7-.065-5.562,4.358,1.562,1.268-4.861,3.877,1.576,2.6-4.355Z" transform="translate(415.037 1161.374)" fill="#fcfcfc" fill-rule="evenodd"/>
      <path id="Path_697" data-name="Path 697" d="M1007.144,2783.938c-.583,1.262-2.078,7.268.263,11.691,2.2-.7,1.969,2.463,2.141-7.576l7.57,3.015c-.084-3.679-.975-3.014-4.277-4.826-1.914-1.05-3.434-2.629-5.7-2.3" transform="translate(423.517 1166.49)" fill="#fcfcfc" fill-rule="evenodd"/>
      <path id="Path_698" data-name="Path 698" d="M1016.848,2812.175c2.586-1.442,1.726-4.229,1.721-7.46l5.837,2.753c3.092.481.241.185,1.542-.249-2.892-3.519-4.822-6.679-10.141-7.06-.3,6.527-1.455,10.343,1.042,12.015" transform="translate(427.353 1173.314)" fill="#fcfcfc" fill-rule="evenodd"/>
      <path id="Path_699" data-name="Path 699" d="M1032.354,2815.2c1.2-2.1.758-4.58.931-7.607l7.11,2.711.25-1.445c-.05-1.13-6.682-5.425-10.232-5.616-.458,9.66-1.637,11,1.94,11.957" transform="translate(433.469 1174.606)" fill="#fcfcfc" fill-rule="evenodd"/>
      <path id="Path_700" data-name="Path 700" d="M1013.506,2818.738l5.716,2.707c2.774.4.368.126,1.461-.289-2.657-3.289-4.535-6.389-10.106-6.986-.484,10.827-1.625,11.317,2.395,12.023Z" transform="translate(425.16 1179.192)" fill="#fcfcfc" fill-rule="evenodd"/>
      <path id="Path_701" data-name="Path 701" d="M1033.847,2803.177c1.4-2.3.735-4.329,1.062-7.6l6.973,2.708c.578-2.5.916-1.882-3.285-4.374-2.447-1.449-3.5-2.745-6.392-2.373-.76,8.9-1.894,10.483,1.642,11.639" transform="translate(434.12 1169.67)" fill="#fcfcfc" fill-rule="evenodd"/>
      <path id="Path_702" data-name="Path 702" d="M1002.338,2809.23c2.454-1.72,1.559-4.247,1.634-7.566l3.78,2c4.02,2.236,3.432.535,3.763.388-2.266-2.29-4.284-4.747-7.1-6.063-3.82-1.787-2.312-.448-3.005-.13-.569,6.023-1.787,9.528.924,11.372" transform="translate(421.213 1172.021)" fill="#fcfcfc" fill-rule="evenodd"/>
      <path id="Path_703" data-name="Path 703" d="M1020.84,2798.2c4.028-.779,2.723-3,2.774-7.457l3.749,1.908c3.709,1.99,3.692.562,3.7.557-2.872-3.279-5.238-6.67-10.127-7Z" transform="translate(429.686 1167.462)" fill="#fcfcfc" fill-rule="evenodd"/>
      <path id="Path_704" data-name="Path 704" d="M1000.785,2821.169c2.429-1.828,1.5-4.177,1.672-7.545l7.549,2.481c-2.092-2.193-4.267-4.994-7.081-6.283-3.039-1.391-3.029-.038-3.035-.034-.63,6.084-1.86,9.447.894,11.38" transform="translate(420.551 1177.104)" fill="#fcfcfc" fill-rule="evenodd"/>
      <path id="Path_705" data-name="Path 705" d="M1025.589,2828.483c3.176-.968,1.729-3.343,2.311-7.522l7.213,2.682c-2.163-2.422-6.052-7.643-9.481-6.828-1.417,2.838-2.019,9.309-.043,11.668" transform="translate(431.149 1180.265)" fill="#fcfcfc" fill-rule="evenodd"/>
      <path id="Path_706" data-name="Path 706" d="M911.6,2851.009c9.206-3.306,13,4.828,12.75,13.005-.108,3.518-.532,3.066-4.176,3.159-6.582.169-11.713-.821-12.991-7.266l-10.529-1.266,3.08-9.125c1.939-3.247,6.653-.712,8.8-1.827-4.926-2.625-1.755-1.074-6.064-2.291-22.46-6.334-32.061-35.662-15.967-54.142,7.816-8.976,13.721-8.617,19.158-11.415l-.356-10.354a6.733,6.733,0,0,1,.327-1.921l6.547,2.035c-.355-4.3-1.461-5.245,3.478-6.711l3.7,3.5-1.306,3.637,6.646-2.738q-.879,7.035-1.759,14.069c16.329,7.211,24.086,19.781,22.251,38.345-1.647,8.255-7.093,16.14-11.51,19.451-7.278,5.451-11.316,6.351-22.238,7.888Zm9.572,13.085c-1.046-20.65-16.562-7.094-9.36-1.519C914.087,2864.333,918.137,2864.021,921.176,2864.094Zm-21.3-7.38c3.214.35,10.536.622,7.051-4.695C903.619,2846.973,900.58,2853.7,899.876,2856.714Zm42.688-47.374c-2.19-15.812-16.3-29.133-34.954-26.5a30.853,30.853,0,0,0-25.673,35.175c2.292,14.841,16.583,28.128,34.7,25.4C931.627,2841.165,945.018,2827.077,942.564,2809.341Zm-27.525-38.314-3.157,2.656-3.393-2.318.173,7.951,11.44.943,1.13-7.955-4.249,1.634Z" transform="translate(369.972 1157.679)" fill="#fcfcfc" fill-rule="evenodd"/>
      <path id="Path_707" data-name="Path 707" d="M888.519,2793.309c2.126,3.024-.335,3.412-.263,9.175a18.662,18.662,0,0,0,6.832,14.078c3.107,2.683,4.778.88,5.512,5.438a23.622,23.622,0,0,1-12.992-9.748c-1.7-2-4.9-16.468.91-18.943" transform="translate(372.777 1170.44)" fill="#fcfcfc" fill-rule="evenodd"/>
      <path id="Path_708" data-name="Path 708" d="M1323.752,2825.588a19.776,19.776,0,0,1,23.655-1.793,18.114,18.114,0,0,0,3.905-3.821c6.3-8.114,5.733,2.139-1.3,5.228,7.338,8.584,5.721,19.689-2.318,28.777-4.142,4.683,1.429,6.534-2.437,18.884-4.276,13.653-19.425,26.328-38.206,21.759-26.945-6.555-32.74-40.982-12.557-56.27,7.9-5.985,12.385-6.929,24.05-7.032Zm-3.735,9.009c-12.1-.067-18.318,1.26-25.424,7.576-22.1,19.642-.5,61.456,31.584,47.773,12.218-5.211,19.317-18.18,16.8-32.083-1.153-6.374,1.083-2.61,5.438-9.824,8.7-14.408-3.587-30.561-19.729-21.935C1323.339,2828.962,1323.572,2830.762,1320.018,2834.6Z" transform="translate(539.431 1180.343)" fill="#fcfcfc" fill-rule="evenodd"/>
      <path id="Path_709" data-name="Path 709" d="M1299.383,2859.987c3.207-.363,6.108,3.862,13.305,2.292,2.125-.461,7.489-3.659,10.979-5.3-.607,5.068-10.44,10.894-19.626,7.877-1.316-.433-4.128-1.648-4.657-2.775l-.128-1.53a2.3,2.3,0,0,1,.128-.564" transform="translate(546.488 1197.151)" fill="#fcfcfc" fill-rule="evenodd"/>
      <path id="Path_710" data-name="Path 710" d="M998.832,2848.194c1.773-5.471,1.258-15.578-3.9-15.945-3.474-.249-5.418,5.546-10.553,9.722-5.856,4.762-17.352,6.915-24.8,4.12-9.01-3.38-4.447-.444-6.462-.775l-8.642-26.824c-6.023,1.285-6.382.811-7.626,4.71-1.029,3.221-1.755,7.17-2.586,10.781-1.719,7.468-5.157,13.586-2.863,21.881,9.333,33.729,60.5,35.868,81.557,5.116,5.546-8.1,5.027-8.787.639-17.814Zm-43.277-.305c26.458,9.63,35.159-10.347,39.84-12.4l-.829,14.4c-.456,1.053-15.179,7.5-28.294,3.549C960.391,2851.675,959.422,2850.219,955.555,2847.889Zm-12.867-26.051c3.449,4.747.991,16.8,5.607,23.014,9.674,13.021,26.578,15.768,42.364,10.066l21.421-8.44c2.619,9.569,2.365,7.468-3.593,15.2-18.589,24.112-62.358,25.115-73.409-4.361-2.92-7.789-.44-12.278,1.271-19.085C938.612,2829.225,938.176,2823.449,942.689,2821.838Z" transform="translate(391.841 1181.004)" fill="#fcfcfc" fill-rule="evenodd"/>
      <path id="Path_711" data-name="Path 711" d="M942.637,2852.764c-2.122,5.552,17.568,11.065,28.188,10.315,14.726-1.042,16.425-5.216,24.71-13.962-2.4-.111-2.6,1.469-4.76,3.186-11.64,9.258-29.5,10.195-42.127,3.123-2.681-1.5-3.448-3.151-6.01-2.662" transform="translate(396.811 1193.85)" fill="#fcfcfc" fill-rule="evenodd"/>
      <path id="Path_712" data-name="Path 712" d="M943.823,2853.665c-.305-3.239-1.415-2.336-3.066-4.811-2.44-3.658-.138-4.314-4.389-4.775-.089,5.029,3.261,11.069,7.455,9.586" transform="translate(394.247 1191.739)" fill="#fcfcfc" fill-rule="evenodd"/>
      <path id="Path_713" data-name="Path 713" d="M1067.3,2877.228c-7.617-2.026-22.749-10.1-26.815-18.618-1.482-3.109,3-4.851,10.659-10.066,5.769-3.929,64.493-44.945,67.7-46.14,7.572,5.573,9.529,21.793,9.705,27.557.919,29.834-28.243,56.049-61.25,47.267m37.052-11.488a42.584,42.584,0,0,1-30.267,6.855c-18.885-2.88-24.275-14.878-28.683-16.559l-1.564,1.566c6.485,13.67,29.452,20.946,46.924,17.105,26.654-5.86,42.457-36.205,31.024-62.476a35.545,35.545,0,0,0-2.112-4.25c-1.566-2.22-.369-1.671-2.7-1.37l5.275,14.989C1126.189,2835.974,1119.167,2855.635,1104.351,2865.74Zm9.072-13.335c9.072-13.641,8.32-35.746.263-43.187l-55.234,37.993c-3.468,2.382-9.818,5.722-9.208,7.692,1.817,5.885,16.527,12.535,21.179,13.784C1083.078,2872.085,1102.056,2869.5,1113.424,2852.405Z" transform="translate(437.809 1174.255)" fill="#fcfcfc" fill-rule="evenodd"/>
      <path id="Path_714" data-name="Path 714" d="M1067.94,2834.089c2.748,1.353,2.521,8.782.013,8.787-2.53,0-2.689-7.312-.013-8.787" transform="translate(448.629 1187.548)" fill="#fcfcfc" fill-rule="evenodd"/>
      <path id="Path_715" data-name="Path 715" d="M1090.289,2817.114c-1.577,2.327-6.44,4.088-8.9,2.017.852-2.551,1.428-1.9,4.08-2.65,2.7-.77,2.814-1.777,4.822.633" transform="translate(455.087 1179.792)" fill="#fcfcfc" fill-rule="evenodd"/>
      <path id="Path_716" data-name="Path 716" d="M1079.538,2826.257c2.594-2.61,4.371-.656,9.061,2.4-2.541,1.845-1.722,1.6-4.966.331-1.841-.721-3.25-.86-4.1-2.732" transform="translate(454.311 1183.751)" fill="#fcfcfc" fill-rule="evenodd"/>
      <path id="Path_717" data-name="Path 717" d="M1061.494,2833.013c1.21,2.845-.333,3.408-4.943,7.64-2.243-2.594,2.142-7.875,4.943-7.64" transform="translate(444.409 1187.093)" fill="#fcfcfc" fill-rule="evenodd"/>
      <path id="Path_718" data-name="Path 718" d="M1075.678,2832.028c4.379,1.156,4.093,4.97,4.266,7.9-2.3-1.055-2.17-1.279-3.723-3.58-1.982-2.936-1.942-2.146-.542-4.32" transform="translate(452.271 1186.683)" fill="#fcfcfc" fill-rule="evenodd"/>
      <path id="Path_719" data-name="Path 719" d="M1191.411,2851.356a39.1,39.1,0,0,0,5.394-22.648c-1.094-16.46-12.567-26.642-28.866-28.162q1.035-2.93,2.066-5.86c12.445,6.98,22.637-1.831,22.461-13.121-9.551-5.164-17.5-5.365-23.24,1.252-2.8-.39-5.326-3.124-11.467-2.355a5.819,5.819,0,0,0-3.5,1.189c1.332,7.379.791,17.351,12.045,13.781q-.483,2.121-.967,4.239c-23.283-11.834-50.392,5-46.847,36.439,1.655,13.017,9.951,22.965,19.445,26.92,3.512,1.464,5.7,1.393,9.264,2.419,18.787,5.411,33.583,4.037,44.215-14.093m-2.426-67.68c-5.62,16.769-15.424,12.436-17.4,7.223C1168.14,2781.832,1178.472,2776.533,1188.985,2783.676Zm-22.958,8.232c-6,5.583-8.605-4.093-9.146-8.375,2.948-.115,7.245-.836,9.366,1.176S1167.689,2790.36,1166.027,2791.908Zm27.626,43.973c-2.231,17.087-19,35.032-39.487,29-2.287-.673-3.953-1.867-6.159-2.442-7.413-1.933-9.666-.589-17.717-8.458-5.827-5.694-10.141-15.666-8.971-26.83,1.84-17.545,18.653-35.078,38.54-26.676,1.98.836,4.212,2.427,5.715,2.857,2.347.672,5.38.382,7.887.947a28.567,28.567,0,0,1,11.491,5.915C1190.43,2814.842,1195.07,2825.027,1193.653,2835.88Z" transform="translate(470.519 1163.919)" fill="#fcfcfc" fill-rule="evenodd"/>
      <path id="Path_720" data-name="Path 720" d="M1142.037,2831.724c-.822-6.6-12.443-3.16-9.919-21.449.287-2.085.5-1.066-.643-3.9-.632.212-3.156-1.165-3.366,7.421-.23,9.544,7.471,19.124,13.928,17.923" transform="translate(474.686 1175.923)" fill="#fcfcfc" fill-rule="evenodd"/>
      <path id="Path_721" data-name="Path 721" d="M804.063,2788.85c2.129,1.745,4.748,5.847,6.4,8.788a14.012,14.012,0,0,0-6.555,8.961c-1.309,6.134,1.208,9.486.734,14.214.718.937.2-.111,1.178,1.955.04.083.755,2.057.761,2.077,4.274,14.074,1.2,23.442,2.577,34.884,4.246,35.238,55.845,46.443,74.78,16.755,13.994-21.941,5.594-49.69-12.289-59.552-10.056-5.547-19.819-6.9-29.266-13.417-18.061-12.454-13.368-12.7-29.613-8.448-3.779-6.809-5.029-11.574-9.278-10.819Zm14.448,8.344c7.081-2.433,10.743,1.373,15.417,4.8,24.536,18,30.916,12.521,41.947,22.519,6.985,6.331,12.465,18.968,10.886,32.895-5.024,44.323-62.7,39-72.445,8.7-3.821-11.887-.087-26.223-3.574-40.013C807.142,2811.863,804.151,2802.128,818.511,2797.194Z" transform="translate(338.503 1166.606)" fill="#fcfcfc" fill-rule="evenodd"/>
      <path id="Path_722" data-name="Path 722" d="M821.958,2841.341c2.747,25.841,45.1,22.474,40.74-6.336-3.8-25.094-43.721-21.709-40.74,6.336m16.753-18.989c20.389-5.773,29.554,26.671,8.162,32.385C826.306,2860.227,815.168,2829.021,838.711,2822.352Z" transform="translate(346.184 1180.832)" fill="#fcfcfc" fill-rule="evenodd"/>
      <path id="Path_723" data-name="Path 723" d="M832.033,2842.823c1.209-7.454-5.262.88,1.259-16.536-9.213-.505-7.386,13.854-4.389,16.207,3.567,2.8,2.643.468,3.13.329" transform="translate(348.142 1184.269)" fill="#fcfcfc" fill-rule="evenodd"/>
      <path id="Path_724" data-name="Path 724" d="M1223.095,2816.078c3.147,3.327,7.095,11.948,8.016,15.4l8.476,19.126c-4.354,2.443-8.49,4.146-11.4,8.321a20.254,20.254,0,0,0-3.384,16.319c5.035,24.281,43.545,18.653,39.514-7.607-1.931-12.57-11.288-16.045-21.8-17.12l-15.805-35.443c-3.164-5.2-.7-3.6-2.016-9.069-3.271-13.6-21.527-12.694-26.364-10.44.47,7.605,1.275,14.61,3.746,18.616,2.8,4.335,8.656,6.408,15.6,5.449-3.831,6.232-16.394,27.012-22.268,30.462-3.56,2.091-10.3-.319-17.294,9.058a20.242,20.242,0,0,0-2.013,20.108c10.824,23.906,47.638,7.708,36.756-16.81a22,22,0,0,0-5.552-7.187,15.59,15.59,0,0,0-3.918-2.481c-.747-.36-1.425-.584-2.21-.974l-1.958-1.167c13.478-15.054,14.439-20.881,23.876-34.562m-5.054-15.433c2.843,2.442,5.674,9.995,1.737,13.954s-17.95,4.729-18.462-16.651C1207.137,2797.791,1214.231,2797.376,1218.041,2800.645Zm-27.259,53.949c9.738-2.588,17.923,4.291,19.885,11.616a16.949,16.949,0,0,1-11.822,20.832C1177.379,2892.7,1168.117,2860.615,1190.782,2854.594Zm50.17-.122c9.639-2.247,17.9,4.592,19.78,12.053a16.92,16.92,0,0,1-11.626,20.509C1227.206,2892.848,1218.166,2859.785,1240.953,2854.472Z" transform="translate(494.075 1170.833)" fill="#fcfcfc" fill-rule="evenodd"/>
      <path id="Path_725" data-name="Path 725" d="M1189.263,2858.99c-2.043-5.086-4.186,1.005-7.842-6.838l-2.067-3.607c-3.187,2.062-.951,5.918.8,8.04,1.506,1.82,4.061,3.6,6.372,3.474,4.966-.261.823.307,2.733-1.069" transform="translate(495.512 1193.613)" fill="#fcfcfc" fill-rule="evenodd"/>
      <path id="Path_726" data-name="Path 726" d="M1213.093,2848.585c-.87,7.046,3.978,12.782,11.1,11.06l-6.261-4.545c-3.37-2.822,1.029-5.685-4.842-6.514" transform="translate(510.298 1193.629)" fill="#fcfcfc" fill-rule="evenodd"/>
    </g>
  </g>
</svg>
