<svg xmlns="http://www.w3.org/2000/svg" width="318.852" height="88.525" viewBox="0 0 318.852 88.525">
  <g id="Group_104" data-name="Group 104" transform="translate(-813.29 326.52)">
    <g id="Group_103" data-name="Group 103">
      <path id="Path_733" data-name="Path 733" d="M571.286,47.088V58.143h14.367v6.506H571.286V80.61h-8.312v-40h25.432v6.479Z" transform="translate(250.316 -347.383)" fill="#ffab1c"/>
      <path id="Path_734" data-name="Path 734" d="M616.766,80.611h-7.458a3.241,3.241,0,0,1-3.028-1.6l-7.6-12.269a3.21,3.21,0,0,0-1.028-1.048,3.38,3.38,0,0,0-1.669-.331h-2.808V80.611h-8.257v-40h12.551a25.76,25.76,0,0,1,7.156.864,13.739,13.739,0,0,1,4.87,2.416,9.235,9.235,0,0,1,2.781,3.677,12.968,12.968,0,0,1,.321,8.463,11.14,11.14,0,0,1-1.642,3.244,11.815,11.815,0,0,1-2.642,2.592,13.661,13.661,0,0,1-3.579,1.818,7.95,7.95,0,0,1,1.486,1.058,7.331,7.331,0,0,1,1.239,1.479ZM597.418,59.55a10.512,10.512,0,0,0,3.468-.515,6.521,6.521,0,0,0,2.393-1.407,5.44,5.44,0,0,0,1.377-2.1,7.694,7.694,0,0,0,.44-2.646,5.423,5.423,0,0,0-1.879-4.412q-1.887-1.571-5.743-1.57h-4.294V59.55Z" transform="translate(259.524 -347.383)" fill="#ffab1c"/>
      <path id="Path_735" data-name="Path 735" d="M709.342,40.609l-16.072,40h-7.488l-16.073-40h6.66a2.838,2.838,0,0,1,1.753.505,3.1,3.1,0,0,1,1,1.314l8.644,23.047c.329.863.66,1.8.981,2.821s.615,2.1.89,3.217c.238-1.121.5-2.2.789-3.217s.588-1.958.917-2.821l8.587-23.047a3.135,3.135,0,0,1,.981-1.259,2.69,2.69,0,0,1,1.745-.561Z" transform="translate(295.094 -347.383)" fill="#ffab1c"/>
      <path id="Path_740" data-name="Path 740" d="M708.54,47.088V57.371h13.32v6.258H708.54v10.5h17.119V80.61H700.227v-40h25.431v6.479Z" transform="translate(307.897 -347.383)" fill="#ffab1c"/>
      <path id="Path_741" data-name="Path 741" d="M746.183,73.884V80.61h-23.7v-40h8.257V73.884Z" transform="translate(317.235 -347.383)" fill="#ffab1c"/>
      <path id="Path_745" data-name="Path 745" d="M766.424,73.884V80.61h-23.7v-40h8.256V73.884Z" transform="translate(325.727 -347.383)" fill="#ffab1c"/>
      <path id="Path_746" data-name="Path 746" d="M799.306,80.611h-6.413a2.8,2.8,0,0,1-1.742-.515,3.067,3.067,0,0,1-1.009-1.3l-2.7-7.636H771.534l-2.7,7.636a3.139,3.139,0,0,1-.964,1.249,2.639,2.639,0,0,1-1.735.571h-6.467l15.6-40h8.45Zm-13.873-15.19-4.32-12.241c-.257-.643-.524-1.4-.808-2.26s-.559-1.8-.816-2.812c-.257,1.029-.522,1.976-.808,2.849s-.559,1.635-.816,2.277l-4.294,12.187Z" transform="translate(332.836 -347.383)" fill="#ffab1c"/>
      <path id="Path_742" data-name="Path 742" d="M703.364,41.865c10.585-4.689,12.918-4.71,19.03-14.826,0,0-10.969-1.755-15.762,2.694s-3.268,12.131-3.268,12.131" transform="translate(309.116 -353.219)" fill="#ffab1c" fill-rule="evenodd"/>
      <path id="Path_743" data-name="Path 743" d="M703.337,41.911c19.957,4.64,19-15,18.989-14.972-6.112,10.116-8.445,10.137-19.03,14.826.064.223-.023-.075.041.146" transform="translate(309.185 -353.118)" fill="#ffab1c" fill-rule="evenodd"/>
      <path id="Path_744" data-name="Path 744" d="M701.625,41.707c.324.342.193,1.2.517,1.543,11.467-4.276,17.449-8.5,20.826-16.241-6.957,11.985-18.477,13.765-21.342,14.7" transform="translate(308.484 -353.089)" fill="#870d4d" fill-rule="evenodd"/>
      <path id="Path_736" data-name="Path 736" d="M649.352,47.409a22.658,22.658,0,0,1,3.18,5.413c.216.529.413,1.053.592,1.6-.175-.542-.375-1.07-.589-1.6a22.342,22.342,0,0,0-3.183-5.411m1.005-1.351a24.206,24.206,0,0,1,3.533,6.189,25.3,25.3,0,0,1,.9,2.808c.257,1.141.385,2.036.591,3.133a22.953,22.953,0,0,0-1.447-5.958A23.32,23.32,0,0,0,650.357,46.058ZM647.2,46.8a21.568,21.568,0,0,1,4.469,6.392l.024.057-.024-.057A20.024,20.024,0,0,0,647.2,46.8Zm-2.038-1.789a21.607,21.607,0,0,0-2.307-1.613c.664.41,1.269.826,1.889,1.3C644.884,44.8,645.023,44.9,645.16,45.007Zm6.888,8.927c-.034-.05-.173-.305-.277-.5a21.209,21.209,0,0,1,1.838,8.3l-.006-.013c-.369-3.462-.481-5.007-1.843-8.31-.064-.124-.114-.219-.111-.22a24.11,24.11,0,0,0-4.885-6.787c-.166-.155-.332-.307-.5-.454a18.658,18.658,0,0,0-2.707-1.908,24.863,24.863,0,0,0-3.884-1.794,23.8,23.8,0,0,0-8.219-1.393,21.593,21.593,0,0,0-8.12,1.625,21.843,21.843,0,0,0-2.623,1.31,18.426,18.426,0,0,0-3.985,3.193,19.333,19.333,0,0,0-5.217,14.75,18.767,18.767,0,0,0,1.843,6.878c.1.217.211.432.327.643a24,24,0,0,0,2.3,3.366c.17.2,1.163,1.391,1.449,1.411a11.185,11.185,0,0,0-.7-1.28,32.411,32.411,0,0,1-2.07-3.912c-.1-.258-.985-2.76-.761-2.809.345.891.6,1.8.969,2.72a20.176,20.176,0,0,0,3.194,5.329c.162.193.325.383.491.573a31.335,31.335,0,0,0,3.136,3.361,19.9,19.9,0,0,0,2.226,1.593c.356.217,2.919,1.452,2.538,1.831a10.282,10.282,0,0,1-3.059-.6,19.577,19.577,0,0,1-6.922-4.1,20.493,20.493,0,0,1-4.85-6.614,19.271,19.271,0,0,1-1.451-4.5,22.136,22.136,0,0,1-.321-3.892,5.747,5.747,0,0,0-.268-2.283c-.375-.106-.315,2.046-.309,2.283a24.714,24.714,0,0,0,1.444,7.2c.165.46.341.9.538,1.347a20.9,20.9,0,0,0,4.875,6.8,21.211,21.211,0,0,0,7.014,4.352,21.924,21.924,0,0,0,4.767,1.178c1.107.128,1.218.125.875-.683-.014-.282,2.437.366,2.666.413,1.827.373,3.43.494,5.2.789,2.569.568-4.967,1.536-5.2,1.559-.788.061-1.554.094-2.344.1a19.592,19.592,0,0,1-6.832-1.3,22.835,22.835,0,0,1-7.705-4.849,23.775,23.775,0,0,1-5.327-7.511,25.027,25.027,0,0,1-2.085-7.89c-.05-.507-.081-1-.1-1.509a23.43,23.43,0,0,1,1.736-9.589,24.29,24.29,0,0,1,5.2-7.9,24.66,24.66,0,0,1,7.816-5.369c.633-.274,1.252-.514,1.9-.738a24.405,24.405,0,0,1,17.4.7c.437.19.86.385,1.286.6a24.658,24.658,0,0,1,6.453,4.873c.547.591,1.042,1.167,1.5,1.745-.467-.573-.974-1.14-1.53-1.715a17.88,17.88,0,0,0-1.432-1.29c-.474-.285,1.106,1.3,1.258,1.465A24.845,24.845,0,0,1,653.6,52.37a23.146,23.146,0,0,1,1.54,6.841,31.4,31.4,0,0,0-1.668-6.787,24.9,24.9,0,0,0-4.953-7.77c-.835-.884-1.627-1.614-2.531-2.415-.2.115,1.393,1.49,2.351,2.595l.028.033c.111.158.016.045-.042-.018A22.907,22.907,0,0,0,622.317,39.4l-.234.105a21.259,21.259,0,0,0-4.006,2.354,34.4,34.4,0,0,1,4.077-2.186,23.549,23.549,0,0,1,9.307-1.9,23.028,23.028,0,0,1,9.295,1.928,21.415,21.415,0,0,1,5.238,3.239,25.052,25.052,0,0,1,2.152,2.082c.473.579.182.219-.01.01a19,19,0,0,0-3-2.67c-.021.013,2.761,2.528,2.948,2.721a24.189,24.189,0,0,1,4.875,7.553,24.866,24.866,0,0,1,.813,2.351c.047.562-.539-1.527-.863-2.329a23.348,23.348,0,0,0-38.029-7.532,22.9,22.9,0,0,0-2.507,2.95c.894-1.005,1.435-1.834,2.522-2.936a23.283,23.283,0,0,1,7.464-4.983,23.027,23.027,0,0,1,9.1-1.783,22.582,22.582,0,0,1,8.218,1.608,3.434,3.434,0,0,0,.778.423l.579.261a15.367,15.367,0,0,1,2.219,1.269,26.167,26.167,0,0,1,4.423,3.554c.615.646,1.17,1.276,1.675,1.914-.508-.636-1.065-1.263-1.683-1.9a20.59,20.59,0,0,0-4.413-3.393c0,.166.87.782,1.079.94-.585-.305-1.184-.613-1.759-.934a19.822,19.822,0,0,0-2.351-1.155s-.8-.3-.808-.281c.108.031.517.214.786.332l1.648.863a26.229,26.229,0,0,1,5.413,4.034,22.738,22.738,0,0,1,4.877,7.076,23.606,23.606,0,0,1,1.148,3.269,22.55,22.55,0,0,0-1.455-3.139c-.221-.392-.449-.771-.691-1.151.2.4.395.791.578,1.2C651.835,53.421,651.943,53.676,652.048,53.935Z" transform="translate(268.812 -348.952)" fill="#870d4d"/>
      <path id="Path_737" data-name="Path 737" d="M643.59,75.532a22.711,22.711,0,0,1-3.178-5.414c-.216-.528-.413-1.052-.592-1.594.175.542.375,1.069.589,1.6a22.366,22.366,0,0,0,3.181,5.413m-1,1.351a24.221,24.221,0,0,1-3.533-6.188,25.225,25.225,0,0,1-.9-2.809c-.257-1.141-.385-2.036-.59-3.133a22.853,22.853,0,0,0,1.448,5.956A23.266,23.266,0,0,0,642.586,76.883Zm3.158-.738a21.548,21.548,0,0,1-4.469-6.392l-.024-.057.024.057A20.034,20.034,0,0,0,645.745,76.145Zm2.04,1.787a21.137,21.137,0,0,0,2.307,1.614,22.738,22.738,0,0,1-1.891-1.3C648.059,78.143,647.92,78.038,647.785,77.932ZM640.9,69.006c.033.05.172.305.275.5a21.184,21.184,0,0,1-1.838-8.306l.007.013c.368,3.464.481,5.008,1.841,8.313.064.121.114.219.111.219a24.1,24.1,0,0,0,4.885,6.787c.166.155.332.307.5.454a18.6,18.6,0,0,0,2.708,1.908,24.6,24.6,0,0,0,3.882,1.794,23.8,23.8,0,0,0,8.219,1.393,21.571,21.571,0,0,0,8.12-1.625,21.941,21.941,0,0,0,2.623-1.31,18.449,18.449,0,0,0,3.985-3.191A19.339,19.339,0,0,0,681.427,61.2a18.771,18.771,0,0,0-1.843-6.876c-.1-.217-.211-.43-.328-.643a23.878,23.878,0,0,0-2.3-3.366c-.17-.2-1.163-1.39-1.449-1.411a11.156,11.156,0,0,0,.7,1.28,32.643,32.643,0,0,1,2.07,3.912c.1.258.985,2.761.762,2.809-.346-.891-.6-1.8-.971-2.72a20.2,20.2,0,0,0-3.194-5.329c-.162-.193-.325-.383-.493-.573a31.184,31.184,0,0,0-3.134-3.361,19.945,19.945,0,0,0-2.224-1.593c-.358-.217-2.921-1.452-2.539-1.831a10.293,10.293,0,0,1,3.059.6,19.539,19.539,0,0,1,6.922,4.1,20.493,20.493,0,0,1,4.851,6.612,19.282,19.282,0,0,1,1.451,4.5,22.2,22.2,0,0,1,.321,3.892,5.732,5.732,0,0,0,.268,2.285c.375.105.315-2.048.309-2.285a24.65,24.65,0,0,0-1.444-7.2c-.165-.461-.341-.9-.538-1.349a20.9,20.9,0,0,0-4.876-6.8A21.189,21.189,0,0,0,669.79,41.5a22.009,22.009,0,0,0-4.767-1.18c-1.107-.126-1.216-.125-.874.686.014.281-2.437-.366-2.666-.413-1.827-.375-3.431-.5-5.2-.792-2.571-.566,4.967-1.535,5.2-1.557.788-.061,1.554-.094,2.344-.1a19.638,19.638,0,0,1,6.834,1.3,22.827,22.827,0,0,1,7.7,4.849,23.791,23.791,0,0,1,5.327,7.511,25.065,25.065,0,0,1,2.087,7.891c.048.505.079,1,.1,1.506a23.432,23.432,0,0,1-1.736,9.59,24.288,24.288,0,0,1-5.2,7.9,24.687,24.687,0,0,1-7.816,5.37c-.633.273-1.252.512-1.9.737a24.384,24.384,0,0,1-17.4-.7c-.437-.19-.86-.385-1.286-.6a24.65,24.65,0,0,1-6.453-4.873c-.547-.591-1.042-1.167-1.5-1.745.467.573.974,1.141,1.53,1.713a17.638,17.638,0,0,0,1.432,1.292c.474.285-1.106-1.3-1.258-1.466a24.825,24.825,0,0,1-4.947-7.851,23.15,23.15,0,0,1-1.54-6.841,31.409,31.409,0,0,0,1.669,6.787,24.872,24.872,0,0,0,4.951,7.77c.835.884,1.627,1.614,2.531,2.413.2-.115-1.393-1.488-2.351-2.593l-.028-.034c-.111-.155-.016-.043.043.021a22.909,22.909,0,0,0,26.007,5.445l.233-.105a21.154,21.154,0,0,0,4.007-2.354,34.4,34.4,0,0,1-4.077,2.186,23.524,23.524,0,0,1-9.306,1.9,23.018,23.018,0,0,1-9.294-1.928A21.411,21.411,0,0,1,646.95,80a25.044,25.044,0,0,1-2.152-2.081c-.473-.581-.183-.22.01-.011a19.074,19.074,0,0,0,3,2.672c.021-.013-2.761-2.531-2.947-2.723a24.2,24.2,0,0,1-4.878-7.553c-.314-.784-.575-1.539-.812-2.351-.047-.562.539,1.527.862,2.331A23.452,23.452,0,0,0,652.4,82.744a23.375,23.375,0,0,0,28.175-7.884c-.9,1.005-1.437,1.834-2.522,2.936a23.345,23.345,0,0,1-7.465,4.983,23.027,23.027,0,0,1-9.1,1.783,22.554,22.554,0,0,1-8.218-1.608,3.358,3.358,0,0,0-.779-.422s-.581-.258-.578-.264A15.446,15.446,0,0,1,649.688,81a26.292,26.292,0,0,1-4.422-3.556c-.615-.644-1.17-1.276-1.677-1.914.51.636,1.066,1.263,1.685,1.9a20.589,20.589,0,0,0,4.413,3.393c-.006-.166-.87-.782-1.079-.94.585.305,1.184.613,1.759.934a20.027,20.027,0,0,0,2.351,1.155s.8.3.808.281c-.108-.031-.515-.214-.786-.332l-1.648-.863a26.232,26.232,0,0,1-5.413-4.034,22.731,22.731,0,0,1-4.877-7.078,23.523,23.523,0,0,1-1.147-3.268,22.6,22.6,0,0,0,1.454,3.137c.221.395.449.772.693,1.153-.206-.4-.4-.792-.579-1.2C641.109,69.521,641,69.266,640.9,69.006Z" transform="translate(281.61 -348.416)" fill="#870d4d"/>
      <path id="Path_747" data-name="Path 747" d="M630.893,72.068c-.315.15-.627.3-.923.417.318-.138.625-.275.923-.417m.241-.116-.241.116Zm1.253-.51h0Zm-.359.2c.2-.109.344-.192.359-.2-.5.271-1.519.759-1.519.759C631.269,72.021,631.651,71.837,632.029,71.642Zm7-5.891c.852-1.009,1.715-2.474,2.49-3.266.349.106-.573,1.715-.758,1.977a25.457,25.457,0,0,1-4.792,4.9l-3.793,2.324c-.406.21.346-.25.288-.216-.477.254-.951.488-1.442.713.274-.136.7-.369,1.005-.537.416-.214.826-.439,1.243-.683a5.137,5.137,0,0,1-.842.407c-.385.143-.837.363-1.3.585a25.418,25.418,0,0,0,2.388-1.334c-.1.06-1.079.622-1.087.6a2.41,2.41,0,0,0-.281.1,25.429,25.429,0,0,1-3.158,1.441,18.023,18.023,0,0,0,2.681-1.279c-.481.192-1.079.525-1.587.754.26-.133.515-.27.771-.412-.16.067-.48.2-.48.2a23.572,23.572,0,0,0,5.782-3.491A26.917,26.917,0,0,0,639.031,65.751Z" transform="translate(278.014 -338.206)" fill="#870d4d"/>
      <path id="Path_748" data-name="Path 748" d="M637.711,65.987c1.161-1.2,2.046-2.351,3.1-3.614.522,0-.47,1.634-.656,1.929a18.663,18.663,0,0,1-4.169,4.311,26.094,26.094,0,0,1-4.311,2.527c-.04-.02.176-.143.28-.207-.618.324-1.224.61-1.867.882.617-.281,1.2-.576,1.793-.908-.721.369-1.42.686-2.172.985a24.893,24.893,0,0,0,2.559-1.208,2.138,2.138,0,0,1-.348.15c-.832.3-1.787.822-2.715,1.168a24.51,24.51,0,0,0,2.468-1.153c.3-.149.883-.467.883-.467-.054.026-.568.251-.568.251-.169.071-.351.18-.517.264a24.017,24.017,0,0,1-2.893,1.234A19.969,19.969,0,0,0,632,70.518c-.163.04-2.145,1-2.649,1.2.352-.149,1.043-.473,1.043-.473-.278.106-.84.3-.84.3a22.789,22.789,0,0,0,6.29-3.772,24.643,24.643,0,0,0,1.865-1.789" transform="translate(277.841 -338.253)" fill="#870d4d"/>
      <path id="Path_738" data-name="Path 738" d="M651.881,40.084c.315-.15.629-.3.923-.417-.317.138-.623.275-.923.417m-.241.116.241-.116Zm-1.253.508h0Zm.359-.2c-.2.109-.344.192-.359.2.5-.271,1.519-.758,1.519-.758C651.506,40.133,651.123,40.316,650.745,40.51Zm-7,5.892c-.85,1.008-1.715,2.471-2.49,3.265-.349-.106.573-1.715.76-1.976a25.377,25.377,0,0,1,4.792-4.9L650.6,40.47c.406-.21-.346.25-.288.216.478-.254.951-.488,1.442-.713-.273.136-.7.369-1.005.537-.416.214-.826.439-1.243.683a5.378,5.378,0,0,1,.842-.407c.386-.143.838-.362,1.3-.585a25.216,25.216,0,0,0-2.386,1.334c.1-.06,1.077-.622,1.087-.6a2.247,2.247,0,0,0,.281-.1,25.214,25.214,0,0,1,3.157-1.442,18.229,18.229,0,0,0-2.682,1.278c.481-.19,1.079-.525,1.587-.752-.258.133-.514.27-.769.412.159-.067.478-.2.478-.2a23.6,23.6,0,0,0-5.782,3.491A26.918,26.918,0,0,0,643.743,46.4Z" transform="translate(283.123 -347.893)" fill="#870d4d"/>
      <path id="Path_739" data-name="Path 739" d="M645,46.012c-1.161,1.2-2.044,2.351-3.1,3.614-.524,0,.47-1.634.654-1.929a18.665,18.665,0,0,1,4.169-4.311,26.11,26.11,0,0,1,4.312-2.527c.038.021-.177.143-.281.207.619-.324,1.225-.609,1.867-.882-.617.282-1.2.578-1.791.907.72-.368,1.419-.684,2.17-.984a24.742,24.742,0,0,0-2.558,1.208,1.968,1.968,0,0,1,.346-.15c.832-.3,1.787-.822,2.715-1.168a24.34,24.34,0,0,0-2.467,1.153c-.3.149-.883.467-.883.467.054-.026.566-.251.566-.251.17-.071.351-.18.518-.265a24.091,24.091,0,0,1,2.892-1.231,19.856,19.856,0,0,0-3.418,1.611c.163-.04,2.145-1,2.649-1.2-.352.148-1.043.471-1.043.471.278-.105.84-.3.84-.3a22.78,22.78,0,0,0-6.289,3.772A24.4,24.4,0,0,0,645,46.012" transform="translate(283.362 -347.693)" fill="#870d4d"/>
    </g>
    <path id="Path_749" data-name="Path 749" d="M716.69,87.176v.572a7.95,7.95,0,0,1-1.417,1.479,2,2,0,0,1-1.12.5,1.011,1.011,0,0,1-.954-.676,3.455,3.455,0,0,1-.314-1.473,2.8,2.8,0,0,1,.061-.585,2.377,2.377,0,0,1,.15-.458c.058-.121.166-.308.321-.566q1.109-1.729,2.036-1.732.479,0,.478.369a1.838,1.838,0,0,1-.311.785,3.587,3.587,0,0,1-.551.761,12.239,12.239,0,0,0-.887.916.92.92,0,0,0-.209.589.6.6,0,0,0,.211.471.788.788,0,0,0,.548.187,1.587,1.587,0,0,0,.809-.27,9.338,9.338,0,0,0,1.147-.867m-.531-3.506a.571.571,0,0,1-.373-.15.473.473,0,0,1-.176-.375,1.318,1.318,0,0,1,.329-.771.9.9,0,0,1,.681-.423.543.543,0,0,1,.39.145.551.551,0,0,1,.159.42,1.263,1.263,0,0,1-.321.747A.9.9,0,0,1,716.159,83.67Zm-3.21,3.506v.5q-.681.694-1.178,1.14a6.552,6.552,0,0,1-.869.67,1.283,1.283,0,0,1-.632.227c-.409,0-.612-.241-.612-.72a3.1,3.1,0,0,1,.379-1.347,15.4,15.4,0,0,1,1.094-1.8,4.526,4.526,0,0,0-.666.45,4.36,4.36,0,0,0-.556.535q-.245.279-.409.474-.511.571-.979,1.174c-.312.4-.524.659-.633.778a.454.454,0,0,1-.312.183c-.41,0-.613-.5-.613-1.508a4.524,4.524,0,0,1,.151-1.09,5.57,5.57,0,0,1,.8-1.579q1.371-2.055,2.346-3.36a22.329,22.329,0,0,1,1.618-1.976c.427-.449.717-.667.863-.656a1.2,1.2,0,0,1,.443.109c.112.057.167.124.167.2a1.534,1.534,0,0,1-.27.649c-.179.3-.49.771-.928,1.407q-.713,1.014-1.009,1.425t-.891,1.168c-.393.505-.754.952-1.08,1.349s-.7.823-1.117,1.283V87.8q1.05-1.171,1.817-1.915a11.854,11.854,0,0,1,1.3-1.127,1.643,1.643,0,0,1,.784-.38.561.561,0,0,1,.437.28.838.838,0,0,1,.2.457.4.4,0,0,1-.078.2c-.376.449-.676.822-.9,1.116a6,6,0,0,0-.512.792,1.36,1.36,0,0,0-.179.6c0,.247.116.37.352.37A4.385,4.385,0,0,0,712.949,87.176Zm-11.258-1.821c-.27.324-.514.61-.724.859a4.921,4.921,0,0,0-.456.606.912.912,0,0,0-.135.466.84.84,0,0,0,.386.673,1.836,1.836,0,0,0,1.116.294,4.842,4.842,0,0,0,1.438-.238,4.31,4.31,0,0,0,1.283-.627,1.026,1.026,0,0,0,.521-.775.641.641,0,0,0-.385-.558,4.2,4.2,0,0,0-1.165-.388C703.05,85.552,702.421,85.449,701.691,85.355Zm.832-1.014-.4.473c.466.043.88.1,1.246.167s.7.152,1.014.236a8.238,8.238,0,0,1,.818.271q1.239.52,1.238,1.444a1.6,1.6,0,0,1-.515,1.106,5.037,5.037,0,0,1-1.346.967,9.013,9.013,0,0,1-1.7.664,6.137,6.137,0,0,1-1.587.238,3.329,3.329,0,0,1-1.857-.443,1.386,1.386,0,0,1-.666-1.212A2.663,2.663,0,0,1,699.176,87a14.783,14.783,0,0,1,1.261-1.8,2.091,2.091,0,0,1-.908-.192.5.5,0,0,1-.264-.451.348.348,0,0,1,.1-.275.625.625,0,0,1,.271-.136,6.209,6.209,0,0,1,.664-.105c.325-.043.745-.1,1.256-.158a10.023,10.023,0,0,1,1.532-1.58,2.8,2.8,0,0,1,1.452-.61,1.033,1.033,0,0,1,.136-.009c.05,0,.075.014.075.04s-.06.116-.177.253-.307.353-.569.65-.578.652-.935,1.059a19.647,19.647,0,0,0,2.406-.45,4.342,4.342,0,0,0,1.414-.609.993.993,0,0,0,.478-.785.784.784,0,0,0-.507-.759,3.9,3.9,0,0,0-1.559-.236,8.7,8.7,0,0,0-1.329.118c-.5.077-.95.166-1.356.265s-.765.206-1.08.318-.474.2-.474.247c0,.016.017.031.045.047.257.1.386.172.386.236,0,.084-.393.244-1.177.483a7,7,0,0,1-1.583.356.256.256,0,0,1-.29-.29,2.938,2.938,0,0,1,.632-1.245,3.479,3.479,0,0,1,1.147-1.15,7.565,7.565,0,0,1,.839-.273q.658-.187,1.444-.361t1.6-.29a10.332,10.332,0,0,1,1.442-.118,3.857,3.857,0,0,1,2.227.529,1.583,1.583,0,0,1,.742,1.329,1.837,1.837,0,0,1-.339,1.045,3.515,3.515,0,0,1-1.062.948,7.78,7.78,0,0,1-1.877.785A16.567,16.567,0,0,1,702.523,84.341Zm-11.2,3.143-1.394,1.184q-1,.871-1.331.87c-.2,0-.417-.233-.643-.7a2.923,2.923,0,0,1-.336-1.229,1.87,1.87,0,0,1,.136-.755,5.394,5.394,0,0,1,.474-.806,10.78,10.78,0,0,1,.917-1.13,6.6,6.6,0,0,1,.775-.717,1.064,1.064,0,0,1,.47-.254.559.559,0,0,1,.412.219.665.665,0,0,1,.2.456,1.055,1.055,0,0,1-.213.48,7.024,7.024,0,0,1-.681.835,15.609,15.609,0,0,1-1.3,1.214l-.15.43a.528.528,0,0,0-.061.22.186.186,0,0,0,.211.212,2.936,2.936,0,0,0,1.029-.556,12.893,12.893,0,0,0,1.759-1.5c.246-.247.449-.464.612-.652s.308-.365.439-.529a3.525,3.525,0,0,1,.324-.373.408.408,0,0,1,.233-.133.293.293,0,0,1,.305.166,1.142,1.142,0,0,1,.109.556,1.129,1.129,0,0,1-.187.528q-.19.315-.706,1.085T691.7,88.186q-.513.82-1.045,1.848.019-.026.481-.471c.305-.3.629-.612.968-.935s.617-.583.836-.779.5-.426.823-.686v.525q-1.058,1.137-1.916,2.156t-1.323,1.632l-.544.713q-.211.273-.379.515c-.112.16-.209.281-.284.369s-.136.129-.185.129c-.109,0-.206-.111-.294-.326a1.613,1.613,0,0,1-.128-.578.885.885,0,0,1,.085-.4A42.978,42.978,0,0,1,691.327,87.484Zm-7.034.735a10.823,10.823,0,0,0,1.155-1.39,1.822,1.822,0,0,0,.379-.877.255.255,0,0,0-.288-.291,2.005,2.005,0,0,0-1.1.649,10.006,10.006,0,0,0-1.461,1.743,4.926,4.926,0,0,1,.776-.043A1.61,1.61,0,0,1,684.294,88.22Zm-3.181-.385v-.549c.732-.795,1.36-1.543,1.892-2.244s.95-1.259,1.256-1.672a4.2,4.2,0,0,1,.816-.874,1.48,1.48,0,0,1,.886-.256q.264,0,.264.2a1.045,1.045,0,0,1-.214.487,4.52,4.52,0,0,1-.554.66,6.432,6.432,0,0,0-.872,1.1q-.428.662-.967,1.692c.281-.219.606-.483.972-.782s.669-.535.9-.707a3.671,3.671,0,0,1,.69-.4,1.693,1.693,0,0,1,.684-.15.384.384,0,0,1,.287.078.508.508,0,0,1,.065.305,2.53,2.53,0,0,1-.288,1.165,5.729,5.729,0,0,1-.832,1.181,16.992,16.992,0,0,1-1.331,1.333,1.615,1.615,0,0,0,.565.1,4.289,4.289,0,0,0,2.436-1.387v.565c-.4.353-.784.688-1.164,1a7.3,7.3,0,0,1-1.069.757,1.926,1.926,0,0,1-.923.281,1.669,1.669,0,0,1-.334-.035,3.123,3.123,0,0,1-.324-.085c-.1-.034-.229-.084-.385-.148a3.505,3.505,0,0,0-.362-.131,2.7,2.7,0,0,1-.281.061,1.294,1.294,0,0,1-.642-.22,13.772,13.772,0,0,0-.569,1.3c-.206.529-.379.954-.521,1.266a4.027,4.027,0,0,1-.564.9c-.129.131-.221.2-.274.2-.224,0-.336-.2-.336-.6a3.078,3.078,0,0,1,.209-1.076,6.2,6.2,0,0,1,.508-1.063c.2-.335.423-.674.663-1.018s.409-.6.508-.764q1.239-2.131,1.928-3.631Q682.038,86.88,681.112,87.835Zm-3.329.385a10.788,10.788,0,0,0,1.154-1.39,1.814,1.814,0,0,0,.38-.877.256.256,0,0,0-.29-.291,2.008,2.008,0,0,0-1.1.649,9.942,9.942,0,0,0-1.461,1.743,4.913,4.913,0,0,1,.776-.043A1.61,1.61,0,0,1,677.784,88.22Zm-3.183-.385v-.549c.732-.795,1.361-1.543,1.894-2.244s.95-1.259,1.256-1.672a4.2,4.2,0,0,1,.816-.874,1.472,1.472,0,0,1,.884-.256c.176,0,.265.068.265.2a1.045,1.045,0,0,1-.214.487,4.618,4.618,0,0,1-.554.66,6.432,6.432,0,0,0-.872,1.1q-.43.662-.968,1.692c.281-.219.608-.483.974-.782s.669-.535.9-.707a3.68,3.68,0,0,1,.691-.4,1.691,1.691,0,0,1,.683-.15.379.379,0,0,1,.287.078.5.5,0,0,1,.067.305,2.53,2.53,0,0,1-.288,1.165,5.842,5.842,0,0,1-.832,1.181,17.25,17.25,0,0,1-1.331,1.333,1.615,1.615,0,0,0,.565.1,4.293,4.293,0,0,0,2.436-1.387v.565c-.4.353-.785.688-1.164,1a7.376,7.376,0,0,1-1.069.757,1.93,1.93,0,0,1-.923.281,1.649,1.649,0,0,1-.334-.035,3.123,3.123,0,0,1-.324-.085c-.1-.034-.227-.084-.386-.148a3.506,3.506,0,0,0-.361-.131c-.166.04-.26.061-.281.061a1.286,1.286,0,0,1-.642-.22,13.788,13.788,0,0,0-.569,1.3c-.206.529-.38.954-.521,1.266a3.979,3.979,0,0,1-.565.9c-.128.131-.221.2-.273.2-.224,0-.336-.2-.336-.6a3.08,3.08,0,0,1,.209-1.076,6.1,6.1,0,0,1,.508-1.063q.3-.5.663-1.018c.237-.342.409-.6.508-.764q1.239-2.131,1.928-3.631Q675.528,86.88,674.6,87.835Zm-1.749-2.927a16.684,16.684,0,0,0-2.9,1.586,1.763,1.763,0,0,0-.866,1.341.887.887,0,0,0,.085.412.263.263,0,0,0,.236.16.84.84,0,0,0,.3-.109,6.124,6.124,0,0,0,1.506-1.268Q671.9,86.249,672.852,84.908Zm-3.75.864a9.517,9.517,0,0,1,2.31-1.61,4.5,4.5,0,0,1,1.73-.524.448.448,0,0,1,.308.135,1.038,1.038,0,0,1,.221.319.722.722,0,0,1,.084.265.225.225,0,0,1-.111.209,1.9,1.9,0,0,1-.385.16c.037.084.087.19.142.321s.1.24.133.319a.605.605,0,0,1,.045.214,1.643,1.643,0,0,1-.38.7c-.25.344-.43.595-.531.755a1.1,1.1,0,0,0-.152.6c0,.386.176.581.531.581a3.382,3.382,0,0,0,1.718-1.028v.48q-1.982,2.2-2.838,2.2a.482.482,0,0,1-.436-.2,1.111,1.111,0,0,1-.128-.592,5.629,5.629,0,0,1,.446-1.8c-.762.846-1.329,1.452-1.7,1.808a1.533,1.533,0,0,1-.917.537c-.115,0-.258-.1-.43-.3a2.873,2.873,0,0,1-.457-.774,2.491,2.491,0,0,1-.2-.984,2.33,2.33,0,0,1,.07-.615,1.51,1.51,0,0,1,.277-.507A6.729,6.729,0,0,1,669.1,85.772ZM659.49,82.76l-1.685.886a1.562,1.562,0,0,1-.524.2.416.416,0,0,1-.358-.153.8.8,0,0,1-.112-.474,2.8,2.8,0,0,1,.158-.852,2.047,2.047,0,0,1,.358-.71,4.146,4.146,0,0,1,.992-.647,17.2,17.2,0,0,1,1.874-.828,17.711,17.711,0,0,1,2.29-.688,9.666,9.666,0,0,1,2.176-.275,1.845,1.845,0,0,1,1.019.22q.328.219.328,1.158a2.369,2.369,0,0,1-.348,1.136,7.98,7.98,0,0,1-.839,1.211q-.49.59-1.813,2.087c.47-.074.815-.122,1.035-.139s.627-.068,1.229-.135q1.039-1.505,1.685-2.4c.427-.6.788-1.1,1.087-1.489s.474-.622.532-.68c.1-.121.193-.166.263-.136s.106.136.106.326a1.8,1.8,0,0,1-.067.525,1.563,1.563,0,0,1-.209.4c-.094.132-.143.2-.149.216-.135.224-.332.518-.586.883s-.508.724-.754,1.077-.524.775-.837,1.263a9.172,9.172,0,0,1,1.73.227l-1.41,1.912a12.225,12.225,0,0,0-1.542-.078c-.159.314-.278.561-.363.74a5.3,5.3,0,0,0-.22.507,1.2,1.2,0,0,0-.091.441,1.035,1.035,0,0,0,.075.335,1.481,1.481,0,0,1,.074.238c0,.1-.077.216-.231.332a2.5,2.5,0,0,1-.541.309,1.326,1.326,0,0,1-.481.135c-.192,0-.288-.146-.288-.44a5.681,5.681,0,0,1,.93-2.532c-.823.067-1.773.19-2.842.366-.307.41-.588.8-.839,1.163s-.454.676-.616.927a4.253,4.253,0,0,1-.351.5.333.333,0,0,1-.247.125.472.472,0,0,1-.383-.2.369.369,0,0,1-.091-.158.713.713,0,0,1-.018-.17v-.168a.621.621,0,0,1,.1-.273c.067-.119.23-.361.483-.72s.444-.627.565-.812a4.708,4.708,0,0,1-.524.024,1.289,1.289,0,0,1-.661-.15.427.427,0,0,1-.256-.366,1.287,1.287,0,0,1,.133-.538,1.438,1.438,0,0,1,.345-.477.626.626,0,0,1,.423-.193.89.89,0,0,1,.336.087l2.021-.5q1.693-1.838,2.521-2.9a3.673,3.673,0,0,0,.832-1.376.442.442,0,0,0-.094-.285.651.651,0,0,0-.263-.177,1.163,1.163,0,0,0-.388-.061,3.828,3.828,0,0,0-.819.142c-.373.094-.82.233-1.336.414s-1.163.437-1.936.761c-.575.236-.86.386-.86.447a.14.14,0,0,0,.116.142,1.613,1.613,0,0,0,.3.045c.123.011.185.03.185.057s-.031.048-.091.085S659.6,82.706,659.49,82.76Zm-10.935,5.018v-.51a8.036,8.036,0,0,0,.642-.853.844.844,0,0,1-.365-.213.535.535,0,0,1-.115-.376,1.612,1.612,0,0,1,.236-.713,4.086,4.086,0,0,1,.581-.809,1.847,1.847,0,0,1,.626-.487.491.491,0,0,1,.21-.054c.108,0,.159.048.159.15a1.485,1.485,0,0,1-.244.541,18.3,18.3,0,0,1,2.037-.253.564.564,0,0,1,.229.033.555.555,0,0,1,.219.329,1.684,1.684,0,0,1,.085.517.611.611,0,0,1-.145.359,6.957,6.957,0,0,1-.5.559,4.69,4.69,0,0,0-.7.972,1.922,1.922,0,0,0-.281.791c0,.246.152.369.454.369a3.594,3.594,0,0,0,1.661-.972v.525c-.436.456-.792.815-1.075,1.076a5.793,5.793,0,0,1-.784.625,1.237,1.237,0,0,1-.643.23.657.657,0,0,1-.547-.3,1.46,1.46,0,0,1-.22-.873,2.117,2.117,0,0,1,.17-.768,5.43,5.43,0,0,1,.505-.938,11.779,11.779,0,0,1,.749-1.008c-.148.031-.311.062-.5.1l-.576.106c-.2.035-.362.065-.471.087A5.654,5.654,0,0,1,648.556,87.778Zm-2.407-1.136c-.755,1.005-1.333,1.716-1.726,2.143s-.717.635-.968.635a.776.776,0,0,1-.548-.247,1.642,1.642,0,0,1-.388-.667,2.906,2.906,0,0,1-.136-.9,2.466,2.466,0,0,1,.058-.565,2.258,2.258,0,0,1,.221-.551,5.064,5.064,0,0,1,.436-.656c.18-.236.4-.5.661-.8.158-.182.288-.336.4-.463a.9.9,0,0,1,.312-.254,1.307,1.307,0,0,1,.5-.068,1.651,1.651,0,0,1,.478.068c.153.045.227.091.227.136a1.268,1.268,0,0,1-.23.511,6.016,6.016,0,0,1-.745.9,10.268,10.268,0,0,1-1.185,1.039,2.6,2.6,0,0,0-.149.707c0,.226.085.338.26.338a.7.7,0,0,0,.312-.16c.145-.108.393-.314.741-.619s.657-.578.933-.811a5.588,5.588,0,0,0,.711-.8c.267-.351.487-.619.653-.795q.581-.611.791-.8a.643.643,0,0,1,.409-.185.268.268,0,0,1,.254.118,1.123,1.123,0,0,1,.068.48.9.9,0,0,1-.033.265,1.28,1.28,0,0,1-.129.261c-.065.108-.2.307-.395.592s-.434.63-.706,1.022a3.952,3.952,0,0,0-.383.686,1.585,1.585,0,0,0-.166.562c0,.27.108.407.321.407a1.222,1.222,0,0,0,.62-.22c.233-.148.593-.41,1.08-.794v.525c-.612.565-1.063.978-1.356,1.232a5.6,5.6,0,0,1-.759.581,1.181,1.181,0,0,1-.612.2c-.439,0-.657-.263-.657-.785a2.385,2.385,0,0,1,.195-.806Q645.708,87.6,646.148,86.643Zm-8.695-2.009,2.538-.048c.3-.507.537-.918.724-1.231s.389-.654.609-1.023.414-.681.573-.937.336-.548.529-.872c-.378.236-.759.5-1.153.785s-.832.635-1.323,1.039-.926.782-1.307,1.131S637.865,84.208,637.454,84.634Zm1.479,1.781c-.626.018-1.086.028-1.377.028q-.675,0-1.867-.028c-.166.182-.369.4-.609.644s-.469.48-.681.691-.4.395-.554.544-.281.273-.38.373q-.869.845-1.131,1.106a4.866,4.866,0,0,1-.552.466.931.931,0,0,1-.532.209c-.182,0-.274-.085-.274-.251a1.812,1.812,0,0,1,.392-.85,5.563,5.563,0,0,1,.884-1.009,1.4,1.4,0,0,1,.808-.441.6.6,0,0,1,.243.079l1.486-1.593a6.752,6.752,0,0,0-.735-.051,2.367,2.367,0,0,1-.612-.067.249.249,0,0,1-.155-.268c0-.224.24-.575.72-1.056a1.9,1.9,0,0,1,.738-.512,5.308,5.308,0,0,1,1.314-.118,3.408,3.408,0,0,0-.809.185.384.384,0,0,0-.263.319h.417c.128,0,.3,0,.5,0s.358-.009.457-.014q1.288-1.254,2.334-2.182a27.239,27.239,0,0,1,2.213-1.766,21.982,21.982,0,0,1,2.48-1.535,1.145,1.145,0,0,1,.258.707,1.611,1.611,0,0,1-.2.706q-.2.4-.845,1.5t-1.313,2.341c.148,0,.267,0,.363.006l.311.01a4.824,4.824,0,0,1,.545.017c.064.01.1.061.1.158a.521.521,0,0,1-.121.221c-.079.108-.224.284-.429.534s-.4.5-.592.758l-1.153.094a10.276,10.276,0,0,0-.917,1.946c0,.214.112.322.336.322a6.611,6.611,0,0,0,1.364-.691l-.064.415c-.429.325-.759.582-1,.767s-.444.339-.62.463a2.481,2.481,0,0,1-.476.274,1.111,1.111,0,0,1-.436.091.744.744,0,0,1-.508-.238.888.888,0,0,1-.251-.68,1.537,1.537,0,0,1,.133-.514c.088-.223.185-.434.285-.64S638.521,87.189,638.933,86.415Zm-10.874.761v.572a8,8,0,0,1-1.417,1.479,2,2,0,0,1-1.12.5,1.014,1.014,0,0,1-.955-.676,3.453,3.453,0,0,1-.312-1.473,2.8,2.8,0,0,1,.061-.585,2.38,2.38,0,0,1,.149-.458c.06-.121.166-.308.322-.566q1.109-1.729,2.034-1.732c.321,0,.478.123.478.369a1.85,1.85,0,0,1-.31.785,3.631,3.631,0,0,1-.551.761,12.059,12.059,0,0,0-.889.916.92.92,0,0,0-.209.589.6.6,0,0,0,.212.471.79.79,0,0,0,.548.187,1.587,1.587,0,0,0,.81-.27A9.558,9.558,0,0,0,628.059,87.176Zm-.532-3.506a.571.571,0,0,1-.372-.15.469.469,0,0,1-.176-.375,1.315,1.315,0,0,1,.328-.771.9.9,0,0,1,.683-.423.543.543,0,0,1,.39.145.55.55,0,0,1,.158.42,1.254,1.254,0,0,1-.321.747A.9.9,0,0,1,627.527,83.67Zm-3.208,3.506v.5q-.681.694-1.18,1.14a6.458,6.458,0,0,1-.869.67,1.283,1.283,0,0,1-.63.227c-.409,0-.613-.241-.613-.72a3.1,3.1,0,0,1,.38-1.347,15.562,15.562,0,0,1,1.093-1.8,4.68,4.68,0,0,0-.666.45,4.549,4.549,0,0,0-.556.535c-.162.186-.3.344-.409.474q-.509.571-.978,1.174c-.312.4-.524.659-.635.778a.451.451,0,0,1-.312.183c-.409,0-.612-.5-.612-1.508a4.588,4.588,0,0,1,.149-1.09,5.582,5.582,0,0,1,.8-1.579q1.371-2.055,2.346-3.36a22.08,22.08,0,0,1,1.618-1.976q.641-.673.863-.656a1.2,1.2,0,0,1,.442.109c.112.057.169.124.169.2a1.543,1.543,0,0,1-.271.649c-.179.3-.488.771-.928,1.407q-.713,1.014-1.009,1.425t-.89,1.168c-.393.505-.755.952-1.082,1.349s-.7.823-1.117,1.283V87.8q1.052-1.171,1.818-1.915a11.872,11.872,0,0,1,1.3-1.127,1.649,1.649,0,0,1,.784-.38.563.563,0,0,1,.439.28.834.834,0,0,1,.2.457.41.41,0,0,1-.077.2c-.378.449-.677.822-.9,1.116a6.027,6.027,0,0,0-.514.792,1.379,1.379,0,0,0-.179.6q0,.37.353.37A4.408,4.408,0,0,0,624.319,87.176ZM613.06,85.355c-.271.324-.514.61-.725.859a4.75,4.75,0,0,0-.454.606.914.914,0,0,0-.136.466.838.838,0,0,0,.388.673,1.833,1.833,0,0,0,1.116.294,4.848,4.848,0,0,0,1.438-.238,4.31,4.31,0,0,0,1.283-.627,1.026,1.026,0,0,0,.521-.775.643.643,0,0,0-.385-.558,4.192,4.192,0,0,0-1.167-.388C614.417,85.552,613.79,85.449,613.06,85.355Zm.83-1.014-.4.473q.7.064,1.245.167c.366.071.7.152,1.013.236a8,8,0,0,1,.818.271q1.239.52,1.239,1.444a1.6,1.6,0,0,1-.517,1.106,5.028,5.028,0,0,1-1.344.967,9.049,9.049,0,0,1-1.7.664,6.155,6.155,0,0,1-1.588.238,3.319,3.319,0,0,1-1.855-.443,1.386,1.386,0,0,1-.666-1.212A2.674,2.674,0,0,1,610.544,87a14.657,14.657,0,0,1,1.262-1.8,2.091,2.091,0,0,1-.909-.192.5.5,0,0,1-.265-.451.353.353,0,0,1,.1-.275.631.631,0,0,1,.272-.136,6.1,6.1,0,0,1,.663-.105c.326-.043.747-.1,1.256-.158a9.964,9.964,0,0,1,1.533-1.58,2.8,2.8,0,0,1,1.452-.61,1.011,1.011,0,0,1,.135-.009c.051,0,.075.014.075.04s-.058.116-.176.253-.308.353-.569.65-.578.652-.937,1.059a19.539,19.539,0,0,0,2.406-.45,4.352,4.352,0,0,0,1.415-.609.992.992,0,0,0,.478-.785.783.783,0,0,0-.508-.759,3.9,3.9,0,0,0-1.559-.236,8.712,8.712,0,0,0-1.329.118c-.5.077-.95.166-1.356.265s-.764.206-1.08.318-.473.2-.473.247c0,.016.016.031.045.047.257.1.385.172.385.236,0,.084-.393.244-1.177.483a7,7,0,0,1-1.583.356.255.255,0,0,1-.288-.29,2.946,2.946,0,0,1,.63-1.245,3.481,3.481,0,0,1,1.148-1.15,7.458,7.458,0,0,1,.839-.273q.658-.187,1.444-.361c.524-.115,1.059-.212,1.6-.29a10.316,10.316,0,0,1,1.441-.118,3.851,3.851,0,0,1,2.227.529,1.584,1.584,0,0,1,.744,1.329,1.836,1.836,0,0,1-.339,1.045,3.533,3.533,0,0,1-1.062.948,7.78,7.78,0,0,1-1.877.785A16.584,16.584,0,0,1,613.891,84.341ZM602.7,87.484l-1.4,1.184q-.994.871-1.331.87c-.2,0-.417-.233-.642-.7a2.924,2.924,0,0,1-.336-1.229,1.846,1.846,0,0,1,.136-.755,5.363,5.363,0,0,1,.473-.806,11.151,11.151,0,0,1,.917-1.13,6.6,6.6,0,0,1,.775-.717,1.066,1.066,0,0,1,.471-.254.559.559,0,0,1,.412.219.671.671,0,0,1,.2.456,1.071,1.071,0,0,1-.213.48,7.164,7.164,0,0,1-.681.835,15.425,15.425,0,0,1-1.3,1.214l-.151.43a.529.529,0,0,0-.061.22.186.186,0,0,0,.211.212,2.922,2.922,0,0,0,1.029-.556,12.806,12.806,0,0,0,1.759-1.5c.247-.247.45-.464.613-.652s.307-.365.439-.529a3.363,3.363,0,0,1,.324-.373.409.409,0,0,1,.231-.133.291.291,0,0,1,.305.166,1.066,1.066,0,0,1-.078,1.085q-.19.315-.706,1.085t-1.029,1.586c-.342.547-.693,1.161-1.046,1.848q.021-.026.481-.471c.305-.3.629-.612.968-.935s.617-.583.838-.779.494-.426.823-.686v.525q-1.058,1.137-1.916,2.156t-1.323,1.632l-.544.713q-.213.273-.38.515c-.112.16-.207.281-.282.369s-.136.129-.185.129c-.111,0-.206-.111-.294-.326a1.618,1.618,0,0,1-.129-.578.9.9,0,0,1,.085-.4A42.83,42.83,0,0,1,602.7,87.484Zm-3.61-.308v.5q-.681.694-1.178,1.14a6.552,6.552,0,0,1-.869.67,1.286,1.286,0,0,1-.632.227c-.409,0-.612-.241-.612-.72a3.116,3.116,0,0,1,.379-1.347,15.606,15.606,0,0,1,1.094-1.8,4.529,4.529,0,0,0-.666.45,4.449,4.449,0,0,0-.556.535q-.245.279-.409.474-.509.571-.979,1.174c-.312.4-.524.659-.633.778a.454.454,0,0,1-.312.183c-.41,0-.613-.5-.613-1.508a4.521,4.521,0,0,1,.15-1.09,5.61,5.61,0,0,1,.8-1.579q1.371-2.055,2.348-3.36a22.384,22.384,0,0,1,1.617-1.976q.643-.673.865-.656a1.189,1.189,0,0,1,.442.109c.112.057.167.124.167.2a1.534,1.534,0,0,1-.27.649c-.18.3-.49.771-.927,1.407q-.715,1.014-1.012,1.425t-.89,1.168c-.393.505-.754.952-1.08,1.349s-.7.823-1.117,1.283V87.8q1.05-1.171,1.818-1.915a11.737,11.737,0,0,1,1.3-1.127,1.643,1.643,0,0,1,.784-.38.565.565,0,0,1,.439.28.84.84,0,0,1,.2.457.4.4,0,0,1-.077.2c-.376.449-.676.822-.9,1.116a6,6,0,0,0-.512.792,1.363,1.363,0,0,0-.18.6q0,.37.353.37A4.386,4.386,0,0,0,599.087,87.176Zm-7.123-4.071h.338a4.326,4.326,0,0,1,.752-1.055,1.1,1.1,0,0,1,.767-.311c.288,0,.433.067.433.2a1.582,1.582,0,0,1-.336.511,6.518,6.518,0,0,0-.511.7l.474.054c.138.016.247.03.325.041a12.249,12.249,0,0,1-1.12,1.7l-.369-.028c-.1-.009-.2-.016-.3-.023s-.224-.017-.372-.027c-.28.454-.518.862-.708,1.219a6.92,6.92,0,0,0-.437.984,2.637,2.637,0,0,0-.153.849c0,.362.145.541.43.541a1.573,1.573,0,0,0,.782-.318c.319-.212.747-.535,1.288-.975v.525q-2.117,2.3-3.126,2.3a.676.676,0,0,1-.566-.275,1.1,1.1,0,0,1-.217-.7,2.5,2.5,0,0,1,.121-.691c.082-.264.227-.669.436-1.207-.072.064-.142.122-.209.185l-.179.163c-.055.05-.115.105-.176.159s-.126.111-.187.167V87.24a12.232,12.232,0,0,0,1.99-2.426c-.082-.006-.153-.009-.22-.011s-.151,0-.244,0a2.694,2.694,0,0,0-.688.062c-.062.016-.121.031-.177.05a.376.376,0,0,1-.112.028c-.021,0-.033-.017-.033-.047a1.734,1.734,0,0,1,.322-.776,2.838,2.838,0,0,1,.488-.65,1.19,1.19,0,0,1,.565-.287A4.408,4.408,0,0,1,591.964,83.105Zm-5.018,2.574a8.131,8.131,0,0,0,.786-.91,11.383,11.383,0,0,0,.717-1.09,9.132,9.132,0,0,0,.527-1.045,2.018,2.018,0,0,0,.193-.7c0-.121-.044-.18-.126-.18a.466.466,0,0,0-.179.085,5.132,5.132,0,0,0-1.072,1.536A9.1,9.1,0,0,0,586.945,85.679Zm2.341,1.411v.582q-1.637,2.172-2.663,2.172a.97.97,0,0,1-.873-.609,3.468,3.468,0,0,1-.318-1.6,6.034,6.034,0,0,1,.378-1.9,13.632,13.632,0,0,1,1.005-2.236,14.114,14.114,0,0,1,1.307-1.976,4.937,4.937,0,0,1,1.258-1.181.8.8,0,0,1,.368-.142.215.215,0,0,1,.22.143,1.635,1.635,0,0,1,.053.5,5.809,5.809,0,0,1-.884,2.681,16.117,16.117,0,0,1-2.466,3.242,3.788,3.788,0,0,0-.077.626,1.427,1.427,0,0,0,.214.818.688.688,0,0,0,.6.312.76.76,0,0,0,.423-.152,4.171,4.171,0,0,0,.478-.38ZM583.7,84.908a16.649,16.649,0,0,0-2.9,1.586,1.763,1.763,0,0,0-.866,1.341.887.887,0,0,0,.085.412.264.264,0,0,0,.236.16.853.853,0,0,0,.305-.109,6.145,6.145,0,0,0,1.5-1.268Q582.745,86.249,583.7,84.908Zm-3.75.864a9.464,9.464,0,0,1,2.31-1.61,4.49,4.49,0,0,1,1.729-.524.448.448,0,0,1,.308.135,1.017,1.017,0,0,1,.221.319.722.722,0,0,1,.084.265.222.222,0,0,1-.111.209,1.9,1.9,0,0,1-.385.16c.038.084.085.19.142.321s.1.24.135.319a.6.6,0,0,1,.044.214,1.65,1.65,0,0,1-.379.7c-.251.344-.43.595-.532.755a1.1,1.1,0,0,0-.152.6c0,.386.176.581.531.581a3.376,3.376,0,0,0,1.718-1.028v.48q-1.982,2.2-2.838,2.2a.484.484,0,0,1-.436-.2,1.111,1.111,0,0,1-.128-.592,5.629,5.629,0,0,1,.446-1.8c-.761.846-1.329,1.452-1.7,1.808a1.529,1.529,0,0,1-.917.537c-.115,0-.26-.1-.43-.3a2.91,2.91,0,0,1-.457-.774,2.515,2.515,0,0,1-.2-.984,2.329,2.329,0,0,1,.071-.615,1.483,1.483,0,0,1,.275-.507A6.951,6.951,0,0,1,579.95,85.772Zm-4.27,1.175a4.358,4.358,0,0,0,1.205-.683,3.469,3.469,0,0,0,.741-.779,1.24,1.24,0,0,0,.237-.545c0-.122-.052-.18-.162-.18a1.093,1.093,0,0,0-.461.18,3.754,3.754,0,0,0-.642.47,3.515,3.515,0,0,0-.582.683A2.227,2.227,0,0,0,575.68,86.948Zm-.078.511v.2a1.051,1.051,0,0,0,.227.721.751.751,0,0,0,.593.26,1.974,1.974,0,0,0,.8-.18,4.309,4.309,0,0,0,.816-.48c.273-.2.6-.466,1-.8v.478a9.864,9.864,0,0,1-1.658,1.637,2.661,2.661,0,0,1-1.576.568,1.31,1.31,0,0,1-1.1-.541,2.438,2.438,0,0,1-.406-1.483,2.987,2.987,0,0,1,.382-1.495,5.685,5.685,0,0,1,1.255-1.414,4.8,4.8,0,0,1,1.181-.769,2.635,2.635,0,0,1,1.049-.26.908.908,0,0,1,.582.17.6.6,0,0,1,.217.505,1.622,1.622,0,0,1-.369.982,4.245,4.245,0,0,1-1.123.975A11.648,11.648,0,0,1,575.6,87.459Zm-9.949-4.7-1.684.886a1.584,1.584,0,0,1-.524.2.421.421,0,0,1-.359-.153.8.8,0,0,1-.112-.474,2.841,2.841,0,0,1,.158-.852,2.073,2.073,0,0,1,.358-.71,4.138,4.138,0,0,1,.994-.647,17.079,17.079,0,0,1,1.874-.828,17.757,17.757,0,0,1,2.288-.688,9.676,9.676,0,0,1,2.176-.275,1.845,1.845,0,0,1,1.019.22c.219.146.329.532.329,1.158a2.369,2.369,0,0,1-.348,1.136,8,8,0,0,1-.84,1.211q-.488.59-1.813,2.087c.471-.074.816-.122,1.035-.139s.629-.068,1.231-.135q1.037-1.505,1.683-2.4c.429-.6.789-1.1,1.089-1.489s.473-.622.532-.68c.1-.121.192-.166.261-.136s.107.136.107.326a1.853,1.853,0,0,1-.065.525,1.569,1.569,0,0,1-.21.4c-.092.132-.143.2-.149.216-.133.224-.331.518-.585.883s-.508.724-.754,1.077-.525.775-.837,1.263a9.187,9.187,0,0,1,1.73.227l-1.41,1.912a12.251,12.251,0,0,0-1.543-.078q-.236.471-.363.74c-.085.177-.16.346-.22.507a1.227,1.227,0,0,0-.091.441,1.073,1.073,0,0,0,.075.335,1.569,1.569,0,0,1,.075.238c0,.1-.078.216-.233.332a2.484,2.484,0,0,1-.539.309,1.34,1.34,0,0,1-.481.135c-.193,0-.29-.146-.29-.44a5.7,5.7,0,0,1,.93-2.532c-.822.067-1.772.19-2.842.366-.307.41-.588.8-.839,1.163s-.454.676-.615.927a4.262,4.262,0,0,1-.351.5.336.336,0,0,1-.248.125.47.47,0,0,1-.382-.2.343.343,0,0,1-.091-.158.649.649,0,0,1-.02-.17v-.168a.621.621,0,0,1,.1-.273c.067-.119.23-.361.484-.72s.443-.627.564-.812a4.691,4.691,0,0,1-.524.024,1.287,1.287,0,0,1-.66-.15.426.426,0,0,1-.257-.366,1.269,1.269,0,0,1,.135-.538,1.455,1.455,0,0,1,.344-.477.631.631,0,0,1,.423-.193.883.883,0,0,1,.336.087l2.021-.5q1.693-1.838,2.521-2.9a3.673,3.673,0,0,0,.832-1.376.434.434,0,0,0-.094-.285.636.636,0,0,0-.261-.177,1.177,1.177,0,0,0-.389-.061,3.8,3.8,0,0,0-.818.142q-.562.141-1.336.414c-.517.183-1.164.437-1.936.761-.576.236-.862.386-.862.447a.14.14,0,0,0,.118.142,1.576,1.576,0,0,0,.3.045c.124.011.185.03.185.057s-.033.048-.091.085S565.758,82.706,565.653,82.76Z" transform="translate(250.316 -331.197)" fill="#870d4d"/>
  </g>
</svg>
