<svg xmlns="http://www.w3.org/2000/svg" width="169.291" height="126.184" viewBox="0 0 169.291 126.184">
  <g id="Group_161" data-name="Group 161" transform="translate(-3207.75 -2445.516)">
    <path id="Path_931" data-name="Path 931" d="M1006.383,1844.487a60.357,60.357,0,1,0-60.358-60.357,60.358,60.358,0,0,0,60.358,60.357" transform="translate(2310.3 721.744)" fill="#ffed59" fill-rule="evenodd"/>
    <text id="Citrus" transform="translate(3283.529 2514.367)" font-size="25" font-family="Lato-Regular, Lato"><tspan x="0" y="0">Citrus</tspan></text>
    <path id="Path_899" data-name="Path 899" d="M922.748,1772.956c-.3.177-.177-.009-.39.39.009.926-.033.318.742.221a3.612,3.612,0,0,1,1.668-.006l.065,1.207c-1.146.342-2.4.514-2.743,1.156-.579,1.1.142,1.437-1.021,2.835-4.846,5.824-6.646,13.094-6.348,20.98.194,5.161,3.333,12.825,6.58,16.671a18.57,18.57,0,0,1,1.716,2.024c.828-.088-.175.336,1.144-.071,1.106-.342.9-.39.974-1.275a33.936,33.936,0,0,1-4.06-5.011c-1.79-3.166,1.39-4.32,3.449-5.155,4.1-1.659,8.818-3.73,12.938-5.593.243-.6.231-.561,1.282-.916a5.853,5.853,0,0,0,1.444-.653c1.023-.644.312-.532,1.005-.38,2.7.589,2.373-.169,3.053-1.069l3.282-3.051c-.146-1.086-.41-1.449.342-2.195.524-1.99,1.863-4.386,2.748-6.657.6-1.537,5.35-12.435,5.883-13.033,2.253-2.542,4.805,1.151,6.239,1.482,2.26.305.951,2.061,3.559,1.573.872-1.336-.319-1.553-.63-1.78-.036-.027-.094-.065-.129-.092-.684-.524-.815-.534-1.194-1.133-4.589-4.342-12.583-6.767-19.411-6.68-6.77.084-10.083,1.38-15.392,4.159-4.885,2.558-1.4,3.229-6.8,2.05m19.335-3.731c2.266-.41,7.568-.3,9.69.423,1.516.512,2.415,1.036,2.348,2.958-.044,1.211-3.719,9.687-4.368,11.565-.835,2.415-1.948,4.893-2.928,7.352-1.914,4.8-3.5-1.025-4.25-2.873-1.128-2.775-2.021-4.973-3.019-7.529-1.009-2.586-2.062-5.048-3-7.539C934.9,1769.193,940.833,1769.452,942.084,1769.225Zm-10.889,3.526c3.3-.977,4.222,3.273,5.156,5.558,1.041,2.537,2.315,5.106,3.366,7.631.535,1.288,3.222,7.17,3.031,7.986-.407,1.736-2.805.216-3.79-.2-1.472-.616-2.527-1.01-3.978-1.6l-11.539-5c-1.265-.529-2.637-1.059-2.794-2.775-.2-2.183,2.907-5.251,4.425-6.655.677-.626.592-.822,1.353-1.515C927.423,1775.274,930.141,1773.062,931.194,1772.751Zm-11.964,15.88c1.624-.925,6.5,1.611,7.961,2.179,2.392.93,5.16,1.969,7.59,2.988,3.034,1.275,7.13,2.165,6.4,3.827-.488,1.107-12.678,5.608-14.58,6.328-2.52.954-6.239,3.1-7.827,1.773-2.186-1.833-1.855-10.662-1.324-13.816C917.766,1790.022,917.893,1789.391,919.231,1788.631Z" transform="translate(2297.154 739.772)" fill="#fceba8" fill-rule="evenodd"/>
    <path id="Path_900" data-name="Path 900" d="M960.279,1772.884c.3.487,0,.094.46.6a6.49,6.49,0,0,0,.505.47c.816.707,2.212,1.732,2.538,2.6a2.232,2.232,0,0,1,.727.6l1.691,2.16c3.976,4.866-2.145,5.978-5.241,7.411-2.075.961-4.727,2.209-7.01,3.041-1.571.573-5.961,2.829-7.218,2.823-.312.274-.035.21-.615.23s-.122.07-.626-.206l-.081-1.519c-.752.745-.488,1.109-.342,2.195l-3.282,3.051c-.68.9-.358,1.658-3.053,1.069-.693-.152.018-.264-1.005.38a5.853,5.853,0,0,1-1.444.653c-1.05.355-1.039.318-1.282.916,1.695-.505,3.616-1.894,5.191-1.228.392,1.235.2,1.584-.6,2.257.141.8-5.186,12.627-5.9,14.291-.958,2.24-1.527,5.857-4.831,5.143-1.329-.288-5.275-3.574-5.671-4.349a3.2,3.2,0,0,1-.519-.355c-.077.885.132.933-.974,1.275-1.319.407-.317-.017-1.144.071l.778.691c1.37.942,1.359,1.332,4.26,3.268.644.43,1.52,1.022,2.307,1.5a27.475,27.475,0,0,0,8.125,3.174,29.377,29.377,0,0,0,6.929.656c5.223-.152,8.72-.808,12.536-2.713,10.479-5.232,17.731-14.446,17.755-27.679.011-5.515-.931-8.3-2.559-12.564-1.523-4-5.847-8.556-5.99-8.834-1.236-1.7,1.014-.1-1.987-1.962l-.825-.545c.379.6.51.609,1.194,1.133.035.027.094.065.129.092.311.227,1.5.445.63,1.78-2.608.488-1.3-1.268-3.559-1.573m10.79,21.994a32.152,32.152,0,0,1-.366,4.892c-.538,3.816-1.25,5.431-5.391,3.733-3.839-1.574-11.494-4.679-15.171-6-6.994-2.511-2-3.623,3.177-5.688,2.48-.99,4.88-1.861,7.4-2.936,6.5-2.777,9.007-4.178,9.9,1.094A27.336,27.336,0,0,1,971.069,1794.878Zm-14.7,6.729c.327.136.565.269.843.385,1.1.461,1.116.31,1.566,1.041.865.055,4.714,1.853,5.851,2.341,1.963.842,4.016,2.2,2.315,4.852-1.556,2.43-5.328,6.895-8.388,8.418a3.437,3.437,0,0,1-3.31,1.192c-1.165-.284-1.693-1.119-2.193-2.371-.534-1.339-2.531-5.211-2.564-6.474-.781-.73-.975-1.871-1.56-3.13-.992-2.139-4.015-8.133-3.435-9.952Zm-14.137,21.9c-11.441,0-8.462-3.67-5.936-10.072.994-2.511,1.9-5.112,3.006-7.6.467-1.046,1.093-2.569,1.5-3.725,2.324-6.552,3.766-.572,5.624,4.2.943,2.42,2.067,4.739,2.96,7.3,1,2.863,2.913,5.653,1.938,7.854C950.421,1823.526,944.412,1823.509,942.234,1823.509Z" transform="translate(2299.615 741.747)" fill="#fae887" fill-rule="evenodd"/>
    <path id="Path_901" data-name="Path 901" d="M965.315,1774.15c.143.278,4.467,4.838,5.99,8.834,1.628,4.267,2.571,7.049,2.559,12.564-.024,13.233-7.276,22.447-17.755,27.679-3.816,1.905-7.313,2.561-12.536,2.713a29.377,29.377,0,0,1-6.929-.656,27.475,27.475,0,0,1-8.125-3.174c-.786-.479-1.662-1.071-2.307-1.5-2.9-1.936-2.89-2.325-4.26-3.268-1.56.15-.771,1.86-2.87.923l1.205.883a4.522,4.522,0,0,0,1.031,1.258l.978.73c1.093.76.321-.088,1.96,1.374.143.128.677.559.686.566l4.1,2.393c1.485.723,2.124.542,2.331,2.358a5.215,5.215,0,0,0,1.562.592l-.126-1.5,12.214,1.786c3.289.125,10.59-2.011,13.758-3.829.207-.119.38-.229.609-.351a25.414,25.414,0,0,0,5.66-3.909c3.58-3.2,2.356-1.951,5.072-5.474,2.848-3.7,1.7-2.831,3.337-5.532a34.446,34.446,0,0,0,2.933-9.267,51.623,51.623,0,0,0-.089-9.776,31.248,31.248,0,0,0-3.547-10.547c-1.762-3.574-2.216-3.536-3.905-5.951l-1.31-1.8c-.264-.673-.193-.525-.043-.725-1.283-.028-.836.156-1.51-.547l.714,1.221c-.668.7-1.225.9-1.383,1.933" transform="translate(2298.997 741.555)" fill="#facc36" fill-rule="evenodd"/>
    <path id="Path_902" data-name="Path 902" d="M935.708,1768.562c-1.251.227-7.186-.032-5.531,4.357.94,2.491,1.993,4.953,3,7.539,1,2.556,1.891,4.754,3.019,7.529.751,1.848,2.337,7.67,4.25,2.873.981-2.458,2.094-4.937,2.928-7.352.649-1.878,4.324-10.354,4.368-11.565.067-1.922-.832-2.446-2.348-2.958-2.122-.718-7.424-.833-9.69-.423" transform="translate(2303.53 740.435)" fill="#fccc1c" fill-rule="evenodd"/>
    <path id="Path_903" data-name="Path 903" d="M918.532,1782.222c-1.337.76-1.465,1.391-1.783,3.279-.531,3.154-.862,11.984,1.324,13.816,1.589,1.332,5.308-.819,7.827-1.773,1.9-.72,14.092-5.221,14.58-6.328.732-1.662-3.364-2.552-6.4-3.827-2.43-1.019-5.2-2.058-7.59-2.988-1.461-.568-6.337-3.1-7.961-2.179" transform="translate(2297.853 746.181)" fill="#fccc1c" fill-rule="evenodd"/>
    <path id="Path_904" data-name="Path 904" d="M938.271,1815.3c2.177,0,8.186.017,9.094-2.039.975-2.2-.94-4.991-1.938-7.854-.893-2.558-2.017-4.876-2.96-7.3-1.858-4.777-3.3-10.757-5.624-4.2-.409,1.156-1.035,2.679-1.5,3.725-1.109,2.486-2.013,5.086-3.006,7.6-2.525,6.4-5.505,10.072,5.936,10.072" transform="translate(2303.578 749.954)" fill="#fab30d" fill-rule="evenodd"/>
    <path id="Path_905" data-name="Path 905" d="M929.437,1771.018c-1.053.311-3.772,2.523-4.771,3.434-.761.693-.676.889-1.353,1.515-1.517,1.4-4.628,4.472-4.425,6.655.156,1.716,1.529,2.246,2.794,2.775l11.539,5c1.451.588,2.505.981,3.978,1.6.985.414,3.383,1.935,3.79.2.192-.816-2.5-6.7-3.031-7.986-1.05-2.525-2.325-5.094-3.366-7.631-.934-2.284-1.852-6.534-5.156-5.558" transform="translate(2298.911 741.505)" fill="#facc1a" fill-rule="evenodd"/>
    <path id="Path_932" data-name="Path 932" d="M963.344,1790.458a27.336,27.336,0,0,0-.45-4.9c-.9-5.272-3.4-3.871-9.9-1.094-2.518,1.075-4.919,1.946-7.4,2.936-5.176,2.065-10.171,3.177-3.177,5.688,3.677,1.32,11.332,4.425,15.171,6,4.141,1.7,4.853.082,5.391-3.733a32.152,32.152,0,0,0,.366-4.892" transform="translate(2307.34 746.167)" fill="#fab30d" fill-rule="evenodd"/>
    <path id="Path_906" data-name="Path 906" d="M914.876,1783.712c-.562,2.652-2.352,5.1-2.883,10.763-.737,7.887.676,15.358,4.677,21.824,1.336,2.159,4.321,6.538,6.191,7.478-.706-1.156-.369-.214-.508-1.176.6-.756-.158-.288.988-.407l-1.205-.883c-.6-.975-2.94-3.271-3.633-4.661-2.009-4.029-3.868-6.679-4.717-11.866-.463-2.822-1.018-8.526-.284-11.326,1.235-4.715,2.024-8.57,4.924-12.767.139-.2.216-.358.375-.582,1.1-1.542,3.207-4.727,4.767-5.5.213-.4.089-.213.39-.39.038-.064.091-.142.124-.186s.085-.128.125-.177l.938-.818c2.2-1.471,2.775-2.118,5.829-4.01a13.452,13.452,0,0,1,2.69-1.156c8.7-3.329,17.169-3.7,25.857.082l6.4,3.444c.505.369.453.5.989.908a23.431,23.431,0,0,1,2.128,1.736c.674.7.227.518,1.51.547l.412-.4c-.041-.055-.1-.126-.128-.165l-1.3-1.452a34.507,34.507,0,0,0-11.843-6.9c-11.536-4.094-23.777-1.508-33.332,6.1-6.568,5.228-8.706,11.43-9.475,11.947" transform="translate(2295.944 738.509)" fill="#fac926" fill-rule="evenodd"/>
    <path id="Path_907" data-name="Path 907" d="M928.877,1828.375c.737.718,2.583.469,3.516,1.286.758-.166,5.667.463,7.365.439a32.623,32.623,0,0,0,13.291-2.787,30.145,30.145,0,0,0,2.808-1.324,21.291,21.291,0,0,1,2.737-1.5l.66-.6a30.284,30.284,0,0,0,4.707-3.948c9.908-10.053,12.608-23.7,7.755-37.2a34.987,34.987,0,0,0-3.383-6.459,26.986,26.986,0,0,0-2.151-2.89c-.459-.539-.7-.869-1.09-1.31-.683-.777-.72-.877-1.242-.99l-.412.4c-.15.2-.221.052.043.725l1.31,1.8c1.689,2.415,2.143,2.376,3.905,5.951a31.248,31.248,0,0,1,3.547,10.547,51.623,51.623,0,0,1,.089,9.776,34.446,34.446,0,0,1-2.933,9.267c-1.635,2.7-.49,1.837-3.337,5.532-2.716,3.523-1.492,2.277-5.072,5.474a25.414,25.414,0,0,1-5.66,3.909c-.229.122-.4.231-.609.351-3.168,1.817-10.469,3.954-13.758,3.829l-12.214-1.786Z" transform="translate(2303.052 741.599)" fill="#f7b51a" fill-rule="evenodd"/>
    <path id="Path_908" data-name="Path 908" d="M921.74,1818.1c2.1.937,1.31-.772,2.87-.923l-.778-.691a18.57,18.57,0,0,0-1.716-2.024c-3.247-3.845-6.385-11.51-6.58-16.671-.3-7.887,1.5-15.156,6.348-20.98,1.163-1.4.441-1.739,1.021-2.835.341-.642,1.6-.814,2.743-1.156l-.065-1.207a3.612,3.612,0,0,0-1.668.006c-.775.1-.734.7-.742-.221-1.56.773-3.664,3.959-4.767,5.5-.159.224-.236.378-.375.582-2.9,4.2-3.689,8.052-4.924,12.767-.734,2.8-.179,8.5.284,11.326.849,5.187,2.708,7.837,4.717,11.866.693,1.39,3.036,3.685,3.633,4.661" transform="translate(2296.34 741.723)" fill="#fad969" fill-rule="evenodd"/>
    <path id="Path_933" data-name="Path 933" d="M938.065,1791.369l.081,1.519c.5.275.036.227.626.206s.3.044.615-.23l-.813-.115c1.465-2.24.5-.837,2.074-2.4l8.049-8.015c.034-.034.087-.084.122-.121s.085-.085.121-.121a43.213,43.213,0,0,1,3.715-3.726c.5-.411,1.483-1.96,2.25-2.133,1.031-.233.071-.266,1.184.395.04.024.143.153.173.1s.112.081.177.1c-.326-.866-1.722-1.891-2.538-2.6a6.49,6.49,0,0,1-.505-.47c-.46-.507-.159-.114-.46-.6-1.434-.331-3.986-4.024-6.239-1.482-.532.6-5.282,11.5-5.883,13.033-.886,2.271-2.224,4.667-2.748,6.657" transform="translate(2306.96 741.47)" fill="#fccc1c" fill-rule="evenodd"/>
    <path id="Path_934" data-name="Path 934" d="M939.236,1791.3c1.258.006,5.647-2.25,7.218-2.823,2.283-.832,4.934-2.08,7.01-3.041,3.1-1.434,9.217-2.545,5.241-7.411l-1.691-2.16a2.232,2.232,0,0,0-.727-.6c-.065-.02-.148-.151-.177-.1s-.133-.08-.173-.1c-1.113-.66-.153-.627-1.184-.395-.767.173-1.755,1.722-2.25,2.133a43.213,43.213,0,0,0-3.715,3.726c-.035.035-.087.085-.121.121s-.088.086-.122.121l-8.049,8.015c-1.574,1.566-.609.163-2.074,2.4Z" transform="translate(2307.11 743.032)" fill="#fab30d" fill-rule="evenodd"/>
    <path id="Path_909" data-name="Path 909" d="M935.732,1791.524c-4.119,1.863-8.836,3.934-12.937,5.593-2.06.835-5.24,1.989-3.449,5.155a33.936,33.936,0,0,0,4.06,5.011,3.2,3.2,0,0,0,.519.355l-.17-.691c.951-.4,3.1-2.96,4.189-3.962,1.336-1.236,2.755-2.859,4.216-4.19,1.317-1.2,2.88-3.013,4.229-4.185a4.529,4.529,0,0,0,.933-.951,20.145,20.145,0,0,1,3.716-3.153l-.711,2.048c.795-.673.99-1.022.6-2.257-1.576-.666-3.5.722-5.191,1.228" transform="translate(2298.885 749.578)" fill="#fccc1c" fill-rule="evenodd"/>
    <path id="Path_910" data-name="Path 910" d="M922.465,1807.523c.4.775,4.342,4.061,5.671,4.349,3.3.714,3.873-2.9,4.831-5.143.714-1.664,6.04-13.494,5.9-14.291l.711-2.048a20.145,20.145,0,0,0-3.716,3.153,4.529,4.529,0,0,1-.933.951c-1.349,1.171-2.911,2.982-4.229,4.185-1.461,1.332-2.88,2.954-4.216,4.19-1.086,1-3.238,3.564-4.189,3.962Z" transform="translate(2300.344 749.692)" fill="#fab30d" fill-rule="evenodd"/>
    <path id="Path_911" data-name="Path 911" d="M920.367,1773.772c5.4,1.18,1.911.508,6.8-2.05,5.309-2.78,8.622-4.075,15.392-4.159,6.828-.086,14.821,2.338,19.411,6.68l.825.545c3,1.858.751.264,1.987,1.962.158-1.029.714-1.236,1.383-1.933l-.714-1.221a23.431,23.431,0,0,0-2.128-1.736c-.537-.41-.484-.539-.989-.908l-6.4-3.444c-8.687-3.783-17.153-3.411-25.857-.082a13.452,13.452,0,0,0-2.69,1.156c-3.053,1.892-3.627,2.539-5.829,4.01l-.938.818c-.04.05-.092.135-.125.177s-.085.122-.124.186" transform="translate(2299.535 738.955)" fill="#fad969" fill-rule="evenodd"/>
    <path id="Path_912" data-name="Path 912" d="M919.744,1806.51c.37.745,2.941,2.671,4.033,3.434.96.668,4.3,2.375,4.721,2.8,1.256.292,1.6.8,2.809.867-.207-1.816-.846-1.635-2.331-2.358l-4.1-2.393c-.008-.007-.542-.438-.686-.566-1.64-1.462-.867-.615-1.96-1.374l-.978-.73a4.522,4.522,0,0,1-1.031-1.258c-1.146.119-.385-.349-.988.407.139.961-.2.02.508,1.176" transform="translate(2299.061 755.775)" fill="#f7b51a" fill-rule="evenodd"/>
    <path id="Path_935" data-name="Path 935" d="M947.979,1797.621c.608-.552,1.116-.451,2.044-.463.123,1.445-.469,1.976-1.889,1.854Zm-4.836,5.55c.033,1.263,2.03,5.136,2.564,6.474.5,1.252,1.028,2.087,2.193,2.371a3.437,3.437,0,0,0,3.31-1.192c3.061-1.523,6.832-5.988,8.388-8.418,1.7-2.655-.352-4.01-2.315-4.852-1.137-.488-4.987-2.285-5.851-2.341-.45-.731-.47-.579-1.566-1.041-.278-.116-.517-.248-.843-.385l-10.875-3.7c-.579,1.82,2.443,7.813,3.435,9.952C942.168,1801.3,942.362,1802.442,943.143,1803.171Z" transform="translate(2306.964 749.565)" fill="#fab30d" fill-rule="evenodd"/>
    <path id="Path_936" data-name="Path 936" d="M945.052,1795.532l.155,1.391c1.421.122,2.013-.409,1.889-1.854-.928.011-1.437-.089-2.044.463" transform="translate(2309.891 751.654)" fill="#ebb017" fill-rule="evenodd"/>
  </g>
</svg>
