<svg xmlns="http://www.w3.org/2000/svg" width="162.643" height="123.128" viewBox="0 0 162.643 123.128">
  <g id="Group_165" data-name="Group 165" transform="translate(-2662.163 -2626.589)">
    <path id="Path_894" data-name="Path 894" d="M617.356,1851.331A60.357,60.357,0,1,1,557,1911.688a60.357,60.357,0,0,1,60.358-60.357" transform="translate(2147.093 775.258)" fill="#ffed59" fill-rule="evenodd"/>
    <text id="Avocado" transform="translate(2715.652 2695.701)" font-size="25" font-family="Lato-Regular, Lato"><tspan x="0" y="0">Avocado</tspan></text>
    <path id="Path_953" data-name="Path 953" d="M539.888,1898.905l.133-.033-.386,1.061a6.1,6.1,0,0,0-.586,1.95c-.886,4.833.476,10.047,2.877,14.285a30.42,30.42,0,0,1,3.408,7.61,28.786,28.786,0,0,1,.747,3.588l.42,3.464c.354,3.5.872,7.542,2.426,10.823,1.881,3.97,3.885,7.235,7.728,9.474a13.769,13.769,0,0,0,2.74,1.222c.388.163.247.034.23.209.782.39,4.781.1,5.638-.048a26.665,26.665,0,0,0,16.432-10.178,15.146,15.146,0,0,0,3.049-10.415c-.192-3.76-3.11-8.721-6.111-11.727-4.64-4.65-9.455-5.877-14.187-11.191-2.127-2.391-2.977-4.463-4.269-6-2.645-3.151-5.59-5.9-9.516-7.116a11.241,11.241,0,0,0-5.421-.484,8.433,8.433,0,0,0-3.09,1.217c-.657.43-2.182,1.632-2.263,2.292m15.175,22.613c5.9-4.767,13.931-2.583,18.164,3.051a14.824,14.824,0,0,1,2.964,10.6,1.653,1.653,0,0,1-.074.555,16.509,16.509,0,0,1-.566,2.233,11.332,11.332,0,0,1-8.643,7.514,13.124,13.124,0,0,1-5.3-.186,18.9,18.9,0,0,1-3.721-1.625c-4.68-2.623-7.4-8.845-7.025-13.615a12.323,12.323,0,0,1,1.131-4.46A10.913,10.913,0,0,1,555.063,1921.518Z" transform="translate(2139.449 793.684)" fill="#fcf7a6" fill-rule="evenodd"/>
    <path id="Path_913" data-name="Path 913" d="M541.646,1895.017l-.393.237-1.2.994a14.363,14.363,0,0,0-3.123,4.42c-2.948,7.01-1.283,14.28,2.576,20.959,3.363,5.814,2.522,10.141,3.594,16.033a28.809,28.809,0,0,0,4.734,11.241c7.214,10.289,19.8,9.934,29.665,3.823,6.181-3.828,11.866-10.495,12.116-17.79a19.036,19.036,0,0,0-2.6-10.8c-5.34-9.566-12.028-10.7-16.972-15.63a31.623,31.623,0,0,1-3.969-5.312,24.588,24.588,0,0,0-11.94-9.44c-.471-.159-.776-.217-1.2-.346a14.774,14.774,0,0,0-4.978-.522,14.273,14.273,0,0,0-5.35,1.506Zm.044,2.564a11.349,11.349,0,0,1,10.577-2.209l1.136.323c.2.063.29.091.535.18a14.984,14.984,0,0,1,2.2,1,24.137,24.137,0,0,1,4.145,2.885c3.975,3.36,4.947,6.6,7.577,9.454,5.034,5.467,10.9,6.185,16.158,14a19.155,19.155,0,0,1,3.583,10.343,17.461,17.461,0,0,1-.166,2.379,20.16,20.16,0,0,1-.856,3.439c-.15.415-.281.725-.456,1.113-4.419,9.752-18.373,17.419-28.882,13.393-6.832-2.616-11.234-10.324-12.226-17.267-.48-3.35-.532-6.494-1.283-9.878-1.063-4.788-3.049-6.507-4.633-10.519a22.505,22.505,0,0,1-1.508-9.934c.02-.207.044-.427.067-.62l.329-1.711A11.978,11.978,0,0,1,541.69,1897.58Z" transform="translate(2138.045 792.684)" fill="#303d1a" fill-rule="evenodd"/>
    <path id="Path_914" data-name="Path 914" d="M541.072,1896.979a11.978,11.978,0,0,0-3.7,6.366l-.329,1.711c-.023.193-.047.413-.067.62a22.505,22.505,0,0,0,1.508,9.934c1.584,4.011,3.57,5.73,4.633,10.519.751,3.384.8,6.529,1.283,9.878.992,6.943,5.394,14.651,12.226,17.267,10.509,4.026,24.463-3.641,28.882-13.393.175-.388.305-.7.456-1.113a20.166,20.166,0,0,0,.856-3.439,17.462,17.462,0,0,0,.166-2.379,19.154,19.154,0,0,0-3.583-10.343c-5.261-7.814-11.125-8.533-16.158-14-2.63-2.856-3.6-6.094-7.578-9.454a24.136,24.136,0,0,0-4.145-2.885,14.989,14.989,0,0,0-2.2-1c-.246-.09-.331-.118-.535-.18l-1.136-.323a11.349,11.349,0,0,0-10.577,2.209m-.4,2.325c.081-.66,1.605-1.862,2.263-2.292a8.432,8.432,0,0,1,3.09-1.217,11.241,11.241,0,0,1,5.421.484c3.926,1.214,6.872,3.965,9.516,7.116,1.292,1.539,2.142,3.611,4.269,6,4.731,5.315,9.546,6.541,14.187,11.191,3,3.005,5.919,7.967,6.111,11.727a15.147,15.147,0,0,1-3.049,10.415,26.665,26.665,0,0,1-16.432,10.178c-.857.148-4.856.439-5.638.048a14.077,14.077,0,0,1-3.265-.9,13.589,13.589,0,0,1-3.109-1.8,19.069,19.069,0,0,1-5.329-6.893c-2.733-5.521-2.43-9.712-3.13-14.792a29.121,29.121,0,0,0-2.04-7.5,38.73,38.73,0,0,0-2.111-3.955A21.777,21.777,0,0,1,538.6,1905.9a14.566,14.566,0,0,1,.515-3.385C539.267,1901.934,540.04,1899.773,540.674,1899.3Z" transform="translate(2138.664 793.286)" fill="#c4e361" fill-rule="evenodd"/>
    <path id="Path_954" data-name="Path 954" d="M551.06,1926.343c2.376,3.127,7.066,4.978,10.247,1.979,2.926-2.76,2.185-7.726-.244-10.854a9.031,9.031,0,0,0-4.707-3.222,5.123,5.123,0,0,1-.661-.163,3.38,3.38,0,0,0-.687-.058,5.527,5.527,0,0,0-5.705,3.9l-.3,1.266a9.779,9.779,0,0,0,2.058,7.153m.388-9.2c.982-.993,2.24-.067,2.73,1.122a3.156,3.156,0,0,1-.324,3.116C552.027,1923.378,549.529,1919.092,551.448,1917.147Zm3.99,8.458c.342,1.86-2.058,2.121-2.419.237C552.67,1924.014,555.069,1923.6,555.438,1925.6Z" transform="translate(2143.694 801.553)" fill="#bf874a" fill-rule="evenodd"/>
    <path id="Path_955" data-name="Path 955" d="M550.057,1931.065c3.457,5.169,10.818,7.309,16.209,3.373,7.946-5.8,4.155-19.571-5.559-21.727a10.486,10.486,0,0,0-8.886,1.729,11.492,11.492,0,0,0-3.921,11.941,14.564,14.564,0,0,0,2.156,4.684m1.777-15.95c4.034-3.574,10.292-1.943,13.42,2.223,4.3,5.723,2.68,13.907-4.429,15.551a7.6,7.6,0,0,1-2.694.1,10.371,10.371,0,0,1-2.46-.637C549.563,1930.184,545.811,1920.452,551.834,1915.115Z" transform="translate(2143.128 800.877)" fill="#7a401f" fill-rule="evenodd"/>
    <path id="Path_956" data-name="Path 956" d="M551.469,1914.894c-6.023,5.336-2.271,15.068,3.837,17.24a10.37,10.37,0,0,0,2.46.637,7.6,7.6,0,0,0,2.694-.1c7.109-1.644,8.727-9.827,4.429-15.551-3.129-4.167-9.386-5.8-13.42-2.223m-.209,11.9a9.779,9.779,0,0,1-2.058-7.153l.3-1.266a5.527,5.527,0,0,1,5.705-3.9,3.38,3.38,0,0,1,.687.058,5.123,5.123,0,0,0,.661.163,9.031,9.031,0,0,1,4.707,3.222c2.429,3.127,3.17,8.094.244,10.854C558.326,1931.775,553.636,1929.924,551.26,1926.8Z" transform="translate(2143.494 801.099)" fill="#a1632e" fill-rule="evenodd"/>
    <path id="Path_957" data-name="Path 957" d="M551.5,1914.529a10.913,10.913,0,0,0-3.072,4.064,12.323,12.323,0,0,0-1.131,4.46c-.378,4.77,2.345,10.991,7.025,13.615a18.9,18.9,0,0,0,3.721,1.625,13.124,13.124,0,0,0,5.3.186,11.332,11.332,0,0,0,8.643-7.514,16.509,16.509,0,0,0,.566-2.233,1.653,1.653,0,0,0,.074-.555,14.824,14.824,0,0,0-2.964-10.6c-4.233-5.634-12.265-7.817-18.164-3.051m-1.327,16.74a14.565,14.565,0,0,1-2.156-4.684,11.492,11.492,0,0,1,3.921-11.941,10.486,10.486,0,0,1,8.886-1.729c9.714,2.156,13.505,15.928,5.559,21.727C560.993,1938.578,553.632,1936.438,550.175,1931.269Z" transform="translate(2143.01 800.674)" fill="#63300f" fill-rule="evenodd"/>
    <path id="Path_958" data-name="Path 958" d="M559.913,1951.488c.017-.175.158-.045-.23-.209a13.769,13.769,0,0,1-2.74-1.222c-3.843-2.239-5.847-5.5-7.728-9.474-1.554-3.281-2.072-7.321-2.426-10.823l-.42-3.464a28.786,28.786,0,0,0-.747-3.588,30.42,30.42,0,0,0-3.408-7.61c-2.4-4.238-3.763-9.451-2.877-14.285a6.1,6.1,0,0,1,.586-1.95l.386-1.061-.133.033c-.635.47-1.407,2.63-1.554,3.208a14.569,14.569,0,0,0-.515,3.385,21.778,21.778,0,0,0,2.823,11.217,38.73,38.73,0,0,1,2.111,3.955,29.121,29.121,0,0,1,2.04,7.5c.7,5.079.4,9.271,3.13,14.792a19.068,19.068,0,0,0,5.329,6.893,13.59,13.59,0,0,0,3.109,1.8,14.078,14.078,0,0,0,3.265.9" transform="translate(2139.162 794.754)" fill="#f5facf" fill-rule="evenodd"/>
    <path id="Path_915" data-name="Path 915" d="M541.655,1893.9l-.1.145a.764.764,0,0,1-.057.064l-.363.223c-.185.092-.379.179-.564.274a26.515,26.515,0,0,0-7.417,4.966,35.185,35.185,0,0,0-4.439,4.958,7.961,7.961,0,0,0-1.168,1.73c1.54-.467,2.341-.521,4.29-1.224,4.03-1.452,6.642-3.522,8.466-7.379.159-.338.3-.615.427-.926a3,3,0,0,1,.4-.9l.287-1.119c.217-.688,2.311-1.786,2.531-2.758.63-.561.843-1.547,1.343-2.156l-.619-.643c-.193.351-.356.827-.539,1.244a13.323,13.323,0,0,1-.581,1.208,10.681,10.681,0,0,1-1.9,2.288" transform="translate(2134.738 791.129)" fill="#247d26" fill-rule="evenodd"/>
    <path id="Path_916" data-name="Path 916" d="M529.718,1896.388c-.037.248-.765,1.654-.919,2.044a19.913,19.913,0,0,0-1.259,5.39,2.272,2.272,0,0,0,.007,1.178l.037-.061a7.961,7.961,0,0,1,1.168-1.73,35.185,35.185,0,0,1,4.439-4.958,26.515,26.515,0,0,1,7.417-4.966c.185-.1.379-.182.564-.274l.363-.223a.764.764,0,0,0,.057-.064l.1-.145-.291.2a11.884,11.884,0,0,0-2.894-.433,13.135,13.135,0,0,0-3.09.185c-4.232.784-5.058,3.35-5.7,3.86" transform="translate(2134.702 792.454)" fill="#40a629" fill-rule="evenodd"/>
    <path id="Path_982" data-name="Path 982" d="M550.9,1916.344c-1.919,1.945.579,6.23,2.406,4.237a3.156,3.156,0,0,0,.324-3.116c-.49-1.188-1.747-2.115-2.73-1.122" transform="translate(2144.244 802.356)" fill="#d9c296" fill-rule="evenodd"/>
    <path id="Path_917" data-name="Path 917" d="M539.911,1896.336l.969-.623a9.36,9.36,0,0,1,.041-3.687c.079-.284.074-.457.156-.725.124-.4.362-.941.473-1.34-.163-.032-.014-.009-.194-.007-.024,0-.182.01-.193.01-.4,0-.656-.231-1-.241a9.524,9.524,0,0,0-.536,2.853,11.77,11.77,0,0,0,.288,3.76" transform="translate(2139.78 791.364)" fill="#217d26" fill-rule="evenodd"/>
    <path id="Path_983" data-name="Path 983" d="M554.229,1922.57c-.369-2-2.768-1.591-2.419.237.361,1.884,2.761,1.623,2.419-.237" transform="translate(2144.903 804.587)" fill="#d9c296" fill-rule="evenodd"/>
    <path id="Path_918" data-name="Path 918" d="M539.828,1889.283l.619.643c-.5.609-.713,1.6-1.343,2.156a4.379,4.379,0,0,1,.021,1.146c0,.362.024.809.065,1.221a10.849,10.849,0,0,0,.521,2.479l.393-.237a11.772,11.772,0,0,1-.288-3.76,9.522,9.522,0,0,1,.537-2.853c.348.01.608.243,1,.241.011,0,.169-.01.193-.01.18,0,.031-.025.194.007.486-.869-.818-1.415-1.283-1.434a.68.68,0,0,0-.413.09c-.275.166-.2.125-.22.312" transform="translate(2139.586 791.01)" fill="#40a629" fill-rule="evenodd"/>
  </g>
</svg>
