<svg xmlns="http://www.w3.org/2000/svg" width="176.104" height="120.715" viewBox="0 0 176.104 120.715">
  <g id="Group_163" data-name="Group 163" transform="translate(-3200.936 -2626.589)">
    <path id="Path_977" data-name="Path 977" d="M1006.383,1851.331a60.357,60.357,0,1,1-60.358,60.357,60.358,60.358,0,0,1,60.358-60.357" transform="translate(2310.3 775.258)" fill="#f5ff82" fill-rule="evenodd"/>
    <text id="Daily" transform="translate(3288.052 2693.612)" font-size="25" font-family="Lato-Regular, Lato"><tspan x="0" y="0">Daily</tspan></text>
    <path id="Path_978" data-name="Path 978" d="M943.478,1907.942c-8.144,12.979-18.85,17.525-31.2,22l-4.72,1.471.826,2.162c2.842.246,10.378-.873,13.167-1.618.914-.244,1.972-.487,2.889-.755,6.245-1.434,15.263-6.7,19.589-11.8a29.826,29.826,0,0,0,6.683-13.487l.7-9.311a24.266,24.266,0,0,0-3.515-1.222c.547,2.267-3.028,10.351-4.418,12.564" transform="translate(2294.163 793.736)" fill="#ffd403" fill-rule="evenodd"/>
    <path id="Path_979" data-name="Path 979" d="M941.446,1947.957c-.957.813-1.936,1.667-3,2.449-.673.5-.2.524-.491,1.672a3.182,3.182,0,0,0-.176.788c6.382-.867,8.653-1.262,14.336-5.658,6.858-5.309,13-14.2,16.174-22.49,2.963-7.734,2.077-23.155-5.007-29.617-.395-.359-2.592-2.27-3.188-2.292l-.207-.193c-.023-.02-.2-.126-.217-.138-.166-.1-.294-.159-.453-.236-.791-.385-2.663-1.12-2.68-1.129-1.911-.238-2-.653-4.611-.559-.81.03-.707.13-.829.86q.673,1.512,1.346,3.024a19.486,19.486,0,0,1,4.55,7.779c.008.3.751,2.1.91,2.592,3.748,11.6.691,22.059-6,31.625l-.354.393a2.963,2.963,0,0,1-.595.914l-2.037,2.627c-.62.806-1.478,1.712-2.18,2.493a59.835,59.835,0,0,1-5.293,5.094" transform="translate(2306.841 791.707)" fill="#ffed00" fill-rule="evenodd"/>
    <path id="Path_929" data-name="Path 929" d="M934.036,1893.081c.216.037.609.451.938.613.579.287.856.109,1.479.189l.141.432c.048.182.071.253.111.419.073.308.112.531.19.843.331,1.312.968,4.278.73,5.482l3.715,1.39a29.792,29.792,0,0,1,2.23-2.162c.447-.457.2-.54.132-1.235l-1.12-5.755a16.666,16.666,0,0,1,2.256,1.948,14.738,14.738,0,0,1,3.466,3.488l.353.4,3.753-.99.6-3.5a13.908,13.908,0,0,0-1.419-1.378c-.531-.525-.931-.86-1.429-1.341l-2.518-2.321a1.746,1.746,0,0,1-.186-.165c-.173-.182-.087-.061-.206-.275-.243-.067-.142-.032-.483-.333-.593-.525-1.2-.8-1.231-1.178.285-.17.372-.224.517-.8a6.512,6.512,0,0,0-.016-2.219,3.3,3.3,0,0,0-.271-.974,4.667,4.667,0,0,0-.451-1.85,15.294,15.294,0,0,1-.626-1.649l-.3-.375c-.079-.115-.122-.18-.213-.3-.182-.247-.267-.394-.679-.365a16.956,16.956,0,0,1-4.112,6.52c-3.925,3.883-6.612,2.782-7.384,3l.678,2.514a21.885,21.885,0,0,0,1.357,1.938" transform="translate(2304.416 786.911)" fill="#8fa600" fill-rule="evenodd"/>
    <path id="Path_930" data-name="Path 930" d="M947.963,1893.886l-.392.182c.708.667,2.347,5.13,2.618,6.283,1.637,6.961,1.7,10.23.507,17.409a44.991,44.991,0,0,1-1.512,5.84l-.206.376a1.02,1.02,0,0,1-.143.616,21.128,21.128,0,0,1-1.167,3.117c-3.373,7.206-5.281,10.95-10.409,17.714a16.68,16.68,0,0,0-1.146,1.621,4,4,0,0,0,1.2.742,1.783,1.783,0,0,0,.706.5,19.438,19.438,0,0,0,3.288-2.71c.436-.078,3.407-3.1,3.959-3.654a49.388,49.388,0,0,0,3.7-4.144c13.426-15.865,11.251-34.225,2.29-44.607a7.122,7.122,0,0,0-1.567.32,7.579,7.579,0,0,1-1.716.4" transform="translate(2306.141 792.81)" fill="#ffd403" fill-rule="evenodd"/>
    <path id="Path_980" data-name="Path 980" d="M957.972,1897.537c-.311-.365-.572-.63-.959-1.028-.3-.308-2.112-1.759-2.117-1.766-.795-.282-.473-.264-1.023.265-1.269,1.227-.728.4-.714,3.441a35.5,35.5,0,0,1-2.8,14.314,19.872,19.872,0,0,0-.926,2.034,9.92,9.92,0,0,0-.862,1.456,31.437,31.437,0,0,1-5.3,6.645,34.588,34.588,0,0,1-15.338,9.146,61.909,61.909,0,0,1-10.557,2.6c-2.159.369-4.06.412-5.856.678a28.22,28.22,0,0,0-3,.157l-1.52,1.553,1.688,1.13c6.263,3.871,15.74,2.839,22.66,1.288a59.815,59.815,0,0,0,12.337-4.623,39.093,39.093,0,0,0,8.9-6.242c8.1-7.315,13.162-21.889,5.38-31.046" transform="translate(2293.93 793.394)" fill="#ffed00" fill-rule="evenodd"/>
  </g>
</svg>
