<svg xmlns="http://www.w3.org/2000/svg" width="169.833" height="120.715" viewBox="0 0 169.833 120.715">
  <g id="Group_160" data-name="Group 160" transform="translate(-2917.592 -2445.516)">
    <path id="Path_896" data-name="Path 896" d="M802.36,1844.487A60.357,60.357,0,1,0,742,1784.13a60.356,60.356,0,0,0,60.357,60.357" transform="translate(2224.708 721.744)" fill="#f2e6f5" fill-rule="evenodd"/>
    <text id="Grapes" transform="translate(2987.795 2512.387)" font-size="25" font-family="Lato-Regular, Lato"><tspan x="0" y="0">Grapes</tspan></text>
    <path id="Path_897" data-name="Path 897" d="M715.935,1772.915a2.424,2.424,0,0,0,.473-3.479,6.625,6.625,0,0,1-2.419,1.608l-3.379-.668c.618-1.262,1.221-.633,2.091-3.384-3.178-.863-1.675.219-5.3-1.816a25.4,25.4,0,0,1,6.477-3.542l-2.6-1.871c2.18-1.946,4.983-1.356,7.41-1.141l-.376-2.434a6.916,6.916,0,0,1,4.65.207c1.767.829,2.27,1.69,3.549,3.2l-.615-2.244a5.06,5.06,0,0,1,3.094,1.171l.284,3.5,4.738,1.022-3.674-14.737,3.048-1.011c.691,3.588-1.235,12.164,4.655,19.189a32.552,32.552,0,0,0,4.645,4.389c-1.489.615-1.11.673-3.316-1.331a38.641,38.641,0,0,1-2.835-2.743c-2.439-2.707-.775-2.226-6.624-2.845,2.872,5.386-2.622,7.353-6.354,9.8l1.388-4.731c-2.76,3.915-3.919,3.479-9.484,4.557l.253-.4c.01-.014.179-.213.217-.271" transform="translate(2210.191 731.613)" fill="#618c03" fill-rule="evenodd"/>
    <path id="Path_898" data-name="Path 898" d="M733.192,1778.5c-1.447,1.2-1.42,2.3-2.2,3.2-3-.968-4.562-.331-7.184.974-4.378-6.445,2.789-11.085,6.54-10.994a9.219,9.219,0,0,0,2.846,6.825m18.995-7.051c-3.071-.642-1.461-.531-5.034-.361a7.978,7.978,0,0,0-3.288-5.63c2.7-5.647,11.694-5.377,13.265,2.448C754.222,1769.367,754.36,1769.26,752.187,1771.448Zm13.017,8.6-1.356,1.313-6.195-1.625c-1.049-4.647-.63-3.912-4.149-7.614.224-1.353,1.862-2.64,3.8-3.254,6.11-1.938,10.966,5.2,8.151,10.6Zm-36.943,17.476c-4.88.583-10.974-8.358-3.721-13.8a6.916,6.916,0,0,1,6.219-.718c-.515,3.362.426,5.78,2.513,7.457C728.6,1792.647,728.633,1796.842,728.261,1797.52Zm36.235,10.695c4.158,3.838,1.936,9.262-1.906,11.448-3.783,2.151-9.146,1.147-10.34-5.17l1.452-1.387a6.971,6.971,0,0,0,1.767-2.247c.444-.87.444-1.486.849-2.279C758.876,1809.668,760.775,1809.88,764.5,1808.215Zm-18.652-36.573c-3.98,2.385-4.185,4.075-4.517,4.583-2.337-1.1-6.741.576-7.2,1.329-4.043-4.517-2.449-9.744,1.677-11.716A6.778,6.778,0,0,1,745.843,1771.642Zm10.338,8.3-5.323,5.668a4.565,4.565,0,0,1-1.634-.292l-1.81-.3-4.7-8.209c-.1-.454.629-1.508,1.015-1.976C748.635,1768.938,757.453,1774.082,756.181,1779.944Zm-15.83,24.3c-1.323.257-1.784.7-3.347.7a7.145,7.145,0,0,1-3.166-.806c-2.371-1.255-3.479-3.245-3.775-6.126.155-2.23.667-4.13,2.724-5.708,2.461-1.887,3.98-1.414,6.658-1.189-.454,3.468-.162,5.807,3.394,9.319A5.029,5.029,0,0,0,740.351,1804.24Zm-5.289-25.76c3.153-1.756,5.573-1.406,7.594-.19q1.742,3.454,3.485,6.906a8.515,8.515,0,0,0-6.09,4.726c-.055,0-.163-.064-.165-.019l-1.052-.217a18.764,18.764,0,0,0-4.286.1C731.435,1786.7,731.012,1781.2,735.062,1778.48Zm28.762,14.462-.7.426a7.63,7.63,0,0,0-7,.306c-.275-2.681-1.023-4.85-4.122-7.42.263-2.733,4.308-6.829,9.484-4.833C766.223,1783.251,767.244,1789.117,763.824,1792.942Zm3.288,8.2c-.1,6.034-5.394,7.853-10.578,6.058-.395-1.583-.021-3.611-3.481-7.174a9.763,9.763,0,0,0,3.271-5.275C759.106,1792.285,767.224,1794.509,767.112,1801.146ZM746.8,1814.008c-6.687-1.307-7.221-10.689-3.065-12.927,2.114,1.13,6.074,1.336,7.91-.121a6.612,6.612,0,0,1,3.449,6.79A7.131,7.131,0,0,1,746.8,1814.008Zm-.948-27.292c9.342-2.335,12.567,11.588,3.3,13.7a7.085,7.085,0,0,1-8.382-5.265A7,7,0,0,1,745.847,1786.716Z" transform="translate(2215.979 737.604)" fill="#870d54" fill-rule="evenodd"/>
  </g>
</svg>
