<svg xmlns="http://www.w3.org/2000/svg" width="146.791" height="121.305" viewBox="0 0 146.791 121.305">
  <g id="Group_159" data-name="Group 159" transform="translate(-2678.015 -2445.516)">
    <path id="Path_882" data-name="Path 882" d="M617.356,1844.487A60.357,60.357,0,1,0,557,1784.13a60.357,60.357,0,0,0,60.358,60.357" transform="translate(2147.093 721.744)" fill="#f5ff82" fill-rule="evenodd"/>
    <text id="Pears" transform="translate(2733.999 2514.374)" font-size="25" font-family="Lato-Regular, Lato"><tspan x="0" y="0">Pears</tspan></text>
    <path id="Path_883" data-name="Path 883" d="M576.416,1794.593c-.321,2.4,3.523,5.191,4.334,1.407.645.155.368,1.191.589-1.193l3.56,2.2a9.263,9.263,0,0,1,1.834,1.268c1.2.949.9.308,1.763.835.819.5.158.444,1.418,1.087l2.091,1.224c.877.487,2.714,1.875,3.478,1.831l.187.515c-4.916,7.414-9.079,12.865-19.293,16.256-14.569,4.836-38.713-1.969-35.886-22.606.73-5.328,4.753-18.865,2.647-24.325.016-.129.037-.534.053-.637a2.484,2.484,0,0,1,.189-.836,2.956,2.956,0,0,0,.969,1.78c.643.563.683.344,1.217.532,1.221.432,4.26,2.667,5.569,3.513a9.914,9.914,0,0,0,1.175.572c1.143.538,1.334.9,2.452,1.455a10.789,10.789,0,0,1,2.314,1.223,21.051,21.051,0,0,0,4.4,2.782c1.618-2.464,1.164-3.259,2.439-3.239l2.708,1.729c1.522,1,2.944,3.413,4.23,4.8.869.936.981,2.013,1.684,3.344.873.908,4.692,2.195,6.216,3.705l-2.582.268Zm-18.589-8.335c-.4-2.048-3.44-4.284-4.259-1.779C552.8,1786.838,556.5,1787.37,557.828,1786.257Zm-.354,8.016c-1.235-1.618-4.974-.828-4.388,1.295C553.765,1798.028,556.95,1796.116,557.474,1794.273Z" transform="translate(2140.073 741.818)" fill="#e3ff57" fill-rule="evenodd"/>
    <path id="Path_884" data-name="Path 884" d="M594.675,1809.439c-.764.044-2.6-1.344-3.478-1.831l-2.091-1.224c-1.261-.643-.6-.588-1.418-1.087-.862-.527-.559.115-1.763-.835a9.261,9.261,0,0,0-1.834-1.268l-3.56-2.2c-.221,2.384.055,1.347-.589,1.193-1.018-1.84-2.094-1.746-4.334-1.407l-.248-.505,2.582-.268c-1.525-1.51-5.343-2.8-6.216-3.705-.7-1.331-.815-2.409-1.684-3.344-1.286-1.387-2.708-3.8-4.23-4.8l-2.708-1.729c-1.275-.02-.82.775-2.439,3.239a21.051,21.051,0,0,1-4.4-2.782,10.789,10.789,0,0,0-2.314-1.223c-1.117-.557-1.309-.917-2.452-1.455a9.913,9.913,0,0,1-1.175-.572c-1.309-.846-4.348-3.082-5.569-3.513-.534-.189-.573.031-1.216-.532a2.956,2.956,0,0,1-.97-1.78c-.73-2.484-.338-9.452.505-11.685a12.857,12.857,0,0,1,8.77-7.92l.694-.4c16.6-4.555,15.778,8.644,29.608,20.155,7.471,6.219,16.831,10.987,15.457,23.037-.224,1.97-1.39,7.392-2.933,8.443m-21.137-24.17c-.6-3.237-3.3-2.562-3.491.477-.133,2.1.715,1.764.718,1.766Zm2.22,7.807c1.316,1.679,4.846,1.006,4.531-.918C579.788,1789.1,576.7,1791.381,575.759,1793.076Z" transform="translate(2140.881 735.634)" fill="#e3ff57" fill-rule="evenodd"/>
    <path id="Path_885" data-name="Path 885" d="M543.826,1780.349c2.105,5.459-1.918,19-2.647,24.325-2.828,20.637,21.317,27.442,35.886,22.606,10.214-3.391,14.377-8.842,19.293-16.256l-.187-.515c1.543-1.052,2.708-6.473,2.933-8.443,1.374-12.05-7.986-16.819-15.457-23.037-13.83-11.511-13.01-24.71-29.609-20.155l-.193-3.361c8.422-3.386,13.742,1.025,18.325,6.835,5.125,6.5,7.42,11,13.829,15.768,4.612,3.431,11.593,8.5,14.53,14.3,3.1,6.117,2.317,15.561-1.681,20.617.013,1.975-5.611,8.13-7.755,10.124a36.158,36.158,0,0,1-13.44,7.546,36.778,36.778,0,0,1-26.748-2.243c-8.892-4.592-13.471-11.417-12.006-23.171.485-3.89,1.725-8.348,2.51-12.57.918-4.926.708-7.876.583-13.254-.667-3.946-.656-10.509.254-13.856,1.093-4.016,3.894-7.654,9.447-9.325l1.651,2.988a12.857,12.857,0,0,0-8.77,7.92c-.843,2.233-1.235,9.2-.505,11.685a2.486,2.486,0,0,0-.189.836c-.016.1-.037.508-.053.637" transform="translate(2139.387 734.565)" fill="#8cc40a" fill-rule="evenodd"/>
    <path id="Path_886" data-name="Path 886" d="M557.324,1777.778c.4-.308,3,1.269,5.241,3.526a18.1,18.1,0,0,1,4.112,6.354,9.824,9.824,0,0,1-.2,3.97c-.356,1.283-1.246,1.713-1.756,3.039-.654,1.7-3.048,1.637-4.489.964a9.06,9.06,0,0,1-3.21-3.3c-.815-1.293-1.092-2.859-1.913-4.608-1.336-2.842-.349-6.618,2.219-9.947" transform="translate(2146.05 744.384)" fill="#e3eb2e" fill-rule="evenodd"/>
    <path id="Path_887" data-name="Path 887" d="M551.891,1757.783l.193,3.361-.694.4-1.651-2.988a10.652,10.652,0,0,0-6.456-4.321c.7-1.613,1.479-4.118,2.7-5.316Z" transform="translate(2141.34 732.293)" fill="#38261a" fill-rule="evenodd"/>
    <path id="Path_888" data-name="Path 888" d="M570.071,1789.268c-.811,3.784-4.655,1-4.334-1.407,2.24-.339,3.316-.433,4.334,1.407" transform="translate(2150.752 748.549)" fill="#1a140d" fill-rule="evenodd"/>
    <path id="Path_889" data-name="Path 889" d="M557.483,1793.831c-.25.894-.145,1.41-.984,1.879a1.481,1.481,0,0,1-2.176-.534c-.906-1.628.958-2.779,2.206-3.813a5.691,5.691,0,0,1,.835.778Z" transform="translate(2145.871 750.1)" fill="#1a140d" fill-rule="evenodd"/>
    <path id="Path_890" data-name="Path 890" d="M553.927,1782.786c-1.323,1.113-5.031.58-4.259-1.779.819-2.506,3.854-.27,4.259,1.779" transform="translate(2143.974 745.289)" fill="#1a140d" fill-rule="evenodd"/>
    <path id="Path_891" data-name="Path 891" d="M565.838,1783.095c.94-1.695,4.029-3.978,4.531-.918.315,1.925-3.215,2.6-4.531.918" transform="translate(2150.802 745.615)" fill="#382617" fill-rule="evenodd"/>
    <path id="Path_892" data-name="Path 892" d="M553.7,1787.833c-.524,1.843-3.709,3.755-4.388,1.295-.586-2.122,3.153-2.913,4.388-1.295" transform="translate(2143.844 748.258)" fill="#1a140d" fill-rule="evenodd"/>
    <path id="Path_893" data-name="Path 893" d="M565.31,1777.51l-2.772,2.243s-.852.335-.718-1.766c.193-3.039,2.893-3.713,3.491-.477" transform="translate(2149.11 743.392)" fill="#382617" fill-rule="evenodd"/>
  </g>
</svg>
