<svg xmlns="http://www.w3.org/2000/svg" width="165.105" height="120.715" viewBox="0 0 165.105 120.715">
  <g id="Group_162" data-name="Group 162" transform="translate(-3491.29 -2445.516)">
    <path id="Path_981" data-name="Path 981" d="M1203.178,1844.487a60.357,60.357,0,1,0-60.358-60.357,60.357,60.357,0,0,0,60.358,60.357" transform="translate(2392.86 721.744)" fill="#ffccd1" fill-rule="evenodd"/>
    <text id="Berries" transform="translate(3556.885 2514.54)" font-size="25" font-family="Lato-Regular, Lato"><tspan x="0" y="0">Berries</tspan></text>
    <path id="Path_937" data-name="Path 937" d="M1125.246,1762.579c1.363.7,6.926,3.6,7.771,3.689l.414,1.209c.5,1.1.812,3.292,1.259,4.71a53.165,53.165,0,0,0,5.472,9.763c1.391,2.063,2.2,4.154,4.733,5.363,1.113.53,2.9,1.781,4.636,1.286,4.115-1.179,4.588-6.906,4.145-10.413.034-.084.064-.293.108-.25s.077-.186.088-.234l.077-.546,3.1,1.562c1.09.539.392.4,1.5.4.551.9,2.362,1.388,3.244,1.85,1.3.683,2.271,1.241,3.29,1.749l.155.294a16.448,16.448,0,0,0-1.082,3.349c-.162.474.044-.023-.234.538a24.969,24.969,0,0,1-1.918,3.789c-.291.484-.263.612-.647,1.229-2.863,4.594-6.291,8.693-13.623,7.667-.755-.1-.477-.179-1.066-.364-.935-.292-.354-.065-1.241-.165a60.439,60.439,0,0,1-6.93-2.511l-1.9-1.146a6.171,6.171,0,0,0-.945-.559,38.613,38.613,0,0,1-5.742-3.809l-1.42-1.1c-6.551-5.888-12.314-12.763-14.33-21.866-.487-2.2.318-8.7,1.787-9.928l.346-.1,4.609,2.08a27.184,27.184,0,0,1,4.334,2.462" transform="translate(2380.781 736.119)" fill="#eb1717" fill-rule="evenodd"/>
    <path id="Path_938" data-name="Path 938" d="M1164.435,1787.566c-1.019-.508-1.987-1.066-3.29-1.749-.882-.461-2.693-.947-3.244-1.85l-.243-1.313c-.229.592.075.474.108-.809a4.958,4.958,0,0,1,.2-1.638c.6-2.774-.39-9.14-.935-12.019-.017-.094-.033-.156-.053-.251-1.013-4.637-3.525-9.765-7.823-11.962a17.319,17.319,0,0,0-3.085-.826c-7.059-2.027-17.707,2.771-20.346,8.213a20.268,20.268,0,0,1-1.765,2.839l.635,1.231a27.184,27.184,0,0,0-4.334-2.462l-4.609-2.08c-.19-1.236.111-1.334.795-2.169a35.138,35.138,0,0,1,16.51-11.732c4.307-1.544,10.117-2.794,14.631-2.464a9.29,9.29,0,0,0,1.258.024c1.154-.011-.018-.176,1.251.121,4.023.94,1.8-.387,5.515,1.917.05.032.118.075.169.1.879.46.985-.077,2.4,1.2.42.38.541.491.914.811,4.545,3.864,6.614,10.56,7.377,16.293a55.889,55.889,0,0,1,.281,8.439c-.131.808-.163-.078-.155,1.271a50.937,50.937,0,0,1-1.318,8.7c-.316,1.187-.064,1.533-.846,2.16" transform="translate(2381.437 731.267)" fill="#ed3333" fill-rule="evenodd"/>
    <path id="Path_939" data-name="Path 939" d="M1155.429,1781.543c-1.111,0-.413.142-1.5-.4l-3.1-1.562-.077.546c-.011.048-.047.275-.088.234s-.074.166-.108.25c-.081-.7-.069-.992-.115-1.553-.578-6.895-4.9-15.816-9.809-20.065-7.721-6.68-11.825,1.713-10.389,8.989a1.06,1.06,0,0,0-.013.237l.081,1.684-.415-1.209c-.844-.092-6.408-2.99-7.771-3.689l-.635-1.231a20.269,20.269,0,0,0,1.765-2.839c2.639-5.442,13.287-10.24,20.346-8.213a17.318,17.318,0,0,1,3.085.826c4.3,2.2,6.809,7.325,7.823,11.962.02.1.036.157.053.251.545,2.879,1.54,9.245.935,12.019a4.952,4.952,0,0,0-.2,1.638c-.033,1.283-.337,1.4-.108.809Z" transform="translate(2383.909 733.691)" fill="#f73333" fill-rule="evenodd"/>
    <path id="Path_940" data-name="Path 940" d="M1137.822,1745.835l2.312-.568,4.574-.686c6.6-.089,11.617.092,16.539,4.381,2.514,2.189,3.312,4.145,4.09,4.68.453,1.691,1.448,3.42,2.06,5.187a46.012,46.012,0,0,1,2.326,14.344c-.027,4.351-.793,14-2.586,16.557-.32-.788-.562-.818-1.533-1.032-.055-.013-.158-.03-.238-.04l-.155-.294c.782-.627.53-.974.846-2.16a50.937,50.937,0,0,0,1.318-8.7c-.009-1.349.024-.463.155-1.271a55.889,55.889,0,0,0-.281-8.439c-.764-5.734-2.832-12.43-7.377-16.293-.373-.319-.494-.43-.914-.811-1.42-1.279-1.526-.742-2.4-1.2-.051-.028-.119-.071-.169-.1-3.719-2.3-1.492-.977-5.515-1.917-1.269-.3-.1-.132-1.251-.121a9.29,9.29,0,0,1-1.258-.024c-4.514-.329-10.324.92-14.631,2.464a35.138,35.138,0,0,0-16.51,11.732c-.684.835-.985.933-.795,2.169l-.346.1c-.527-1.059-1.464-1.212-2.334-1.784a5.916,5.916,0,0,1,1.3-2.324c.487-.659,1.026-1.306,1.649-2.036a31.631,31.631,0,0,1,4.2-3.831l3.268-2.165,2.833-1.675,3.05-1.444,4.568-1.786Z" transform="translate(2380.661 730.468)" fill="#cc2b2e" fill-rule="evenodd"/>
    <path id="Path_941" data-name="Path 941" d="M1116.73,1758.633c-1.469,1.231-2.274,7.728-1.787,9.928,2.016,9.1,7.779,15.978,14.33,21.866l1.42,1.1a38.613,38.613,0,0,0,5.742,3.809,6.171,6.171,0,0,1,.945.559l1.9,1.146a60.439,60.439,0,0,0,6.93,2.511c.887.1.305-.128,1.241.165.589.185.311.259,1.066.364,7.332,1.026,10.76-3.073,13.623-7.667.385-.617.356-.745.647-1.229a24.969,24.969,0,0,0,1.918-3.789c.278-.561.072-.064.234-.538a16.448,16.448,0,0,1,1.082-3.349c.081.01.183.027.238.04.971.214,1.214.244,1.533,1.032.183,1.9-2.924,8.134-4.179,9.975-5.227,7.667-9.427,10.4-20.037,6.69a49.323,49.323,0,0,1-9.609-4.682c-8.727-5.225-20-17.616-21.609-28.846-.527-3.671.176-8.431,2.04-10.866.87.572,1.807.725,2.334,1.784" transform="translate(2380.008 735.62)" fill="#b00f14" fill-rule="evenodd"/>
    <path id="Path_942" data-name="Path 942" d="M1131.951,1766.314l.1,1.241c.971,1.916,1.312,4.163,2.6,6.419a13.936,13.936,0,0,0,3.6,4.267c4.243,2.913,6.219-2,5.106-6.131l.147-.693c.393,1.4,1.019,1.472,2,1.948a9.854,9.854,0,0,0,2.344,1.046c.045.561.034.849.115,1.553.443,3.508-.03,9.234-4.145,10.413-3.316.95-7.186-2.407-9.092-5.215-3.793-5.583-2.531-2.139-4.155-7.015l-1.594-4.182c-.447-1.418-.764-3.614-1.259-4.71l-.081-1.684a1.061,1.061,0,0,1,.013-.237c.375,1.378,1.042,1.6,2.072,2.029a13.6,13.6,0,0,0,2.226.951" transform="translate(2386.491 738.341)" fill="#ed6159" fill-rule="evenodd"/>
    <path id="Path_943" data-name="Path 943" d="M1147.931,1777.789a9.854,9.854,0,0,1-2.344-1.046c-.985-.476-1.611-.549-2-1.948-1.475-4.673-2.439-8.365-6.033-11.03-1.534-1.137-3.642-1.8-4.893.542-.779,1.461-.721,3.125-.626,5.384a13.6,13.6,0,0,1-2.226-.951c-1.031-.43-1.7-.65-2.072-2.029-1.435-7.275,2.669-15.669,10.389-8.989,4.907,4.249,9.231,13.17,9.809,20.065" transform="translate(2386.411 734.964)" fill="#fa968c" fill-rule="evenodd"/>
    <path id="Path_944" data-name="Path 944" d="M1132.942,1750.833l-4.568,1.786c-3.272-2.948-6.974-7.725-10.617-11.555.168-.686-.448-.145.458-.237,3.584-.089,10.1,5.494,10.432,5.672a22.845,22.845,0,0,1,1.252-5.966,20.931,20.931,0,0,1,2.635-5.352c.789-.356-.125-.607.518.006-.128,2.535.017,5.1-.024,7.8-.041,2.61-.026,5.293-.087,7.85" transform="translate(2382.324 726.376)" fill="#75a603" fill-rule="evenodd"/>
    <path id="Path_945" data-name="Path 945" d="M1142.245,1772.594l-.147.693c-.857-.115-9.552-4.586-10.891-5.312l-.419.757-.1-1.241c-.095-2.26-.153-3.924.626-5.384,1.25-2.342,3.358-1.679,4.893-.542,3.594,2.665,4.558,6.357,6.033,11.03" transform="translate(2387.749 737.165)" fill="#e85447" fill-rule="evenodd"/>
    <path id="Path_946" data-name="Path 946" d="M1142.053,1771.087c1.113,4.135-.863,9.044-5.106,6.131a13.936,13.936,0,0,1-3.6-4.267c-1.287-2.256-1.628-4.5-2.6-6.419l.419-.757c1.339.725,10.033,5.2,10.891,5.312" transform="translate(2387.793 739.365)" fill="#e02b21" fill-rule="evenodd"/>
    <path id="Path_947" data-name="Path 947" d="M1132.534,1741.966c-.247,1.191.321,3.01.316,4.48,0,.729-.038,1.527-.086,2.1-.1,1.194.182,1.109-.977,1.485l-3.218.907c.061-2.557.045-5.24.087-7.85.041-2.693-.1-5.261.024-7.8-.643-.613.271-.362-.518-.006.156-.518-.334.009.312-.716,1.194.859,1.554,1.989,2.189,3.481.382.9,1.081,3.407,1.871,3.917" transform="translate(2386.697 726.273)" fill="#b3d912" fill-rule="evenodd"/>
    <path id="Path_948" data-name="Path 948" d="M1118.369,1739.165c-.907.092-.291-.448-.458.237,3.643,3.83,7.345,8.606,10.617,11.555l-3.05,1.444-1.049.474c-.629-1.153-1.814-1.909-2.571-2.812-1.043-1.242-1.2-2.312-2.368-3.069.2-.575.321.272-.047-1.109-.054-.207-.3-.791-.4-1.023-.625-1.576-1.854-4.724-1.693-6.087Z" transform="translate(2382.17 728.038)" fill="#b3d912" fill-rule="evenodd"/>
    <path id="Path_949" data-name="Path 949" d="M1138.8,1736.951l.226,1.756c-.17.383-.108.253-.159.823l-.047,1.9a18.64,18.64,0,0,1-.274,2.645,17.976,17.976,0,0,1-1.634,4.754l-4.574.686c.18-1.407,4.957-12.824,5.834-14.357-.578-.187.458-.818-.862.07.372-.6.067-.307.918-.779Z" transform="translate(2388.461 726.222)" fill="#b3d912" fill-rule="evenodd"/>
    <path id="Path_950" data-name="Path 950" d="M1125.073,1751.743l-3.268,2.165a29.48,29.48,0,0,0-2.928-1.644,14.412,14.412,0,0,1-2.7-2.083,23.81,23.81,0,0,1-4.628-5.845c2.649.457,12.365,6.48,14.215,6.362Z" transform="translate(2379.741 730.371)" fill="#b3d912" fill-rule="evenodd"/>
    <path id="Path_951" data-name="Path 951" d="M1118.733,1743.943a1.728,1.728,0,0,0,.6.274l.2.065,2.383.571c1.17.757,1.324,1.827,2.368,3.069.757.9,1.942,1.659,2.571,2.812l1.049-.474-2.833,1.675.691-1.045c-1.85.118-11.566-5.905-14.215-6.362,1-1.336,5.787-.121,7.184-.585" transform="translate(2379.741 730.179)" fill="#75a603" fill-rule="evenodd"/>
    <path id="Path_952" data-name="Path 952" d="M1133.018,1749.419l-2.312.568c1.158-.376.874-.291.977-1.485.048-.571.084-1.368.086-2.1,0-1.471-.563-3.289-.316-4.48.962-1.695,4.672-5.887,6.538-6.792,1.32-.887.284-.257.862-.07-.877,1.533-5.654,12.95-5.834,14.357" transform="translate(2387.777 726.315)" fill="#75a603" fill-rule="evenodd"/>
  </g>
</svg>
