<svg xmlns="http://www.w3.org/2000/svg" width="27.225" height="25" viewBox="0 0 27.225 25">
  <g id="Group_113" data-name="Group 113" transform="translate(-3605.676 -162.979)">
    <path id="Path_758" data-name="Path 758" d="M1048.16,114.959a3.831,3.831,0,0,1,1.876-.547,4.53,4.53,0,0,1,.7-1.136,10.214,10.214,0,0,1,.891-.95l.547-.342a11.14,11.14,0,0,1,1.41,1.565c-.588.388-1.179.773-1.767,1.16.223.166.5.288.724.462.87.678.8-.22,2.812.778a3.891,3.891,0,0,1,2.236,2.65c.2,1.416-.5-.028.525,1.687a9.14,9.14,0,0,1,1.173,6.3c-2.07,6.38-7.109,8.151-12.067,5.647a7.963,7.963,0,0,1-6.929,4.741,7.864,7.864,0,0,1-7.969-9.224,7.785,7.785,0,0,1,5.505-6.2,8.16,8.16,0,0,1,5.131.215q.373-.809.745-1.62a2.023,2.023,0,0,1-.221-2.055,4.394,4.394,0,0,1,2.722-2.44c.4-.119.87-.073,1.145-.153s.479-.394.808-.538m3.95-2.612c-1.007.973-1.983,1.852-1.983,3.282l.666.012a4.322,4.322,0,0,1,2.342-2.14C1052.983,113.311,1052.261,112.537,1052.109,112.347Zm-2.606,3.312c.071-.1.009.028.112-.185.053-.172.106-.344.157-.516l-1.782.653.345.359Zm2.053-.467c-.084.2-.166.41-.25.616.583.134.573.071.953-.26Q1051.907,115.371,1051.557,115.191Zm1.535,4.125c1.449,1.344,5.029,1.191,3.772-1.279a3.922,3.922,0,0,0-4.607-1.879,3.381,3.381,0,0,1,1,1.344A2.552,2.552,0,0,1,1053.091,119.316Zm-8.987-1.342c-1.174,2.156,1.317,2.652,2.6,1.527a4.308,4.308,0,0,1-.006-1.974c.313-.707.845-.864,1.151-1.342A3.323,3.323,0,0,0,1044.1,117.974Zm6.385-1.815a3.223,3.223,0,0,0-3.343,1.632c-1.257,2.88,4.486,3.9,5.581,1.069C1053.346,117.26,1051.818,116.322,1050.49,116.159Zm-2.643,12.647a16.464,16.464,0,0,1-.439,2.935,7.951,7.951,0,0,0,9.5-1.974c2.971-3.594,2.2-6.951.318-9.8-1.21,1.443-3.149.4-4.363-.193-1.7.986-3.159,1.811-5.85.2a3.6,3.6,0,0,1-2.855.47q-.377.794-.751,1.588A7.8,7.8,0,0,1,1047.847,128.806Zm-.516.738a7.312,7.312,0,1,0-4.6,6.4,7.2,7.2,0,0,0,2.256-1.433A7.056,7.056,0,0,0,1047.331,129.544Z" transform="translate(2573.459 50.995)" fill="#fff" fill-rule="evenodd"/>
    <path id="Path_764" data-name="Path 764" d="M1039.056,119.338l2.569.412a4.541,4.541,0,0,1,2.717,3.157,11.342,11.342,0,0,1,.845,2.185c.485,2.652-1.171,3.39-2.036,4.418a4.165,4.165,0,0,1-4.777,1.324c-.434-.145-.748-.192-1.2-.312-2.074-.556-2.957-2.094-3.313-4.071-.087-.473-.265-.657-.372-1.147a4.074,4.074,0,0,1,.879-3.337l.649-.862a4.325,4.325,0,0,1,4.04-1.766m1.182.717a5.029,5.029,0,0,0-3.077-.009,3.724,3.724,0,0,0-1.908,1.64,14.634,14.634,0,0,1,2.214,1.515c.7.608,1.366,1.489,1.779,1.9Zm3.657,3.143a3.711,3.711,0,0,0-3.339-3.113c-.214,3.3-.031,2.193-.968,5.151Zm-4.927,2.135a11.064,11.064,0,0,0-2.737-2.679l-1.167-.671c-1.3.913-1.414,3.482-.764,4.027C1034.9,126.513,1038.453,125.668,1038.968,125.333Zm1.073.085-.172.094c-.018.2-.027-.007.087.088l3.271,3.028c2.169-.965,1.547-3.783.823-5.083C1043.053,124.054,1041.452,125.283,1040.041,125.418Zm-2.014,4.744a7.174,7.174,0,0,0,.8-1.956l.3-2.518c-.67.1-1.458.4-2.187.537l-2.582.17A4,4,0,0,0,1038.027,130.162Zm4.96-1.269c-.531-1.184-2.778-2.332-3.563-3.2a9.321,9.321,0,0,1-1.126,4.6A3.71,3.71,0,0,0,1042.987,128.893Z" transform="translate(2573.959 54.926)" fill="#fff" fill-rule="evenodd"/>
    <path id="Path_765" data-name="Path 765" d="M1046.591,127.952a1.973,1.973,0,0,1,.5-.457c3.055-2.329,3.587-5.362,3.008-9.02,1.1,2.958,1.205,8.113-3.509,9.477" transform="translate(2580.423 54.257)" fill="#fff" fill-rule="evenodd"/>
    <path id="Path_761" data-name="Path 761" d="M1049.719,117.864c-1.106-2.119-1.141-1.8-3.147-2.991a3.148,3.148,0,0,1,3.147,2.991" transform="translate(2580.415 52.374)" fill="#fff" fill-rule="evenodd"/>
    <path id="Path_762" data-name="Path 762" d="M1043.257,118.233a1.507,1.507,0,0,1-.562-1.885c.315-.727.85-.9,1.54-1.279-.092.141-.023.065-.138.18a3.164,3.164,0,0,0-1.006,1.136c-.412.835-.084,1.155.166,1.848" transform="translate(2578.362 52.469)" fill="#fff" fill-rule="evenodd"/>
    <path id="Path_766" data-name="Path 766" d="M1037.493,123.637l.359-3.559c.122.786.321,2.534-.2,3.371-.1.158-.061.085-.162.187" transform="translate(2575.944 54.87)" fill="#fff" fill-rule="evenodd"/>
    <path id="Path_763" data-name="Path 763" d="M1042.828,115.044c-1.948,1.082-1.259.474-2.362,2.778.074-.967.541-2.745,2.362-2.778" transform="translate(2577.376 52.453)" fill="#fff" fill-rule="evenodd"/>
    <path id="Path_770" data-name="Path 770" d="M1037.66,127.732c.024-.466.192-1.042.236-1.577.051-.6.067-1.2.122-1.8a4.345,4.345,0,0,1-.358,3.373" transform="translate(2576.023 57.044)" fill="#fff" fill-rule="evenodd"/>
    <path id="Path_771" data-name="Path 771" d="M1041.291,125.565a11.536,11.536,0,0,0-2.124-1.475l-.362-.223a3.452,3.452,0,0,1,2.486,1.7" transform="translate(2576.59 56.625)" fill="#fff" fill-rule="evenodd"/>
    <path id="Path_772" data-name="Path 772" d="M1037.827,124.242a3.77,3.77,0,0,1-2.886.778l1.52-.341c.483-.133.9-.318,1.366-.437" transform="translate(2574.602 56.777)" fill="#fff" fill-rule="evenodd"/>
    <path id="Path_767" data-name="Path 767" d="M1041.081,122.008c-.042.105.044.007-.079.135a6.247,6.247,0,0,1-2.691,1.293c.458-.067,2.363-1.383,2.771-1.428" transform="translate(2576.358 55.738)" fill="#fff" fill-rule="evenodd"/>
    <path id="Path_768" data-name="Path 768" d="M1037.271,123.687l-2.339-1.79a4.984,4.984,0,0,1,2.339,1.79" transform="translate(2574.598 55.694)" fill="#fff" fill-rule="evenodd"/>
    <path id="Path_769" data-name="Path 769" d="M1040.277,122.06c.132-.2-.339-.152.266-.175Z" transform="translate(2577.228 55.652)" fill="#fff" fill-rule="evenodd"/>
  </g>
</svg>
