<svg xmlns="http://www.w3.org/2000/svg" width="25.467" height="25" viewBox="0 0 25.467 25">
  <g id="Group_112" data-name="Group 112" transform="translate(-3437.236 -160.23)">
    <path id="Path_756" data-name="Path 756" d="M917.357,128.856c-.212-.635.85-1.477,1.163-1.163s-.526,1.383-1.163,1.163m8.087-3.685c.365.38-.795,1.445-1.12,1.116C923.968,125.927,925.03,124.735,925.444,125.17Zm-5.939,5.8c-.064-.676,1.056-1.539,1.268-.986C920.888,130.284,920.067,131.4,919.5,130.969Zm.473-10.578c.37.367-.772,1.51-1.139,1.139C918.491,121.177,919.6,120.018,919.977,120.391Zm6.484,8.849a.909.909,0,0,1,.36-.885c.114-.114.564-.559.825-.3C927.986,128.382,927.135,129.4,926.461,129.24Zm-3.684-6.735c.446.181.079.636-.1.816-.145.148-.479.605-.837.451C921.227,123.509,922.471,122.382,922.777,122.5Zm.406,7.816c-.167-.664.885-1.477,1.185-1.19C924.685,129.433,923.869,130.543,923.183,130.321Zm-1.332-3.761a1.134,1.134,0,0,1-1.217,1.216C920.445,127.112,921.449,126.314,921.85,126.56Zm-2.611-2.547c.414.3-.68,1.451-1.077,1.219s.078-.678.227-.84S918.913,123.78,919.24,124.013Zm-1.543,6.535c.594.292-.538,1.411-.949,1.268C916.114,131.6,917.3,130.354,917.7,130.548Zm1.579-14.69a3.926,3.926,0,0,1,.683-.554c2.215-1.449,3.507-1.262,5.912-.96l-.883-.887c-.591-.594-1.9-2.8-1.8-3.408a31.1,31.1,0,0,1,5.179,2.158c2,1.173,2.471,2.437,3.484,3.845a11.778,11.778,0,0,1,1.976-1.107,7.526,7.526,0,0,1,2.4-.613c.252.146.148.366-.165.441a9.387,9.387,0,0,0-1.783.487,8.391,8.391,0,0,0-1.993,1.087c3.636,2.1,3.94,1.894,5.625,5.574.19.416.4.814.6,1.25l.467.993c.023.086.174.289-.237.348-.094.013-2.5-.986-2.6-1.03A14.483,14.483,0,0,1,933.786,122c1.023,2.448,1.747,4.534-.227,7.039-.406.514-.2.216-.472.494a2.817,2.817,0,0,1-.445.449c-2.593,1.974-4.005,2.548-7.631,3.373-.6.137-4.048.881-4.46,1.1a4.726,4.726,0,0,1-6.964-4.7c.151-1.357.536-1.308.9-2.736.8-3.124,1.17-5.607,2.686-8.383.235-.429.461-.729.72-1.134A8.445,8.445,0,0,1,919.276,115.858Zm12.2.487a9.329,9.329,0,0,0-3.1-3.594,31.544,31.544,0,0,0-4.531-2.025,10.6,10.6,0,0,0,1.314,2.217l.857.926a12.147,12.147,0,0,0,1.708,1.18c.461.281.547.212.6.528a22.953,22.953,0,0,0-5.527,1.543c-.555.232-.989.535-1.5.776l3.463,1.073c1.468.373,3.709.188,4.19.351-.406,1.814-.938,3.068-.242,4.986a32.275,32.275,0,0,0,2.193,3.78,22.455,22.455,0,0,0,1.471-3.177,5.664,5.664,0,0,0,.18-2.043,8.886,8.886,0,0,1-.1-2.134c.3-.1.165-.145.459.051.116.078.206.165.31.244a15.3,15.3,0,0,0,5.094,2.835,28.991,28.991,0,0,0-2.339-4.489,16.389,16.389,0,0,0-4.122-2.7l-.769.621c-.444.355-.541.652-.783.4.1-.434.024-.365.45-.727C930.98,116.775,931.27,116.556,931.471,116.346ZM932.9,121.4c.242,3.371.207,3.2-1.072,5.91a4.627,4.627,0,0,1-.926,1.5c-.235-.106-.391-.506-.636-.893-1.794-2.853-2.925-4.617-1.792-8.176a23.423,23.423,0,0,1-4.367-.438,27.554,27.554,0,0,1-3.593-1.2c.017-.474.637-.645,1.354-1.03a17.211,17.211,0,0,1,5.44-1.705,7.986,7.986,0,0,0-3.417-.8c-3.666-.03-5.674,2.629-7.086,5.9-.968,2.239-1.818,6.888-2.1,7.519-.112.247-.249.451-.372.729a4.384,4.384,0,0,0,.135,3.531,4.7,4.7,0,0,0,.948,1.245,4.221,4.221,0,0,0,4.842.6c.94-.489,5.932-1.2,8.543-2.324,3.326-1.431,6.186-3.576,5.4-7.305A9.058,9.058,0,0,0,932.9,121.4Z" transform="translate(2523.678 50.183)" fill="#fff" fill-rule="evenodd"/>
  </g>
</svg>
