<svg xmlns="http://www.w3.org/2000/svg" width="26.772" height="25" viewBox="0 0 26.772 25">
  <g id="Group_105" data-name="Group 105" transform="translate(-2442.657 -161.369)">
    <path id="Path_754" data-name="Path 754" d="M218.95,119.553l.169.5,1.357.207a1.807,1.807,0,0,0-1.505-.921Zm9.869-4.2-.184-.421-.533-.085-.133,1.677c.186-.16.126-.058.295-.275l.331-.6A1.025,1.025,0,0,1,228.82,115.357Zm-.256,1.907c.774-.43.708-.618.878-1.462C228.6,115.708,228.594,116.39,228.564,117.264Zm3.66,6.267c-.2-.395-.011-.211-.393-.512l-1,.018c.086.542.7.778,1.292.827Zm-2.883,4.183a9.176,9.176,0,0,1,.658,1.057c.547-.107.127.219.5-.174-.016-.795-.438-.937-1.1-1.158Zm1.9-2c.118-.957-.634-.867-1.514-.725C230.065,125.292,230.627,125.925,231.238,125.715Zm-4.394-9.137a1.608,1.608,0,0,0,.142-1.7C226.041,114.872,226.562,116.108,226.843,116.579Zm9.1-.989c2.305,1.774,2.922,5.786,2.979,7.863l.014.44c-.108,3.192-.263,4.729-2.257,7.5-3.475,4.827-10.841,4.485-15.812,2.851,6.708-.611,8.916-.448,12.671-5.344C238.346,120.677,236.155,119.869,235.943,115.59Zm-.459,8-.516,1.329-.125.4a24.355,24.355,0,0,1-1.631,2.807,9.715,9.715,0,0,1-2.011,2.43c-2.357,2.34-7.063,3.293-10.238,2.834a7.964,7.964,0,0,1-5.8-3.634c-6.416-9.138,7.256-22.232,17-17.268,3.133,1.567,4.3,5.344,3.785,9.157l-.248,1.138Zm2.486-6.687a13.151,13.151,0,0,0-3.022-3.312c-3.235-2.319-5.452-3.138-9.622-2.567-10.772,1.474-17.72,14.924-7.2,22.468a8.808,8.808,0,0,0,4.164,1.788C236.55,138.344,243.056,128.595,237.97,116.9Zm-18.428,8.134c.316-.651.629-.5.14-.684-.79.067-1.463-.011-1.514.755.393.281.21.286.726.175C219.263,125.206,219.029,125.136,219.542,125.037Zm11.331-7.291c.33-.825.56-.967-.378-1.179l-.653,2.126Zm-7.976,6.993-.081-.593-1.229-1.541a13.365,13.365,0,0,1,1.638-2.068l.838.205,1.163-.119.262-.168.956-.451c.037.03.47-.5.486-.433l1.156,1.108a2.861,2.861,0,0,1,.253.388c.015.066.16.192.164.195.79.415,1.168.43-.382.492-1.171.315-1.02,1.856-.847,3.34-.147.084.13.177-.385,0a1.221,1.221,0,0,1-.482-.284H226.2a3.281,3.281,0,0,0-1.248-.045c-.136.025-1.529,0-1.689.015C222.909,124.818,223.026,124.81,222.9,124.739Zm2.54-6.237c-.123.338-.256.605-.445,1.01-.952.056-2.027-.473-2.508.475a6.293,6.293,0,0,0-1.16,1.362,1.343,1.343,0,0,0,0,2.2c.216.221.281.259.473.448-.215.97-.4.762-.169,1.829l.749.322c.6.086.505.158.951-.147l1.057-.316.755.021,2.462.968-.033.042c1.181.018,1.615-.564,1.015-1.707-.577-1.1-.744-1.011-.03-1.859.853-.277,1.675-.36,1.711-1.238.042-1.042-.93-1.162-1.029-1.623l-.755-.308c-.316-.329-.129-.04-.356-.475-.4-.493-.316-1-.962-1.286C226.408,117.879,225.83,118.373,225.436,118.5Zm2.764,11.46a3.278,3.278,0,0,0-.218-1.544l-.342-.51c-.3,1.351-.358.33-.082,2.227C227.954,130.289,227.921,130.259,228.2,129.962Zm-4.566-13.954c-.34-.3-.077-.167-.573-.352a2.042,2.042,0,0,0,.562,2.418Zm-2.493,0a1.425,1.425,0,0,0,.493,1.231,3.16,3.16,0,0,0,.866.679,4.924,4.924,0,0,0-.747-1.994C221.276,115.831,221.667,115.723,221.142,116.008Zm.048,3.107c-.329-.184-.049.025-.384-.289-.279-.262-.005-.092-.307-.3a1.572,1.572,0,0,0-.812-.238c-.107,1.256.574,1.347,1.855,1.4C221.348,119.24,221.483,119.486,221.19,119.114Zm.034-.412.941.366a2.983,2.983,0,0,0-.708-1.194c-.312-.275-.436-.071-.87-1.183a2.21,2.21,0,0,0-.527,0c-.2.684.026.741.468,1.051C221.163,118.184,220.754,118.081,221.224,118.7Zm3.009-3.455a10.837,10.837,0,0,1,.063,1.431c-.145,1.023,0,.7.24,1.54l.359-.355a18.114,18.114,0,0,0-.088-2.762Zm-1.574,13.082a4.154,4.154,0,0,0-.353,1.141c1.163.234.819-.8,1.32-1.627a2.18,2.18,0,0,0,.321-.61l-.011-.708c-.427.431-1,.688-.912,1.63C222.9,128.284,222.834,128.217,222.66,128.329Zm-5.86-6.155c.464-.021,1.278-.3,1.46-.273.389.064-.032.184.647.181a3.387,3.387,0,0,0,.823-.205.581.581,0,0,0,.036-.066l.127-.225c-1.948-.4-1.051-.085-1.855-.141-.76-.053-.8-.285-1.723-.148Zm8.282,5.611.11,1.068c1,.014-.262-.47,1.118.134.792-.782.158-1.11.088-1.993-.437.093-.382.526-.5,1.034l-.4-.818Zm-5.55-.258c-.177.663-.17-.251-.641,1.247.208.1-.3.166.332.1.253-.026.229-.044.392-.188.51-.455-.086-.359.586-.456.905-.133.616-.162,1.038-1l.037-.6C219.434,128.008,220.641,126.913,219.531,127.528Zm12.335-7.9-.667.389.586.29,1.618-.129-.863-.957Z" transform="translate(2229.742 50.519)" fill="#fff" fill-rule="evenodd"/>
  </g>
</svg>
