<svg xmlns="http://www.w3.org/2000/svg" width="19.989" height="25" viewBox="0 0 19.989 25">
  <g id="Group_111" data-name="Group 111" transform="translate(-3256.903 -159.902)">
    <path id="Path_753" data-name="Path 753" d="M797.782,127.258c-.276-1.7,1.2.2-.288-3.78,2.106-.116,1.688,3.166,1,3.7-.816.64-.6.108-.716.076m2.75-1.125c-.627,5.906-10.307,5.137-9.31-1.448C792.09,118.95,801.213,119.724,800.532,126.133Zm-3.829-4.34c-4.66-1.319-6.754,6.1-1.866,7.4C799.539,130.448,802.084,123.317,796.7,121.793Zm9.674-10.908a8.26,8.26,0,0,0-1.462,2.009,3.2,3.2,0,0,1,1.5,2.047c.3,1.4-.276,2.168-.167,3.249-.165.214-.048-.026-.269.446-.01.019-.173.471-.174.475-.977,3.217-.274,5.358-.589,7.973-.971,8.053-12.763,10.612-17.089,3.829-3.2-5.015-1.278-11.357,2.808-13.61,2.3-1.267,4.53-1.577,6.687-3.066,4.128-2.845,3.056-2.9,6.767-1.93.865-1.557,1.15-2.646,2.122-2.473Zm-3.3,1.908c-1.619-.557-2.455.314-3.523,1.1-5.608,4.112-7.066,2.862-9.588,5.147a9.072,9.072,0,0,0-2.487,7.517c1.148,10.129,14.329,8.913,16.557,1.989.873-2.718.019-5.993.816-9.146C805.674,116.145,806.357,113.921,803.075,112.793Z" transform="translate(2470.383 50.086)" fill="#fff" fill-rule="evenodd"/>
  </g>
</svg>
