<svg xmlns="http://www.w3.org/2000/svg" width="17.979" height="25" viewBox="0 0 17.979 25">
  <g id="Group_107" data-name="Group 107" transform="translate(-2580.889 -160.209)">
    <path id="Path_755" data-name="Path 755" d="M319.54,114.7l.364-.121-.531-.265Zm.752-3.739-.021.077a12.341,12.341,0,0,1,3.086-.744,2.461,2.461,0,0,1,2.067,1.475c.61,1.206.662,4.941.608,6.461.168.257.123.114.142.4l-.211-.338c-.234-.3-.455-.731-.685-1.095-.858-1.354-3.6-5.079-5.094-5.765-1.165-.537-.42-.037-.874-.864q-.134,1.77-.268,3.54c-3.509.5-2.973,1.722-4.558,5.147a11.986,11.986,0,0,1-1.654,3.146,11.935,11.935,0,0,0-1.938,2.863,7.581,7.581,0,0,0,.885,7.491c1.751,2.177,3.459,2.463,7.085,2.094,1.529-.155,2.606.438,4.39.03a6.352,6.352,0,0,0,4.524-8.748c-.789-2.115-2.063-2.806-3.036-6.569a16.659,16.659,0,0,0-1.177-3.619c-1.018-1.854-2.027-1.559-3.123-1.556l-.535.188-.364.121-.244.149-.917.286c1.593.079,4.15-2.06,5.468,3.04a22.6,22.6,0,0,0,1.085,3.6c.526,1.187,1.061,2.052,1.665,3.135,2.188,3.924.525,7.909-2.746,9.2-1.774.7-2.424.289-4.112.059-.9-.124-4.622,1.421-7.105-1.356a6.985,6.985,0,0,1-.934-7.314c.923-2.085,2.466-2.752,3.463-6.024.433-1.419.782-4.132,2.218-4.869.33-.168,1.617-.641,1.814-.159.244-.394-.137-.163.4-.3-.414-.033-.312.068-.377-.468a9.906,9.906,0,0,1,.14-2.368l2.125,1.8c.594.591,3.052,3.593,3.634,4.364.452.6,1.166,1.83,1.61,2.271l.878-4.806a4.14,4.14,0,0,0-1.881-3.675l-.557-.47a2.485,2.485,0,0,0-2.088-.761C321.829,110.1,321.228,110.7,320.292,110.963Zm5.535.564a4.079,4.079,0,0,1,1.367,3.07c.068,1.538-.569,2.662-.559,3.885l-.006.761-.25-.289c-.129-2.9.415-4.688-.708-7.406l-.048-.063-.013-.068Z" transform="translate(2270.595 50.177)" fill="#fff" fill-rule="evenodd"/>
  </g>
</svg>
