<svg xmlns="http://www.w3.org/2000/svg" width="16.769" height="25" viewBox="0 0 16.769 25">
  <g id="Group_108" data-name="Group 108" transform="translate(-2724.931 -159.262)">
    <path id="Path_751" data-name="Path 751" d="M424.6,116.387l-.011,0-.16-.061a1.769,1.769,0,0,1-.668-.31,1.352,1.352,0,0,1-.744-1.164,9.429,9.429,0,0,0,1.182-.677c.142-.1,1.044-.725.868-.885-.134-.122-.328.085-.48.23a3.407,3.407,0,0,1-.433.347,8.809,8.809,0,0,1-.948.576c-.843.444-1.326-.571-1.475-1.28a3.375,3.375,0,0,1,.557-2.353l.318.564.979-.9a6.361,6.361,0,0,1,1.075-.792l.372.7c.116.259.186.539.3.781a6.16,6.16,0,0,1,2.185-.056l-.073.55a3.34,3.34,0,0,1-.237.916c-.328.778-.409.545.146.927.118.082.187.138.315.243l.538.5a7.345,7.345,0,0,1-1.016.836,5.4,5.4,0,0,1-.568.361c-.23.128-.488.229-.57.382.149.149.3.3.448.451a2.715,2.715,0,0,1-1.329.2Zm-4.773-1.7.086.063a2.1,2.1,0,0,0,.782.373,3.828,3.828,0,0,0,2.023-.178c.281.905.1.44.493.96.077.066.085.1.171.175s.1.051.182.16c.1.02.016-.051.114.052a1.425,1.425,0,0,0,.208.107.878.878,0,0,0,.407.144c.093.092.193.078.333.118l.958.049a4.181,4.181,0,0,0,.687-.1c.117-.026.221-.056.324-.086.409-.119.4-.217.129-.439-.052-.043-.092-.063-.151-.11l-.128-.126a13.45,13.45,0,0,0,1.629-1.121l.457-.479a2.622,2.622,0,0,0-.565-.632l-.7-.521a8.247,8.247,0,0,0,.351-.917l.161-.757.015-.518a4.786,4.786,0,0,0-2.282-.023c-.049-.24-.162-.423-.224-.65-.1-.074-.334-.707-.555-.867a5.576,5.576,0,0,0-.926.573l-.186.148a2.949,2.949,0,0,0-.488.445c-.021.026-.233.2-.447.45-.156-.188-.169-.493-.372-.588l-.608.92a3.588,3.588,0,0,0-.211,2.005,2.116,2.116,0,0,0,.939,1.412l-1.384.184a2.137,2.137,0,0,1-1.1-.458c-.055-.048-.1-.1-.154-.143Zm-4.212-1.214a2.931,2.931,0,0,1-.42,1.638c-.278.42-.71.691-1.213.245C413.08,114.549,414.827,113.609,415.62,113.472Zm2.048,7.077a2.152,2.152,0,0,0-1.256.487c-.633.536-.315.444-.971-.058-.479-.366-.769-.154-.973-.772a1.771,1.771,0,0,1,2.554-2.1C418.193,118.79,417.172,118.623,417.668,120.548Zm4.785,1.058a1.617,1.617,0,0,1,.541,1.239,1.787,1.787,0,0,1-.494,1.237c-.621.607-2.044.835-2.512-.066-.24-.05-.076-.035-.039-.2.006-.029.082-.2.107-.274a3.2,3.2,0,0,0-.149-1.84,1.581,1.581,0,0,1,1.2-.617A1.6,1.6,0,0,1,422.453,121.606Zm2.141-.464a1.759,1.759,0,0,1,2.124,1.267,1.8,1.8,0,0,1-1.283,2.166,1.76,1.76,0,0,1-1.448-.267c-.6-.453-.586-.6-.495-1.062.125-.643-.191-1.05.045-1.393A1.693,1.693,0,0,1,424.594,121.142Zm-7.177.025a1.754,1.754,0,0,1,1.034,3.349c-.961.365-2.242-.285-2.121-1.107a12.125,12.125,0,0,1,.058-1.551A1.521,1.521,0,0,1,417.417,121.167Zm-1.627,2.211a1.777,1.777,0,0,1-3.382-1.091A1.777,1.777,0,0,1,415.79,123.379Zm.144.97c.286.082.372.265.6.413l.7.346a3.88,3.88,0,0,0-.147,1.3c.081.536.219.685-.163,1a1.854,1.854,0,0,1-2.2.148c-.941-.709-1.047-2.227-.3-2.421a3.009,3.009,0,0,0,.6-.157A5.806,5.806,0,0,0,415.935,124.349Zm7.157-.026a5.313,5.313,0,0,0,1.046.679c.305.112.7.057.749.976a1.762,1.762,0,0,1-2.933,1.431c-.713-.718-.1-.183-.352-1.943-.061-.419.023-.308.4-.434C422.671,124.81,422.724,124.476,423.091,124.322Zm-3.613.111.106.074c1.226.892,1.243.392,1.465.986a1.767,1.767,0,0,1-1.762,2.369,1.786,1.786,0,0,1-1.52-2.5C418.023,124.921,418.9,125.31,419.478,124.433Zm-1.917,3.1,1.681.87a4.908,4.908,0,0,0-.032,1.237,1.058,1.058,0,0,1-.459.893,1.787,1.787,0,0,1-2.842-1.848C416.1,128.051,416.637,128.6,417.562,127.528Zm3.7-.033a2.45,2.45,0,0,0,1,.749c.664.262.911-.094.964.772a1.769,1.769,0,0,1-3.52.346c-.1-.861.18-1,.543-1.137a1.983,1.983,0,0,0,.545-.293Zm4.061-8c.021.3-.041.94-.423,1.048l-.638.091-.716.375c-.063.141-.284.434-.582.295s-.094-.2-.666-.471c-.373-.324-.348-.284-.23-.75a2.3,2.3,0,0,0-.029-1.118C421.411,118.047,425.14,116.949,425.325,119.494Zm-5.688-2.152-.369.029-.089-1.957c-.069-.561-.222-1.19-.255-1.682a3.982,3.982,0,0,0,.994,1.017l-.072-.762c-1.879-1.864-1.376-3.7-2.2-3.286l.406,1.943.445,1.707a13.012,13.012,0,0,0-2.406-1.487,4.151,4.151,0,0,0-3.64-2.5l-.029.369c1.365.265,2.63.42,3.112,2.186a4.352,4.352,0,0,0-1.855.97c-1.941,1.99,2.524,4,2.485-.481l2.056,1.224c.607.482.536,1.8.509,2.582-.035.33.025.3-.185.459l-.308.247-.211.28c-2.081-1.776-4.3-.426-4.005,2.346-1.137.324-1.223.225-1.8.921,0,.006-.026.042-.03.032s-.019.021-.03.03a2.464,2.464,0,0,0-.153,2.355c.357.749.97.949,1.61,1.27a2.342,2.342,0,0,0,.129,2.168l1.689,1.07-.123.317a2.751,2.751,0,0,0,.488,1.885c.438.582.692.526,1.391.879a2.308,2.308,0,0,0,2.752,2.839c2.163-.459,1.192-2.585,1.917-2.877a3.588,3.588,0,0,0,.788-.28,2.607,2.607,0,0,0,.707-.662,3.23,3.23,0,0,0,.29-2.148,3.5,3.5,0,0,0,1.62-3.137c.149-.177,1.477-.193,1.931-1.609a2.306,2.306,0,0,0-1.536-2.932c.781-3.389-2.617-4.278-4-2.388A2.163,2.163,0,0,0,419.637,117.342Zm1.687,3.186-.4.03a1.9,1.9,0,0,0-1.317.706l-.416-.313c-.642-.322-1.058-.254-1.156-1.072C417.655,116.69,422.991,117.686,421.324,120.528Zm-1.814,9.923,1.574,1a1.77,1.77,0,0,1-2.7,2.036,1.682,1.682,0,0,1-.63-1.967C417.94,131.335,419.039,131.377,419.509,130.451Z" transform="translate(2313.165 49.897)" fill="#fff" fill-rule="evenodd"/>
  </g>
</svg>
