<svg xmlns="http://www.w3.org/2000/svg" width="47.27" height="38.497" viewBox="0 0 47.27 38.497">
  <path id="Path_1000" data-name="Path 1000" d="M1143.974,2637.563l-.17-.062c-.055-.011-.138-.021-.179-.027a27.372,27.372,0,0,1-9.748-3.522c-.706-.417-1.422-.887-2.063-1.352a28.207,28.207,0,0,1-4.5-4.06,8.551,8.551,0,0,0-.795-.9l-.288.548a9.794,9.794,0,0,0-.409,7.712,8.754,8.754,0,0,0,.525,1.167c.223.41.416.7.643,1.055.115.153.192.272.309.415.075.091.106.139.165.2.1.11.115.082.143.208a2.44,2.44,0,0,1,.453.441,12.22,12.22,0,0,0,1.422,1.192l-2.354-.372a12.732,12.732,0,0,1-1.982-.811l.018.9a10.1,10.1,0,0,0,.84,3.234,9.853,9.853,0,0,0,3.888,4.338,9.72,9.72,0,0,0,2.142.944l.779.223-.084.041a11.324,11.324,0,0,1-1.948.284,14.877,14.877,0,0,1-2.219-.155l1.307,2.65a9.391,9.391,0,0,0,1.912,2.015,9.563,9.563,0,0,0,5.786,2.076,17.789,17.789,0,0,1-2.8,1.851,19.594,19.594,0,0,1-11.488,2.175,19.79,19.79,0,0,0,3.036,1.716,28.237,28.237,0,0,0,26.464-1.373,28.265,28.265,0,0,0,12.776-20.377c.088-.7.155-1.444.183-2.175.027-.636-.024-1.958.007-2.344.62-.49,1.109-.856,1.7-1.38a18.938,18.938,0,0,0,2.087-2.21,11.872,11.872,0,0,0,1.018-1.418,21.1,21.1,0,0,1-2.608.925,15.943,15.943,0,0,1-2.858.551,9.853,9.853,0,0,0,2.527-2.237,9.507,9.507,0,0,0,1.651-3.086,23.1,23.1,0,0,1-2.876,1.383,16.327,16.327,0,0,1-3.3.936l-2.244-1.763a9.727,9.727,0,0,0-2.909-1.093,9.826,9.826,0,0,0-6.628,1.02,9.693,9.693,0,0,0-5.005,8.953c.021.666.166,1.168.223,1.763Z" transform="translate(-1123.29 -2625.85)" fill-rule="evenodd"/>
</svg>
